/* XPM */
static char * image_name[] = {
"56 46 21 1",
" 	c #FFFFFFFFFFFF",
".	c #BEFBBAEABEFB",
"X	c #000000000000",
"o	c #BEFBB6DABEFB",
"O	c #AEBAAAAAAEBA",
"+	c #AEBAA699AEBA",
"@	c #C71BBAEAC71B",
"#	c #9E799A699E79",
"$	c #69A68617BEFB",
"%	c #F7DEB2CAAEBA",
"&	c #AEBAAEBAAEBA",
"*	c #082004100820",
"=	c #71C679E78617",
"-	c #CF3CC71BCF3C",
";	c #AEBAAEBAB6DA",
":	c #B6DAAEBAB6DA",
">	c #A6999E79A699",
",	c #79E79248B6DA",
"<	c #000000001040",
"1	c #000000001861",
"2	c #96589658AEBA",
"                                                       .",
" ......................................................X",
" ......................................................X",
" ...o..o..o..o..o..o..o..o..o..o..o..o..o..o..o..o..o..X",
" O...O...+...O...O.......O...O...+...O...O...+...O...O.X",
" ..o..@o.....@o..+#####+..@o.@o...@o..@o..@o...@o..@o..X",
" O.O.O.O.+.+.O.O#$$X$$XX$O.O.O.O.O.O.O.O.O.O.O.O.O.O.O.X",
" ..@o.O.......O$#XX.OXX#$X$...O.o.....O..o....O...o...OX",
" O.O.O.+.+.+.OX#$$.%@$$X#$XX.+.O.O.+.+.O.O.+.+.+.O.OoO.X",
" ...O...O...OX#$$O   O$$##$XX...Oo..O...+...O...O...O..X",
" O.+.+.O.+.O$X$. %.%&  .$XX$X$.+.O.+.OoO.O.+.O.+.+.O.O.X",
" .O...+.O.O.X$.  @..&  %.XXX$XO.O.O...O.O.+...O.O.+.. OX",
" O.O.O.O.+.$X$.  ....  ..XXX$X$O.O.+.O.O.O.OoO.+.O.O X.X",
" .+.O.+.O.OX$#$O&    .O#$##$XXX.+.O.+.O.+.O.O.O.O.O XXOX",
" O.O.O.O.O.X$#$$O    O##$##$XXXO.O.O.O.+.O.+.O.O.O XX..X",
" OO.OO+.OOOX$#*$$% % ##$X##$XXX.OO+.OOO.OOO.OO+.O XXX#OX",
" O.O.O.O.+.$*#XX$....=$$*#$$*XXO.O.O.+.O.O.O.O.O XX.$X.X",
" OOOOOOOOOOOX$XXX...-$*XX#$XXX$OOOOOOOOOOO+OOOO XXX#XXOX",
" O.O.+.O.O.O$*$$##XXX###XX*XXX#O.O.O.O.O.O.O.O XX.$XXX.X",
" OOOOOOOOOOOOX*$$$XXX#$$XXXXX#OOOOOOOOOOOOOOO XXX#XXX$OX",
" OOO.OOO.OOO.OXX*$XXX$$$XXXX#OOO.+OO.+OO.OOO XX.$XXX$$OX",
" OOOOOOOOOOOOOO$XXXXXX*XXX$#OOOOOOOOOOOOOOO XXX#XXXXX$OX",
" OOOOOOOOOOOOOOOO$$XXXX$$#OOO$O$O$O$O=;+OO XX.$XXXXXXXOX",
" OOOOOOOOOOOOOOOOOOOOOOOOO$#$#X#X#X#*;$#O XXX#XXX.#.XXOX",
" #OOO#OOO#OOO#OOO#OOO#OO#$#*#X#X#X#X#X#X XX.$XXX.$#$#XOX",
" OOOOOOOOOOOOOOOOOOOOOO#$#X#X#X#X#X#X#X XXX#XXX.##$#$$OX",
" OO#O#O#OOO#O#O#OOO#O#O##$#X#X#X#X#X#X XX.$XXXO#$$#$$XOX",
" OOOOOOOOOOOOOOOOOOOOOO#$#X#X#X#X#X#X XXX#XXXX$$#$$$$$OX",
" #O#O#O#O#O#O#O#O#O#O#OO#$#*#X#X#X#X XX.$XXXXX#$$#*#$*OX",
" OOOOOOOOOOOOOOOOOOOOOOO:#$#X#X#X#X XXX#XXXXXXX##$#$#XOX",
" #O#O#O#O#O#O#O#O#O#O#O#O#O$#X#X#X XX.$XXX#.#XXX##$#*XOX",
" O#OOO#OOO#OOO#OOO#OOO#OOO#OOO$OO XXX#XXX.$#$#XX*$$XXX#X",
" #O#O#O#O#O#O#O#O#O#O#O#O#O#O#O# XX.$XXX.$#$#$#XX**XX#OX",
" O#O#O#O#O#O#O#O#O#O#O#O#O#O#O# XXX#XXX#$#$#$$$#XXXXX$#X",
" #O#O#O#O#O#O#O#O#O#O#O#O#O#O# XX.$XXXX#$#$$$$$$*XX.$XOX",
" ##O###O###O###O###O###O###O# XXX#XXXXX$#$>=,$#XXXX#XX#X",
" #O#O#O#O#O#O#O#O#O#O#O#O#O# XX.$XXXXXXX$#$$=$*XX.$XX$OX",
" ########################## XXX#XXX.##XX*$>$$*XXX#XX$$#X",
" #O#O#O#O#O#O#O#O#O#O#O#O# XX.$XXX.$#$#XXX$$<*X.$XX$$#OX",
" ######################## XXX#XXX.$#$#$.XXX*XXX#X*$$###X",
" ###O###O###O###O###O### XX.$XXX$#$$#$$$$XXXX.$XX$$#O##X",
" ###################### XXX#XXXX#$$$*$#$#XXXX#XX$$#####X",
" #O#######O#######O### XX.$XXXXX$$$#$#$#*XX.$XX$$#:####X",
" #################### XXX#XXX$$X1=,$#$#XXXX#XX$$#######X",
" ################################2>####################X",
".XXXXXXXXXXXXXXXXXXXXXXXXXXXXXXXXXXXX*XXXXXXXX*X*XXXXXXX"};
