/* XPM */
static char * image_name[] = {
"56 46 32 1",
" 	c #FFFFFFFFFFFF",
".	c #BEFBB6DABEFB",
"X	c #BEFBBAEABEFB",
"o	c #082004100820",
"O	c #C71BBAEAC71B",
"+	c #F7DEB2CAAEBA",
"@	c #FFFFFBEEFFFF",
"#	c #AEBAA699AEBA",
"$	c #CF3CC71BCF3C",
"%	c #A6999E79A699",
"&	c #000000001040",
"*	c #000000001861",
"=	c #69A68617BEFB",
"-	c #9E799A699E79",
";	c #71C679E78617",
":	c #A699A699A699",
">	c #B6DAAEBAB6DA",
",	c #AEBAB2CACF3C",
"<	c #FFFFFFFFC71B",
"1	c #FFFFF3CEFFFF",
"2	c #AEBAAEBAB6DA",
"3	c #514471C68E38",
"4	c #BEFBC30BCF3C",
"5	c #38E36DB6A699",
"6	c #A699A289A699",
"7	c #965896589658",
"8	c #96589658AEBA",
"9	c #DF7DBAEA8E38",
"0	c #AEBAAAAAAEBA",
"q	c #79E79248B6DA",
"w	c #000008200820",
"e	c #A69979E78E38",
"                                                       .",
" .X...X..X...X..X...X..X...X..X...X..X...X..X...X..X...o",
" .O.O.O.O.O.O.O.O.O.+@ @@ @@@ @@ @+O.O.O.O.O.O.O.O.O.O.o",
"@X...............+ @  ++++++++++++ @@+.................o",
" #XO.#O.O#XO.#O+  @++++++++++++++++++  +O.O.O#XO.#O.O#Xo",
"@...XX...X..X.   ++++++XXXXXXXXOX$+++++ @X...X..XX.X...o",
" #O#.#X#X#.#O@@++++$X%&o*o&o*ooooo=X++++++O.X#.#.#X#X#Xo",
" ...O.%O..O.@ +++X-oo*;:-:%-:-%%-%=&=$+++++#O.%.O..O..#o",
" #X#.#.#.%.@ +++>&&;,%.#.#.%.#.%.#.#-=X+++++-.O#.#.%.#Xo",
"@O..#O..#X@ +++>*;..%o.O#...#...#..o# ++<++++-..#.O.#..o",
" #.#X#.#O1 +++>&=2$2.#o#.#O#O#.#O#o#  +++++++O=.O#.#O#Xo",
"@.#O..#.@ +++>o=#.#.O.#o#.#.o.#.#o#@ +++#&$+++#=..#X..#o",
" #.#.#O+ +++>&=#.#.#.#.#o#.#=#X#o#@ +++>&;$++++=-.O#.#Xo",
"@X#X#X.  ++>*;#.#X#.#O#.#o2;:=#o#@ +++>*342X ++#=#..#.#o",
" #.#.#+@++Oo=2.#X#.#.#.#O#o@>:o#@ +++>&=$#.#+++.=-.#O#.o",
"@##O#X@ ++=o%##X###X###.###o o-  +++>*;X###.. ++#o#.###o",
" #.#..@++Xo=.2.&=-.#X#O#-=o@::@@+++>&=$-=&.#O ++.&-#.#.o",
"@####+ ++-o-####=*5-##6==::+.@ +++>o=#=o=###>++++==####o",
" #.#O@ ++=o#.#.#X%=oo=o=:++X  +++>&=oo=7.#.#X. ++>o#.#.o",
"@###. +++*;#######>--o:  +.  +++>o=o-7#2#####X ++.o####o",
" ###. ++$&82.###.###.o:  +  +++>o;=o-###.###.. ++Oo#.##o",
" ###. ++.o%#####==oo*;9::  +++>&==&=ooo=-####. ++.o####o",
" ###O ++Oo7###=oo=7--85=  +++>o;*oo%7--=oo=##O ++Xo####o",
" ###. ++.o-=oo=---##2;X  +++>o=#2=3o###7--=o=. ++.o####o",
" -##. ++Xo-#--7-%-##%*@@+++>o;2::%=&#-###-87-. ++Oo##-#o",
"@###X ++.o-%#######-=@ +++>*3$9:>;=o=########. ++.o####o",
" ##-.@++Oo--#-#-###5  +++>o;.#%::%=oo=#-###-#+ ++>o-#7#o",
"@###. +++o5#######>  +++0&=++.+9:8oo-o######.  ++==####o",
" -#-#+ ++==%#-#-#-1 +++>o;44O.:-;;*=-o=7#-#-+@++X&-7#-#o",
"@####+ ++Oo-#####1 +++0&=.%%9:.32*o=-=o-####@ ++#o#####o",
" -#-#- +++==#-#-1@+++>o;+ ++.+:#;*=-78o-#-#+@++O==#-#-#o",
"1#-##>+ ++.&##-1 +++>&=*%  O.O:%**5-##o-##.@ ++#o--###7o",
" -#-#-# +++=-#1@+++>o=%=o::9:%;5*=#%#-o7#.1 +++==-%-#-#o",
"1#-#-#-# ++.=@ +++>o=#7-o%@++%>oo=-#-#o=.@ +++>o-#-#-#-o",
" -#-#-#-.++++++++.&=#-#-7o-.+%;*=%--%-=.@@+++X&;2-#-#-#o",
"1--%---#-$++++++>*;#---#-=o->5*5---#--.@ +++O*52%--%---o",
" -#-#-%-#8O++<++&=#8%-#-#--oooq#%-%-O.1 +++$w;O%#8#-#-%o",
"1---------#O++++++.#-------=q58--.O++@ +++O*;8%--------o",
"@-%-%%%-#-%-.+++++@@+..O>O>.OOOO++11@++++$w=,8#-%-%-%%%o",
"1--%--------8=$+++++@111@1@@@@@111+++++O>*;%7---%--%---o",
"@--e#---%---#-3=4++++++++++++++++++++$>=o=8-#--e#-e8%--o",
"1--8-8e-%----%2=&=>$+++++++++++++++.,;o=--8----8-8-----o",
"@-#---8--e#8--8-%=&w=>OX.OXXXXXXX>==o==8--#-------%%---o",
"1--------8--------7==ooo*ooo&oo&o&==-7-----8e-8e---8e--o",
"@--e8-e8---e8----------%-:--%%-%-7-8%------------------o",
".ooooooooooooooooooooooooooooooooooooooooooooooooooooooo"};
