/* XPM */
static char * image_name[] = {
"56 46 10 1",
" 	c #FFFFFFFFFFFF",
".	c #BEFBBAEABEFB",
"X	c #000000001040",
"o	c #BEFBC30BBEFB",
"O	c #AEBAAAAAAEBA",
"+	c #BEFBC71BD34C",
"@	c #B2CAAEBAB6DA",
"#	c #000000000000",
"$	c #9E799A699E79",
"%	c #A6999E79A699",
"                                                       .",
" ......................................................X",
" ......................................................X",
" .o..o..o..o..o..o..o..o..o..o..o..o..o..o..o..o..o..o.X",
" O...O...O...O...O...O...O...O...O...O...O...O...O...O.X",
" .....o......o.+..o......o.+..o....o..o...+......+..o..X",
" O.@.O.@.OoO.O.O.@.@.OoO.O.O.@.@.O.@.@.@oO.Oo@oO.O.@.@.X",
" o..o.O.o.....Oo.o..o.##########......O....o..O..o.o..OX",
" O.O.O.@.O.@oO.O.O.O.O#O.OoO.O##.O.OoO.O.O.O.O.O.O.O.O.X",
" ...@...O.o.O...O.o.O.#.@..oO.##Oo..O...O...Oo..Oo..Oo.X",
" O.O.O.OoO.O.@.O.O.O.@#O.O.O.O##.O.@oO.@oO.O.@.O.@.O.OoX",
" .@...@.O.O..oO.@.Oo..#oOoO.o.##OoO...O.O.Oo..O.O.O.o.OX",
" O.O.O.O.@.O.O.O.O.O.O#O.O.O.O##.O.OoO.OoO.@.OoO.OoO.O.X",
" oO.OoOoO.O.O.OoO.@.O.#oO.@.O.##O.O.O.O.@.O.O.O.@.O.O.OX",
" O.O.O.O.OoO.@.OoO.OoO#O.O.OoO##.O.@.OoO.OoOoO.O.O.@.OoX",
" OO.@O@.OO@.OOO.OOO.OO#oOOO.OO##OOOoOOO.OOO.O@O.OOO.OOOX",
" OoO.O.OoO.O.O.O.@.O.@#O.@oOoO##oO.O.O.@.O.@.OoO.@oOoO.X",
" O@OOOOOOOOO@OO@OOOOOO#OOOOOOO##OO@OO@OOOOOOOOOOOOOOO@OX",
" O.Oo@oO.@.O.@oO.Oo@oO#OoO.O.@##.OoOoO.Oo@oO.O.@.O.O.OoX",
" OOOOOOOOOO@OOOOOOOOOO#O@OO@OO##OOOOOOOOOOOOO@OOO@OO@OOX",
" O@OoOO@oOOOoOO@.O@OoO#O.OOOoO##oO@O.@OO.OOOoOO@oOO@oOOX",
" OOOO@OOOOOOOOOOOOOOOO#OOOOOOO##OOOOOOO@O@OO@OOOOOOOOOOX",
" OOOOOOO@O@O@O@O@O@OO@#O@O@OO@##OOO@O@OO@O@OOO@OO@OOO@OX",
" @O@OO@OOOOOOO@OO@OOOO#OOO@OOO##OO@OOOO@OOOOO@OO@OO@OOOX",
" $OO@$O@O%O@O$OO@$O@O%#O@$O@O$##O$O@O%OOO%O@O$@OO%OO@$OX",
" O@OO@OO@OOO@O@OOOO@OO#@OO@OOO##OO@OOOO@OOOO@OOOOOO@OOOX",
" OO%O$O%OO@$O$O%OOO$@$#$O@O$@$##O@O$@$O$O@O$O$@$@OO$@$@X",
" @OOO@OOOOOOO@OOOO@OOO#@OO@OOO##OO@OOOO@OOO@O@OOOO@OOOOX",
" $O%O$O%O$@$@$O$@$O%O$#$O$O$@$##O%O$@$O$@$O$O$O$@$O$@$OX",
" O@OO@OOO@OOOO@OO@#####@O@O@OO#####OOO@OO@O@O@O@OO@OO@OX",
" $O$@$O$@$O$@$O$@$O#O$O$O$O$@$O$O###@$O$@$O$O$O$O$O$@$OX",
" O$OO@$OO@$OO@$OOO%O#O$@O@$@OO%O###OOO$@OO$@O@$@O@$@OO$X",
" $@$O$@$O$@$@$O$@$O$@#O$O%O$O$O###O$@$@$O$@$O$O$@$O$@$@X",
" O$O%O$@$O$O$O$@$@$@$O#@$O$@$@###@$@$O$@$O$@$@$@$O$@$O$X",
" $@$O$@$O$@$@$@$O$@$O%O#O$@$O###O$O$@$O$@$O$O$O$O$@$O%OX",
" $$O%$$@$%$O$$$O%$$O$$$O#%$O###O$$$@$$%O$%$@$%$@$%$O%$$X",
" $O%O$O$O$@$@$@$O$@$@$@$O#O###O$@$O$@$O$O$O$O$O$@$O$O$OX",
" O$$$$%$%$$%$$$$$%$$$$$%$$###$%$$$%$$$%$$%$$%$$%$$$%$%$X",
" $O$@$O$@$O$@$@$@$O%O$O$@$O#O$O$@$O$@$O%O$@$O$@$O%O$@$OX",
" $$$$$%$$$%$$$$%$$$$$$O$$$%$$$O$$$%$$%$$$$%$$$$%$$%$$$$X",
" $%$O%$$@$$%O%$$O%$$@$$$O$$$@$$$O$$$O$$%O$$%@$%$O$$$@$$X",
" $$%$$$$$%$$$$$%$$$$$$$$%$%$$$$$$%$%$%$$$%$$$$$$%$%$$%$X",
" $O$$O$$$$O%$%$$$OO$%$%$$$O$%$%$$$O$$$$%$$@$%$$$$$O$$$$X",
" %$%$$$$$O$$$$$$$$$$$$$$%$%$$$$%$$O$$O$$%$$$$$%$%$$O$%$X",
" $$$$$%$$$$$O$$%$$%$%$%$$$$$%$$$$$$$$$$$$$%$%$$$$$$$$$$X",
".XXXXXXXXXXXXXXXXXXXXXXXXXXXXXXXXXXXXXXXXXXXXXXXXXXXXXXX"};
