/* XPM */
static char * image_name[] = {
"56 46 37 1",
" 	c #FFFFFBEEFFFF",
".	c #BEFBB6DABEFB",
"X	c #BEFBBAEABEFB",
"o	c #000000000000",
"O	c #C71BBAEAC71B",
"+	c #AEBAA699AEBA",
"@	c #69A68617BEFB",
"#	c #9E799A699E79",
"$	c #082004100820",
"%	c #FFFFF3CEFFFF",
"&	c #A699A699A699",
"*	c #71C679E78617",
"=	c #A6999E79A699",
"-	c #DF7DBAEA8E38",
";	c #000000001861",
":	c #B6DAAEBAB6DA",
">	c #FFFFFFFFFFFF",
",	c #514471C68E38",
"<	c #965896589658",
"1	c #CF3CC71BCF3C",
"2	c #000000001040",
"3	c #EFBEF3CEF7DE",
"4	c #96589658AEBA",
"5	c #BEFBC30BCF3C",
"6	c #F7DEB2CAAEBA",
"7	c #861779E78617",
"8	c #38E36DB6A699",
"9	c #AEBAAEBAAEBA",
"0	c #AEBAAAAAAEBA",
"q	c #A69979E78E38",
"w	c #51445555FFFF",
"e	c #AEBAAEBAB6DA",
"r	c #AEBAB2CACF3C",
"t	c #DF7DAEBA69A6",
"y	c #D75CD34CD75C",
"u	c #AEBA61856185",
"i	c #79E79248B6DA",
"                                                       .",
" ...X...X...X...X...X...X...X...X...X...X...X...X...X..o",
" .O.O.O.O.O.O.O.O.O.O.O.O.O.O.O.O.O.O.O.O.O.O.O.O.O.O.Oo",
" O.....................................................o",
" +.O@@@@@@@@@@@@@@@@@@@@@@.O.+O.O+.O.+O.O+.O.+O.O+.O.+Xo",
" ...@                     @.O.......O.......O........O.o",
" +.+@ o ##### @ #@oooooooo @.+O+.+O+.+.+O+.+.+O+.+O+.+.$",
" O..@  .#  %# .@ooo@###&#@o @...O.....O....O....O...O.Xo",
" ...@ ##% .  .@o# ####&#&&#o @....O.O...O...O.....O...Oo",
" &..@ #  . . #o# .%*=&&&-&&#o @.&O..&O&..O&..X&O&O..&..o",
" XX.@ #%. ##.@o oo@;#&&-=-:&*; @...O..XO..XO.O.X...OX.Oo",
">&.&@ #. #.%#oo o@;,&<&O#1&1=o *XX&.&:-.&O..&.&X&:-..X&o",
" XX.* # .#. #oo o#&-O.%*==...$ ;.O.X....X&..O...O..=..X$",
">&X:@%#. .O.#oo $&===%2%$X&O.o o-.&:-.&.-:-:-:-.&.-:-X&o",
">.&X@ #%@ . @oo o#&-.* o*1:.Xo o.&.X:&%.#.:&..:&.&O.:&X$",
"3-X&@ #. . .ooo o-&&+4;*5.O.#o o-:-X& @*$=&.&1&:-.&.&.&o",
" .#1*%@.. @ ooo o#&-=&O5.O..@o o.=:& *5@@2&&.-:-.&.&O-.o",
">&O+@  . . .ooo ;*&.&XX&...#oo $&X& 6525o@$&=O=O&O-O&.&o",
" &-.* #..O..$# .o2,:1&.O.O#ooo o&& 66 .o.@*2#&&-&=.&-&X$",
"%&.:@ .. . @o o *2;7#...#@oo@o 2- 66 # .o5@*$&&:&O-.&X&o",
" &&-8 #.O .oo# #;=@;$$$$oo@##o o 66 = . .o5@@$=--#&&6&-$",
"3-.:@ o#..oooo#@@O.O4*@@#...#o. 66 # . # O$1@*o=#O-O&.&o",
" #-=*%   . . . . . . O . . . . 66 # . # . .$:@@2=&&&-&-o",
" &.:@@ooo$ooooooooooooooo$ooo 66 # . # . # .24@*$=-&&O&o",
" -=&&-&&&&&&-#&&&&&&&&&&&&-& 66 # . #%. #%. o9*@@2#&-&&$",
"%&-&&:#-+-&-&&-0-&-0-&-0-&# 66 # . # . # . Xo5@@@*$=&#-o",
" &&--&-#-&+%%>&&-&&&-#-&&-366 # . # . # . .oO*@@@8@2&-=o",
"%-=##&&=&&= 66*-&&-.q&&&#%.  # . # . # . .o5@@@@@@@*$#=o",
" &&-&-=&-&-366w&&-&&-+-=-%*;  . #%. #%. .$.@@;@e@@@@;#=o",
"%&====&===# 66@-=&&==&=:q @@o  # . # . .o.@@o;@,r@@@$==o",
"%&-&&-=-=-=%66@&#-=t&-=&-3*@@o  . # . .$.@@o  ;@8y,@2&-o",
"%=&&==:u#&= 66*&=&=+q&&==43@@*o  # . .o.@@o ## ;@,e2=&<o",
"%&&tq&6&-#& 668:&-=-%**=-4# @@@;  . .$.@@o .&## ;;$=&-#o",
"%&&=&=#=#&= 66*-===#%yw,#=##3@@@o  Oo.@@o X.X&##O$#&=#=o",
"%&&&=&&&-#=%66O4=&&=%66i8+&=# @@@ooo&*@$ #@ .#&#o@&&&&&$",
"%&&q-&&q#== 666:%33% 666@*==##3@@@@#@@; .o@*%.#2,-#&<-=o",
"%-##q=&=&&<%6666666666666@8+&## @@@@@@o ..;@ #$*O<#==#<$",
"%#=#&&&=q-#=y66666666666@;+&=&##3@@@@@*o XX&.;*:==#=#-#o",
" ###=q##<<=<*;$$$2oo 66@;=#=#=<##3@@@@@@; .#o@4=#=###q4o",
"%#=#-#&#==#==&==&&&& 6@$=##&#&#&#43@@@@@@oX;*==&<===&=#o",
" =#q#=q###=#=####=#& @o=#<###=#####3@@@@@@o@4=<#####<#=o",
"%<###<=############<#########<#####43@@@@o######=<#q###o",
" ######q##q###############q=#####<###4ooo#######q=#####o",
"%###q#########q##q###<4q####q##q#####<##<###4q#########o",
" ###4####q=#########q=###########################q#=q##o",
".o$$oo$$$$oo$$o$$$o$$oooo$$o$$o$$ooooooo$ooo$o$$$$$$$$oo"};
