/* XPM */
static char *bla_marb_1[] = {
/* width height num_colors chars_per_pixel */
"   114    35      170            2",
/* colors */
".. c #282828",
".# c #292929",
".a c #2a2a2a",
".b c #2b2b2b",
".c c #2c2c2c",
".d c #292929",
".e c #292929",
".f c #2b2b2b",
".g c #2a2a2a",
".h c #2a2a2a",
".i c #2c2c2c",
".j c #2e2e2e",
".k c #2b2b2b",
".l c #2b2b2b",
".m c #2b2b2b",
".n c #2d2d2d",
".o c #2c2c2c",
".p c #2c2c2c",
".q c #2c2c2c",
".r c #2c2c2c",
".s c #2d2d2d",
".t c #2d2d2d",
".u c #2d2d2d",
".v c #2d2d2d",
".w c #2f2f2f",
".x c #2e2e2e",
".y c #2e2e2e",
".z c #2e2e2e",
".A c #2e2e2e",
".B c #2f2f2f",
".C c #2f2f2f",
".D c #2f2f2f",
".E c #303030",
".F c #303030",
".G c #303030",
".H c #303030",
".I c #303030",
".J c #313131",
".K c #313131",
".L c #313131",
".M c #323232",
".N c #323232",
".O c #323232",
".P c #333333",
".Q c #333333",
".R c #333333",
".S c #353535",
".T c #343434",
".U c #343434",
".V c #353535",
".W c #353535",
".X c #353535",
".Y c #363636",
".Z c #363636",
".0 c #313835",
".1 c #37292d",
".2 c #373034",
".3 c #373737",
".4 c #383838",
".5 c #343a37",
".6 c #393939",
".7 c #353b38",
".8 c #3a3a3a",
".9 c #3b2f32",
"#. c #3b3b3b",
"## c #3c3c3c",
"#a c #3d3d3d",
"#b c #3e3e3e",
"#c c #3f3f3f",
"#d c #404040",
"#e c #414141",
"#f c #424242",
"#g c #434343",
"#h c #444444",
"#i c #454545",
"#j c #464646",
"#k c #474747",
"#l c #484446",
"#m c #484848",
"#n c #494949",
"#o c #474b49",
"#p c #4a4a4a",
"#q c #4b4749",
"#r c #4b4b4b",
"#s c #4c484a",
"#t c #4c4c4c",
"#u c #4d4d4d",
"#v c #4e4e4e",
"#w c #4a5250",
"#x c #4f4f4f",
"#y c #505050",
"#z c #515151",
"#A c #525252",
"#B c #535353",
"#C c #544d4e",
"#D c #545454",
"#E c #555555",
"#F c #565254",
"#G c #565656",
"#H c #575757",
"#I c #585858",
"#J c #595959",
"#K c #5a5a5a",
"#L c #5b5b5b",
"#M c #5c5c5c",
"#N c #5d5d5d",
"#O c #5e5e5e",
"#P c #5e615f",
"#Q c #5f5f5f",
"#R c #616161",
"#S c #626262",
"#T c #636061",
"#U c #636363",
"#V c #646464",
"#W c #656565",
"#X c #666666",
"#Y c #676767",
"#Z c #686566",
"#0 c #686868",
"#1 c #696969",
"#2 c #6a6a6a",
"#3 c #6b6b6b",
"#4 c #6c6c6c",
"#5 c #6d6d6d",
"#6 c #6f6f6f",
"#7 c #707070",
"#8 c #717171",
"#9 c #727272",
"a. c #737373",
"a# c #747474",
"aa c #757575",
"ab c #767676",
"ac c #777777",
"ad c #797979",
"ae c #7a7a7a",
"af c #7b7b7b",
"ag c #7c7c7c",
"ah c #7d7d7d",
"ai c #7e7e7e",
"aj c #7f7f7f",
"ak c #808080",
"al c #828282",
"am c #838383",
"an c #848484",
"ao c #858585",
"ap c #868686",
"aq c #878787",
"ar c #888888",
"as c #8a8a8a",
"at c #8b8b8b",
"au c #8d8d8d",
"av c #8e8e8e",
"aw c #8f8f8f",
"ax c #939393",
"ay c #949494",
"az c #969696",
"aA c #9b9b9b",
"aB c #9d9d9d",
"aC c #9e9e9e",
"aD c #a1a1a1",
"aE c #a2a2a2",
"aF c #a8a8a8",
"aG c #aaaaaa",
"aH c #afafaf",
"aI c #b0b0b0",
"aJ c #b9b9b9",
"aK c #bebebe",
"aL c #c5c5c5",
"aM c #c7c7c7",
"aN c #dbdbdb",
/* pixels */
".e...A.L.e.r.m...A..#p.W...e#M...A.m.....r.r....#O.L#p#R.......e.e.e.e.e.e.e.e.....h.e.....h.v...r.....r...v...................r.r.e...e.h.......e.e.....m.h.....r....ab.........................A.v..............#d#x.v...D...e.e.e",
".h.............h..#b.3#z#k.r...Z#4#j.3....#S..#t#V.A#a#B.......e.e.e.e.e.e.e.e.m.h.h.h.I#.#p#E.........A.D.L.........e.e.e.r.I...........e.......r.....e.r.....m.....e#L...e.W...e.e.e...........r.e...r.v....#f.....O.....A...e.e.e",
".r.m.r.m...h.....Wa#.r.I.....R...4.W#Q.O..#6.L#G#p...D#e.A.e.r.e.e.e.e.e.e.e.e.m.h.........h.D....#c...........e.....e.......v.O.h.........e...h.D.....m.m.e.O.A.e..#Mau#......e.r.v.m.......h.........e.....man.Z...4.X.r.A...e.e.e",
".v.m.....e.A.A....#i...O.e.....A....#a#m#b#I#I.4.....e.I.A...r.e.e.e.e.e.e.e.e.....h.r.m.......h.O#G.3.......R.e.....r.......r.R.....m.e.e.e...h.D.....m...A#r...A#O..#zax...I.e.A.L.v.......h...h...........8#Y.R.h##.O.......e.e.e",
"...h.e.e.......r.W...........I...3...vamaf.h.m.h...A.h.........e.e.e.e.e.e.e.e.....e.r.A.A.v.r.r...Z.e...A.e.......e.D.A...e.D.L.....h.....h.....r...e.m...R#U.ZaH.R.v.A..#V...e.A.L.v.......h.......m.v.D#b#G.r...h.W.........e.e.e",
".......e.v.v.Watan##.A...Z.r...I.L...D#B#c...I.h...D.....e.....e.e.e.e.e.e.e.e.v.h.............R...e...e.v.O..................#y.O...m.....A.m...e...r.m...R#O.e.m.e.r...A.v.X.e.r.v.m.......h.L...........r.O.....L.L...e.I...e.e.e",
".v.....W#p#Rak..#n#I.W.......W.D...m#M#e...e...e...........A.m.e.e.e.e.e.e.e.e.h.......r.A.A.v.m...........Z.....m.......L.R.m#N.3.r.D.....D.m...e...h.h...m#b.......r...O.R.....e.e.e.............e.A.v.8#j#b.....h.......A...e.e.e",
".I...m.D.....L.r..#i...v.e.......A.........r.....m...m.e.......e.e.e.e.e.e.e.e.m.........e.....e.v...m.h.h#y.r...v.e...X#z#L#A.3.....A.....m...h.h.....h.e.....v.......e...h.m.....................D.A.....I...h...r.m.....r.e.e.e.e",
"akaf#U#B.L...r...v#b#r#D#x.8.....R#m#t#d.........m.h.....e.m...e.e.e.e.e.e.e.e.....h.h.h.h.....e.e.e.e.e.e.e.e.W.....U.r...e.L.A...X...e...4...e...e.r.m.D#x#G.e.e.e.e.e.e.e.e.e.e.e.e.e.e.e.e...v.I.m.........e.....D.....e...e.e.e",
".W.L.A.4.v...m...m.D.O.6#b.3.r.....I.r.6.X.D.h.........h.v.m...e.e.e.e.e.e.e.e.................e.e.e.e.e.e.e.e#u#i#i#b.m.........8al#6#E.r#a.A.e...m...r#H#i...e.e.e.e.e.e.e.e.e.e.e.e.e.e.e.e...m.r.....e.e..#K#a.r.......D.I.e.e.e",
".r.....I.v.....r.h.......O.U.I.8......#k#e...D.v.....e.v.m.....e.e.e.e.e.e.e.e.................e.e.e.e.e.e.e.e.R.Z#c.6.e...h.......6.....OaiaB..........#n.....e.e.e.e.e.e.e.e.e.e.e.e.e.e.e.e...........e.h..##.....v.R.D.....e.e.e",
".e.....e.......h.m.....e.L.O.v#z.v.v.v#z#n....#c.D.............e.e.e.e.e.e.e.e.................e.e.e.e.e.e.e.e.......r...h.I.h.m...L...r...A...I#5#U#0.4.4...L.e.e.e.e.e.e.e.e.e.e.e.e.e.e.e.e...........e....ac#n.r...........e.e.e",
".....e.......m...m.m.e.m.I.D...L.I#..D#Ha##M#y#c.D.............e.e.e.e.e.e.e.e...e.m.v.v.m.e...e.e.e.e.e.e.e.e#x.R...e.......e.h...m...e...m...IaF#S#u.......m.e.e.e.e.e.e.e.e.e.e.e.e.e.e.e.e.......h.e.......I.....I.I.r.A.D.e.e.e",
".r.D.A.h.........h.......h.h.....v.D...R#m#G#r.v.....e.v.m.....e.e.e.e.e.e.e.e...e.A.L.L.A.e...e.e.e.e.e.e.e.e#G.U...r.............A.m.e.....e..#0.........W.r.e.e.e.e.e.e.e.e.e.e.e.e.e.e.e.e.....h.r.e.....v.v.....m.....h.h.e.e.e",
".................m.e.......e...h..........#H#D.........h.v.m...e.e.e.e.e.e.e.e...e.r.A.A.r.e...e.e.e.e.e.e.e.e.L.....r.e...r.m................a.#Q...r.O.....h.e.e.e.e.e.e.e.e.e.e.e.e.e.e.e.e.......e.....A#..v.m.D.A.....m...e.e.e",
".v...............v.A.h.e.r.h.....r...I....#4#J...m.h.....e.m...e.e.e.e.e.e.e.e.....e.e.e.e.....e.e.e.e.e.e.e.e.....I.A.....I.r.D.h...r.A.....A.D.........h...e.e.e.e.e.e.e.e.e.e.e.e.e.e.e.e.e.............U#k...........D.D...e.e.e",
".e.e.e.e.e.e.e.e.e.e.e.e.e.e.e.v...h.r#n#X#g..am#A...v...v.O.....I.h.....m...h.....D.....D...e...v.......h...v.e.......e.e.................e.e.I#k#e.A.....r...r.....I.m.m.e...e.e.e.e.e.e.e.e.e.e.e.e.e.e.e.e.e.e.e.e.e.e.e.e.e.e.e",
".e.e.e.e.e.e.e.e.e.e.e.e.e.e.e...m.U...e#b.Z.A.L...r.L.I.....D.e...L...U...m...U#i.O..#Q#9.D.......A.X....#bai.h.e..............................#pae#u.D.m...v.....m.h.....v.m.e.e.e.e.e.e.e.e.e.e.e.e.e.e.e.e.e.e.e.e.e.e.e.e.e.e.e",
".e.e.e.e.e.e.e.e.e.e.e.e.e.e.e.L###i.v...h.A.8..#c.h...W...A.m.v.......U...O..av.6#d.6..#Raw#O.m.L#e#j.m.A#a#H.e.e.h.e.......e.e.e.e.e.e.e.e.e.3#2#b.v.h...R...h...v.....m.h...e.e.e.e.e.e.e.e.e.e.e.e.e.e.e.e.e.e.e.e.e.e.e.e.e.e.e",
".e.e.e.e.e.e.e.e.e.e.e.e.e.e.e...v.R.....h...A#g..#v.D#d.r.Ra##H.W.I.....6.......m.....I....#Xax#D.....R#O#v.........e.e.....e.....e.e.h.m.m.r.W#z.4.....h...m.D...r.....D.....e.e.e.e.e.e.e.e.e.e.e.e.e.e.e.e.e.e.e.e.e.e.e.e.e.e.e",
".e.e.e.e.e.e.e.e.e.e.e.e.e.e.e.v.e.e...D.A....#8#G.I..#j.4#3##.A.m#y.r.R#2.O#b.v...m.O.....O#D.v...m.D...6#m.R.......e.e.e...........e.m.v.A.D..#e.Z...L.W.....r...v.....m...L.e.e.e.e.e.e.e.e.e.e.e.e.e.e.e.e.e.e.e.e.e.e.e.e.e.e.e",
".e.e.e.e.e.e.e.e.e.e.e.e.e.e.e.h...e...O.I.h#naE.L.....8#f.e.....Aaf.O###k.........h.....r.......v.D.m..#.#m.m.I.r.......h.............h.r.v.A.A#f.....m...R.......D.......m#r.e.e.e.e.e.e.e.e.e.e.e.e.e.e.e.e.e.e.e.e.e.e.e.e.e.e.e",
".e.e.e.e.e.e.e.e.e.e.e.e.e.e.e..............#H...L...U.r...W.A....#D.........D...O.m.....h.....r.L.....h#x#z.r#k.8.r.....e.e.............e.e.e....#t.3...h...W.....A.....R.v#i.e.e.e.e.e.e.e.e.e.e.e.e.e.e.e.e.e.e.e.e.e.e.e.e.e.e.e",
".e.e.e.e.e.e.e.e.e.e.e.e.e.e.e.....r.e.v...v#0...e..........#D.m.h.R#k.R.h.....A.....R.....v.m.......I...e.v.e#K#k.I.....e.h...h.h.e...........O...Z#u#t#j.I...v...h...4#j.e...e.e.e.e.e.e.e.e.e.e.e.e.e.e.e.e.e.e.e.e.e.e.e.e.e.e.e",
".e.e.e.e.e.e.e.e.e.e.e.e.e.e.e.e.......e.h.....e.e.e.e.e.e.e.e#x.e.L#n.......A.e.e.e.e.e.e.e.e.e.e.e.e.e.e.e.e#G#v.m...h.m...h.m.....v...A...r.....A...R#L.r.m.W.h#c.R...I....#B.D...L#f.4.........h.m.v...Lap.m.v.A.....v...A.e.e.e",
".e.e.e.e.e.e.e.e.e.e.e.e.e.e.e.e.........e.e...e.e.e.e.e.e.e.e##.....I...e...R.e.e.e.e.e.e.e.e.e.e.e.e.e.e.e.e#n#B#e.A.r.....U.......e.e.......r.....R.v.6.X..#n...r.h...e.....R.....h.3.4.R.I.h...r.h.r...m#6.....A.r.......m.e.e.e",
".e.e.e.e.e.e.e.e.e.e.e.e.e.e.e.............r.A.e.e.e.e.e.e.e.e#U.W...I...v.....e.e.e.e.e.e.e.e.e.e.e.e.e.e.e.e..#.#a.U.O.h.D#j#n.L.....h...e.L.L.h...4...h#R.D#3.v...h...h...v...........A.D.v.v...v...m....#v.6.....e.e.L.r.r.e.e.e",
".e.e.e.e.e.e.e.e.e.e.e.e.e.e.e...e.e.......A.R.e.e.e.e.e.e.e.e#D.U.e.e.h.L...m.e.e.e.e.e.e.e.e.e.e.e.e.e.e.e.e...m.r.m.L.A.m.X#g.X.A...R...A.....r...I...D#8.A#9.W.e.r...........A.I...........r.e.v...h.h...W#D.R...........D.e.e.e",
".e.e.e.e.e.e.e.e.e.e.e.e.e.e.e...e.e.......A.R.e.e.e.e.e.e.e.e#d.U.X.e...e.....e.e.e.e.e.e.e.e.e.e.e.e.e.e.e.e.h.r.....m.........I.8.......A...m.D.......m#y...8.........m.r.m...e.e.....r.r...e...m...h.r.............O.v.e#y.e.e.e",
".e.e.e.e.e.e.e.e.e.e.e.e.e.e.e.............r.A.e.e.e.e.e.e.e.e.....X...........e.e.e.e.e.e.e.e.e.e.e.e.e.e.e.e...h.m.e.......m.e.A#f.X.......O.......v#e.r#..h.....v.....h.....h.......m.A.r.......h...e.m.......m.m.W#H#u...U.e.e.e",
".e.e.e.e.e.e.e.e.e.e.e.e.e.e.e.e.........e.e...e.e.e.e.e.e.e.e...O#r.I.h.......e.e.e.e.e.e.e.e.e.e.e.e.e.e.e.e...e.v.r.....h.A.A..#b#t#f#i...r...m.Z#J#7#h#U#v...v.L.h.h.v.....v.m.......h.....e...h.h.......m.v.....I#J#L.A...e.e.e",
".e.e.e.e.e.e.e.e.e.e.e.e.e.e.e.e.......e.h.....e.e.e.e.e.e.e.e...D#p.v.e...h...e.e.e.e.e.e.e.e.e.e.e.e.e.e.e.e.......e...e.e.........h.8ae.Z...h.....h.O..ab#U.........e.e.....................m...r.r.......A.....h.....A...h.e.e.e",
".e.e.e.e.e.e.e.e.e.e.e.e.e.e.e.e.e.e.e.e.e.e.e.................Iag.L#R#Ua..I.r.I.8.R...v.r.....e.e.e.e.e.e.e.e.e.e.e.e.e.e.e.e.m...m......#H.makal#7.O...3#D#g...........e.m...e.e.e.e.e.e.e.e.e.e.e.e.e.e.e.e...v...A...Aap...e.h.h",
".e.e.e.e.e.e.e.e.e.e.e.e.e.e.e.e.e.e.e.e.e.e.e...............e..#A...L.h.6.....e.R.v...h.m.....e.e.e.e.e.e.e.e.e.e.e.e.e.e.e.e...I...X.r#2#Nau.L...L#y#5#p.m.h.v.v.m.....h.....e.e.e.e.e.e.e.e.e.e.e.e.e.e.e.e...r...D.Z..#y#a.r....",
".e.e.e.e.e.e.e.e.e.e.e.e.e.e.e.e.e.e.e.e.e.e.e.......e.e.h.m.m.m.4.......m...L...h.......e.....e.e.e.e.e.e.e.e.e.e.e.e.e.e.e.e.v.......raj...r.v#p.I..#d#N.3...........e.e.....e.e.e.e.e.e.e.e.e.e.e.e.e.e.e.e.h.......m..#b#G..#Y#2"
};
SIMPLE  =                    T                                                  BITPIX  =                    8                                                  NAXIS   =                    2                                                  NAXIS1  =                  114                                                  NAXIS2  =                   35                                                  HISTORY Written by XV 3.10a                                                     END                                                                                                                                                                                                                                                                                                                                                                                                                                                                                                                                                                                                                                                                                                                                                                                                                                                                                                                                                                                                                                                                                                                                                                                                                                                                                                                                                                                                                                                                                                                                                                                                                                                                                                                                                                                                                                                                                                                                                                                                                                                                                                                                                                                                                                                                                                                                                                                                                                                                                             )))))))))))))))))))))))((())*+++8(((+(1(*((()(())))))))))))))))-(((,(,-J0(@]7((((())(())))))))))))))))*(((+(>V(gj)))))))))))))))))))))))((((((()(R(1*9(()3-(*+(())))))))))))))))(0(5,j]ç1(1PmJ+*--+((*(())))))))))))))))(,(/6(P=,(()))))))))))))))))))))))((((((((0|1acs0,0:3(-,(())))))))))))))))+(+(((W+ÄÇp2(7TC((((()+())))))))))))))))(-(.(.Ü()**))))))))))))))))((()*(())))))))(/J-)(*())))))))))))))))((()())((((*:z6(*((*2(vc(((())((((((((((+(,,(((.((*((.(*)))))))))))))))))))(((())())))))))(2K0*((())))))))))))))))()-,((*..(>LBE(,(+6YpDcN(-1**-((-+(((*(()(**(((+-((0Y[.())))))))))))))))))((((((,.))))))))((5((((())))))))))))))))(*+)(((+).B5(((2(((-A,;*((-((*((*(((+.,(((*()+(((++5WM(4))))))))))))))))))())(((.3))))))))@45)()(())))))))))))))))*,((+((((0:(((.(+/(((+P(:((((+,+())((,,()(+(*,((((((2-)P))))))))))))))))))())(((.3))))))))T4))*1(+))))))))))))))))(+,+1.+5C5.(3(.((,(0(/q.r5),(((((.0(((((,)-(**(5T3(((((/))))))))))))))))))((((((,.))))))))c5(0(-(())))))))))))))))(;=42*/FI1((*()11*(8(*a/k-(*(*(-(((((./--(-(+((N9(())1,,)))))))))))))))))))(((())())))))))<((0()(3))))))))))))))))ISA.,((4((())(((,((3-95(I(,*()((3((*7830*(,*,(+o((.,(((+)))))))))))))))))))((()*(())))))))O)1I(((.))))))))))))))))VN+(*+(*+((-(.(,((.(3[,+5*?3(0((S/(1B8((((*+-(1Ü+-.((-(.))))))))))))))))))((,)-(-h()(((((T+*3G3*((.((3((-+(((0()-)ZG0(()*(**)(((((2(6MLF0(-(*(8F)())))))))))))))))))))))))))))))))))))))))))(((((((W(1(4,(5.((T((((/(2+((*((,1((*OQ,G:,(())(((((()))((L7(*(5((.((3-E))))))))))))))))))))))))))))))))))))))))))*()(20*I¢1((:B)((.{2<G((((*((,(((-/+(;H+0,(((*((((((*,-..B((+(3(((/(((+K))))))))))))))))))))))))))))))))))))))))))-))(/.((qV0(F8k<.+P,3j2>-(+2((2T-(+/(9H3((()))((((()+-./(A6(15((,(-((+(1))))))))))))))))))))))))))))))))))))))))))(-3((*(.C(N/@,3tW50((9(((+((0((fìT((3^N(((())(()(())*++,5Q8((*(+/(,((/(())))))))))))))))))))))))))))))))))))))))))1<E-(*.:(?*(5(.+-(((4(2(é9@9(aè^+1AF+.=W))*)((()))))))))7j>-*(3(*(-((+*())))))))))))))))))))))))))))))))))))))))))(+4()>6.1(,10((/)(1(4(+(4E2(_r/(((.5((>~*)(((((((((((((((JzM/+(-((+*((-+))))))))))))))))))))))))))))))))))))))))))-(*,IfC(ÉR(-(-2((0*((+(*((/((/()(-(((*(-)((())(((((((())0GA.((,(,((0++)()))))))))))))))))))))))))))-(((((((-.*),*((,(0((lY(+*(()+())))))))(())))(())))))))((0.((0,/*(,.((./((((*()))))))))))))))))((((((4G(((((//()))((((((((+)((()(*(((((WT((((*-+())))))))(),..,)())))))))1((,)(,+((((((((s_(,2((*))))))))))))))))((()((.;-+/.((+())),/.*((((*(((**((-/(3HVK-(()-+(())))))))().11.)())))))))V4(,((((((.+)(()(h((((5,))))))))))))))))((*,)((--((+((**)))(()(((+(++)+0/(10;/Wt\P?/(((((())))))))()+--+)())))))))O3()((()*(+()(+(0®bM(((+))))))))))))))))(((*)(((0((00,./))))(()(((*+(()12-Q---QI((?/(((((())))))))(((((((())))))))(((,(*0*+(1(,(.(0mch88(1))))))))))))))))((((()((wI,((((())),((0-((,*(((240:(((GA(/-(()-+(())))))))(((((((())))))))36?9)(*(((9((2~ù(((((I(())))))))))))))))((((()*(<((-3/(()))51.8-(+(+/29>7,((0,95/*((((*-+())))))))(((((((())))))))MEE>+((((:ÇoU,=.)(+(,WE())))))))))))))))(+,(())(Z=,(((/0)))Ä{cS1(,(->KTO:((3HL@((((+*(()+())))))))((****(())))))))5((4,()1.(5()(8()(),+/OV))))))))))))))))(-0+(((()((/(()()))0(+/((1,(E(-)(((.((((,((+(+)((())))))))+(((()(()-(+**P,(-)(5Q[R7((.((+(**((*)((-((()(*+((((((((((/.((0(*(,+((,))))-((5JaÄ(IX5(((5/(+\A()()(((((.+))))))))*(((,..-+(((((6((+(((13+]7,/((/+()(**(+>(((,(23(()))(((((().-:F>((*(((.()))((()--5ãÑ<.(6,(01(/S?(0*(/(()(())))))))-*((((((3()()-2(((((((((P2(+((.+()(,+(3^)+),(.-5),-+(((*1(((((,2((11()0()))(*))(((,5(((((0(7(-É{*+*(.*(((())))))))((),..-,,(6)(.)((()/.()/1((*((*((,()+(3c6Ø3-.(d().1-(((*(((+-/>V,(*5(((()))-+(()..((E(2)((.((=H>XX8(()0.(,))))))))((*,+(((*2V7(((3)((,(((,3((+)))(*/((+(.K(.^(Qì(0).1-(((*(*(((((:g3*<2((())),+,+(*((5t,0((3(85_2(o1VJ(/A.),))))))))+*((((*/((?((((()(()(((-2*(((()(*/((++)2.)(\ç;((),-+(((*(((()((+Ñ6(85,.()))*((((((*(>7QG,(6lF7((b(Ld.=S((())))))))+***0;JU((((./1(((())),0((((()(((,((),((+(()[()5()))(((((,)(,-((B((2((.())))(.1),+(.(J5()\(.+((,,((^1Ja((())))))))((*)((*-(,((,(-(((((((((,,)()*((())((+*((,((v((((((((((((.-(((((((@O-(/()))                                                                                                                                                                                                                                                                                                                                                                                                                                                                                                                                                                                                                                                                                                                                                                                                                                                                                                                                                                                                                                                                                                                                                                                                                                                                                                                                                                                                                                                                                                                                                                                                                                                                                                                                                                                                                                          