/* XPM */
static char *fstool[] = {
/* width height num_colors chars_per_pixel */
"    64    64       21            1",
/* colors */
". c #000000",
"# c #050505",
"a c #171717",
"b c #272727",
"c c #383838",
"d c #474747",
"e c #565656",
"f c #676767",
"g c #777777",
"h c #878787",
"i c #989898",
"j c #9b9b9b",
"k c #a8a8a8",
"l c #b8b8b8",
"m c #c8c8c8",
"n c #cccccc",
"o c #d8d8d8",
"p c #e8e8e8",
"q c #ededed",
"r c #fafafa",
"s c #ffffff",
/* pixels */
"rrrrrrrrrrrrrrrrrrrrrrrrrrprppppppppooooooomommmmmlmlllllklkkkki",
"rrrrrrrrrrrrrrrrrrrrrrrprprprpppppoppoooomommmmmmlmllllklkkkkkii",
"rrrrrrrrrrrrrrrrrrrrrrrrrprpppppppooooooomomommmlmllllllklkkiiki",
"rrrrrrrrrrrrrrrrrrrrrrpprpprppppoopooooomommmmmlmllllllkkkkikiii",
"rrrrrrrrrrrrrrrrrrrrprrprppppppppooooomommmmmlmllllllkklkkkiiiih",
"rrrrrrrrrrrrrrrrrrrrrprprpppppooooooooomommmmmlmllllklkkikiiiihi",
"rrrrrrsssssssssssssssssssssssssssssssssssssssssssssssssssjiiiihh",
"rrrrrrsjjjjjjjjjjjjjjjjjjjjjjjjjjjjjjjjjjjjjjjjjjjjjjjjjj.iiihhh",
"rrrrrrsjjjjjjjjjjjjjjjjjjjjjjjjjjjjjjjjjjjjjjjjjjjjjjjjjj.ihhihh",
"rrrrrrsjjjjjjjjjjjjjjjjjjjjjjjjjjjjjjjjjjjjjjjjjjjjjjjjjj.hihhhg",
"rrrrrrsjjjjjjjjjjjjjjjjjjjjjjjjjjjjjjjjjjjjjjjjjjjjjjjjjj.ihhhhg",
"rrrrrrsjjjjjjjjjjjjjjjjjjjjjjjjjjjjjjjjjjjjjjjjjjjjjjjjjj.hhhggg",
"rrrrrrsjjjjjjjjjjjjjjjjjjjjjjjjjjjjjjjjjjjjjjjjjjjjjjjjjj.hhghgg",
"rrrrrrsjjjjjjjjjjqqqjjjjjjjjjjjjjqqqjjjjjjjjjjjjjjqqqjjjj.ghgggg",
"rrrrrrsjjjjjqqqqqqn.jjjjjjjjqqqqqqn.jjjjjjjjjqqqqqqn.jjjj.hggggf",
"rrrrrrsjjjjjqnnnnnn.jjjjjjjjqnnnnnn.jjjjjjjjjqnnnnnn.jjjj.gggggf",
"rrrrrrsjjjjjqnnnnnn.........qnnnnnn..........qnnnnnn.jjjj.hggfff",
"rrrrrrsjjjjjqnnnnnn.........qnnnnnn..........qnnnnnn.jjjj.gfgfff",
"rrrrrrsjjjjjqnnnnnn.jjj..jjjqnnnnnn.jjj..jjjjqnnnnnn.jjjj.gfffff",
"rrrrrrsjjjjjq.......jjj..jjjq.......jjj..jjjjq.......jjjj.fgfffe",
"rrrrprsjjjjjjjjjjjjjjjj..jjjjjjjjjjjjjj..jjjjjjjjjjjjjjjj.fffefe",
"rrrrrpsjjjjjjjjjjjjjjjj..jjjjjjjjqqqjjj..jjjjjjjjjqqqjjjj.ffffee",
"rrprrpsjjjjjjjjjjjjjjjj..jjjqqqqqqn.jjj..jjjjqqqqqqn.jjjj.feeeee",
"rrrprpsjjjjjjjjjjjjjjjj..jjjqnnnnnn.jjj..jjjjqnnnnnn.jjjj.fffeee",
"rprprpsjjjjjjjjjjjjjjjj.....qnnnnnn.jjj......qnnnnnn.jjjj.eeeede",
"prrpprsjjjjjjjjjjjjjjjj.....qnnnnnn.jjj......qnnnnnn.jjjj.eeeedd",
"rpprppsjjjjjjjjjjjjjjjj..jjjqnnnnnn.jjj..jjjjqnnnnnn.jjjj.eededd",
"prppppsjjjjjjjjjjjjjjjj..jjjq.......jjj..jjjjq.......jjjj.eedddd",
"prppppsjjjjjjjjjjjjjjjj..jjjjjjjjjjjjjj..jjjjjjjjjjjjjjjj.dedddc",
"ppppppsjjjjjjjjjjjjjjjj..jjjjjjjjjjjjjj..jjjjjjjjjqqqjjjj.dddddc",
"ppppppsjjjjjjjjjjjjjjjj..jjjjjjjjjjjjjj..jjjjqqqqqqn.jjjj.dddccc",
"pppoposjjjjjjjjjjjjjjjj..jjjjjjjjjjjjjj..jjjjqnnnnnn.jjjj.ddcdcc",
"ppppopsjjjjjjjjjjjjjjjj..jjjjjjjjjjjjjj......qnnnnnn.jjjj.ddcccc",
"pppooosjjjjjjjjjjjjjjjj..jjjjjjjjjjjjjj......qnnnnnn.jjjj.cccccb",
"poopoosjjjjjjjjjjjjjjjj..jjjjjjjjjjjjjjjjjjjjqnnnnnn.jjjj.cdcbcb",
"opoooosjjjjjjjjjjjjjjjj..jjjjjjjjjjjjjjjjjjjjq.......jjjj.ccccbb",
"opoooosjjjjjjjjjjjjjjjj..jjjjjjjjjjjjjjjjjjjjjjjjjjjjjjjj.ccbbcb",
"oooooosjjjjjjjjjjjjjjjj..jjjjjjjjqqqjjjjjjjjjjjjjjjjjjjjj.bcbbbb",
"ooomomsjjjjjjjjjjjjjjjj..jjjqqqqqqn.jjjjjjjjjjjjjjjjjjjjj.bcbbba",
"oooommsjjjjjjjjjjjjjjjj..jjjqnnnnnn.jjjjjjjjjjjjjjjjjjjjj.bbbbab",
"ommomosjjjjjjjjjjjjjjjj.....qnnnnnn.jjjjjjjjjjjjjjjjjjjjj.bbbbaa",
"oommmmsjjjjjjjjjjjjjjjj.....qnnnnnn.jjjjjjjjjjjjjjjjjjjjj.bbaaaa",
"mommmmsjjjjjjjjjjjjjjjj..jjjqnnnnnn.jjjjjjjjjjjjjjjjjjjjj.bbabaa",
"ommmmmsjjjjjjjjjjjjjjjj..jjjq.......jjjjjjjjjjjjjjjjjjjjj.baaaaa",
"mmmmlmsjjjjjjjjjjjjjjjj..jjjjjjjjjjjjjjjjjjjjjjjjjjjjjjjj.aaaa#a",
"mmmmmlsjjjjjjjjjjjjjjjj..jjjjjjjjqqqjjjjjjjjjjjjjjqqqjjjj.aaaa##",
"mmmllmsjjjjjjjjjjjjjjjj..jjjqqqqqqn.jjjjjjjjjqqqqqqn.jjjj.aa#a##",
"mmlmllsjjjjjjjjjjjjjjjj..jjjqnnnnnn.jjjjjjjjjqnnnnnn.jjjj.aa#a##",
"mlllllsjjjjjjjjjjjjjjjj.....qnnnnnn..........qnnnnnn.jjjj.#a####",
"mlmlllsjjjjjjjjjjjjjjjj.....qnnnnnn..........qnnnnnn.jjjj.a#####",
"lllllksjjjjjjjjjjjjjjjjjjjjjqnnnnnn.jjjjjjjjjqnnnnnn.jjjj.a#####",
"mlllllsjjjjjjjjjjjjjjjjjjjjjq.......jjjjjjjjjq.......jjjj.######",
"lllkkksjjjjjjjjjjjjjjjjjjjjjjjjjjjjjjjjjjjjjjjjjjjjjjjjjj.######",
"lllllksjjjjjjjjjjjjjjjjjjjjjjjjjjjjjjjjjjjjjjjjjjjjjjjjjj.######",
"lkkkkksjjjjjjjjjjjjjjjjjjjjjjjjjjjjjjjjjjjjjjjjjjjjjjjjjj.######",
"llklkksjjjjjjjjjjjjjjjjjjjjjjjjjjjjjjjjjjjjjjjjjjjjjjjjjj.######",
"klkkkksjjjjjjjjjjjjjjjjjjjjjjjjjjjjjjjjjjjjjjjjjjjjjjjjjj.######",
"kkkkikj...................................................######",
"kkkkiiiiihhhhghggfgfffffeeeededdcdccccbbbbbbaaaa################",
"kkikiiihihhhhgggggfffffeeeeedddddccccbcbbbabaaaaa#a#############",
"kkiiiiihhhhghgggfffffeeeeededddcccccbbbbbbaaaa##a###############",
"ikiiihihhhhggggfgffffefeeeddddcdcccbcbbbbaaaaaa#################",
"iiiiihhhhghggfgffffeeeeededddccccbcbbbbaaaaa##a#################",
"iiihihhhhgggggfffeffeeeeddddcdccccbbbabbaaaaa###################"
};
SIMPLE  =                    T                                                  BITPIX  =                    8                                                  NAXIS   =                    2                                                  NAXIS1  =                   64                                                  NAXIS2  =                   64                                                  HISTORY Written by XV 3.10a                                                     END                                                                                                                                                                                                                                                                                                                                                                                                                                                                                                                                                                                                                                                                                                                                                                                                                                                                                                                                                                                                                                                                                                                                                                                                                                                                                                                                                                                                                                                                                                                                                                                                                                                                                                                                                                                                                                                                                                                                                                                                                                                                                                                                                                                                                                                                                                                                                                                                                                                                                             wwwwwgggVggVVVVGGGG8G8888'''''wwwgwggggVVVVVGVGGG8888'8''''wwwwgwggggVgVVVGGGG8G888'8''''wwwwgggggVVVVVGVGGG88888''''''wwwwwgggggVVVVVGGGGG8888'8''''wwwgwgggggVVVVGVGG8G8888''''''                                                        ȸ                  ȸȸ                 ȸ                 ȸȸ     ȸ     ȸ  훛훛 ȸ             '    '''       ''       ''''    '''''    '8'''  훛 '8''''   88''8'          8888''    8G8'8'          88888'          GG8888      GG8G88      GGG888    훛 GGGGG8     GVGGG8                   VVGGGG       VVGVGG              VVVVGG              VVVVGV       gggVVV       gVVVVV  훛  훛 ggggVV     gggVgV                          gwgggV        wggggg                     wgwggg                     wwggg    wwwwwg    wwwwg훛훛훛 wwwww www www w w  ȸȸȸȸȸȸȸȸȸȸȸȸ                                                                                                                                                                                                                                                                                                                                                                                                                                                                                                                                                                                                                                                                                                                                                                                                                                                                                                                                                                                                                                                                                                                                                                                                                                                                                                                                                                                                                                                                                                                                                                                                                                                                                                                                