/* XPM */
static char * image_name[] = {
"56 46 49 1",
" 	c #FFFFFFFFFFFF",
".	c #D75CD34CD75C",
"X	c #000000000000",
"o	c #D75CDF7DE79D",
"O	c #E79DE79DEFBE",
"+	c #69A669A671C6",
"@	c #9E799A699E79",
"#	c #AEBAA699AEBA",
"$	c #AEBAAAAAAEBA",
"%	c #AEBAAEBAAEBA",
"&	c #BEFBB6DABEFB",
"*	c #618561856185",
"=	c #AEBAAEBAB6DA",
"-	c #A6999E79A699",
";	c #BEFBC30BBEFB",
":	c #B6DAAEBAB6DA",
">	c #CF3CC71BCF3C",
",	c #514455554924",
"<	c #71C675D671C6",
"1	c #8E388A288E38",
"2	c #965896589658",
"3	c #28A22CB230C2",
"4	c #96589658AEBA",
"5	c #79E786179E79",
"6	c #8E38861779E7",
"7	c #EFBEF3CEF7DE",
"8	c #5144A2894924",
"9	c #FFFFFBEEFFFF",
"0	c #C71BBAEAC71B",
"q	c #71C679E78617",
"w	c #492449245144",
"e	c #AEBA9E795965",
"r	c #A699A289A699",
"t	c #A69979E78E38",
"y	c #FFFFF3CEFFFF",
"u	c #AEBA61856185",
"i	c #BEFBC30BCF3C",
"p	c #861779E78617",
"a	c #A699A699A699",
"s	c #BEFBBAEABEFB",
"d	c #30C234D330C2",
"f	c #5965514428A2",
"g	c #082004100820",
"h	c #30C271C65965",
"j	c #AEBAB2CACF3C",
"k	c #186120812081",
"l	c #208120812081",
"z	c #000008200820",
"x	c #000000001040",
"                                                      .X",
"  .o.o.o.o.o.o.o.o.o.o.o.o.o.o.o.o.o.o.o.o.o.o.o.o.o.O+X",
"  @#$$@#$$@#$$@#$$@#$$@#$$@#$$@#$$@#$$@#$$@#$$@#$$@#%&*X",
"  %$=#$$=$$$=$$$=$$$=$$$=$$$=$$$=$$$=$$$=$$$=$$$=#%$%=*X",
"  %#$$##$$$$$#$$$$#$$$$$$#$$$$#$$$$$$#$$$$#$$$$#$$$$%&*X",
"  -$=#%;&:&:;&&:>&&:;:&:>&&:;&&:>&:;&&:>&:;:&>:=$$$=%&+X",
"  $$$%#+,,,,,,,,,,,,,,,,,,,,,,,,,,,,,,,,,,,,,,<%$=$#$:*X",
"  @$$%%<>     >   O      O >                 >X%:$$$%:+X",
"  %$$=&+&     %  1>O%%2%#,134+%O56>          >X*%$$=$&+X",
"  $$$$%<%   * , +>%o,,>@,3O37OO %+%&2>       >X,+:$$%=*X",
"  $$$$&*& > o+O >,3,,+,,5o8O9O.O.1    +O>    >X,<:%$%&+X",
"  %##%&<% % %&3%,+,,11-+#,03%3,,@+%%O   @    .X,+&$$$=<X",
"  $$#%%*; 1 12,2,@*q,w,,,,,,,,,,,,,3, @   ,  >X*e=%$$:,X",
"  @#%:%<>@>+2*,<,+,,w*,w*w,w*,r*,3,,*33,>  , .Xwq&$$%&+X",
"  %%$%&+>.@&8twq,1w*=1,,1w*,1qy  42o>@4>3   %>X,+=%$#&+X",
"  $#%%&*;o5.u4,1w,+&%5,w,,w,w+    .>   .3 +  .X,6&%#%&,X",
"  %$#%%<; O8,,,,,+  &,,,*w,,,,:  :3=      3,+.X,+&%#%%<X",
"  -##%i*# r 44,w$    #w*4,w,4w,,+3,.        @.X,+&#%%&*X",
"  %$%$&<%   @,,.#    1+up,@,1,5*+5           >X*t%%$%=+X",
"  $$%%%*&   O,3+,     4,w4*w*,+,,,%   3X     .X*6&:$%&*X",
"  $$#&&<%     3o1o     %1,@w@,u,5%   >,3O   =1X3,+a%%=*X",
"  $$%a;*&    4:$@@=.%   >w%3s3&%.   %+   *,,+,X33,1:%&*X",
"  @#%%&+%    .  O O O    . . o     18 ,XX>>. .X,1=%%%%+X",
"  %$$%%<&     ,oO<                +<+X.   @= .X*8&%%%&*X",
"  @%$$:*%      1&O&  >O&O        3Xt>    .>. >X,ps#%#&+X",
"  %##%&<&       . .>%O1%<O+   33Xd=O    &O   @Xwq:%&%=*X",
"  $=%#%*%                     XXf      =O %%>.Xw*w1%%&*X",
"  $#%%&<&                    5g*1    O>7>&   >X35&%%%=*X",
"  $#%#%*%                   32X     o=&>     >X,u=%%#&+X",
"  #%#%;<&                  X X   o%%@O       >gh8&%&%=*X",
"  @%#&a+&                =3 =,   o#-O        >g,tj%%%&*X",
"  %#%%&<%               <+ *1    :;oO        .X,+:%%%%*X",
"  $%#%%<%              ,2  X    >>>          >X*+&%#$&+X",
"  %#=%%*&            ,X=  X   .>7>           >Xw6:%$%=*X",
"  $$%$&+%            =<>  X  >O >.           >X,5%%$$&*X",
"  -$%%i*&                ,& %O &O            .X,+&$$%:<X",
"  $$$$%<.                X >   >             .X,1%%$$&+X",
"  @##%&++651@1251251@111$X,@15,@151211151111@+X,+&$$%%*X",
"  %#%#%%<3kkklk3k3kklz3kX33k3XX3k3k3k3klk3kkk33,e%$%$&+X",
"  $$%%#%&%+,,,,f,,,,,*,+X,,,+,,,,,,,,,,,,,,,,+w*q%%$%=*X",
"  %$$$%#%%&=&%&&=&:&%;%.X@$s-,>:=&=&%&&=&%&%:::=%:$=%&*X",
"  -$$$%#=%%%%%%%%%%%%%$$<$#%#1%%%%%%%%%%%%%$%%%$$%&$%=*X",
"  $$$:%$$$$$=$$$#%#%$$$$#$$%#%#$%$$%$%$%$$$$=$$$=$$$$&+X",
"  %%&&%&&&:&&%i%>%i%&&:%i%:&=&%&:&&:&&&;%i%>&&&:&&%&&%<X",
"  +11556581151515et565118t151521565656eq1et5eq15151151*X",
" 3kXkXkXlxlXkXkXkXXkXkXzkXkXXkXkXXkXkXXkgXXkXXkXkXkXkXlX"};
