/* XPM */
static char * image_name[] = {
"56 46 46 1",
" 	c #FFFFFFFFFFFF",
".	c #D75CD34CD75C",
"X	c #208120812081",
"o	c #E79DE79DEFBE",
"O	c #EFBEF3CEF7DE",
"+	c #514455554924",
"@	c #082004100820",
"#	c #AEBAAEBAAEBA",
"$	c #79E786179E79",
"%	c #000008200820",
"&	c #186120812081",
"*	c #30C234D330C2",
"=	c #BEFBB6DABEFB",
"-	c #618561856185",
";	c #A699A289A699",
":	c #8E388A288E38",
">	c #CF3CC71BCF3C",
",	c #AEBAAEBAB6DA",
"<	c #69A669A671C6",
"1	c #000000000000",
"2	c #96589658AEBA",
"3	c #A6999E79A699",
"4	c #A699A699A699",
"5	c #71C675D671C6",
"6	c #9E799A699E79",
"7	c #965896589658",
"8	c #AEBAAAAAAEBA",
"9	c #B6DAAEBAB6DA",
"0	c #30C271C65965",
"q	c #AEBAB2CACF3C",
"w	c #514471C68E38",
"e	c #AEBA61856185",
"r	c #71C679E78617",
"t	c #28A25D754924",
"y	c #D75CDF7DE79D",
"u	c #28A22CB230C2",
"i	c #BEFBC30BBEFB",
"p	c #5144A2894924",
"a	c #BEFBBAEABEFB",
"s	c #8E38861779E7",
"d	c #A69979E78E38",
"f	c #BEFBC30BCF3C",
"g	c #000000001040",
"h	c #AEBAA699AEBA",
"j	c #C71BBAEAC71B",
"k	c #000000001861",
"                                                      .X",
"  .oOoOoOoOoOoOoOoOoOoOoOoOoOoOoOoOoOoOoOoOoOoOoOoOo.o+@",
"  #$X%&%&%&&%&%&%&&%&%&%&&%&%&%&&%&%&%&&%&%&%&%&%%*$#=-%",
"  ;:%+++++++++++++++++++++++++++++++++++++++++++++>>#,<@",
"  #:1+-+-++++2##3+++-++$###+++++4;5+++-+-+-+-+-+-+>.#=-%",
"  ,:1+++++-*>662:+++++2#62:>++->62,7+++++++++++++*.>#,5@",
"  8$1-+++++2 ++++++++< :+*; ++>o*+##++++++++++++++>>#9-%",
"  8:@+0+-+* 6*+*+++2.5;++* 6*+ 5+5q-+++ oow+ <2.+*>.#=-@",
"  8$1+++++* >>>=+++5er5++28+++ *+er+++*o+& + 2..++>>#,5%",
"  8:@-++++>:55< +t++*6<++ +++o-++56+++2o  5# +.>+*>.#=51",
"  8:@5+++:y++*.>+5>+r>+*,O++y.u+: <+++i+*++y*+:+++>>#=<%",
"  #$@++++5#=999+++++p=,a,+++a,i,9$+++++++++++++++*.>##5@",
"  8:1+++++5sw7+*+++++wd$-++t+5:$5+++++++++++++++++f.#=-%",
"  ;:g+++*+++*++++++++++*+*+++*+*++++++t++++t++t++*>>#,51",
"  #$*,222,62832222,23622#,2;2#2#222222,2222;2;2,22O>#=+%",
"  3,2y.o.y...y....>.>.>...>.....y>.>y>.......y.....=#,51",
"  3888hhh8h8h88hh9hhhh=,=#,9,=,##89#8h,hh99,hh,#,,###a+g",
"  88,888888,         o#686 ##7=          +>8888h###8##51",
"  88=8888883         =6:6$ @#6:5         @+>989##h##8=-%",
"  3#;8,88,88         #+85o @y+Xy         @%@5#=8h#89#,<@",
"  ;888888883         yo    X   +         @@@+<=##h#88=-%",
"  388,889883                             @@1++$#89,8#,<@",
"  88=888#,83         8>    *XXXXXX:      @@@-+<#8#888=+&",
"  38#;=88888       o.*6   @1*Xg*1%<      @@%-+5=88888,5@",
"  688#8;,=;;       9-&:   %5o    *:      @@@-+5#889,#9-%",
"  6=8,8#8##6        O-7   =     ,1,      @@%++-=,8#8#,5@",
"  #888=88888         +;        o++       @@g-+5###888=-1",
"  3888888,88         +$        .@+       @@%++-a#988#,<@",
"  88,88,=883         +:        5%o       @@g-+<,##8,8=+%",
"  2#;=88#;88         -:       .1+        @@@0+<a#889#,5@",
"  ;888;#89#3         +7       +X         @@@-+-,#89##=-%",
"  888#9#9883         +6       1X         @@@-+<a#,#8#,<1",
"  68,=88##88         <#      #1=         @@@-+-,##889=-%",
"  888888,887      O,5%gp9    1%          @@%-+5=#=88#=5@",
"  3888,8=888      y5:$:d<    58          @@g++-###9,##+%",
"  8#;=9#;886      :*X+o:&X1%  5@&+o      @@%-+5a#888#=51",
"  38,#88,88o     >*o  >%8O   51Oo##      %@@-+-##8=;#=-%",
"  888888886      .+%&.+@X%o #@<++6      .@%%-+<=#88###51",
"  888=;#8oo      oo o o. o  yO         8+1@1-+-,#=;#,=-%",
"  3888#,###,-++++5+5+<-5<--+--++++++-+++5@g%++5=##=8#,<@",
"  8888888##=5<$:<<ss55<5<5<<$<<$:<:5<$<57@@%-+<,##888=-%",
"  68,8=888##<%@%%%%@1%%%%%%%%%%@1%%%@%%1@@@%++59#8,8#,<@",
"  68=;#8==88=#++++++++++++++++++++++++++++++++-,##8=8=-%",
"  ###==#=#=#=#.;>>>a>>>j>>>>>>j>>>=.jaj>>>>,>,.===#==#5g",
"  5:7$::::::::<:$:$:r$::$sr$se$:rew::sr$srr::$$p:::$::51",
"o*X@X1%X%&%%&1X1X@X1&@&@1%X@&%g&%Xg&@@XgXg&%@X@kX1X1&1@1"};
