/* XPM */
static char * image_name[] = {
"56 46 24 1",
" 	c #FFFFFFFFFFFF",
".	c #BEFBBAEABEFB",
"X	c #000000001040",
"o	c #AEBAAAAAAEBA",
"O	c #B2CAAEBAB6DA",
"+	c #BEFBC71BD34C",
"@	c #9E799A699E79",
"#	c #30C2DB6C30C2",
"$	c #8E388A288E38",
"%	c #79E786179E79",
"&	c #FFFFFFFF0000",
"*	c #B6DA492430C2",
"=	c #51445555FFFF",
"-	c #A6999E79A699",
";	c #EFBEBEFBC71B",
":	c #FFFF0000FFFF",
">	c #71C679E78617",
",	c #BEFBC30BBEFB",
"<	c #FFFF14514103",
"1	c #EBADEBADF3CE",
"2	c #75D69248B6DA",
"3	c #AAAA79E78E38",
"4	c #96589658AEBA",
"5	c #000000000000",
"                                                       .",
" ......................................................X",
" ......................................................X",
" ......................................................X",
" o...O...O...O...O...O...O...O...O...O...O...O...O...O.X",
" .+................................................+...X",
" o.@.o+@.O.@.O.@.O.@.O.@.O.@.O.@.O.@.O.@.O.@.O.@.o.o.o.X",
" .....o.......o.......O.......O.......o.......O.......OX",
" o.O.o.o.o.O.o.o.O.O.o.O.O.o.o.O.o.O.O.o.O.O.o.o.O.o.o.X",
" ...o...o...O...o...o...o...o...o...o...o...O...o...O..X",
" o.o.O.O.O.O.o.o.o.o.O.o.o.O.O.o.O.o.O.O.O.o.o.o.O.o.o.X",
" .o...o.o.o...O.o.O...o.O#$#%%%%o.o...o.o.o...o.O.o...oX",
" o.O.o.O.o.o.o.O.o.o.o&%#$#%%$%%%%%o.o.o.o.o.o.o.o.o.O.X",
" .O.o.o.O.o.O.o.o.o.*=%&##%%%%%%%%%%%.O.o.o.o.-;o.O.o.oX",
" o.o.o.o.O.o.O.o;-.%:*=#&##%%@O%$%%%>%.O.o;-.O.o.o.o.o.X",
" oo.oOo.ooo.ooo.-.##%:*=&#%%oO%%-@%%%%%.ooo.ooo.ooo.oooX",
" o.o.o;-.o.o;-.o.=&&#%:*&##%,o%%O%O%%%%%.o.o.O.o.O.o;o.X",
" ooooo-ooooo-ooo-**=&&>::##%%oooO%o-%%%%ooooOooooooooooX",
" o.o.o.O.o.O.o.o:<:**=&#&<#%>%%%.%.%%%%%%-.o.o.o.o.o.o.X",
" oooooooooOooooo%:><:*=&&=#ooo%%oo%%%>>%%OoooooooooooooX",
" ooo.Ooo.ooo.oo%%%%%><:*=&,1  o%%%%%%%>>%%-o.oOo.ooo.ooX",
" oooO-ooooooooo##########-     o%%%%%%2%%%ooO-O-OooooooX",
" ooooOooooooOoo%%%%%%$%%,1 %..  o%%#>%%%%%-ooO-OoooooooX",
" oooooooooO-ooo%%%%%%%%%o %. @. @%>%%%%%%%oooooooooooooX",
" @ooo3Ooo3Ooo@o%%%>%%%>%o  %..  O%%%%%%%%%-oO3oO-@oOo@oX",
" oooooo-Ooooooo%%%%%%%%%%o     o::%%%%>#%%-oooooO-O-oooX",
" oo@o@o@ooo@-@o%%%%%%%%%%%o   o#=*:::%%>=$-@o@o@-Oo@o@oX",
" oooooooooooooo@%%o@%%%%%%%ooo%&##=**::%$ooooooooO-ooooX",
" @o@-@o@o@o@o@o@%%%%@%%%%%%%%%%<&##&=**::$O@o$o@-@o@o@oX",
" o-oooo-ooo-oooo@%%o%4%>#%%%%%%%&&##&===oooo-Ooooooo-ooX",
" @o@o@o@o@o@o@o@o%%%%@%%>%%%%%%%&<&###&=o$o@o@-@o@o@o@oX",
" o@o-O$ooo$ooo$oO@%%%%$o%%%>#%%%%&2&#&#ooo@oo-@ooo$oo-@X",
" @o@o@o@o@o@o@o@o@o%%%%@%%%%>=#>%&<%&&O@o@o.o@o@o@o@-@oX",
" o$o@-@-@-@o$o@-@o@4#%%%$%%%4>>%%%&<>o@o$..o@o@-@-@o@o@X",
" @o@o@o@o@o@o@o@o@o@.$%%%%%%%%2%%%&$O4%...@$o@o@o@-@o@-X",
" @@o@$@o$@$o@@$o@$@o$@%-@>%%%%%%$@$%%....%@o@$@o$@@o$@@X",
" @o$o@o@o@o@-@o@-@o@O@o@@4@%o$-$%........@o@o@o@o@-@o@oX",
" @$@@@@$@@$@@$@$@@$@$@$@@$@@@$@@@@@oooo@@@@$@$@$@$@@@$@X",
" @o@o$o@o@o@o@o@o$O@o@o@o@o$o@o$o$o@o@o@@@o@o@o@o@o$o@oX",
" @$@$@@@$@$@$@@$@@@@$@@@$@@@$@@@@@@$@@@$@$@$@$@$@$@@@$@X",
" @@@o@$@o@@@o@$@o$@$o$@$,$@@-@$$o$@@-$@@o@@@o@@@o@$@o@@X",
" $@$@$@@@$@$@$@@@@@@@@@@$@$@$@@@@@@$@@@@@$@$@@$@$@@@$@$X",
" @o@@@$@$@o@@@@$@$-@$@$@@@,$@@$@$@o@$@$$@@o@$@@@@$o@@@@X",
" @@$@$@$@@@@$@$@@@@$@@@$@$$@@$@@@@@$@@@@@$@$@@$@$@@$@$@X",
" $@@@@@@@$@$@@@$@$@@$@$@@@@$@@$@$@$@@$@$@@@@@$@@@@@@$@@X",
",XX5X5X5XX5XX55X5X5X5X5XX5X5XX5XXXXX5X5XX5X5XXXX5X5XX5XX"};
