/* XPM */
static char * image_name[] = {
"56 46 21 1",
" 	c #FFFFFFFFFFFF",
".	c #BEFBBAEABEFB",
"X	c #000000000000",
"o	c #BEFBB6DABEFB",
"O	c #AEBAAAAAAEBA",
"+	c #AEBAA699AEBA",
"@	c #C71BBAEAC71B",
"#	c #69A68617BEFB",
"$	c #9E799A699E79",
"%	c #71C679E78617",
"&	c #082004100820",
"*	c #000000001861",
"=	c #AEBAAEBAB6DA",
"-	c #FFFFFBEEFFFF",
";	c #AEBAB2CACF3C",
":	c #38E36DB6A699",
">	c #5965A289D75C",
",	c #AEBAAEBAAEBA",
"<	c #51445555FFFF",
"1	c #79E79248B6DA",
"2	c #000000001040",
"                                                       .",
" ......................................................X",
" ......................................................X",
" ..o..o.o..o.o..o.o..o.o..o.o..o.o..o.o..o.o..o.o..o.o.X",
" O...+.@.O...O...O@..O...+.@.O...O...O@..O...+.@.O...O.X",
" .o...                                           .@o...X",
" O.O.O #$## $#$#$#$#$#$#$#$#$########### ###X ###X.O.+.X",
" ..... $#$# $$#$#$#$#$#$#$#$#$#$#$#$#### ###X ###X....OX",
" O.+.O #$## $#$#$#$#$#$#$#$#$#$#$#%####& ###& ###&.+.O.X",
" ...O..XX&XXX&X&&&&&&&&&&&&&&&&&&&*&&&&XX&&&XX&&XX..+..X",
" O.+.O X........o...o...o...o...o...o.....o.. $$$X.O.O.X",
" .O... X...o..o...o...o...o...o......o..o.... $#$XO.o.OX",
" O.+.O X.o......o...o...o...o...o......o...o. #$#X.O.O.X",
" .O.O. X....&.o...........o..............o... $#$XO.+.OX",
" O.O.O X..o&X..&$o.o.   ....o.....@o......... #$#&.O.O.X",
" O+.OO X..$#Xo.$&$...   .o.......oo........o. $##X+.OOOX",
" O.O.O X.o..&..$X$...   ......@o.....@o...... #$#&.O.+.X",
" OOOOO X....Xo.X$..o.   @o...oo.....oo...o@o. $##X+OOOOX",
" O.O.O X..o.$....o.@.   ..o@o............o... #$#&.+.O.X",
" OOOOO Xo......o.................o@..o@...... $##X+OOOOX",
" OOO.O X..o@.o...o......o..o......o...oo..o.. #$#&O+.OOX",
" OOOOO X......@o....o.o........o@............ $##XOOOOOX",
" OOOOO X..o......o@.....o.o@o...oo..@o.....o. %=%*OOOOOX",
" OOOOO Xo...o.o....o..o............oo....o@..-;:#XOOOOOX",
" $OOO$ X........o....o@..o..o............o..o %>%*OOO$OX",
" OOOOO X...o.@o..@o....o.......o@.....o@..... ,<#&OOOOOX",
" OO$O$ X.o@.........o...........o..@o..o.o.o. %1#&O$O$OX",
" OOOOO X....o...o...@....o@..o@...oo......@..-=##XOOOOOX",
" $O$O$ X......o...o...o..o.o..oo........o.... ###2O$O$OX",
" OOOOO X..o.o..@o....o..............o@.....o. $##XOOOOOX",
" $O$O$ X..........o...@o.............oo..o... ###&+$O$OX",
" O$OOO X.o.@o..o..@.o....o@..o@..o@.......... ###X$OOO$X",
" $O$O$ X......o.......o...oo..o...oo......o@. ###&+$O$OX",
" O$O$O X.o..o.....o.o....................o... ###X$O$O$X",
" $O$O$ X.......o..............@o.....@o...o.. ###&O$O$OX",
" $$O$$ X..o.@o.@.........o@..oo..o@..o....... %##&$+$$$X",
" $O$O$ X.......o.o@o..@o..oo......oo...@o.o.. ###&O$O$OX",
" $$$$$ X..o..o.......oo...............oo..... ###X$$$$$X",
" $O$O$ X....o@..o.o...........@o...........o. ###&O$+$OX",
" $$$$$ X                -- ---  - ---         ###&$$$$$X",
" $$$O$ XXXXXXXXXXXXXXXXXXXXXXXXXXXXXXXXXXXXXXX&&&&$$O$$X",
" $$$$$$$$$$$$$$$$$$$$$$$$$$$$$$$$$$$$$$$$$$$$$$$$$$$$$$X",
" $$$$$$$$$$$$$$$$$$$$$$$$$$$$$$$$$$$$$$$$$$$$$$$$$$$$$$X",
" $$$$$$$$$$$$$$$$$$$$$$$$$$$$$$$$$$$$$$$$$$$$$$$$$$$$$$X",
" $$$$$$$$$$$$$$$$$$$$$$$$$$$$$$$$$$$$$$$$$$$$$$$$$$$$$$X",
".XXXXXXXXXXXXXXXXXXXXXXXXXXXXXXXXXXXXXXXXXXXXXXXXXXXXXXX"};
