/* XPM */
static char * image_name[] = {
"56 46 25 1",
" 	c #FFFFFFFFFFFF",
".	c #BEFBB6DABEFB",
"X	c #FFFFFBEEFFFF",
"o	c #BEFBBAEABEFB",
"O	c #000000000000",
"+	c #C71BBAEAC71B",
"@	c #AEBAA699AEBA",
"#	c #9E799A699E79",
"$	c #69A68617BEFB",
"%	c #082004100820",
"&	c #F7DEB2CAAEBA",
"*	c #A6999E79A699",
"=	c #71C679E78617",
"-	c #FFFFF3CEFFFF",
";	c #A699A699A699",
":	c #38E36DB6A699",
">	c #000000001861",
",	c #B6DAAEBAB6DA",
"<	c #965896589658",
"1	c #A69979E78E38",
"2	c #EFBEF3CEF7DE",
"3	c #96589658AEBA",
"4	c #BEFBC30BCF3C",
"5	c #AEBAAEBAB6DA",
"6	c #A699A289A699",
"                                                       .",
"X.o...o..o...o..o...o..o...o..o...o..o...o..o...o..o...O",
" .+.+.+.+.+.+.+.+.+.+.+.+.+.+.+.+.+.+.+.+.+.+.+.+.+.+.+O",
"Xo.....................................................O",
"X@o+.@+.+@o+.@+.+@o+.@+.+@o+.@+.+@o+.@+.+@o+.@+.+@o.+@.O",
"X+...o.o.....o.o.....o.o.....o.o.....o.o.....o.o...o.o.O",
" @.@+@.@.@+@.@.@.+.+..+..+.+..+..+.+..+..+.@+@.@.@+@.@+O",
"X.+...@.+o..+.@+o.#O#.@$O$#O#O#O$$O$#O#$@..o..@.+...+.@O",
" @.@o@+@.@.@.@.@..%XOo@#################@+.@.@+@.@o@.@.O",
"X.o.@...@..+@..+.oO O.+....................+@o..@.+.@o.O",
" @.@+@.@+@.@o.#OOOO O@$O$@#%O%OO#@#%OO%O#.+@.@.@o@.@.@+O",
"X+@...@.@.@.+.%.  X O.OXO.O. X XO+O.  X.%.@...@+@.@.+.@O",
" @.@+@o@.@o@..%X$O$ O@O O@O OOOO#@O OOO Oo.@+@.@.@+@.@.O",
"X.@o@.@.@+@.@oO O.O O.O O.O O$$$..O O.OO%.@.@.@.@.@.@o@O",
" @o@.@+@.@.@+.O O.O O@O O@O.  X.O@O O...o.+@.@+@.@.@.@.O",
"X@@.@@@.@@@.@.O O.O O@O O@.$$OO O@O O+OO%.@.@@@o@@@+@@@O",
" @.@+@.@+@.@o.%X$O$ O@O O@#OOOO O@O OOO Oo.@+@.@.@.@o@oO",
"X@@@@@@@@@@@@oO.    O@O O@OX   .O@O.X  .%.@@@@@@@@@@@@@O",
" @o@.@.@.@.@.+#OOOOO#@$O$@#OOOOO#@#OOOOO#.+@.@.@+@.@.@.O",
"X@@@@@@@@@@@@@..................o..o...o.@@@@@@@@@@@@@@O",
" @@@.@@@+@@@@@@@@@@@@@@@@@@@@@@@@@@@@@@@@@@@.@@@.@@@+@@O",
"X@@@@@@@@@@@@@@@@@@@@@@@@@@@@@@@@@@@@@@@@@@@@@@@@@@@@@@O",
" @@@@@@@@@@@@@@@@@+.+&o&+&o&& & &X&+.@@o@@@.@@@o@@@@@@@O",
"X@@@@@@@@@@@@@@@+&&.X#X#X$X*&& & .X&X&+@&@@+@@&.@@@@@@@O",
" #@@@#@@@#@@@#.&    $X$X$X$ & & . $ .XXX.X.&oX+@@#@@@#@O",
"X@@@@@@@@@@@@&XX X X .X$X$X*&& . $X# . .X&XXX.@@@@@@@@@O",
" @@#@#@#@@@#&X& & X X XX.X$X& . =X#X. . &  XX&...@@#@#@O",
"X@@@@@@@@@@&X& & & & &XXX.X#&. $X.X.X& & & XX+@@@@@@@@@O",
" #@#@#@#@#.X& & & & & &XXXXX  &X. & &  X X X X@@@#@#@#@O",
"X@@@@@@@@@&X. . . . .XoXXoOOO. & & X X X X X .&@@@@@@@@O",
"X#@#@#@#@#-#X#X#X#X. . Xo$@@@$. & & & & & & &.@+@#@#@#@O",
"-@#@@*#@@#&X$X=X.X.    XX.$$=.Xo&.&. . . . .X$#@@@#@@@#O",
" #@#@#@#@#&XX$X.X  X. ; &XXXXX& .&+..+..+&. .$##@#@#@#@O",
"-@#@#@#*###XXXXX . $X= =X$.&X@ & .&o..+... +$:#@#@#*#@#O",
" #@#@#@#@#@:  . $ $X$X$X$.oX@X@ & .&+..o& .=>,*<@#*#@#@O",
"-##@###@##*,$  .X$X$X$X$.oX#X@ @ & .&.&XX#$%@##@###@###O",
"X#*#@1@#@#*#@$. XX.X$2$.oX#X@X@ @ &    .$O$@*#@#@#@#@#*%",
"-####3#######@#$o.X&X&X&X.X.X@ @ @ &4=OO$#@######31####O",
"X#@#@#@1@#@#@#@@#$$$.o5.@.@.@o@.@.$O%$35@@##*#@#**@#@#@O",
"-#31####3#######6563$$O$OOOOOOOO$O$#@@@######31########O",
"X###@###@#13*###@##@65@@@@@@@@@@@@@@####@###@###@13#*##O",
"-#####31#############<####################31###########O",
"X#@#13####@##13#<#*#######@#######*###3#13@#3#13##@#13#O",
"-########31##3######################31##########31#####O",
"X######13######13####13#<##13#<#############13####3####O",
".O%O%%%%%O%%%O%%%%O%%%OO%O%%OOO%OOOOOO%OOOO%%%%%%%%%%%OO"};
