/* XPM */
static char * image_name[] = {
"56 46 30 1",
" 	c #FFFFFBEEFFFF",
".	c #BEFBB6DABEFB",
"X	c #BEFBBAEABEFB",
"o	c #000000000000",
"O	c #C71BBAEAC71B",
"+	c #9E799A699E79",
"@	c #AEBAA699AEBA",
"#	c #69A68617BEFB",
"$	c #F7DEB2CAAEBA",
"%	c #FFFFF3CEFFFF",
"&	c #BEFBC30BCF3C",
"*	c #71C679E78617",
"=	c #514471C68E38",
"-	c #FFFFFFFFFFFF",
";	c #AEBAAEBAB6DA",
":	c #EFBEF3CEF7DE",
">	c #38E36DB6A699",
",	c #A6999E79A699",
"<	c #082004100820",
"1	c #AEBAB2CACF3C",
"2	c #CF3CC71BCF3C",
"3	c #000000001861",
"4	c #A699A699A699",
"5	c #B6DAAEBAB6DA",
"6	c #DF7DBAEA8E38",
"7	c #000000001040",
"8	c #000008200820",
"9	c #965896589658",
"0	c #96589658AEBA",
"q	c #A69979E78E38",
"                                                       .",
" X...X...X...X...X...X...X...X...X...X...X...X...X...X.o",
" .O.O.O.O.O.O.O.O.O.O.O.O.O.O.O.O.O.O.O.O.O.O.O.O.O.O.Oo",
" X......................++.............................o",
" @XO.@O.O@XO.@O.O@XO.@+###.@#@O.O@XO.@O.O@XO.@O.O@XO.@Xo",
" ...XX...X..XX...X...##$$###X#...X..XX...X..XX...X...O.o",
" @O@.@X@X@.@.@O@X@.@O#$$...  #.#X.O@.@X@X@.@.@O@X@.@X@.o",
" ...O.@O..O.O.@..O.+##..     .#X#...O.@O..O.O.@.O..O..@o",
" @X@.@.@.@.@.@.@.+##.      .#.  #.O@.@.@.@.@.@.@.@.@.@Oo",
" O..@.O.@.O.@.+###.###  .#X.   %&*#@..O.@.O.@.O.@.O.@X.o",
" @.@O@.@.@.@+##. %=$$###.###  .=#&%#.@.@.@.@.@.@X@.@O@.o",
" X@...@.@O@##.   #$$...-#$$=##O    .#.#+@O@X.O@.@.@...@o",
" @.@O@.@.@.*%    #&X  -#$$&&X       #*&*&@.@.@.@O@.@O@.o",
" .@.@.@O@.;#   .#.    :#.X       .##.  >@O@.@O@.@.@.@X@o",
" @O@.@.@.@.#. #.    .##X- .    .##.-   #,@.@.@.@O@.@.@.<",
" @@X@@@O@+#<# #   ##. --.### .##.-     X#@@O@@@.@@@O@@@o",
" @.@.@.@.<oo#-#- #.    ##$$###.-       .#@.@.@X@.@.@.@Xo",
" @@@@@@@@ooo#...-#    :#$$.X:--   .     #@@@@@@@@@@@@@@o",
" @X@.@O@.oXo##-#-..   ##1$      .       #+.@.@O@.@X@.@Xo",
" @@@@@@@@o .oo =--#  #.      $ .   .    .#@@@@@@@@@@@@@o",
" @@@.@@@.oo .o##  #--#-   $ . . . .     .#@@O@@@.@@@O@@o",
" @@@@@@@@ooo Xo#. .X:#   $ . . X X   .   #@@@@@@@@@@@@@o",
" @@@@@@@@o+oo .oo  # =2   . X X   X X    #+#o#@@@@@@@@@o",
" @@@@@@@@o+ooo Xo# # &#    X . . . $    .#o$ o@@@@@@@@@o",
" +@@@+@@@#o.ooo .o##- =   $ . X .     .#o$  +o@@@+@@@+@o",
" @@@@@@@@@#<.ooo .o#. #    X . $    .#o$  +o#o@@@@@@@@@o",
" @@+@+@+@@@#o.ooo Xoo #.    .     X*3$  +o#.4<@+@@@+@+@o",
" @@@@@@@@@@@#oXooo Xo#.#   $    .#3$  +3*4X4Xo@@@@@@@@@o",
" +@+@+@+@+@+@#o.ooo .o##      X#o$  +o#.5X4.6o@+@+@+@+@o",
" @@@@@@@@@@@@@#<.ooo Xoo.   .#o$  +3*4X456.4.o@@@@@@@@@o",
" +@+@+@+@+@+@+@#o.ooo Xo# .#o$  +o#.5X$ o.4247@+@+@+@+@o",
"%@+@@@+@@,+@@@+@#<.ooo Xo#o   +3*4X4$  *84.4.<,@@@+@@@+o",
" +@+@+,+@+@+@+@+@#oXooo .oo#+o#.5X$- *337X65*7@+@+,+@+@o",
"%@+,+@+@+@+,+@9@+@#o.ooo Xo *4X4X4  73oo#,+73,+@+@+@+@+o",
" +@+@+@+@+@+@+@+@+@#oXooo o #&4.65 *3o#.4o7*@+@+,+@+,+@o",
"%++@++,,+++@+++,+9+@#o.oooo =6.4.4 3#.+o3*,;,++@+++@+++o",
" +,+,+,,,+@+,,,,@+@+@#oXooo #&+24.4X+oo#@;0,@+,+@+,,,+@o",
"%++,+++++++0++++++++++#o.,o *4.6X44oo#+++++++++++++++++o",
" +,+,,,+@q@+,,,+,+@0,+@#o+o #&4O+<<*;,@+,+@+,+,,,,,,,+@<",
"%++++,q,0+,++++0++++++++#oo *4,o3*0;0++++++++++,+q+++++o",
" +++,,++,++q@0+q@+++,+++@+o #7o*;;++@+9+,,+q@,q0@+,q@++o",
"%0q++++++++0+++++0q+++0+++o73*,0++0++++0+++0++++++0++++o",
" +@+0q+0+q@+++++++@,++9+++@++00,+9,,q++q++,+++++++,++++o",
"%++++++++0+,q+0q+++0q++q+++++++++++++0,+0+++0q+0q++++++o",
" +++++q++++++,+,+++++++0++++++++q0+++9+++q,++,++,+q0+q0<",
".o<o<o7<<<o<ooooo<oo<<o<ooo<o<<<<<<o<<<o<<<oooooo<<<<<oo"};
