/* XPM */
static char * image_name[] = {
"56 46 22 1",
" 	c #FFFFFFFFFFFF",
".	c #BEFBBAEABEFB",
"X	c #000000001040",
"o	c #BEFBC30BBEFB",
"O	c #AEBAAAAAAEBA",
"+	c #BEFBC71BD34C",
"@	c #B2CAAEBAB6DA",
"#	c #000000000000",
"$	c #C30B9A694514",
"%	c #FFFFFFFF0000",
"&	c #B6DA492430C2",
"*	c #FFFF14514103",
"=	c #75D69248B6DA",
"-	c #DB6CDB6CE38D",
";	c #EBADEBADF3CE",
":	c #186124921C71",
">	c #0000FFFFFFFF",
",	c #51445555FFFF",
"<	c #96589658AEBA",
"1	c #9E799A699E79",
"2	c #A6999E79A699",
"3	c #30C251444514",
"                                                       .",
" ......................................................X",
" ......................................................X",
" .o..o..o..o..o..o..o..o..o..o..o..o..o..o..o..o..o..o.X",
" O...O...O...O...O...O...O...O...O...O...O...O...O...O.X",
" ....+O...+O.....+O...+O.....+O...+O.....+O........+O..X",
" O.OoOo@.Oo@@@o@.Oo@.Oo@@@o@.Oo@.Oo@@@o@.Oo@.O.O.@.Oo@.X",
" .o...@.o.ooo@OoOoO.o.Ooo....o@.o.ooo@OoOoO..oOo@oOoOoOX",
" O.OoOoO.O.@O.O...@..O.@.O.O.O.O.O.@O.O...@..O.@o@..O..X",
" ...O...O....+@.@o@.O...O...@...O....+@.@o@.O...@.o@@..X",
" O.O.O.@.OoO.Oo@.O.@oO.@.OoO.O.@.OoO.Oo@.O.@oO.O.@O.O..X",
" .@...O.O.O...O.@X###################X#.@.@...@.Oo@.o.OX",
" O.OoO.OoO.O.@oO#$%$$%%%$$%%$%$%%&%$$&&#.O.O.O.O.@.@.OoX",
" oO.O.@.O.@.O.O.@#$&&##&$$&##&&&$XX$&$#.O.@.OoOoO.OoO.OX",
" OoO.O.OoO.OoO.O#$%$%%%%%*%%$%$%$$%*%&&#.OoO.O.O.O.O.@.X",
" OO.O@O.OOO.OOO.@X############X#####X##.@OO.@O@.O@O.OOOX",
" O.@oOoO.@.O.@.O.#+.=-=-=;=;=;=;=;=-=;XO.OoO.O.OoO.OoOoX",
" @OOOOOOOOO@OOOO:=->-=->-=->-=->;=->-=+#@OOOOOOOOOO@OOOX",
" OoO.@.OoOoOoO.O#+=;=->-=->-=->-=->-=-,XoO.@.O.@oOoO.O.X",
" OOOOOOOO@OOOO@@:=->-=->-=;=-=-=-=;=-=>X@OOOO@OOOOOOOOOX",
" O@OoO@OoOO@.OO@X;=-=->->:+>+>:+>->->-,#oOO@.OOOoOO@oO@X",
" OOOOOOOOOOOOOO@X->->+:=-+:>-X;=+:-=;=>#OO@OOO@OO@OOOOOX",
" OO@O@O@O@O@O@OO#++=->-X:=:XX#=>X+>-=-,#@OO@O@OOOOOOOOOX",
" @OOOOOOOOOO@OO@X>->-=-=+XX##XX<-=->+=>#@OOOOOO@O@O@O@OX",
" 1O@O2OO@1O@O1@O#-++=->:X+XX##+:X->-=-,#@1@O@1OO@1OOO1OX",
" O@OOOO@OO@OOOO@X+>-=+X++XX###:-=X->-=>#@OOOOO@OOOO@O@OX",
" OO1@1@1O@O1@1@1#++=->-=>1X###=:++=;=-,#@O@1@1O1@O@1O1OX",
" @O@OOOOOOOOOOO@X->-=;=X1####X3=:>->-=>#OOOOOO@OOOO@O@OX",
" 1O1@1@1@1@1@1@1X++=->:+=:#####-=:++=-,#@1@1@1O1@1O1O1OX",
" O@OOOOOOOOOOOO@X->-=-X>-+###X->;X->+=>#@OOOOOO@OOO@O@OX",
" 1O1@1@1@1@1@1OO#++=->-+==;=;==->+=;=-,#@1@1@1O1O2O1O1@X",
" O1@OO1OOO1OOO1@X>->->->->->->-=-=->-=>#@O1OOO2O@O1O@O1X",
" 1O1@1@1@1@1@1@1#-++=;=-=->-=->-,;=->-,#@1@1@1O1O1@1O1@X",
" @1O1@1O1O1@1O1O2X->-,>,>,>,>,>,>,>,>,#@1O1O1O1@1@1@1O1X",
" 1O1@1O1@1O1@1@1@1XXXXX##X#######X##X#@1@1@1@1@1O1O1@1OX",
" 11@111@111@111O111@121@1O1@111@121@1O1@111@111O211@111X",
" 1O1@1@1@1@1O1@1@1O1O1O1O1O1@1@1@1@1O1O1@2O1O2O1O2O1@1@X",
" 1O1111111111111111O11O111O1111111111111111211121111111X",
" 1O1O2O1@1@1@1@1@1O1O1O1@1O1@1@1@1@1@1@O@1O1@1@1O2O1@1OX",
" 111111211111211111111O11111111111111O11111211111111121X",
" 112O111O212O112O1O1O111@111@1O1@1O1O111@111O211@11OO11X",
" 111111O111111111111111111211111111111111O1121111111111X",
" 1@1211111@1212111@1112111@1111111@1111111O111O11OO1121X",
" 111111112111111211121112111212121111121111O11111111111X",
" 12121211112112111211111112111111121211121111O11111O111X",
"oXXXXXXXXXXXXXXXXXXXXXXXXXXXXXXX#XXXXXXXXXXXXXXXXXX#XXXX"};
