/* XPM */
static char * image_name[] = {
"56 46 37 1",
" 	c #FFFFFFFFFFFF",
".	c #BEFBBAEABEFB",
"X	c #000000000000",
"o	c #BEFBB6DABEFB",
"O	c #C71BBAEAC71B",
"+	c #AEBAAAAAAEBA",
"@	c #AEBAA699AEBA",
"#	c #9E799A699E79",
"$	c #69A68617BEFB",
"%	c #082004100820",
"&	c #A699A699A699",
"*	c #79E79248B6DA",
"=	c #DF7DBAEA8E38",
"-	c #BEFBC30BBEFB",
";	c #71C679E78617",
":	c #000000001040",
">	c #FFFFFBEEFFFF",
",	c #EFBEF3CEF7DE",
"<	c #000000001861",
"1	c #B6DAAEBAB6DA",
"2	c #CF3CC71BCF3C",
"3	c #AEBAAEBAB6DA",
"4	c #965896589658",
"5	c #A6999E79A699",
"6	c #DF7DAEBA69A6",
"7	c #000008200820",
"8	c #A69979E78E38",
"9	c #BEFBC30BCF3C",
"0	c #96589658AEBA",
"q	c #38E36DB6A699",
"w	c #514471C68E38",
"e	c #AEBAAEBAAEBA",
"r	c #51445555FFFF",
"t	c #861779E78617",
"y	c #FFFFF3CEFFFF",
"u	c #F7DEB2CAAEBA",
"i	c #A699A289A699",
"                                                       .",
" ......................................................X",
" ...o..o..o..o..o..o..o..o..o..o..o..o..o..o..o..o..o..X",
" .o.Oo....Oo....Oo....Oo....Oo....Oo....Oo....Oo....Oo.X",
" +...+.o.@...@.o.+##$#$#$#$##+.o.@...@.o.+.o.@...@.o.+.X",
" ..o..o.....o..$$X$%$$$$$$$$$$$#..o..o...o....o..o.....X",
" +.+.@.@.@.@.$%X%#$##.$%$%$@#+%$$#.@.+.@.+.@.@.+.+.@.@.X",
" ..Oo....o..XXXX$%####%$%#.%$%$%$X#............o.Oo.o..X",
" .o........XX$%$%##.$$#$$$#$%.o$%$%$.....oOo....o....o.X",
" &...&..&.X%$%$X####.#.#$...o#..$%$%$.&o..&...&.&...&O.X",
" ........%X$%$%#$%#o#.#.Oo.#$$#.$$%$%$.................X",
" &.&o..&%%$%$%$X####.#..o..##$$$$%$%$%*.&...&.&o=.&..-&X",
" -.-=o.;:$%#XXX$#.#o#.#..>o .##$$$$$%$X..=o..--.o.-=o.-%",
",=.&-&$:%%$$X#$%$###Oo..o... >O*$%$%$<;%&-&-&1=-&o&o&-&X",
" o&...%%%#$%%#%$%.#.#.#.. . . o>.#$$$$:$;2.&-.o+-=3..=-X",
" 1-&2;%X$%$%$X$###o#o...o. .     O#$$%$<$.&o=-&-&-&.&o&X",
" .&-1X:$%$%$%$%$#.#.#..oO . . . . #$#=o$:;2&2&.=.&2&2&-%",
",=-1;%$%$X$%$%$%####.oOo.. .      $..4#<$;&o&2&.&-&o=.&X",
" &=.;<XXX$%$%$%$%.#o#.#.. . . . . . $$#$:$O=1==&=&.=&=-%",
" &.1<:$%$%$X$%$%$#O#..o..o.. . . . $$.$%5.&o=o&o&2&.&o&X",
" =&&%%X$%$%$%$X$%.#.#o#.o . . . . $ .$%.%%X&&&=&&6&=-&=X",
" &-&X%$XX%$%$%$%$###.O..............O$o%$X:.=.&2&O&.&2&X",
" &1=7XX$%$%$%$%$#o#.#.#o.                    #&=&=&&=&&%",
",=.&XX$%$XXX$%$#######... XXXXXXXXXXXXXXXXXX:;&O&O==&-&X",
" &=&7XXXXX$#$#$#$##o#o#o# X. . . . . . . . .%;O&=&&&=&=X",
" &&&XX$%$%$$$$#$########. X$.X X X X X X X $:$#=&&=&@=&X",
" &=&%XXX%$$$$     $##.#.## X$.X.X.X.X.X.X.XX$5&=&=&&=&&%",
" &&+XX%$%$$$    . $#####$X# XXXXXXXXXXXXXX<;&&=@&&8=&&5X",
" =&&8%XX%$%$   . .;3;3X$%$X$#$$$X  ..$$$$$$35=&=&=@@==&%",
" #&&$XX%$$$   . .90q0##%$%$%$%#X#. .$$$X*<w&&o8&&&&&#&5X",
" &=e&7%$%$%  &-.o$r&*#$#X$%$%##$%$ .$&%$%%1=#&=+&=&=#=&:",
" &&#o;XX%%$  t&$$*&$#$##$%$X.###$X 2;%$%:;&&&&&&&&&&&&#X",
" &=#&1%;<$%  $7;$#$#$#$#$$#.#.X$%# .$3XXX@5&=#&=&&=81=#%",
" &&&&     X  $                      >          >>y>y&#&X",
" &&&& ....X  ;9.$X$...X..$X$..$X$...X..$X;9o.X.4uuu &&&%",
" &&&& ..o.X  $..X.X..XX..X.X..X.X..XXo.X.:..X7.&uX  #=5X",
" &&4# XX$..  $2;<$X$$$X$#X.X#XX#X$.$XX.X#X.##X.&u:  &##X",
">&&4= ####X  $03$%$###%##$%$##$%$###X##$X$###X#iuX  &&#X",
" #&#4>####.  $##################################iuuu##5X",
" 4&&&9;$$$#  $ >>$$$$$$$$$$$$$$$$$$$$$$$$$$$$$$$;$$;&&#X",
" ###5#3#### .   ..$$%$%$$.##$#%%%$ .$##########53030###%",
" ########### . . $$%$%$%$$$%$%$$## O$##############5###X",
" ############ . ..$$%$%$$#$####### .$##################X",
" ############# ..$$############### .$##################X",
" ##############$$$################ .$##################X",
".XXXXXXXXXXXXXX%%%%%%%%%%%%%%%%%%XXX%%%%%%%%X%XXXXXXXXXX"};
