/* XPM */
static char * image_name[] = {
"56 46 12 1",
" 	c #FFFFFFFFFFFF",
".	c #BEFBBAEABEFB",
"X	c #000000000000",
"o	c #69A68617BEFB",
"O	c #AEBAA699AEBA",
"+	c #BEFBB6DABEFB",
"@	c #9E799A699E79",
"#	c #AEBAAAAAAEBA",
"$	c #082004100820",
"%	c #F7DEB2CAAEBA",
"&	c #B6DAAEBAB6DA",
"*	c #000008200820",
"                                                       .",
" ......................................................X",
" ......................................................X",
" ..........................Xo..........................X",
" ...O...O...O...O.X.O...O..oXX..O...O...O...O...O...O..X",
" .........+......oX.........X@X...+.......+...+........X",
" .O.O.O.O.O.O.O.oXX.O.O.O.O.X@oXO.O.O.O.O.O.O.O.O.O.O.OX",
" ....O.......O..XoX..O......oo@oX....O.......O.......#.X",
" .O.O.O.O.O.O.OoXoX.O.O.O.O.OX.oXX#.O.O.O.O.O.#.O.O.O.OX",
" ..O...O...O...X@oX#...O...O.X.OoXoO...O...#...O...O...X",
" .#.#.O.#.O.#.oX.oXoO.#.O.#.OX..ooX@#.O.#.O.O.O.O.O.#.OX",
" #...#.#.O...OXO@oXX.#.#.O.oX@@ooXXo@#.#.O...#.#.O...#.X",
" .O.O.#.O.#.#.X.@@XoX@@ooXXXXXXX$XXX@@#.O.#.O.#.#.#.O.#X",
" #.#.O.#.#.#.OX@.ooXXXXXXXXXXXXXXXXXo@@#.#.#.#.O.#.O.#.X",
" .#.#.#.O.#.#.XXXXXXXXXXXXXXXXXXXXXXX@@@#.O.#.#.#.O.#.#X",
" #.##O.###.OOOXoXXXXXXXXXXXXXXXXXXooXo@@##.##O.###.###.X",
" .#.#.#.#.#.#.XXXXXXXXXXXXXXXXXXXXOXXX@@@##.#.#.O.#.#.OX",
" ############OXoXXXXXXXXXXXXXXXXXo@XXX@@###############X",
" .#.#.O.#.#.O.XoXXXXXXXXXXXXXXXX@@XXXX@@@##.O.#.#.#.O.#X",
" #########O###XoXXX#oXXXXXXXXXX@@XX@XX@@@##############X",
" ##.###.###.##oXXXooO@@@@oXXXXo@XXX%XXo@@@#####.O##.###X",
" #########O###oXoXXXXXooo@@XXX@oXX&%XXX@@@@############X",
" ##############o$XXXXXXXXXX@XX@XX %@*XXo@@@############X",
" ##############oXoXXo@@oXXXXoXoX% %XXXXX@@@############X",
" ###@###@###@###XoXXXX@%% @XXXoXXX*XoXXXo@@@####@###@##X",
" ############O##$oXXXXXo% %XXXX@XXooXXXXX@@@###########X",
" #@#@#@###@#@#@#XoXXXXX$*XXXXXXo@XXXXXXXX@@@##@#@#@#@#@X",
" #######O######OXoXXXXXXooXXXXXX@XXoo@XXX@@@@##########X",
" #@#@#@#@#@#@#@#XoXXXXXoXXXoXXXXX@XXXX@XX@@@##@#@#@#@#@X",
" ###############o$oXXXXXXXXoXXoXXoXXXXXoX@@@@##########X",
" #@#@#@#@#@#@#@#@XoXXXXXXX@XXX@@@XXXXoXXX@@@@#@#@#@#@#@X",
" @###@###@###@###oXoXXXXX@XXXXXXXXXX@XXXX@@@#@###@###@#X",
" #@#@#@#@#@#@#@#@#XXoXXX@XXXXXXX@Xo.@XXXo@@@@#@#@#@#@#@X",
" @#@#@#@#@#@#@#@#@OXXoXX@XXXXXXXXo..oXXXo@@@#@#@#@#@#@#X",
" #@#@#@#@#@#@#@#@#@#XXoXoXXoXXXXo...oXXX@@@@@#@#@#@#@#@X",
" @#@@@#@@@#@@@#@@@#@@XXoXXXXooo@...oXXXX@@@@@@#@@@#@@@#X",
" #@#@#@#@#@#@#@#@#@O@OXXoXXXXX@@..oXoXXo@@@#@#@#@#@#@#@X",
" @@@@@@@@@@@@@@@@@@@@@@XXoXXXXXXXXX@XXXo@@@@@@@@@@@@@@@X",
" #@#@#@#@#@#@#@#@#@#@#@OXXoXXXXooo@XXXX@@@@#@#@#@#@#@#@X",
" @@@@@@@@@@@@@@@@@@@@@@@@XXoXXXXXXXXXXo@@@@@@@@@@@@@@@@X",
" @@#@@@#@@@#@@@#@@@#@@@#@@XXoXXXXXXXXX@@@@@O@@@#@@@#@@@X",
" @@@@@@@@@@@@@@@@@@@@@@@@@@XXXoXXXXXX@@@@@@@@@@@@@@@@@@X",
" #@@@@@@@#@@@@@@@#@@@@@@@O@@oXXXXo@@@@@@@O@@@@@@@#@@@@@X",
" @@@@@@@@@@@@@@@@@@@@@@@@@@@@@@@@@@@@@@@@@@@@@@@@@@@@@@X",
" @@@@@@@@@@@@@@@@@@@@@@@@@@@@@@@@@@@@@@@@@@@@@@@@@@@@@@X",
".XXXXXXXXXXXXXXXXXXXXXXXXXXXXXXXXXXXXXXXXXXXXXXXXXXXXXXX"};
