/* XPM */
static char * image_name[] = {
"56 46 34 1",
" 	c #FFFFFBEEFFFF",
".	c #BEFBB6DABEFB",
"X	c #BEFBBAEABEFB",
"o	c #000000000000",
"O	c #C71BBAEAC71B",
"+	c #AEBAA699AEBA",
"@	c #082004100820",
"#	c #71C679E78617",
"$	c #69A68617BEFB",
"%	c #FFFFFFFFFFFF",
"&	c #000000001861",
"*	c #AEBAAEBAB6DA",
"=	c #EFBEF3CEF7DE",
"-	c #514471C68E38",
";	c #000008200820",
":	c #965896589658",
">	c #96589658AEBA",
",	c #A699A289A699",
"<	c #000000001040",
"1	c #F7DEB2CAAEBA",
"2	c #5965A289D75C",
"3	c #38E36DB6A699",
"4	c #9E799A699E79",
"5	c #A6999E79A699",
"6	c #A699A699A699",
"7	c #AEBAAAAAAEBA",
"8	c #FFFFFFFFC71B",
"9	c #DF7DBAEA8E38",
"0	c #AEBAB2CACF3C",
"q	c #79E79248B6DA",
"w	c #FFFFFFFFD75C",
"e	c #A69979E78E38",
"r	c #FFFFF3CEFFFF",
"t	c #B6DAAEBAB6DA",
"                                                       .",
" .X.X..X.X..X.X..X.X..X.X..X.X..X.X..X.X..X.X..X.X..X.Xo",
" .O.O.O.O.O.O..O.O.O.O.O.O.O..O.O.O.O.O.O.O..O.O.O.O..Oo",
" .............O..............O..............O.......O..o",
" X+O.O+.O.+O..+.O.+O..+O..+O..+.O.+O..+O..+...+O..+...+o",
" O............O......O...O....O..O...O...O.O.O....O.O.Oo",
" .+.+O+O+.+O+.+.+O+.+.+O+.+.+.+.+.+.+.+O+.+.+.+O+.+.+.+o",
" ..O.+...O...+.O....O+.....O.+O..O..O+.....O.+....O..+.o",
" X+.+.+.+.+O+.+.+O+.+.+O+.+.+.+.+.+.+.+O+.+.+O+.+O+.+O+o",
" ..O..O+.O....O+.....O.+.O.O.O.+..O..O.+...O...+...O...o",
" .+.+.+.+.+O+.+.+O+O+.+.+.+.+.+O+.+.+.+.+O+.+.+O+.+.+.+@",
" +..O+..O+...+.O.+...+.O.+.O.+...+O.O+.O.+.O.+O..+..O+.o",
" O+.+.+O+.+O+.+.+.+O+.+.+O+.+O+.+.+.+.+.+.+.+.+.+O+.+.+@",
" +.+.+.+.+.+O+.+O+.+.+O+.+.+.+.+O+O+.+O+.+O+.+O+.+.+O+.o",
" X+O+.+O+.+.+.+O+.+O+.+.+.+O+.+.+.+.+.+.+O+.+.+.+O+.+.+@",
" +++.+++.+++.+++.+++.+++O+++.+++.+++O+++.+++O+++.+++O++o",
" .+.+  # $ $ # $ $ # $ $%# $ $ # $ $%# $ $ # $ $ #&.+.+@",
" ++++%$$$$$$$$$$$$$$$$$$$$$$$$$$$$$$$$$$$$$$$$$$$$$++++o",
" X+.+$$$$$$$$$$$$$$$$$$$$$$$$$$$$$$$$$$$$$$$$$$$$$o.+.+o",
" +++*=$$$$$$-o$o$&-o$o$&-o$o$&-o$o$&-o$o$;*$:>:>,$$++++o",
" ++.+$$$$$$$$$&ooo<&oooo<&oooo&<oooo<&oooo$$>111*$oX+++@",
" ++++=$23$$$$oo4111111111111111111111111oo.$5111,$$++++o",
" ++++$$$$$$$$$511111111111111111111111154o$$:*5+4$o+44+o",
" +++*=$$$$$$-5111111111111111111111111*;6o.$$$$$$$$444+o",
" 7+++$$-$$$$>1111                 1811566@#$$$$$$$o4444o",
" +++*=$$$$$>1111 %6%6 %6%6 %6    11116o9@$0$$$$$$$3444+o",
" +++4$$$$$q11111 66%6%6%6%%6%%  11115466#$$$$$323$&544+o",
" ++++%$&$:X<<*1  6w6%%6%6%%6%%  1115@66<$&-;$<$@$@@444+o",
" +4+4+:*:1;o61     %%%w%%%%%%%%1111<69o#0>+4>:445444444o",
" ++++++511111     %%%  %%%% % 111156655>:44444444444:4+o",
" +4+4+44@o*o44.4X4.5.5.5.4.4.o5;5@@66@545444444444:4444@",
" 4+++4+o@6@6@.4.4.4.4.4.4.4.66@6@6@664444>e44444:44>e4+o",
" +4+4+44o@@@@$o$o$o#&#&#&#<$@#<@@@@56444:44>:e>4e544444o",
"r4+4+4+4+4444444445>5>5>5>4445445454444e444445444>e444+o",
" +4+4+4+4+4444444444>44444544>4444444e4>44e+454+4+4+4+4@",
"r4445454+44:44444:44444444:444444444444444>4+4+4+444+4+o",
" +4+4+4+4544:4e>4444:44444444:4:4e444:5:4+4+4+4+4+4+454@",
"r45444+444444>444>e45e4>e4>e45e445:45e45e4+444+e4>+e45+o",
" +4+45554+e>444:444>44444444>4444:4e>4454+454+>+4+4+>54@",
"r444+4444454+e4>e444+:>44444544>e445+44>4444+4444444+44o",
" +455e>+454+454+555544e+454+5:4+5+>54:454+e+5e>+4555444@",
"r4444445e44444444444445>4444>e4444:45e4445>4>45e4444444o",
" +4555444+45454e>+454+44e+455+44e+454+>4e+4+4+44>+e+455o",
"r44444444>e4454445e54>e44544444:5>454444>444444444>4544o",
" 4455e>+445+4e>+44>+444+>:e+44et:4:+4e555:454e>+444+:44@",
".o@@@o@@@oo@@@@@o@@@@@@@@@<@<@<o<@@@@@o@@@@@<@@@@@@@@@oo"};
