/* XPM */
static char * image_name[] = {
"56 46 17 1",
" 	c #FFFFFFFFFFFF",
".	c #B2CAAEBAB6DA",
"X	c #AEBAAAAAAEBA",
"o	c #BEFBBAEABEFB",
"O	c #000000001040",
"+	c #9E799A699E79",
"@	c #000000000000",
"#	c #A6999E79A699",
"$	c #79E786179E79",
"%	c #BEFBC30BBEFB",
"&	c #B6DA492430C2",
"*	c #EBADEBADF3CE",
"=	c #FFFF14514103",
"-	c #EFBEBEFBC71B",
";	c #DB6CDB6CE38D",
":	c #51445555FFFF",
">	c #8E388A288E38",
"                                                       .",
" XoXoXoXoXoXoXoXoXoXoXoXoXoXoXoXoXoXoXoXoXoXoXoXoXoXoXoO",
" ......................................................O",
" o.oXoXoXoXoXoXoXoXoXoXoXoXoXoXoXoXoXoXoXoXoXoXoXoXoXo.O",
" +.ooXoooXoooXoooXoooXoooXoooXoooXoooXoooXoooXoooXo.oX.O",
" .oXoXo.Xo.XoXo.Xo.XoXo.Xo.XoXo.Xo.XoXo.Xo.XoXo.XoXoo.oO",
" X.XoX.XoXoX.XoXoXoX.XoXoXoX.XoXoXoX.XoXoXoX.XoXoX.XXXo@",
" .ooXoX.oXoXo.XXoXoXo.XXoXoXo.XXoXoXo.XXoXoXo.XXoXooo.XO",
" +.XXX.XXXoX.X.XoXXXoXXX.@O@@@@O@@@@.XoXXXoX.X.XoXXXXX.O",
" .o.XoXoXo.XXooXXoo.X.o@O@         @@oX.Xo.XXo..XXooXooO",
" X.XXXoXX#oXXXXX.XXX.@@ .@@@      @$.OoXXX.XXXoXXX.XXXXO",
" XXooo#.#oXXoo#oXXX@O  o@@  @.X.X@@@@.@.#oXX%XX.X.Xo..XO",
" +XXXX.#o#.X.#.#.@@   .@@    @@@@X.X @@@o#.XoX.XXXoXXXoO",
" .X.#o#.X.X.#oX@O    .@o@     X.Xo     @@oX.XXX.XXX.X.XO",
" X.Xo#.#o#.#.@@     .@.@   &  &&*        @@X.X.Xo#o#.XXO",
" +X.###%##X%@      .@ X@   *=&-&           @###.##XXX#XO",
" +o#.#.X.#.X@     .@ X@  &&&&-&*           @.Xo#.#o#o#.O",
" X##X#X##X##X@   X@  X@  **;-&=  ::       @X#X##X##X+XXO",
" XXX.#%#.#.XX@  .@  .@      &;*    ::     @XXXX#%#.#.#.O",
" #X#######X#XX@X@   X@     *&   ::   ::  @X+X#X###X##XXO",
" ++X%X##%+##.X@@   X@   ::  *     ::     @XXXX##.X+Xo#+O",
" #X#######XX+X@    X@     ::   ::   ::  @#X+X##X###X+XXO",
" X+X##X#####X@    X@   ::   ::   ::     @X+X####X###X##O",
" XX+X#X#X#X+X@    X@     ::   ::   ::  @X+XX###X##X#X+XO",
" >XX++#X++#X#+@  +@   ::   ::   ::     @X>X+X+##X++X++XO",
" X###X+X#X+X+XX@ X@     ::   ::   ::  @+XXXX+#X+X+X#X+XO",
" +#+#+X>XX#+#>X>@@   ::   ::   ::     @+X+X>X+#+X#X>X++O",
" X+X+X+XX+X+#XXXX@     ::   ::   ::  @XX+X##X+X+X+XX+XXO",
" +#+#>X>X+#+#++>@        ::   ::     @X>X>X+++X+++X>X++O",
" ####X+XX+X+X+XX@          ::   ::  @XX+X#X+X+X+XX++X+XO",
" +++X>X++>X++>X>X@@          ::     @>X>X>X>X+#+++#+#>XO",
" X>X+X++X#+#XX++XX+@@          ::  @XX++X#++X+$X#X+##X+O",
" +#+#>X>X>X>#+++X>#+X@@            @X>X+++#+++X>X$+++++O",
" ++++++++#+++X++>X>X>X+@@         @X>#+++#+#+++X>X+++X+O",
" +++++#+X>#>#+++X>X>X>X>X@@       @+X>X+++#+++#+++++#++O",
" +>+++++++++++++++>X++>X>>+@@    @>X>+>+++>#++>++++X>>+O",
" +++#+++++++++++X>X>X>X+X+#+X@@  @X>X+X+++++++#+++++#+XO",
" +++>>++++++++>+>+>+>++>+>+>>>+@@>+>+>+>+++++>+++++>++>O",
" +++#++++>#>#+++X+++X>++X+X>X+X>X+X>X>X>+++>#++++>X>#+#O",
" >+>++>>++++>+++>>++>++>+>>++>+>+>+>++>++++>++>>+>++>++O",
" +>+++++++>>X+>>X>+>X>+>X>+>X+>+X>+>X>++++>+#+++++>+#>+@",
" >++>+>>+>++>>+++++>++>>+++>>+>>+>+>++>>+>>++>>>++>++>+O",
" ++>+>+++>#++>+>>+++>+++>++++>+>++++>++>+>X+>++++>#+>++O",
" >>+>++>+>+>+>+>+>+++>+>>+++++++++>+++>+>++>+>>>+>>+>+>O",
" +++>+>+>++>+>+>+>+>>+>++>>>>>+>>+>+>>++>+>+>+++>++>++>@",
".O@O@OO@O@@OOO@OOO@OOOOO@OOOOO@OOOOOO@OOO@O@O@@@O@@OO@OO"};
