/* XPM */
static char * image_name[] = {
"56 46 44 1",
" 	c #FFFFFFFFFFFF",
".	c #D75CD34CD75C",
"X	c #186120812081",
"o	c #D75CDF7DE79D",
"O	c #E79DE79DEFBE",
"+	c #514455554924",
"@	c #000000000000",
"#	c #9E799A699E79",
"$	c #AEBAA699AEBA",
"%	c #AEBAAAAAAEBA",
"&	c #B6DAAEBAB6DA",
"*	c #618561856185",
"=	c #AEBAAEBAB6DA",
"-	c #AEBAAEBAAEBA",
";	c #BEFBB6DABEFB",
":	c #69A669A671C6",
">	c #082004100820",
",	c #A6999E79A699",
"<	c #CF3CC71BCF3C",
"1	c #8E388A288E38",
"2	c #71C675D671C6",
"3	c #EFBEF3CEF7DE",
"4	c #965896589658",
"5	c #28A22CB230C2",
"6	c #79E786179E79",
"7	c #A699A289A699",
"8	c #5144A2894924",
"9	c #AEBA61856185",
"0	c #492449245144",
"q	c #208120812081",
"w	c #8E38861779E7",
"e	c #71C679E78617",
"r	c #A69979E78E38",
"t	c #FFFFF3CEFFFF",
"y	c #30C234D330C2",
"u	c #AEBA9E795965",
"i	c #514471C68E38",
"p	c #FFFFFFFFC71B",
"a	c #BEFBC30BBEFB",
"s	c #861779E78617",
"d	c #5965514428A2",
"f	c #A699A699A699",
"g	c #000008200820",
"h	c #C71BBAEAC71B",
"                                                      .X",
"  .o.o.o.o.o.o.o.o.o.o.o.o.o.o.o.o.o.o.o.o.o.o.o.o.o.O+@",
"  #$%$#$$#$$#$$#$$#$$#$$#$$#$$#$$#$$#$$#$$#$$#$$#$$#%&*@",
"  %$=$%-$%%-%%-%%-%%-%%-%%-%%-%%-%%-%%-%%-%%-%-$-$=%-;:@",
"  %-$-%%%%%%%%%%%%%%%%%%%%%%%%%%%%%%%%%%%%%%%%%;#-&;-=*>",
"  ,-=$-;;;;;&;;;;&;;;&;;;;&;;;&;;;;&;;;;&;%<;;-11 .--;+@",
"  %$--&:++++++++++++++++++++++++++++++++++++++:<  <-&;:>",
"  $-$-;2<                                    ;-  <----*@",
"  -$--&:=                                   1< O;-%$=;:@",
"  #-$--2;                                  *O 3---$--=2@",
"  #$--;2-  <- -<<. O<.<< <.<<. <-.< O<<< <+  <---$=-$;*@",
"  %-$;-2-  &2 :;-- O#-24 ;---- 1244.<##-##  <=$-&,#;--*@",
"  %%--&2=  1:2:@2#o+<;:5+::2X*1        1<  =---;4+6-;;2@",
"  -$$-=:&  OOOO  OOO3Oo3OOO OOO.Oo.O O:O  ----&6++1&--:@",
"  7%$-;2-  411#- 4##4-:24#1 64#24#1-;1O O-%%;$:+++4&-&*@",
"  %%$--:;     8:51:+618O=9829862: O<=O <--$&=*+++>:;%=*@",
"  %%-$&2-   OOOO3OOOOO O3333O3 O  4-  <--;&7+++0q+=&-;:@",
"  7&-;-:;  452:*862+4w616: 18e:1<-; O;#%&%6++0+X+.&$-=2@",
"  %---&2-  #4 ##r 1#644+6418t#OO1< O;--&;:++++qqe=&-$&*>",
"  4-$--:;  3O OOO 3OOOOoOOOO Oo8O o---;=*+++0@@::&-$-;+@",
"  %$$-&2-  +*:22:-<-  -2O 2*<.1  <-=&--+++0q>:>+:;-$-;:@",
"  -$-$-:&  :# #412.<:#46O-< #:O ;-=-;4++0*@y.o>+:;-%--2@",
"  $-$-;2;  .O OOO.  .OO  O :1OO-4-$;1+++*@5  .@+u;$&-;:>",
"  $-$--:-  :*2@2*:+**+*:@+.+     O-:++0+@2<: o@0e&&---2@",
"  -=-$;2-  ;==4-;;--O .-  +< <<<.<2+++q@#    <@+9==$$&*@",
"  7$$--:;  <.<-.<..<   < #:  O. ;#:#:X@&     <@+i;$--&:@",
"  ,-$$;:-        +-.+55#O+  O;p-6:#25qO      <>*:;--$;*>",
"  $--;-:;  ;-1;--a#- O< *= o<O-612@>+O.=%    .>08;&-&-*@",
"  -$--&2-  ..=<<.<;<3O.-: <3<-2+@@*&  <;-    <>0s&---;*@",
"  $$---:;  5@:+ *+:*d..:.. ;-5@X:            .@+w;%$-&2@",
"  #-$-;:-  o.. <=..o 35+;<:X@+$              <@+:;$-=;:@",
"  $-$--:;  &=4 #1a=< 1@@5X@4.                .@+:;$-$-2@",
"  $$--&2-       O*+=<5@@X6f +@++*-&55+**+    <@*u;-%$;*@",
"  -$-$-:;  ; <.-OoO 2g5<oO<.o O  .o  oO<o.<  .>*:&=%-&:@",
"  7$$-;:-  : #4*##aO**6254&## 1-O64<<4#:1##  <@0:;-%%&*>",
"  -;-;&2;            <--;<<<                 .@+r;%%-;2@",
"  %---;*<             Oa-a-;--<              <@+8;=%--*@",
"  7$-$h8;-114141414114#:+++*:**++:###4146141#:@+s;=&-;:@",
"  %%&-$hs5Xq@5@5Xq@5Xqg555Xq@@@@@@@@@XXqqXXXqX5+e&$%%;*>",
"  7%-$&%&:++*+*+++*+++*+++*+*++++0*+++++0d+:*+*0:&&-$-2@",
"  %%%%-%&;-;==;-;-;-;-;-;&=;=&&:++0+0+0++0444%;&;$--$;*@",
"  %%%%%-===--;--;-;--;--;--%-;&%er1e466146611;;--$-$-&:@",
"  %-%%$-----=--=----=----%%%%%%&;&-&&-&--&7-&-7-$=-$-&*>",
"  $%;;;;&;;;-;;-;-;;;-;&;-;;=;&&-;&-&;;&&;;-;-;;-;;-;;2@",
"  216w661616161616161616w616w611161116w6w611616w1611642@",
" 5@X@X@X@X@X@X@X@X@X@X@X@X@X@X@X@X@X@X@X@q@X@X@X@X@X@q@@"};
