/* XPM */
static char * image_name[] = {
"56 46 26 1",
" 	c #FFFFFFFFFFFF",
".	c #EBADEBADF3CE",
"X	c #B2CAAEBAB6DA",
"o	c #BEFBBAEABEFB",
"O	c #000000001040",
"+	c #AEBAAAAAAEBA",
"@	c #A6999E79A699",
"#	c #9E799A699E79",
"$	c #BEFBC30BBEFB",
"%	c #000000000000",
"&	c #30C251444514",
"*	c #FFFFFFFFD75C",
"=	c #186124921C71",
"-	c #8E388A288E38",
";	c #DB6CDB6CE38D",
":	c #DF7DAEBA9A69",
">	c #EFBEBEFBC71B",
",	c #B6DA492430C2",
"<	c #71C679E78617",
"1	c #AAAA79E78E38",
"2	c #BEFBC71BD34C",
"3	c #79E786179E79",
"4	c #0000FFFFFFFF",
"5	c #75D69248B6DA",
"6	c #96589658AEBA",
"7	c #FFFF14514103",
" .  .  .  .  .  .  .  .  .  .  .  .  .  .  .  .  .  .  X",
" oXXXXXoXXXXXoXXXXXoXXXXXoXXXXXoXXXXXoXXXXXoXXXXXoXXXXXO",
".XoXoXXXXoXXXXXoXXXXXoXXXXXoXXXXXoXXXXXoXXXXXoXXXXXoXoXO",
" XXXXoXoXXoXoXoXXoXoXXoXoXoXXoXoXXoXoXoXXoXoXXoXoXoXXXXO",
" +XXo@XoX+XoX+XoX+XoX+XoX+XoX+XoX+XoX+XoX+XoX+XoX+XoX+XO",
".XXoXoXXXXXXXXXXXXXXXXXXXXXXXXXXXXXXXXXXXXXXXXXXXXXXXoXO",
" +X@X@o@o@o@o@o@o@o@o@o@o@o@o@o@o@o@o@o@o@o@o@o@o@o@X@oO",
".XXoXo#oXXo+oX@XXo+oXX++o+oXXo#oXXo+oX@XXo+oXX@o+o+oXo@O",
" @o#o@X@X+++X@$@X@$#o@X+X+X@$#o@X+++X@$@X@$#$@X@$@X@X@XO",
" XXo@+$X++$X+XXX@o+o#$+$@XXo#oXX++$X+X+$@o+o@+$X@XX$@oXO",
" @X@o@X@$#X@X+X+X@$#o@X@X+X@X@$@X@X@$@X@X@$#o@X@$@X@X@o%",
".X@o+$@o#o++$X#$@o#oXX@o&*$=     *  *@-&-o#oXX+X#$@XoX+O",
" @o#o#X@X@X%============;   ==&oo.     ;+;;*-=X@o#o@X@XO",
" X@X@o@$@$@;           *; .:> :&,&<1:  ::  ::*=o@X@X@$@O",
" @X+X@X#o#;;;@o@@X@+X+&X  1>>>:>>> >>,,2>>>..:;=o@$#$#oO",
".@@$@@@o@+$;<%&<&&&&&<,   1>>.1:.:>>o>13&<&>: X-@@@o@@@O",
" @X@X+$#o@;*%2 .    22. @=: >.:>>>1  ::  1:..:#@X@X@X@o%",
" @+@@@#@+#;.=  .2;22;2    >>1<>. > ,=..::..>1 o$@@+@+@+O",
".+X@$@$@X@;.% .222222.      .>==& . ;=O .  . >&.X+X@X++O",
" +@@@@@@@+$ =.;222222  -o .>> . >&&>>  >:  >:<@<@@@@+@+O",
".@+@$#+@$@.<%;22224..  2-=:>>.1:>. >>>:;>>>><&##++@@$#@O",
" +@@@@@@@+&X &&352;. .=-@X1::.1>>>>:::1   .:=1@@+@@@@@+O",
".@+@@+@@@%$   .X2==<.  ;+@,;..::>>1..:1  :>==,@@@+@+@+#O",
" @@#+@@+%;    .&=%;%=%=X; .1:X,. 1X,:> 11.&,,%+@+@@@@@+O",
" -+@+-+%$        $$%&o#o&= ..13=<>6<&=; .oOX6+@+##@+@##O",
".+@+@+%;        &==2: ==<  >. . . ..> ..>@+==@+@+@@@@@+O",
" @@-+-$            -<<X;+<:.>.1::> >>>>>,=&,=,6##+@#@#@O",
".+@+@@               ;=%>.111>1>>>.11::.&+6,=O+@+#+@@@@O",
" -+-+-           ;<&&<1-X :.  1:>>1  1>&O&,3=,6-+#@###@O",
".+@+@+           =..o#%=<;,1:.: .:.11:>,,%%1,=+++#+#+@+O",
" -+-+-           %<;<&; .;.  .     . oX666@-X3@-+-+#@-+%",
".+-+@+           $;*   &.  .  .     .;&@O@#OO+-++@##+@#O",
" #@#@-              ;&&.  =>:.1::> ::&=,1==,,&@-+-+-+-+O",
".+-+-+             =<;    7:1>:>>>.:1,,61=O,==#@#@#@#@#O",
" -+-+#;X%%%%%%%%%%%<* o   : . 1:>>1X6,<1@==6=,3#@-+-+-+O",
" #-+##=O%##+###+##-&=&#;-2,::.:.>>>,<,O,,==,,=-@##-+-#-O",
".#+-+-+#+#@-+-+-+#@#+@@#@663@1@1+161636666@366@#@-+#+-+O",
" #-#-##-#-#-#-#-#-#-#-#-#--16-66-#6-616-#161#-##-#-#-##O",
".#+-+-+#+-+#+-+-+-+#@#@#@#+#@#@-@#@-@#@#@-+-+#@-+#+-+-+O",
" #-#-#--#-#--##-##--#-#-#--#-#-#-#-##-#-#-#-#-#-#--#-#-O",
".#-#+-##+-#-+-#-+-##@-#-+#-#@-##@#-#@-#-+#-#@#-#@##-+#-O",
" ##-#-#-#-#-##-##-#-##-##-#-##-#-#-#-##-#-#-#-#-#-#-#-#O",
".#@#-#-#-#+-#-#-##@#-#-#-#+-#-#-#-+#-#-#-#@#-##-##+-#-#O",
" -#-##-##-#-#-##--#-#-##-#-#-##-##-#-#-##-#-#-#-#-#-##-O",
" -#-#-#-#-##-#-###-#-#-#-##-#-#-#-#-##-#-##-##-#-#-#-#-O",
"XOOOOOOOOOOOOOOOOOOOOOOOOOOOOOOOOOOOOOOOOOOOOOOOOOOOOOOO"};
