/* XPM */
static char * image_name[] = {
"56 46 21 1",
" 	c #FFFFFFFFFFFF",
".	c #BEFBBAEABEFB",
"X	c #000000001040",
"o	c #BEFBC71BD34C",
"O	c #9E799A699E79",
"+	c #AEBAAAAAAEBA",
"@	c #B2CAAEBAB6DA",
"#	c #EFBEBEFBC71B",
"$	c #A6999E79A699",
"%	c #000000000000",
"&	c #8E388A288E38",
"*	c #79E786179E79",
"=	c #96589658AEBA",
"-	c #71C679E78617",
";	c #51445555FFFF",
":	c #EBADEBADF3CE",
">	c #DB6CDB6CE38D",
",	c #AAAA79E78E38",
"<	c #0000FFFFFFFF",
"1	c #186124921C71",
"2	c #75D69248B6DA",
"                                                       .",
" ......................................................X",
" ......................................................X",
" o....o...o...o...o...o...o...o...o...o...o...o.....o..X",
" O...+...+...+...+...+...+...+...+...+...+...+...@...+.X",
" ......................................................X",
" +.+.@.@.+.@.@.+.@.@.+.@.@.+.@.@.+.@.@.+.@.@.+.@.@.+.+.X",
" .....+.......@.......@.......+.......@.......@.......+X",
" +.@.@.+.@.+.@.+.@.@.+.+.@.@.+.@.@.+.@.+.+.@.+.+.@.+.@.X",
" ...+...@...@...+...@...@...+...+...@...@...@...@...+..X",
" +.+.+.+.+.@.+.@.+.+.+.@.+.@.+.@.+.@.+.+.+#$.+.@.+.@.+.X",
" .@...@.+.+...+.@.+.#.+.+.+.#.@.+.+.%%%%%%+...+.@.+...+X",
" +.@.+.+#$.+.@.+.+.+.$.+#$.+.+.+.%%%%%%%%%%+.+#$.@.+.@.X",
" .+.$#+.+.@.+.+.+.+.+.+.+.+.+.%%%%%%%%%%%%@.+.+.+.+.+.+X",
" +.@.+.+.+.+.+.@.+.@.+.@.+%%%%%%%%%%%%.@.@.+.+.+.+.@.+.X",
" ++.+++.++@.+++.+++.+@+%%%%%%%%%%%@.+@+.+++.+++.+++.+++X",
" +.+.+.@.+.+.+.+#$.+%%%%%%X%%%%&*&*=**&+.+.+.@.@.+.+.@.X",
" ++++++$++++++++$+@+%%%%%%%%%%X*********-+++++++++++@++X",
" O.+.+.@.+#$.+#$.@%%%%%%%%%%;;;;;;;;;;;;;*.+.@.+.+.+.+.X",
" ++@++++++$+++$@+%%%%%%%%;;:::::::>:>:>::;++@++++++++++X",
" +++.@++.+@+.+@X%%%%%%;::::%X%%%X%X%XX%XX:++.+++.+++#$+X",
" ++++++++++$@+%%%%%;:::%%%X%%%%%%%%%%%%%%%++++++++@$+++X",
" +++++++++++++++%;::%X%%%%%%%%%%%%%%%%%%%%%@+++++++++++X",
" ++++++@$@++++++%;::%%%%%%%%%%%%%%%%%%%%%%%+++++++++@++X",
" O++@,@++$$@+$+%;:%%%%%%%%%%%%%%%%%%:::%%%%++$+++,@++$+X",
" ++++@+++++@$+%;:%%%+%%%%%%%%% %%<;%   ::%%+++++@@+++++X",
" ++$$$+=+++$$X%:X%+%%%%::%;<%%%%%o@X    :%%$+$$$$++$$$+X",
" +++@$+++++++;%%%+%%X::  12@o%%12>2X    X%%@$++++++++++X",
" O+$+$+$$$$$+$%%+%%O+%    X:<>2>2o1    %%%%O+$+$$$+$+$$X",
" +++$+$+++++++%%+%%++%    12>2><>2X    %%%++++$++@$+$++X",
" O+$+$+$+$+$$%%O%%+   X    :o;:2>::   %%%O+$+$+$$$+$+$+X",
" +$+++$+$+O+@+%+%+  %%%%%%%111111X%%%%%%++$++$$+++O+++OX",
" O+O+O$O@$+O+$%%+% %*********2*********O+O+O+$$O+$$$$$+X",
" +O$$+$$O$O+O+%%O+%*O+=+=+=+O+O+=+=+=+=+O+$+O+O+$+O$$+OX",
" O+O$$$$+O+$$$+O+O*=+O+O+O+O+O+O+O+O+O+O+$$O+O+O+O+$$O+X",
" O$+$OO+O$O$$OO+$OO+OOO+OOO+OOO+OOO+OO$+OO$$O$$$O$O+OOOX",
" O+O$O$$$$$$+O$O+O@O+O@O+O+O+O+O+$+O+O+O$O+$$$$$$O+O+$+X",
" OOO$$O$$,OOOO$OO$OOOOOOOO$OOOOOOOOOOOOO$O$O=,OO$O=,$OOX",
" O$O$O$$$$+$$$$O+O$$+O+O$O+O@O+O+O+O$$$O+O$O+$$$$$+O+O+X",
" O$=,$OOOO=,OO$=,OOOO$OO$=,OOO$OOO$O$OOO=,$$O$OO$,$O$OOX",
" OO$+O,=+$O$$OOO@$,=$O,=+O$=$O,=+O,=$O$,@OOO$OO$$=OO$$OX",
" OOOO=O$OOOOO$,O$O$OOO$OOOOOO+OO$O$OOOO=O$OOO=,OOOOOOOOX",
" O$O$OOO,=+O$OO=OO$O$OO$,$$OOOO$,=$O$,$OOO$$,$=OO$$$,=$X",
" O$O$,$OOOO=,OO$,OOO=,OO=OOO$=,O$O$OO=O$=,$OOOO$,OOOOOOX",
" OOOOO=O$O$OO=OOO=$OO$O$OO,$OOO=OOOO$OOOO$OO$OO$=O$O$OOX",
".XXXXXXXXXXXXXXXXXXXXXXXXXXXXXXXXXXXXXXXXXXXXXXXXXXXXXXX"};
