/* XPM */
static char *noname[] = {
/* width height ncolors chars_per_pixel */
"48 48 12 1",
/* colors */
"` c #000000",
"a c #FFE779",
"b c #878787",
"c c #FFAE00",
"d c #FF6F6C",
"e c None",
"f c #4ABD40",
"g c #B72828",
"h c #5C5C5C",
"i c #FFFFFF",
"j c #D3D3D3",
"k c #C1C1C1",
/* pixels */
"eeeeeeeeeeeeeeeeeeeeeeeeeeeiiiik`eeeeeeeeeeeeeee",
"eeeeeeeeeeeeeeeeeeeeeeeiiiibkdbb`eeeeeeeeeeeeeee",
"eeeeeeeeeiiii`eeeeeiiiikbbdbbdbd`eieeeeeeeeeeeee",
"eeeeeiiiibkdb`eiiiibkdbbdbcbdbaiibbhei`eeeeeeeee",
"eeeeeibdbdbbd`kbbdbdbbcbdbbaiiidaiiiik`eeeeeeeee",
"eeeeiibdbbbcbbbdbbcbbdbaiiiibiiijkbdbb`eeeeeeeee",
"eiiiibdfdcbbdbciiii`iiiidiiiibkbdbdbdb`eieeeeeee",
"iibbdbbdbbbiiiikbdb`biiiikbdbdbdfdbbaiibbhei`eee",
"ibdhbcbhdgbidbbdbbd`kkbdbbdbcbbcbaiiiddiiiik`eee",
"ibhdhbgbhaiibdfdbdfdbbcbbcbbbaiiiidiiiikbdbb`eee",
"ihgfgbhiiiibdfdbcbdbciiii`iiiidiiiibkbbdbbcd`eie",
"ihbgbhiikgbdbbdbbiiiikbdb`diiiikbdbbbdbcbdkiibbh",
"ighfggihbbchbgbgbibdbbdbd`kbbdbbdbcbcbbaiiidadhh",
"ifghhhigbgbhcbbaiibbcbbcbbbbcbbdbbbaiiiibdbhhhh`",
"ihhghhibgfgbgiiiibdbbdbbdbcbdbcaiiiidbgbgfghghh`",
"ihhhhdifgbbhiikgbdfdbgbdfdbaiiiibdbbbgfbgbhbhhhh",
"ihghhgihhghgihbbchdhcbbgaiiidbbgbchgbhdhhgbggh`b",
"ihh`haihbhhhidbghbbbhaiiibdbbbdbhbhdfghbgfhhfh`b",
"ih`ghjihghghihgbbghiiiddbbdhchgbgbghbgbghgghgh`e",
"i`hh`iihhhfdihbfghidhbhbbdfgbbbgfbfgbhfgfhfhhh`k",
"ih`ghiihg`hgighgbgibdbcbgbdbgchbgbgbghgbghghg``e",
"jh`h`ijhhhhaihfhhhigbgbbbchbbbhdfgbhhbhhfghhh`he",
"ih`h`iih`ghjihghghibcbdhdhgbgfgbgfghchghghhgh`be",
"ihg`hii`hh`iihhhhbibbbfdfbbcbgbhbhbghhhhfghhh`be",
"ih`hgii`g`hiihghgbjcbgdhgbghbhchghgfghghghhh``ee",
"ih``bii`h`hiihh`fdibbbhdfdfgbghhfghhhhhhhghgh`ee",
"ih`hdiih`h`ii`ghgjagbcbhgbhbhhgbgbghghghhhh``hee",
"ih``biihg`hiih`h`ibdbhbgbfgbgbfghhfgfhhhhhgh`hee",
"ih``dii`h`gii`h`hidfgdhbgbgfghgbhghhghghhhhh`bee",
"kh``ibih`hbii`h`hibdbbfgfgbhbgfgfhghhghhg`g``bee",
"jg`hibih``diihg`hjgbghdhbghghhghghhhgf`ghhh``bee",
"eb`higih``biih``hibbfghbgfgfbhhhfghhhghh`hhh`bbk",
"kb`hihig``aiih`hgigfgbchhgbgghghghhhh`hhgh```bbk",
"kd`bihjh``igih``bibgbhhgbhhhfhhhhhhghhgh`hh`hhbb",
"eh`kihjg`hibih`hdihbghbhgfghghghghh`hhhh```hhbhb",
"kb`kigjb`hibih``bigfgfgbhgfghhhhhhhhgh```hhhhbbk",
"eb`ihhab`hihig``dibgbghhghhhghghhg`h```hhhhhbhbb",
"kb`ighbd`bigjh``idbhhgfgfhhghhhhhhh``hhhhbbbbbkk",
"ee`ih``b`kihjh`hibgfghhghghhhhg`h``hhhhbhbbbkkbe",
"ee```hhb`kihab`hibhgbhhhhhhhghh``hhhhbbbbbbkkbke",
"eebbhbbb`ihgkb`highfghghghghh``hhhhhbhbbbbkbkbee",
"eeekbkbb`ihhkd`bifghhgfghhh``hhhhhbbbbhkbkbkkeee",
"eeeeeekk`ih``h`kihghhhhhh``hhbhbbbbbbbkkbjeeeeee",
"eeeeeeee```hhb`kihfghgh``hhhbbbbhkhkbkkbkeeeeeee",
"eeeeeeeebbbbbb`ihghhh``hhhhhbhbkbkbkkbkeeeeeeeee",
"eeeeeeeeekbkbb`ighh``hhhhhbbbkbkkbkkbkeeeeeeeeee",
"eeeeeeeeeeeekk`ih``hhbhbbbbkbkeeeeekeeeeeeeeeeee",
"eeeeeeeeeeeeee```hbbbbkkbkeeeeeeeeeeeeeeeeeeeeee"
};
