/* XPM */
static char * image_name[] = {
"56 46 16 1",
" 	c #FFFFFFFFFFFF",
".	c #BEFBBAEABEFB",
"X	c #000000000000",
"o	c #AEBAAAAAAEBA",
"O	c #AEBAA699AEBA",
"+	c #BEFBB6DABEFB",
"@	c #69A68617BEFB",
"#	c #9E799A699E79",
"$	c #A6999E79A699",
"%	c #71C679E78617",
"&	c #AEBAAEBAB6DA",
"*	c #082004100820",
"=	c #000000001861",
"-	c #000000001040",
";	c #CF3CC71BCF3C",
":	c #79E79248B6DA",
"                                                       .",
" ......................................................X",
" ......................................................X",
" ......................................................X",
" o...O...O...O...O...O...O...O...O...O...O...O...O...O.X",
" ..........+.......+...+.......+...+.......+...+.......X",
" o.O.O.O.O.O.O.O.O.O.O.O.O.O.O.O.O.O.O.O.O.O.O.O.O.O.O.X",
" .....                                           O....oX",
" o.O.O @#@@ #@#@#@#@#@#@#@#@#@@@@@@@@@@@ @@@X @@@X.O.O.X",
" ...O. #@#@ ##@#@#@#@#@#@#@#@#@#@#@$@%@@ @@@X @@@X..O..X",
" o.O.o @#@@ #@#@#@#@#@#@#@#@#@#%&%@@@@@* @@@* @@@*.O.o.X",
" .O....XX*XXXXX****************=*=-**-*XX***XX***Xo...oX",
" o.o.o X                                      ###X.o.O.X",
" .o.o. X                                    X #@#XO.o.oX",
" o.O.o X                               ..@..X @#@X.o.O.X",
" oo.oo X           X@           @      . @ .X #@#Xo.oooX",
" o.o.o X           @@. . . . . @ @     @@@@@X @#@X.o.o.X",
" ooooo X          .@.           @      ..@..X #@@XoooooX",
" o.o.o X          X X                  . @ .X @#@*.O.o.X",
" ooooo X         .@ @.                 @@@@@X #@@XoooooX",
" ooo.o X         X   X                 ..@..X @#@*oo.ooX",
" ooooo X        .@ @ @.                . @ .X #@@XoooooX",
" ooooo X        @. X  X                @@@@@X @#@*oooooX",
" ooooo X        X .@. @.               .;%..X #@@XoooooX",
" #ooo# X       #. X X .@       @       . @ .X @#@*ooo#oX",
" ooooo X       X .@ @. X      @ @     XXXXXXX #@@XoooooX",
" oo#o# X      .@ @   @ @.      @              @@@*o#o#oX",
" ooooo X      @. XXXXX .@                     #@@XoooooX",
" #o#o# X      X         X     .               @@@*o#o#oX",
" ooooo X     .@ @XXXXX@ @.                    #:@*oooooX",
" #o#o# X     X  X     X .X   .         @      @@@*o#o#oX",
" o#ooo X    .X @.     .@ X.           @ @     #@@X#ooo#X",
" #o#o# X    X  X       X .X .       .  @      @@@*o#o#oX",
" o#o#o X   @.  .@     @.  @.    . .           %@@X#o#o#X",
" #o#o# X  @XXXXXX@   @XXX@.X@ .               @@@*o#o#oX",
" ##o## X                   @@                 @@@X#o###X",
" #o#o# X                                      @@@*o#o#oX",
" ##### X                                      @@@*#####X",
" #o#o# XXXXXXXXXXXXXXXXXXXXXXXXXXXXXXXXXXXXXXX***Xo#o#oX",
" ######################################################X",
" ###o###o###o###o###o###o###o###o###o###o###o###o###o##X",
" ######################################################X",
" #o#######o#######o#######o#######o#######o#######o####X",
" ######################################################X",
" ######################################################X",
".XXXXXXXXXXXXXXXXXXXXXXXXXXXXXXXXXXXXXXXXXXXXXXXXXXXXXXX"};
