/* XPM */
static char * image_name[] = {
"56 46 31 1",
" 	c #FFFFFFFFFFFF",
".	c #BEFBBAEABEFB",
"X	c #082004100820",
"o	c #BEFBB6DABEFB",
"O	c #AEBAAAAAAEBA",
"+	c #AEBAA699AEBA",
"@	c #9E799A699E79",
"#	c #F7DEB2CAAEBA",
"$	c #000008200820",
"%	c #69A68617BEFB",
"&	c #A699A699A699",
"*	c #71C679E78617",
"=	c #A699A289A699",
"-	c #A6999E79A699",
";	c #DF7DBAEA8E38",
":	c #BEFBC30BBEFB",
">	c #861779E78617",
",	c #B6DAAEBAB6DA",
"<	c #79E79248B6DA",
"1	c #000000001861",
"2	c #000000001040",
"3	c #AEBAAEBAB6DA",
"4	c #AEBAAEBAAEBA",
"5	c #C71BBAEAC71B",
"6	c #CF3CC71BCF3C",
"7	c #96589658AEBA",
"8	c #AEBAB2CACF3C",
"9	c #BEFBC30BCF3C",
"0	c #5965A289D75C",
"q	c #38E36DB6A699",
"w	c #51445555FFFF",
"                                                       .",
" ......................................................X",
" ......................................................X",
" ..o..o..o..o..o..o..o..o..o..o..o.O+..o..o..o..o..o..oX",
" O...O...O...O...+...O...O...+...O.OOO...+...O...O...+.X",
" .....o..o..o..o.....o..o..o....o.@OO@.o.....o..o..o...X",
" O.+.+.O.O.+.O.O.+.+.O.+.O.O.+.O.@..#@@O.+.+.O.+.O.O.+.X",
" .....O.o.....+.......O...o...OOOO###.@@......O...o...OX",
" O.+.O.O.O.+.O.OoO.+.+.O.O@O.+O@@# #$#@@@O.+.+.O.O.O.+.X",
" ...Oo..Oo..Oo..O...O...+.@@@@@@.# $% #.@@@.O...Oo..O.oX",
" O.+.O.O.O.O.O.+.OoO.+.O.O@#O..# .$&*%=#...@@@@+.O.+.O.X",
" .O...+.O.+...O.O.O...O.O@@#X# X.XX&oXX % #.+.@.O.O...OX",
" O.O.O.O.O.OoO.O.+.O.+.-@OO#$XXXX&&;&&XXX%@...@O.+.O.+.X",
" .O.+.O.+.O.O.+.O.O.O@@@OO:#X%%*&o%*%>&&XXXX% O@O.+.O.OX",
" O.O.O.+.O.+.OOOOO-@@@OO..#$X&o,;*%%%%<%&&;X .O@@O.O.+.X",
" O+.O+O.OOO.OO-@@OOOOOO..##Xo*%**%%1%2%%%*3*.#.O@OO.OOOX",
" O.O.O.O.O.OO@@#@%###...#$2*.%%%1%1%2%X%%%,%X ..O@.+.OoX",
" OOOOOOOO+OOO@@# XX  .### X4,%%1%2%X%2%2%%*&X.#.O@OOOOOX",
" O.O.O.O.OO@@@%#X@XXX@$ %X&&>%1%1%X%X>1%X%%oX-%O@@.O.O.X",
" OOOOO+OOO@@O#%X$;&&&XX $&5*%2%X%X%X%1%2%%>&X%#O@OOOOOOX",
" OOOOOOOO-@@%#X$&**<*,XX&&*%1%X%X%X%X%X%>%5,X .#@OOO.OOX",
" OOO@@@@@@#5#%*,<%%1%*&&o%<2%X%X%X%X%X%%%5&2X #O@OOOOOOX",
" OO@..#.##% %$%o*%1%1%<**%2%X%X%XXX%X%X%%,XX*#:O@OOOOOOX",
" O@@%%%%%$$XX1,%%1%2%2%%%%%X%X%X%X%X%2%>&XX  #.O@OOOOOOX",
" O@@...#%##% *1&<%1%%%%5,%%%X%X<X%X%X%X%*5&$@#.O@OOOO@OX",
" OO@@@@+#Oo## XXo%*<%o&X&;%X%X%X%X%X<X%1%*&X$ #O@OOOOOOX",
" OOOO@@@@@OO###3X4,&;XXX$&*%2%X%X%X%X%X%2%.&X*#.@@OOO@OX",
" OOOOOOOOO@@o:6*-X$X$7* X28*<X%X%X%X%X%2%%>&X #.O@OOOOOX",
" @O@O@O@OOO4OO.#1##*## # X4*%%X%X%X%X%X%X%%,X #:O@O@O@OX",
" OOOOOOOOOOO@@3$#.3%#.:# XX5%%%X%X%X%X%2%*;&X #.O@OOOOOX",
" @O@O@O@O@O@O@@+3..##9..#2 X&%%<X%X%X%<*0q52* #.O@O@O@OX",
" O@OOO@OOO@OO+@@@+3o,,..:# 1*;,*%%*<%<w0*o41%%#.O@@OOO@X",
" @O@O@O@O@O@+@+@@@@&@@@OO.#31%X4+%%%%%;&#+X ##:.@@O@O@OX",
" O@O@O@O@O@4@4@4@+@O@@@@&O.#X@2XX;2%&&XXX2*%#..O@O@+@O@X",
" @O@O@O@O@O@O@O@+@+@+@O@@@O#$## X1&&X  X #%##6,@@@O@+@OX",
" @@O@@@O@@@O@@@4@@@4@@@@@@o###. XX<*  #####:,4@@@@@4@@@X",
" @O@O@O@O@O@O@O@O@O@O@O@O@@,o,.## X%## ::##:,@@@+@O@O@OX",
" @@@@@@@@@@@@@@@@@@@@@@@@@@@@43:##21##....:.O@@@@@@@@@@X",
" @O@O@O@O@O@O@O@O@O@O@O@O@@@@@@,3#o##:.O@@@@@@+@4@O@O@OX",
" @@@@@@@@@@@@@@@@@@@@@@@@@@@@@@@4:##,.O@@@@@@@@@@@@@@@@X",
" @@@O@@@O@@@O@@@O@@@O@@@O@@@+@@@@,3o4=@@@@@@O@@@O@@@+@@X",
" @@@@@@@@@@@@@@@@@@@@@@@@@@@@@@@@@4+@@@@@@@@@@@@@@@@@@@X",
" @O@@@@@@@O@@@@@@@O@@@@@@@4@@@@@@@@@@@@@@@O@@@@@@@O@@@@X",
" @@@@@@@@@@@@@@@@@@@@@@@@@@@@@@@@@@@@@@@@@@@@@@@@@@@@@@X",
" @@@@@@@@@@@@@@@@@@@@@@@@@@@@@@@@@@@@@@@@@@@@@@@@@@@@@@X",
".XXXXXXXXXXXXXXXXXXXXXXXXXXXXXXXXXXXXXXXXXXXXXXXXXXXXXXX"};
