/* XPM */
static char * image_name[] = {
"56 46 18 1",
" 	c #FFFFFFFFFFFF",
".	c #BEFBBAEABEFB",
"X	c #000000001040",
"o	c #BEFBC71BD34C",
"O	c #AEBAAAAAAEBA",
"+	c #B2CAAEBAB6DA",
"@	c #79E786179E79",
"#	c #EFBEBEFBC71B",
"$	c #71C679E78617",
"%	c #000000000000",
"&	c #A6999E79A699",
"*	c #8E388A288E38",
"=	c #75D69248B6DA",
"-	c #96589658AEBA",
";	c #FFFF14514103",
":	c #FFFF0000FFFF",
">	c #9E799A699E79",
",	c #AAAA79E78E38",
"                                                       .",
" ......................................................X",
" ......................................................X",
" ..o....o..o....o..o....o..o....o..o....o..o....o......X",
" O...O...O...O...O...O...O...O...O...O...O...O...O...+.X",
" .................................................o....X",
" +.+.+.+.+.+.+.+.+.+.+.+.+.+.+.+.+.+.+.+.+.+.+.+.+.+.O.X",
" .....O.......O.......+@@@@@..O.......O.......O.......OX",
" O.+.+.O#O.+.O.O.O.O.$.O.+.+@%.+.O.O.O#&.O.O.O#&.O.O.+.X",
" ...O...&...+..#O.#.@ ..@@..+*%.O.#.O...O..#O...+...+..X",
" O.O.O.+.O.O.O.&.O.@ &.+$X.O.O@%.++O.O.+.O.&.O.O.+.O.O.X",
" .&#..O.+.O...O.O.&@ .@@+.@@..*%O.+...+.+.+...+.O.O...OX",
" O.O.+.O.O.+.+.+.O.@ O@X.O*X.+=%.O.+.+.&.+.O.+.O.+.O.O.X",
" .O.O.+.O.+.O.+.O.O@ o*%O.@XO.@%+.O.&.+.O.O.O.O.O.O.+.OX",
" O.O.O.O.O.O.O.&oO.@ &@X.O@X.O@%.+%@.+.O.O.+.O.+.O#&.+.X",
" O+.+&O.OOO.OOO.OO+@ O@%O+@%O+@%OO%X@OO.OO+.OOO.OO&.OOOX",
" O.O.+.O.O#&.O#&.+.O@O.+.O.+.$XO.O.%%@.O.O.O.O#&.O.+.O.X",
" OOOOOO+OO&OOO&O+&OO+@@@@=$@@%OOOOO+%X@@@OOOOO-OOOOOOOOX",
" O.O.O.O.O.+.O.O.+.O.+%%%%XX%+%*.O.O.%   X.O.O.+.+.O.+.X",
" O+OOOOOOOOO&+OOOOOOOOOOOOOOOO%X@OOO* O&O XOO+OOOOOO+OOX",
" OOO.+&+#-+O.OOO.OOO.OOO.OOO.OO%%@O@ OOO.O %.OO+.OOO.OOX",
" OOO+OOO&OOOO+&+OO+OOOOO+OOOOOOO%%@ OOOOOOO +&+&OOOOOOOX",
" OOOOOOO+OOO;;;;;;;;O;;;;;;;;;O;;;;;;OOOOOOOOOOOOOOOOOOX",
" O+&+&+&OOOO;::::::;O;:::::::;O;:::::;OOOOOOOOOOOOOOOOOX",
" >OOO&OO+,+O;:;;;;;;%;;;;:;;;;%;:;;;;:;OO&OOO&OO+,+OO&OX",
" OOOOOOOO+OO;:;%%%%%%%O%;:;%%%%;:;;%;;:%OOOOOOOOO+OOOOOX",
" OO&&&O,+OO-;:;%%%%%%%O%;:;%%%%;:;%%%;:%%OO@O&&&OOO&&&OX",
" OOOOOO+OOOO;:;%%OOOOOOO;:;%%OO;:;%%O;:%%+@%OOOOOOOOOOOX",
" >O&&&O-O&&&;:;%%>O>O>O>;:;%%>O;:;%%O;:%%@%%+&&&&&O&&&OX",
" OOOOOOOOOOO;:;;;;OOOOOO;:;%%OO;:;;%;:;%%%O%O&OOOO&OOOOX",
" >O&O&&&O>O>;::::;O&O&O>;:;%%>O;:::::;%%%>O&O&O&O&O&O>OX",
" O>OO&&OOO&O;:;;;;%%OO>O;:;%%O>;:;;;;%%%%O&OO&&OO&>OOO&X",
" >O>O&O>O>O>;:;%%%%%O>O>;:;%%>O;:;%%%%%%O>O>O&&&O&O&&&&X",
" O&O>&>&>O>O;:;%%%%%>O&O;:;%%O>;:;%%%%%O>O>O&&&&>O>&&O>X",
" >O&O>O&O>O>;:;%%>O>O>O>;:;%%>O;:;%%O>O>O&O>&>O>O&&>O>OX",
" >>&>&>O>&>O;:;%%>>O>>>O;:;%%>>;:;%%>>>O>>>O>>&O>>&O>&>X",
" >O>O>O>O>&>;;;%%>O&O>O>;;;%%>O;;;%%O>+>&&O>&&&>O>&>O>&X",
" >&>&>&-,>>&>>%%%>>>>>&>>>%%%>>>>%%%>&>>>>&>&>>&&,>&>&>X",
" >&>&&&&O&O>&>%%%>&&&>&>O>%%%>&&O%%%O>&&&&&>&&&&&&O>&&&X",
" >>>&,>>>>>>&>>>>>>>>>>>&>>>>&>>>>>>>>>>>>>>&,>>>>>&>>>X",
" >>&&-&>&&,-O>>&&>&>&O>>&>>>O>>>&>>&&>&,O>,-O-&>&&,-&&>X",
" -,>&>>>>->>>&>>>&,>>-,&>>>&>>&>>&>>>>>-&>->&>>>&->>>>>X",
" >O->,-&>>O>>,->&>O->>>>>,O>>,->>>&>&,&>>>O>>,->,>O&>>>X",
" >>>>>&,>&,>&>>>>>>&,&>>&->&>->>-,O>>->>-,>&>>>->>>&,&>X",
" >&>&>>>->->>>,-&,->>>,->>>,&>&>>>>,->&>>->>>&>>&>>>->>X",
".XXXXXXXXXXXXXXXXXXXXXXXXXXXXXXXXXXXXXXXXXXXXXXXXXXXXXXX"};
