/* XPM */
static char * image_name[] = {
"56 46 38 1",
" 	c #FFFFFFFFFFFF",
".	c #B6DAAEBAB6DA",
"X	c #000000000000",
"o	c #BEFBB6DABEFB",
"O	c #9E799A699E79",
"+	c #AEBAAEBAB6DA",
"@	c #AEBAB2CACF3C",
"#	c #96589658AEBA",
"$	c #A6999E79A699",
"%	c #FFFFFBEEFFFF",
"&	c #38E36DB6A699",
"*	c #000000001040",
"=	c #8E388A288E38",
"-	c #000000001861",
";	c #79E786179E79",
":	c #F7DEB2CAAEBA",
">	c #FFFFF3CEFFFF",
",	c #A699A699A699",
"<	c #A69979E78E38",
"1	c #AEBA61856185",
"2	c #8E38861779E7",
"3	c #082004100820",
"4	c #71C679E78617",
"5	c #AEBA9E795965",
"6	c #C71BBAEAC71B",
"7	c #CF3CC71BCF3C",
"8	c #861779E78617",
"9	c #965896589658",
"0	c #5144A2894924",
"q	c #AEBAA699AEBA",
"w	c #71C675D671C6",
"e	c #69A669A671C6",
"r	c #69A68617BEFB",
"t	c #79E79248B6DA",
"y	c #514471C68E38",
"u	c #EFBEF3CEF7DE",
"i	c #AEBAA69971C6",
"p	c #A699A289A699",
"                                                       .",
" ......................................................X",
" ......................................................X",
" .....o..o..o..o..o..o..o..o..o..o..o..o..o..o..o..o...X",
" Oo..O...O...O...O...O...O...O...O...O...O...O...O...OoX",
" ......+o...+......+o...+......+o...+......+o...+......X",
" O.OoOoO.OoOoOoO+OoO.OoOoOoO+OoO.OoOoOoO+OoO.OoOoOoOoO.X",
" .+o.+O+o.+..@O.o.+o..O+..+o.oO+o.+..@O.o....@O...+.+.OX",
" Oo#.$.$.OoO.O.$.Oo#.O@OoO.#.O.#.OoO.O.$.O@O.O.O.#oOo#.X",
"%...O...O...O...O...$...#...O...O...O...O...$...O...O..X",
" O.O.Oo#.O.#.O.O.#.O.O.O.O.O.Oo#.O.#.$.$.$.O.O.#.O.O.OoX",
"%.#o..O.O.$..&X*XX&=..O.O.#o..O.O.O...O.O.O..oO.OoO...OX",
" $.O.$.#.O.O.X    .&X-&;.O.O.#o#.O.OoO.#.O.#.O.O.#.O.#.X",
"%.O.O.O.#.O.OX&    : >,&-X&;$.O.#.O.>&O.OoO.O.#.O.#.O.OX",
" O.#.#.OoO.#.&X : : <;:%: .&X*&;oO.#&X-&.#.Oo#.OoO.#.$.X",
">OO.OOO.OOO.O$X& : &&&XX :o:..,&-X&&,&XXX&$.OOO.OOO.OOOX",
" O.OoO.#oO.#.O&*: 1&  .&Xo:......,2&*3X=X*&$.O.#.O.OoO.X",
">O#OOOOOOOOO$OOX&:4&O  o&X...X3.O.OoO&*=&3&OOOOOOOO#OOOX",
" O.O.O.O.$.O.Oo&X&:*&..O&-..X= X&O.O$2==&*3$.$.O.#.O.$oX",
">O$#OO#OOOOOOO#$X*::*&&&X&.XX X=%3O5,=O&&XXOOOOOO$OOOOOX",
" OOO6O$<7OO$.OO$&X&o:X**&.XXXXX X=%3<O&-3X3$.O$O.$<$.OOX",
">O$OOOO##<O#OOOOOXX:.:...X= 3=XXX%=33&&X3X&O$OO$$#$OO#OX",
" OOO$O$O$O$O$O$O$&X&:o..XX =X*=3 XX&&&*3XX&OO<$4.OOO$O$3",
">$OO+8$O9@8$#<9OOOXX<...X XX 3XXX*&&:&&X3&$O$#$$OO#$OOOX",
" 0#$#0+OO0+$O0+OO4&*&..O&XX X= XOX&:  =&&=OOO0+#O0q#O0#3",
"%$$O$$OO$OOO$#O$$$OXX=O.$&XXX =XXo&& :..$OOO$#OOO#OOq$OX",
"%OO0q880##O0qw$5<#O&X&.$.O&X XX&&&-&&o:..O$0#0q0#$O0$4$3",
">O$$O#q$$O$$$#<#O$O$X*&.$oO&X-&&:&&*&1O:O.#$$$$$O$$#O$OX",
" 0$<#0$4#0qwO0q4$;O5&XX=.O,2&3&: :<&=4$#oO.$O$O4$54<#1O3",
">q#<$$$O$$O$$O$O#O>&OX-&O5O=$&&& :.o#$OOO.O.O$##4#$##$OX",
" <O0qwO<Oe$5O4#59;&*&&X3=$1O&&*&1o:.OO$58$.O<#$$q0$w$0+*",
"%=<$$$09O$8<$#=<O$=&X*X-&4O&3*X-&=$:O.#$OO#.#.OOO$<$#$=X",
" ;O=O<#<=5#=#2O;O2O=&3X&=5&-XX3X&=$OoO.OO4$OOOOOOOO5$<#3",
"%O;Or$=O;O;#=r5O;$4#=XXX*-XX3XX&=OOO#.O.#<5OO.O$<OO=4O=X",
" 5=;O5t;$=#5O5r<O0q=O=&&3XX3&&O=$=O$OO.O#O#8$O#O#O0q$5=3",
"%4=O;;=O;54#4<0O;<=O;<=O===,=;<@045OOOO.O7q45$OO2<.y$4;X",
" 5O5=2O=O;#4$=q<O;O=O0@<O1$;O=O8$4#4OO#OOOO#=8OO0q<$5#=3",
"u9y4;<;;<545;<=;45=<=<45;;=2=1=;<9445$O$O.OO$Oi#$4O4#4=X",
"%=$5#=O5#4#yq=O;$;#0q<#4#54#O;O;O=$;$4OO<$#OO4$49#4$54#3",
"ui4<45;4;;<i;;;<52;<w;==4=;<==45;<===<0$$#O8$O#$<4q44#=3",
"u4y##4#=,;0<$w=;4r1=#;=0@<2;O;5<;;=4$=<;#O0q#0q8$==i#4=3",
"%====2;<==4<=;;5==94i=4<=4=42<4;==<0;1;=0$$#5t2#$4#48==X",
" =O=1t54;=q;=4=y#=#54=#<45#=;<;54=$<4t;2<=#w$=#=O5y91#=X",
"%454iy<045r10==i45;;<=<08#454i4;<0;1O2=4=2;$4O5#4<0=;;=X",
"%=y$4#=<<;=#<4$<;4;1;2<4$<;#y==;#<p4=49;#4=5#4===O<O541*",
".*3**X3*-X*X--XXX-X*XX-*X*XX3**XXX3****XXX**3**X33-3X**X"};
