/* XPM */
static char * image_name[] = {
"56 46 68 1",
" 	c #FFFFFFFFFFFF",
".	c #D75CD34CD75C",
"X	c #208120812081",
"o	c #D75CDF7DE79D",
"O	c #E79DE79DEFBE",
"+	c #30C234D330C2",
"@	c #082004100820",
"#	c #965896589658",
"$	c #AEBAAAAAAEBA",
"%	c #AEBAA699AEBA",
"&	c #AEBAAEBAAEBA",
"*	c #AEBAAEBAB6DA",
"=	c #514455554924",
"-	c #000008200820",
";	c #BEFBB6DABEFB",
":	c #A6999E79A699",
">	c #B6DAAEBAB6DA",
",	c #BEFBC30BBEFB",
"<	c #CF3CC71BCF3C",
"1	c #BEFBC30BCF3C",
"2	c #000000001040",
"3	c #8E388A288E38",
"4	c #5965514428A2",
"5	c #79E786179E79",
"6	c #71C675D671C6",
"7	c #C71BBAEAC71B",
"8	c #28A25D754924",
"9	c #965814510820",
"0	c #69A608200820",
"q	c #410338E34103",
"w	c #A699A289A699",
"e	c #B6DA45145965",
"r	c #F7DEB2CAAEBA",
"t	c #FFFFF3CEFFFF",
"y	c #EFBE28A25144",
"u	c #EFBE104028A2",
"i	c #618561856185",
"p	c #AEBA61856185",
"a	c #FFFFEBADAEBA",
"s	c #492449245144",
"d	c #FFFF0C304924",
"f	c #A69979E78E38",
"g	c #000000001861",
"h	c #FFFFFFFFD75C",
"j	c #EFBEF3CEF7DE",
"k	c #BEFB20812081",
"l	c #9E799A699E79",
"z	c #186120812081",
"x	c #28A22CB230C2",
"c	c #000000000000",
"v	c #CF3C555528A2",
"b	c #861779E78617",
"n	c #AEBA555528A2",
"m	c #69A669A671C6",
"M	c #96589658AEBA",
"N	c #FFFFE79DBEFB",
"B	c #BEFBBAEABEFB",
"V	c #FFFFFFFFC71B",
"C	c #FFFFFBEEFFFF",
"Z	c #E79DD75C9E79",
"A	c #71C679E78617",
"S	c #208128A25144",
"D	c #DF7DBAEA8E38",
"F	c #A699A699A699",
"G	c #0820596528A2",
"H	c #5144A2894924",
"J	c #AEBAB2CACF3C",
"K	c #8E38861779E7",
"                                                      .X",
"  .o.o.o.o.o.o.o.o.o.o.o.o.o.o.o.o.o.o.o.o.o.o.o.o.o.O+@",
"  #$%%%%%%%%%%%%%%%%%%%%%%%%%%%%%%%%%%%%%%%%%%%%%%&%&*=-",
"  $&%&%&&%&&%&&%&&%&&%&&%&&%&&%&&%&&%&&%&&%&&%&&%&%&&;+@",
"  :$%&%&%&%&%&%&%&%&%&%&%&>**&%&%&%&%&%&%&%&%&%&%&%&%,=-",
"  %&%&%&%&%&%&%&%&%&%&&;,=XX+<>%&%&%&%&%&%&%&%&%&%&$&1+@",
"  #$$&%&%&%&%&%&%&%&%>&+-@o @X,*;**&%&%&%&%&%&%&%&$%$;+2",
"  $$&%&%&%&%&%&%&%&&;34o   1@56666#;;%&%&%&%&%&%&%&$&78-",
"  $$$%&%&**$%;&%&>*;5-*3o  4904940q+#;>&;&%&>&%&*$&%$<=2",
"  w%%&*;$$&%&&&&*;;60ero  tyyyyyyyyu+-5;*&%&&%&%$$%&>*+@",
"  &%&%&&%%&%%&%>*i-4yrOi-O+eypyeypypyy4i$;&%&%&%%&&%&<=2",
"  %&%*%&&;%&&>;*=9yyyya    tsdfypyyyeyy08;>*&;$*&>;$&1+@",
"  #$$&;&%&&*%;&geeyyehj   X 729qkfepypyye@<;&&&%&&&%$;+2",
"  $*%&&%&%*&>lzyyypyr        -g2g@Xeyyeyyy-l>%*>%&%&&78@",
"  w$$%%*>&%;i4yypyyrj    l6   -66pxcvpypeyp4p*;&&&%&%<+@",
"  w%%&>%&&;<@yeyeyvz&    @#   >   b4yeyypyyy2=;&&%&%&7+2",
"  %&&%&&%;&Xeyypyng26    X-       ryyyfyeyeyez&>&&%&&1+-",
"  w%&;%&&1Xnyyeye6              OryyeyedfvyeykX<$*>%&*=@",
"  &%&&&%>i4dpyyr                yyyypypvXypypy4m;>;>&.+2",
"  M%*%&;>xeeypy               Npypyvyyx2gyeyyee+6--6*B+@",
"  w*>;&;+9yyyvh              ayyyyeyefVt@xypyye@> =6><8@",
"  $M++6<8eyyyd              syyyypyyyNC :2yyvyyro-26>&=@",
"  5+j<6-0yyNNrO            pkyeypvyrs@<  .NNNZNpi.O=3<+2",
"  &3-o #eprj j            XypyyeyyrC  =.<CCttCt  OozA<+@",
"  #=#6* CC       O#     wryyypyyprj     i        &i-5<=2",
"  li8+l         z=.    A4ypyeyvyh        -          =$+@",
"  &*iACO     y<-@+    =9yyyeyyfhtC         OyV #--l+@$=2",
"  Mf2$=-8r  pyX@2+   heyeypvyyrt          uyur l+<i+l78@",
"  &&iimm29p  pe--=  rpyyyeyyyNht         8yyp <=3*>>>;42",
"  :&**&<*qyypey2--i ryeyfvyyNjC         juypyp9+;&&$&<+2",
"  &%%&%&;=0fyypyx@4yyyyeyye C           rypyynS1*$$$%78@",
"  l&%&%*&;xyyeyyykyyypyyyr              pyyeyez1$$$>&7+@",
"  &&%&%&$>w2ypyeyeyeyyevrhO            ryypyvx:**$$$$<+2",
"  :&%&%$$&,qveyfypyeyfyy             Vyyyyypyg1$&%&%&78@",
"  &%&%&&$$;,=nydeyfyverp=o          apyypvey4iB*%&>&%>=2",
"  %&&;%&%&&;>bxpyvyeyyy*1         VpyyyeyyyXfB%$*&%$>B+@",
"  #$%&&%**%&*;DXyeypyeyyyN  O  Ordyyyeyypvz;**$$%$&%&;=2",
"  :>&%&>$$*$*%>Fqveyfypnyyyyyuykyyyeypye9+7;$$$$>$%&*7+@",
"  %&%**$**$$*$$B:mxkdeyyyyyeyyypypypynzi6.**%$$$&%*$&;82",
"  w%$*$$$$*;$$$$>>$ignypypeeypeyvyyy4i*>**%%&>*%&$&>&7+@",
"  &%%%*;%%%&&%*$;&>;<i+q4kkkn9kqqGqXH77:*%*$>&$$>%&%&7+2",
"  :&>&%&&%&&%&>&&>&&>;17HiiiiAip7>*77%$$$$%$$$&>&%&$*>=@",
"  w%&%&*%**$;&&%%%%****%7J*<JJJ****>%J:%&>*;&%$&$&%&$<+2",
"  &;*>;>;B;>>>>;&;>;*;*;>;;**;;*;>;>>>>;>>;>>>>>;>>;*B=-",
" 3m66Am66m666666Km6Km66mpAm66m66mA6666A66K666666m66666=2",
"+X2z-X-X-z2XcX2XccX22X2zg2z2z2z2X2z2Xc@z2z-z2z-z-X2z2X2@"};
