/* XPM */
static char * image_name[] = {
"56 46 15 1",
" 	c #FFFFFFFFFFFF",
".	c #B2CAAEBAB6DA",
"X	c #AEBAAAAAAEBA",
"o	c #000000001040",
"O	c #BEFBBAEABEFB",
"+	c #BEFBC30BBEFB",
"@	c #000000000000",
"#	c #9E799A699E79",
"$	c #A6999E79A699",
"%	c #79E786179E79",
"&	c #8E388A288E38",
"*	c #FFFF14514103",
"=	c #B6DA492430C2",
"-	c #AAAA79E78E38",
";	c #71C679E78617",
"                                                       .",
" ...X..X..X..X..X..X..X..X..X..X..X..X..X..X..X..X..X..o",
" XO..O.O.O.O.O.O.O.O.O.O.O.O.O.O.O.O.O.O.O.O.O.O.O.O.O.o",
" OX+XOXOXOXOXOXOXOXOXOXOXOXOXOXOXOXOXOXOXOXOXOXOXOXO.O.o",
" X..OX.OOX.OOX.O.XO.OX.OOX.OOX.O.XO.OX.OOX.O.XO.OX.O.XO@",
" O.O..OXOXO..XO.OOXOO.OXOXO..XO.OOXOO.OXOXO.OOXOOXO.O..o",
" #.X.X..X..X.XOXXX..X.X.X..X.XOXX..X.X..X.X.XXOXX.X.X..o",
" OXO.OX..OXOXOX.O..OXOX...O.@@XXO..OXOX...OXO.X.OXO.OXXo",
" XOXXXXXXXOXOXXXX.XXOXXXO@@@ X@@@XOXOXXXOX.X.X.XOXOX.X.o",
" OXOXX+..XOXXXO..XOOXXO.@ .@ .@ X@OXXXOXXOXOXXO.$OX.XX.o",
" X.XOXOX.X.XO$.X.$O$.XOX@ .@ X@ .@.XOX.XXXOXXX.X.$OXOXO@",
" .$OX.$XX.$OXOXXXXXXOXX.@ X@ .@ X@@@OXXX.XXXO.$O$.$OXXXo",
" #.$O$.X.$.X.XX..X.XOXXX@ .@ X@ .@ X@XOX.X.$OX.$OX.XOX.o",
" .X.$.XXX.XO$.X.XX$.XXXO@ X@ .@ X@ .@.$.$.$OXXX.$OXXXXXo",
" XXXO$.X+XXX.XXX.XO$.XXX@ .@ X@ .@ X@X.XO$+XXX.X.XXXOXXo",
" XXXX$X.$$X.$$X.XX$+#XX.@ X@ X@ X@ .@$$.$X$.$XXXX$X.#XXo",
" XXXO$.XXXXX+XXXX$.@@@OX@  @  @ .@ X@XO$.XXX.$.XXX.X.XXo",
" #X$$X$XX#X$X#XXX$X@ X@X@        @ X@$$X$$X#X$X$$$X#X#.o",
" #.$.$.$.X+#.XXXXX.X@ .@@          X@X.$.$+X.$+$.XOX.X.o",
" X$X$X$$X#$X$$X#X$$X@  X@%X        X@$$$$X$$$XX#X$$$X#Xo",
" X#XXX$$+$X#O$$X.X#XX@    XX       X@X$$+$$XX$$X.$$$.X#o",
" $X#X$$$X$$X#X#X$$$XX@     X       X@$X$$$X#XX#X$X$X#XXo",
" X$X$X#X#X$X$X$X#X$$$X@    X      X%@X#X$X#X$$X#X$$X$$$o",
" #X#X#X$XX#X#X#X$X$X#X@           X@X$X$$$X#XX#X$X#X$$Xo",
" #X$$#X#X&XXX&X#X&X#X&@           X@X&X$X##X$#$X$#$X##$o",
" X#X$X#X$X#X#XXX#X$$XXX@         #%@#X#X#$X#X#X#X#X#X$Xo",
" &X###X##XX&X&X&XX##$&X@         #@#X&X#$XX#$#$#$X$###$o",
" X$$X#X#X#X#XX#XX#X$X$XX@       #%@X$XX#X#X#X#X#X$X#X$Xo",
" #$###X&X#$###X###X&$##&X@      X@X&X&$#$#####X###$####o",
" $X#XX#X#X#XX#X#XX#XX#XXXX@    #%@#X$$X#X#XXX#X#X#X$$$Xo",
" &X&$###X##&X##&X&X&X&X&X&@    #%@X&##$#########X&X&X##o",
" X#X#X&X#$#$X##XX##$X###X@@@@@@@@@&XX$#$X$#$X##$X##X#$#o",
" &X&X###X&X###X&##X&X#$##@*****===@####&$###$###$###X#$o",
" X&X&X########&X#####$&X#@****=**=@$#X###X#####X&$#$&##o",
" &X#$###X###X#$###$#$#$##@*****===@###$####&X#####$#$#$o",
" #&X&&#X&&#X&##$#&###&&X&@****=*==@X&#&X&##$###X##&####o",
" #&#$###$#########$#$#$#X@*****===@&X&X###########$####o",
" &##&##&###&##&###&##&&#&@****=*==@###&&#######&#&##&##o",
" ###$#################X&X#X&#&-;--####$##&###&####$###$o",
" ##&&###&##&###&###&###&&#&#&#&#&#&&##&##########&&##&#o",
" &##$#&###&###&###&###&#X&##$###$##&X&&###&&##&&X##&##&o",
" #&#&#&#&###&&##&#&###&##&#&#&&&#&&##&###&#&#&&##&&####o",
" &X&##&##&####&#&###&&#&&#$#&###&&X#&#&#&#######&###&&#o",
" ###&#&&&##&#&#&##&###&###&#&#&#&#&#&##&#&#&&#&#&######o",
" &&#&####&#&#&#&#&#&#&##&#&#&#&###&#&#&###&#&#&#&#&&&#&o",
".oooo@o@@@o@oo@oo@o@o@o@o@oo@ooo@ooooooo@o@o@oooo@o@o@oo"};
