/* XPM */
static char * image_name[] = {
"56 46 11 1",
" 	c #FFFFFFFFFFFF",
".	c #B2CAAEBAB6DA",
"X	c #AEBAAAAAAEBA",
"o	c #000000001040",
"O	c #BEFBBAEABEFB",
"+	c #BEFBC30BBEFB",
"@	c #9E799A699E79",
"#	c #000000000000",
"$	c #A6999E79A699",
"%	c #8E388A288E38",
"&	c #51445555FFFF",
"                                                       .",
" ...X..X..X..X..X..X..X..X..X..X..X..X..X..X..X..X..X..o",
" XO..O.O.O.O.O.O.O.O.O.O.O.O.O.O.O.O.O.O.O.O.O.O.O.O.O.o",
" OXO.OXOXOXOXOXOXOXOXOXOXOXOXOXOXOXOXOXOXOXOXOXOXOXO.O.o",
" XOX+X.OOXOX+X.OOXOX+X.OOXOX+X.OOXOX+X.OOXOX+X.OOXOX+X.o",
" ..OXOXOX..+XO.OX..+XO.OX..+XO.OX..+XO.OX..+XO.OX..+X.Oo",
" @.XOX.XOX.X.XOXOX.X.XOXOX.X.XOXOX.X.XOXOX.X.XOXOX.X.X.o",
" XOXOXXXOXOXOXXOXO.O..XXOXO.OXXOXO.O..XXOXO.OXXOXO.OXOXo",
" XOX.X.XOXOX.######o###X.XOXXXXX.XOX.XOX.XOXXXXX.XOX.XXo",
" .OXX.OXXOXOX#        ##XOX..XO.XXOXXXOXXXOX.XO.XXOXX.Oo",
" X.XOXOX.X.X.o        # #XOX.XOXXXX..XOX.XOX.XOXXXX.XX.o",
" XXXOXXXXXXX.#        ####XXOXXXXOXXO.$XXX$OXOXXXOXXOOXo",
" @.XOXXXOX.XO#           #.XX.XX.X.XO$.X.XO$.$.XXXOXOXXo",
" .XXX.XXXXX.X#  #######  #X.XOX.X.$O$.X.$.XO$.X.XO$XXXXo",
" XXXXX.X.XOXXo  ###      #.XXX.$.$.$.X.XOXX$+$.XX$OX.XXo",
" XXOX$X.X@XXX#  #####    #XXX$$+$$X+$XXXX@.XX$X.$X$.$XXo",
" XXXXX.XXX.X.#  ###      #.XO$.$.XX$.XXXO$XX.$.$+$.$.$Xo",
" X@X$X$XX@X$X#  ###      #X$X$$XX$X@X$$X@X$X@X$X$$X$$XXo",
" %.XXXX$OXXXX#       &&& #.$XX.$X$+X.$+$XX+$.XO$.$.XO$.o",
" XXX$$XX$$$XX#######&&&&&#X$X$$$X$X$$X$$X@X@X$$$$$X$$$Xo",
" X@XXX$$.X$$XXXX.XXX.&&&&&X@.X&$+$$$.$$$+X$X.X$X.X@XXX$o",
" XX@X$$$$X@XX@X@X@X@X$&&&&&$X&&$$$$$$X$$X@X@X@X@X$X$X@Xo",
" X@XX$$X$$X@XXX$XX@XX$$&&&&&&&&X$X$X$$X$$X$X$X$X@X@X$X$o",
" @X$$$$$$X@XX@X@X@XX@XX@&&&&&&&@X$$$$X@X$$$$$$$$X$X@X@Xo",
" @X@X@$X@@X@X%XX@@X@X%X$X&&&&&&X$@$X@@X$$@X$X@@X@@$X$@$o",
" @X$X@X$X$$X@XX@XX@XXX@X$&&&&&&$X@X@X$$$X@X@X@XX$X$$$$Xo",
" @X%X@@@@X$@X%X%X@X%$%X%&&&&&&&#########X$X@@@$@@X$@$@@o",
" X$$$$$XX$$X@X$X$X$XXXX&&&&&&&&        ##X@$X@X$X@X$$$Xo",
" %X%$@$%@@$%X%X%@@@%@%X%X%X%X%#        # #X@$%X%X@$%X@@o",
" X$$X@X$XX$X@XX@XXXXXX$X@X$$$X#        ####@XX@XX@$X@$Xo",
" %X@@@X%X%X%X%X%X%$%X%X%X%X%X%#           #@$@$@@@X@$@$o",
" X@$X@@$X@@XX@@X@X@@XX%XXX%X$X#  #######  #@X@@$X@@$$@@o",
" %X@@%X@@@@@$@@@X%X%X%X%X%X%X%#    ###    #@$@@%X@@%X@$o",
" X@@@X%X%$@$%$@X%X@X%X%X%X%X%X#    ###    #@@X@X%$@$@@@o",
" %X%$@@@$@@@$@@@$@@@X%X@X%X@X%#    ###    #@$%@@X@@@@@$o",
" @%X%@@X%@@X%@@$@%@@@%@@@%%X%@#    ###    #@@@@@@%@$@@@o",
" @@@$@@@@@@@$@@@@@$@X%X@X%X@X%#           #@$@@@$@@@@%$o",
" %%%@%%@@@@%@@%%@%@%%%@%%@%@%%#############@%%@@@%@@@@@o",
" @X@@@$@@%@@@@$@$%X%X@@@X%X%X@X%X@X%X@X%X@X%X@@@@%$%@@@o",
" @%@%@@%@@@%@@%@%@@@%@@%@%@@%@%@%@%@%@%@%%@@%@@%@@@@@@@o",
" %%@@@%%$@%@@@%@$@%%X%@%X@%%X%%@X%%@$%@@X%%@$@%%$@%%@@%o",
" @@@@%@@@%@%@@@%@%@@@@@@%@%@@@@%@@@%@@%@%@@@%%@@%@%@@%@o",
" %X%@@@%@@@@%%%@@%$%@%%@@%X%@%@%@%X@%@%@%@@@@@%@@@@@@@%o",
" %@%@%@%%%@@@@@@%@@%%@@%@%@@%@%@@%%@%@%@@%@@%@@%%@@%%@@o",
" @@%@%@@@@%%@%@%@%%@@%@%@@%@@%@%%@%@@%@%@%@%%%@@@%@@@%@#",
".o#oo#o###o#oo#o#oo#o#oo#ooo#ooooooooo#ooo#ooo##o#o###oo"};
