/* XPM */
static char * image_name[] = {
"56 46 27 1",
" 	c #FFFFFBEEFFFF",
".	c #BEFBB6DABEFB",
"X	c #BEFBBAEABEFB",
"o	c #000000000000",
"O	c #C71BBAEAC71B",
"+	c #AEBAA699AEBA",
"@	c #9E799A699E79",
"#	c #69A68617BEFB",
"$	c #38E36DB6A699",
"%	c #082004100820",
"&	c #71C679E78617",
"*	c #000000001861",
"=	c #000000001040",
"-	c #79E79248B6DA",
";	c #965896589658",
":	c #861779E78617",
">	c #A6999E79A699",
",	c #514471C68E38",
"<	c #000008200820",
"1	c #AEBAAEBAB6DA",
"2	c #B6DAAEBAB6DA",
"3	c #A699A289A699",
"4	c #96589658AEBA",
"5	c #F7DEB2CAAEBA",
"6	c #FFFFF3CEFFFF",
"7	c #FFFFFFFFFFFF",
"8	c #A69979E78E38",
"                                                       .",
" .X..X..X..X..X..X..X..X..X..X..X..X..X..X..X..X..X..X.o",
" .O.O.O.O.O.O.O.O.O.O.O.O.O.O.O.O.O.O.O.O.O.O.O.O.O.O.Xo",
" X..............++@@@@@@@++..........................X.o",
" +XO.+O.O+XXO++@@#$#%oo###@@++O.O+XXO+XXO+XXO+XXO+XXO+.o",
" ...XX...X..+@@##%%%oooooo###@+..X....O.......O.......Xo",
" +O+.+X+X+O@$###o#o#oooooooo#o#@.+O+.+.+X+O+.+.+.+O+.+Oo",
" ...O.+.O.@########oo#ooooooo#o#@...O.+.O....X+.O...O.+o",
" +X+.+.+.@$#&##o#o#o#ooooooo#oooo@.+.+X+.+O+O+.+.+O+.+.o",
" O..+O.O@###*=o#o#ooooo#o#oo#ooo#%@.+.O.+...+.O.+X..+X.o",
" +.+.+.@$-##=.#ooooooooo.oooooooooo@O+.+.+O+.+.+.+.+.+Oo",
" X+..O@#.##ooooo#o#oooooooooo#oooooo@.+O+.+.X.+.+O+.O.+o",
" +.+O;$:#==#oo##.#oo#ooooooooooooooo#@.+.+.+O+.+.+.+.+.o",
" O+.+>#####o##o###oooo#o#o#oooooo#ooo@+.+O+.+.+X+O+.+X+o",
" +.+@#=*#oo#####oooooooooooooo##o#o#o#@+.+.+.+O+.+.+O+.o",
" ++O@#,####o#####oo###oooo#ooo####o#<$@.+++O+++.+++.+++o",
" +.+@#12o###3#31ooo####oo#.ooo##oo#o%# #&1.+.+.+. #+X+.o",
" ++>$>####o#ooo#########oooooooo###o%o .*+++++++ .o++++o",
" +X@##4@#####o##o####o##oo#ooo#ooo#ooo X##.+O+.O @o+.+Xo",
" ++@#@#;@4;oo#o#313#oo####ooooo####ooo X.o+++++ .@o++++o",
" ++@$#>@$+@#@@@o@++o++o+3+#ooo###o##oo. X##+.+. @#o+X++o",
" ++>#@@>>@@@@4;#@+++o+o+ooooo+3#3###oo# ..o+++ .@o#++++o",
" ++@>+O>+.O2..+#++++++o###ooo+#1+####o# X.##+. @@o#++++o",
" ++@@+.O.56O.O. ...X..++++oo#######4;o#.6X.o+ .@#o+++++o",
" @+@>O...O..5..O.++X.+o#++oo###;4#;#;o#@ X.## @@o#+++@+o",
"6++@.@@..@##############oooo##4;#;4;#o#@ ..# .@@o#+++++o",
" ++@@.O.O5.@#+##;4@;4###ooo####,####o#;4. X# @@$<++@+@+o",
" +++@...5..5.5.....O..3+oooooo#1####o#@++ #6.@>%#++++++o",
" @+@@5O..O5.5 ..O...XX.+ooo+++##31##o#@@+ # @@$%2@+@+@+o",
"6++++@.5..55.5.5.5+5.O.#oo++.+3+13+o#@+++. .@>%#+++++++o",
" @+@+@5O555555555O5O5..#oo.X+X++++#o#;+@+. @6o%#+@+@+@+o",
" >@+++>5  5 5 5 5 5 5  ooo56X5+..+o#4+@+@ .@oo#o++@+++@o",
" @+@+@+@5  5 5 5 575   ooo    5 Xo#@+@+@.6@@@o@o#@>@+@+o",
"6+@>@+@+@.5         5..ooooo##@@o#@+@>@.6.@@o#.#o+>>@+@o",
" @+@+@>@+@X       X#oooooooooooo#;+@+@+O6@@$<#.Xo#+@+@>o",
"6@>>@@@+@@@#X   X#ooooooooooooo#4@@>@O66@@>%@oX ##%$@@@o",
" @>>+@+@+@+@##;&*ooooooooooooo#@+@+@+6.@@@@%@%...X#%#@+o",
"6@@@@48@@@@44&=oooooooooooooo#@;@@@@ .@oo@@#o#.XooO#%@@o",
" @+@>@+4>@+@+>4##ooooooooo##@@+@+@>@6@o##6@@o.Xo## .o@+o",
"6@@@@@@@@@@@@@@@@@@@@@@@@@;@@;@@@@@@6@o#.6@@o.Xo#. Xo@@o",
" @@8+>@@>>84+@@@+@@@+@@@+@@@+@@@>@@@6.@  @@$%#O.  .#o@@o",
"6@@4@48@@@@@@@@@@@@@@@@@@@@@@48@@@@@@O.@@@#%#o#X.X#%$@@o",
" @+@@@@@@@>@@84@;@>@;@;@;@>@@@4@@8+@@;$%%o%#@##oooo#+>;o",
"6@@@@@@@48>@@@@@8@@@48@48@@@@@@@@@4@@>>>@@@@@4@@@@@@;@@o",
" @@84@8@@@4@@@@@4@@@@@@>4@@84@8@@@@@@@@@@@@@@;@@@@@@@@@o",
".ooo%%=oo%%o%oo%%%%%%%oo%%=o%%o=o%o%o%ooooooo%oooooooooo"};
