/* XPM */
static char *kernelcfg[] = {
/* width height num_colors chars_per_pixel */
"    64    64       20            1",
/* colors */
". c #000000",
"# c #050505",
"a c #171717",
"b c #272727",
"c c #383838",
"d c #474747",
"e c #565656",
"f c #676767",
"g c #777777",
"h c #797979",
"i c #878787",
"j c #989898",
"k c #9b9b9b",
"l c #a8a8a8",
"m c #b8b8b8",
"n c #c8c8c8",
"o c #d8d8d8",
"p c #e8e8e8",
"q c #fafafa",
"r c #ffffff",
/* pixels */
"qqqqqqqqqqqqqqqqqqqqqqqqqqpqppppppppooooooononnnnnmnmmmmmlmllllj",
"qqqqqqqqqqqqqqqqqqqqqqqpqpqpqpppppoppoooononnnnnnmnmmmmlmllllljj",
"qqqqqqqqqqqqqqqqqqqqqqqqqpqpppppppooooooonononnnmnmmmmmmlmlljjlj",
"qqqqqqqqqqqqqqqqqqqqqqppqppqppppoopooooononnnnnmnmmmmmmlllljljjj",
"qqqqqqqqqqqqqqqqqqqqpqqpqppppppppooooononnnnnmnmmmmmmllmllljjjji",
"qqqqqqqqqqqqqqqqqqqqqpqpqpppppooooooooononnnnnmnmmmmlmlljljjjjij",
"qqqqqqrrrrrrrrrrrrrrrrrrrrrrrrrrrrrrrrrrrrrrrrrrrrrrrrrrrkjjjjii",
"qqqqqqrkkkkkkkkkkkkkkkkkkkkkkkkkkkkkkkkkkkkkkkkkkkkkkkkkk.jjjiii",
"qqqqqqrkkkkkkkkkkkkkkkkkkkkkkkkkkkkkkkkkkkkkkkkkkkkkkkkkk.jiijii",
"qqqqqqrkkkkkkkkkkkkkkkkkkkkkkkkkkkkkkkkkkkkkkkkkkkkkkkkkk.ijiiig",
"qqqqqqrkkkkkkkkkkkkkkkkkkkkkkkkkkkkkkkkkkkkkkkkkkkkkkkkkk.jiiiig",
"qqqqqqrkkkkkkkkkkkkkkkkkkkkkkkkkkkkkkkkkkkkkkkkkkkkkkkkkk.iiiggg",
"qqqqqqrkkkkkkkkkkkkkkkkkkkkkkkkkkkkkkkkkkkkkkkkkkkkkkkkkk.iigigg",
"qqqqqqrkkkkkkkkkkkkkkkkkkkkkkkkkkkkkkkkkkkkkkkkkkkkkkkkkk.gigggg",
"qqqqqqrkkkkkkkkkkkkkkkkkkkkkkkkkkkkkkkkkkkkkkkkkkkkkkkkkk.iggggf",
"qqqqqqrkkkkkkkkkkkkkkkkkkkkkkkkkkkkkkkkkkkkkkkkkkkkkkkkkk.gggggf",
"qqqqqqrkkkkkkkkkkkkkkkkeeeeeeeeeeeeeekkkkkkkkkkkkkkkkkkkk.iggfff",
"qqqqqqrkkkkkkkkkkkkkkeeeeeeeeeeeeeeeeeeeeekkkkkkkkkkkkkkk.gfgfff",
"qqqqqqrkkkkkkkkkkkkkeeeeeeeeeeeeeeeeeeeeeeekkkkkkkkkkkkkk.gfffff",
"qqqqqqrkkkkkkkkkkkkeeeeeeeeeeeeeeeeeeeeeeeeekkkkkkkkkkkkk.fgfffe",
"qqqqpqrkkkkkkkkkkkkeeeeeeeeeeeeeeeeeeeeeeeeekkkkkkkkkkkkk.fffefe",
"qqqqqprkkkkkkkkkkkkeeeeeeeeeeeeeeeeeeeeeeeeeekkkkkkkkkkkk.ffffee",
"qqpqqprkkkkkkkkkkkkeeeeeeeeeeeeeeeeeeeeeeeeeekkkkkkkkkkkk.feeeee",
"qqqpqprkkkkkkkkkkkkeeeeeeeeeeeeeeeeeeeeeeeeeekkkkkkkkkkkk.fffeee",
"qpqpqprkkkkkkkkkkkkeeeeeeeeehhhhhhhheeeeeeeeekkkkkkkkkkkk.eeeede",
"pqqppqrkkkkkkkkkkkkeeeeeeehhhhhhhhhhheeeeeeeekkkkkkkkkkkk.eeeedd",
"qppqpprkkkkkkkkkkkkkeeeeeehhhhhhhhhhhheeeeeekkkkkkkkkkkkk.eededd",
"pqpppprkkkkkkkkkkkkkeeeeeehhhhhhhhhhhhheeeeekkkkkkkkkkkkk.eedddd",
"pqpppprkkkkkkkkkkkkkeeeeeehhhhhhhhhhhhheeeeekkkkkkkkkkkkk.dedddc",
"pppppprkkkkkkkkkkkkkeeeeeehhhhhhhhhhhheeeeekkkkkkkkkkkkkk.dddddc",
"pppppprkkkkkkkkkkkkkeeeeeehhhhhhhhhhhheeeeekkkkkkkkkkkkkk.dddccc",
"pppoporkkkkkkkkkkkkkeeeeeeehhhhhhhhhheeeeeekkkkkkkkkkkkkk.ddcdcc",
"ppppoprkkkkkkkkkkkkkkeeeeeehhhhhhhhhheeeeeekkkkkkkkkkkkkk.ddcccc",
"pppooorkkkkkkkkkkkkkkeeeeeehhhhhhhhheeeeeekkkkkkkkkkkkkkk.cccccb",
"poopoorkkkkkkkkkkkkkkkeeeeehhhhhhhhheeeeeekkkkkkkkkkkkkkk.cdcbcb",
"opoooorkkkkkkkkkkkkkkkeeeeeehhhhhhheeeeeeekkkkkkkkkkkkkkk.ccccbb",
"opoooorkkkkkkkkkkkkkkkeeeeeeehhhhhheeeeeekkkkkkkkkkkkkkkk.ccbbcb",
"oooooorkkkkkkkkkkkkkkkeeeeeeehhhhhheeeeeekkkkkkkkkkkkkkkk.bcbbbb",
"ooononrkkkkkkkkkkkkkkkkeeeeeehhhhhheeeeeekkkkkkkkkkkkkkkk.bcbbba",
"oooonnrkkkkkkkkkkkkkkkkeeeeeehhhhhheeeeeekkkkkkkkkkkkkkkk.bbbbab",
"onnonorkkkkkkkkkkkkkkkkkeeeeehhhhheeeeeekkkkkkkkkkkkkkkkk.bbbbaa",
"oonnnnrkkkkkkkkkkkkkkkkkkeeeeehhhheeeeeekkkkkkkkkkkkkkkkk.bbaaaa",
"nonnnnrkkkkkkkkkkkkkkkkkkkeeeehhhheeeeekkkkkkkkkkkkkkkkkk.bbabaa",
"onnnnnrkkkkkkkkkkkkkkkkkkkkeeeehhheeeeekkkkkkkkkkkkkkkkkk.baaaaa",
"nnnnmnrkkkkkkkkkkkkkkkkkkkkkeeehhheeeekkkkkkkkkkkkkkkkkkk.aaaa#a",
"nnnnnmrkkkkkkkkkkkkkkkkkkkkkeeehhheeekkkkkkkkkkkkkkkkkkkk.aaaa##",
"nnnmmnrkkkkkkkkkkkkkkkkkkkkkkeehhhekkkkkkkkkkkkkkkkkkkkkk.aa#a##",
"nnmnmmrkkkkkkkkkkkkkkkkkkkkkkkkkhhkkkkkkkkkkkkkkkkkkkkkkk.aa#a##",
"nmmmmmrkkkkkkkkkkkkkkkkkkkkkkkkkkkkkkkkkkkkkkkkkkkkkkkkkk.#a####",
"nmnmmmrkkkkkkkkkkkkkkkkkkkkkkkkkkkkkkkkkkkkkkkkkkkkkkkkkk.a#####",
"mmmmmlrkkkkkkkkkkkkkkkkkkkkkkkkkkkkkkkkkkkkkkkkkkkkkkkkkk.a#####",
"nmmmmmrkkkkkkkkkkkkkkkkkkkkkkkkkkkkkkkkkkkkkkkkkkkkkkkkkk.######",
"mmmlllrkkkkkkkkkkkkkkkkkkkkkkkkkkkkkkkkkkkkkkkkkkkkkkkkkk.######",
"mmmmmlrkkkkkkkkkkkkkkkkkkkkkkkkkkkkkkkkkkkkkkkkkkkkkkkkkk.######",
"mlllllrkkkkkkkkkkkkkkkkkkkkkkkkkkkkkkkkkkkkkkkkkkkkkkkkkk.######",
"mmlmllrkkkkkkkkkkkkkkkkkkkkkkkkkkkkkkkkkkkkkkkkkkkkkkkkkk.######",
"lmllllrkkkkkkkkkkkkkkkkkkkkkkkkkkkkkkkkkkkkkkkkkkkkkkkkkk.######",
"lllljlk...................................................######",
"lllljjjjjiiiigiggfgfffffeeeededdcdccccbbbbbbaaaa################",
"lljljjjijiiiigggggfffffeeeeedddddccccbcbbbabaaaaa#a#############",
"lljjjjjiiiigigggfffffeeeeededddcccccbbbbbbaaaa##a###############",
"jljjjijiiiiggggfgffffefeeeddddcdcccbcbbbbaaaaaa#################",
"jjjjjiiiigiggfgffffeeeeededddccccbcbbbbaaaaa##a#################",
"jjjijiiiigggggfffeffeeeeddddcdccccbbbabbaaaaa###################"
};
SIMPLE  =                    T                                                  BITPIX  =                    8                                                  NAXIS   =                    2                                                  NAXIS1  =                   64                                                  NAXIS2  =                   64                                                  HISTORY Written by XV 3.10a                                                     END                                                                                                                                                                                                                                                                                                                                                                                                                                                                                                                                                                                                                                                                                                                                                                                                                                                                                                                                                                                                                                                                                                                                                                                                                                                                                                                                                                                                                                                                                                                                                                                                                                                                                                                                                                                                                                                                                                                                                                                                                                                                                                                                                                                                                                                                                                                                                                                                                                                                                             wwwwwgggVggVVVVGGGG8G8888'''''wwwgwggggVVVVVGVGGG8888'8''''wwwwgwggggVgVVVGGGG8G888'8''''wwwwgggggVVVVVGVGGG88888''''''wwwwwgggggVVVVVGGGGG8888'8''''wwwgwgggggVVVVGVGG8G8888''''''                                                        ȸ  ȸȸ ȸ ȸȸyy ȸVVyyyV ȸVVVyyyVVV ȸVVVyyyVVVV VVVVyyyVVVVV 'VVVVyyyyVVVVV '''VVVVVyyyyVVVVVV ''VVVVVyyyyyVVVVVV ''''VVVVVVyyyyyyVVVVVV '''''VVVVVVyyyyyyVVVVVV '8'''VVVVVVVyyyyyyVVVVVV '8''''VVVVVVVyyyyyyVVVVVV 88''8'VVVVVVyyyyyyyVVVVVVV 8888''VVVVVyyyyyyyyyVVVVVV 8G8'8'VVVVVVyyyyyyyyyVVVVVV 88888'VVVVVVyyyyyyyyyyVVVVVV GG8888VVVVVVVyyyyyyyyyyVVVVVV GG8G88VVVVVVyyyyyyyyyyyyVVVVV GGG888VVVVVVyyyyyyyyyyyyVVVVV GGGGG8VVVVVVyyyyyyyyyyyyyVVVVV GVGGG8VVVVVVyyyyyyyyyyyyyVVVVV VVGGGGVVVVVVyyyyyyyyyyyyVVVVVV VVGVGGVVVVVVVyyyyyyyyyyyVVVVVVVV VVVVGGVVVVVVVVVyyyyyyyyVVVVVVVVV VVVVGVVVVVVVVVVVVVVVVVVVVVVVVVVV gggVVVVVVVVVVVVVVVVVVVVVVVVVVVVV gVVVVVVVVVVVVVVVVVVVVVVVVVVVVVVV ggggVVVVVVVVVVVVVVVVVVVVVVVVVVV gggVgVVVVVVVVVVVVVVVVVVVVVVVVVV gwgggVVVVVVVVVVVVVVVVVVVVVVVV wgggggVVVVVVVVVVVVVVVVVVVVV wgwgggVVVVVVVVVVVVVV wwggg wwwwwg wwwwg wwwww www www w w  ȸȸȸȸȸȸȸȸȸȸȸȸ                                                                                                                                                                                                                                                                                                                                                                                                                                                                                                                                                                                                                                                                                                                                                                                                                                                                                                                                                                                                                                                                                                                                                                                                                                                                                                                                                                                                                                                                                                                                                                                                                                                                                                                                