/* XPM */
static char * image_name[] = {
"56 46 28 1",
" 	c #FFFFFFFFFFFF",
".	c #BEFBBAEABEFB",
"X	c #000000000000",
"o	c #BEFBB6DABEFB",
"O	c #AEBAAAAAAEBA",
"+	c #AEBAA699AEBA",
"@	c #C71BBAEAC71B",
"#	c #9E799A699E79",
"$	c #69A68617BEFB",
"%	c #71C679E78617",
"&	c #082004100820",
"*	c #AEBAAEBAB6DA",
"=	c #96589658AEBA",
"-	c #79E79248B6DA",
";	c #A6999E79A699",
":	c #B6DAAEBAB6DA",
">	c #000000001861",
",	c #FFFFFBEEFFFF",
"<	c #514471C68E38",
"1	c #F7DEB2CAAEBA",
"2	c #5965A289D75C",
"3	c #51445555FFFF",
"4	c #000008200820",
"5	c #AEBAAEBAAEBA",
"6	c #A699A699A699",
"7	c #000000001040",
"8	c #A699A289A699",
"9	c #BEFBC30BBEFB",
"                                                       .",
" ......................................................X",
" ......................................................X",
" ...o..o..o..o..o..o..o..o..o..o..o..o..o..o..o..o..o..X",
" O...O...+...O...O...+...O...O...+...O...O...+.....o@O.X",
" ..o..@o...@o..@o.@o...@o..@o.@o...@o..@o.@o..@o. ##...X",
" O.O.+.O.O.O.O.O.O.O.O.O.O.O.O.O.O.O.O.O.O.O.O.O.$$#.O.X",
" .....O...o...+.......+...o...O...o...+.......O..###..OX",
" O.+.+.O.+.O.+.OoO.+.+.O.+.O.+.+.O.O.+.OoO.+.+.O. .+.+.X",
" ...O...O...O...O...O...O...O...+..o....O...O...+$..O..X",
" O.+.+.+.+.+.O.+.+.+.OoO.+.+.+.O.OOOOO.+.+.+.OoO.O.+.O.X",
" .O...O.O.O.o.O.O.O...O.O.O...O# ..##OO.O.O... $#.O...OX",
" O.+.O.+.#.O.O.+.O.+.O.+.O.+.O# $$%$&#OO.O.+.O$%*+oO.+.X",
" .O.O.O $XO.O.O.O.O.+.O.O.O.O# $$$$$$X$O+.O.O@#$=.O O.OX",
" O.O.+. #$XO.+.O.+.O.O.+.+.O# $$$$$$&#X$OO.+.O.*oO.$.O.X",
" O+.OOO $#$XOO+.OOO.OOO.OOO# %$$$$$X ..X$OO.OO+.OOO.OOOX",
" O.O.O. #$#$XO.O.O.+.O.O.O# $$$$$-& ....X$OO.O.OOO.+.O.X",
" OOOOOO $#$#$XOOOOOOOO+OO# $$$$$$& .o....X$OOOOO $$OOOOX",
" O.O.O.. $#X#$XO.O.O.O.O# $$$$;$$& ..... OX$OO.O$$$O.O.X",
" OOOOOO. #$$$#$XO+OOOOO# $$$&&&:$$X ...X$ OX$OOO#$#OOOOX",
" OOO.OOO. #$$$#$XOOO.O# %$$&  .XO$$X oX$$ .#X#OO.OOO.OOX",
" OOOOOOOO $#-$$#$XOOO# $$$X  . .&O$$X #$ ..XXX#OOOOOOOOX",
" OOOOOOOO. $#$$$#$XO# $$$>  # . .XO$$X O..X$$#X#OOO OOOX",
" OOOOOOOOO.,%#-$$#$X.$$$X  . # . .&O$$X .X$$.$$XOOO$OOOX",
" #OOO#OOO#O.,<+<+$#$$$$&  # . # . .XO$$XX$$O$$&OOOOOO#OX",
" OOOOOOOOOO. >$>$XX;$$X  . # . # . .&O$$X$:$$&OOOOOOOOOX",
" OO#O#O#OO. #$;$;$#X&.  # . # . # . .XO$$$$$$$&X$OO#O#OX",
" OOOOOOOOO #$#$$$#X$OX11 # . # . # . .X:$$$%-$X##OOOOOOX",
" #O#O#O#. #$#$$-#X$#O#&11 # . # . # . .XO$%234##O#O#O#OX",
" OOOOOOO. $#$$$#X$OOO5:411 # . # . # . X:2%-&6#OOOOOOOOX",
" #O#O#O. $#$$-#&$#O#O#5#711 # . # . # .Xo%3>##O#O#O#O#OX",
" O#OOO#. #$$$#X$OO#OOO#5o411 # . # . .X@$$46#O#OOO#OOO#X",
" #O#O#O #$&$;X$#O#O#O#O#O#&11 # . # .X.$$48#O#O#O#O#O#OX",
" O#O#O# $#$#X$#O#O#O#O#5#:#>11 # . .X.$$&##O#O#O#O#O#O#X",
" #O#O#O #$#&$#O#O#O#O#O#5#5#411 # .X.$$X##O#O#O#O#O#O#OX",
" ##O### $#&$###O###O###O###:#411 .X.$$X####O###O###O###X",
" #O#O#O #X$#O#O#O#O#O#O#O#5#5#419X.X$&##O#O#O#O#O#O#O#OX",
" #######$$####################5X$.$$X##################X",
" #5#O#O#O#O#O#O#O#O#O#O#O#5#5#5#X$$&##O#O#O#O#O#O#O#O#OX",
" ################################XX####################X",
" ###O###O###O###O###O###O###O###O###O###O###O###O###O##X",
" ######################################################X",
" #O#######O#######O#######O#######O#######O#######O####X",
" ######################################################X",
" ######################################################X",
".XXXXXXXXXXXXXXXXXXXXXXXXXXXXXXXXXXXXXXXXXXXXXXXXXXXXXXX"};
