/* XPM */
static char * image_name[] = {
"56 46 42 1",
" 	c #FFFFFFFFFFFF",
".	c #B6DAAEBAB6DA",
"X	c #A699A289A699",
"o	c #BEFBB6DABEFB",
"O	c #000000001040",
"+	c #AEBAAEBAB6DA",
"@	c #AEBAAEBAAEBA",
"#	c #BEFBC30BBEFB",
"$	c #965896589658",
"%	c #A699A699A699",
"&	c #BEFBBAEABEFB",
"*	c #000008200820",
"=	c #CF3CC71BCF3C",
"-	c #D75CD34CD75C",
";	c #71C675D671C6",
":	c #69A669A671C6",
">	c #E79DD75C9E79",
",	c #DF7DBAEA8E38",
"<	c #082004100820",
"1	c #000000000000",
"2	c #186120812081",
"3	c #A6999E79A699",
"4	c #DF7DAEBA69A6",
"5	c #208120812081",
"6	c #8E388A288E38",
"7	c #E79DE79DEFBE",
"8	c #618561856185",
"9	c #9E799A699E79",
"0	c #000000001861",
"q	c #5144A2894924",
"w	c #EFBEF3CEF7DE",
"e	c #AEBA9E795965",
"r	c #C71BBAEAC71B",
"t	c #69A68617BEFB",
"y	c #96589658AEBA",
"u	c #FFFFFBEEFFFF",
"i	c #79E786179E79",
"p	c #71C679E78617",
"a	c #AEBA61856185",
"s	c #861779E78617",
"d	c #79E79248B6DA",
"f	c #A69979E78E38",
"                                                       .",
" ..X...Xo..X...Xo..X...Xo..X...Xo..X...Xo..X...Xo..X...O",
" .o.o.o+o..o.o...o.o.o....o.o.o+o..o.o...o.o.o...o.o.o.O",
" .o@o@o@o+o@o@o+o@o@o@o@#@o@o@o@o+o@o@o+o@o@o@o+o@o@o@oO",
" $.oo%.o@@@&@@@&@@.o+@@o.Xoo+@@&@@@&@@@&@@.o+%o+#%.oo%.O",
" o@o@.o@&@o+&@o.&@o@&@oo+o@o@o@oo@o+&@o.&@o+oo@&@.@o@o.O",
" X.Xo%o%o%o%.Xo%.Xo%.Xo%@@@@o%o%.Xo%.Xo%.%.%+%o%oXo%+Xo*",
" .o@o+%o@.o@o.%.@o.@o.%o@o.o@.X+       *o+o+o.X.@o@.o.XO",
" X.Xo%+Xo%+Xo%+@.%oXo%+Xo%.%oX          **o%o%@@.Xo%+@.O",
" o@oX@o+%o@oX@o.X@o@%o@oX@o+%   ======   **@%.o.%o+.@@+O",
" $o%+@.X.Xo%.Xo%+@+@+Xo%.Xo%   =--=--==   **o%+Xo%.%.XoO",
" +X@o.%.@+%.o+%.%oX@..%.X.X   -=**;;;;-=  -**.@+%+%o@oXO",
" XoX.%+@@Xo%+@.%+XoX******o  ==***;:;;;>  ==*X.%.Xo%.X.O",
" oX.%oX+X.%.X+%.%oX**,,,,,**=-*<;;X@%@:;  -=;;X+%oX+X.XO",
" %+X.%+@.X+Xo%+X+X*,,,,,,,,,<>O*;..%.%.;  ==;;.X+X.@@@.O",
" X%oXX%.%XX+XXXoX<,,,,,,122,,*;;X3X.%XX+  -=;:%oXX%+XXXO",
" $+X+X.X.Xo%.Xo%+*,,%4%5>67<,<;;.X.X.X.X  =>;;@X.Xo%.X.O",
" XXXXXXXXX%XX%XX<,,,,,,*X%72,,<:XXXXXXXX  =-:;XXX%XXXXXO",
" X.Xo%+Xo%+X.X+X*,,,,,,1#X7*,,<;.X.X.X.X  ==;;.X.X.X.X.O",
" XX%XXXXXXXXXXX.O4%4%,,,***,,,<;XXX%XXXX  >-;;%XXXXXXXXO",
" XXX.XXX.XXXo%XX*,,,4,,,,,,,%,28.%XX.XXX  =-:;9X+XXX+XXO",
" XXXXXXXXXXXXXXX<,,,,,%4%,,,,<<                  ;XXXXXO",
" $XXXXXXXXXXXXX*,,%4,,,,,4%4,1                  ;:%XXXXO",
" XXXXXXX%XXXXX<,,,,,,%,,,,,,*->#>=-==-========$$;;XXXXXO",
" $XXX$XXX$XXX*,,,,2214,,%42*>-=-==->-=>---->-=X$:;%XX$XO",
" XXXXXXXXXXX*,4%,1%@%*12***OOOO****0**0*O*OO0*$$;:XXXXXO",
" XX$X$XXXXX*,,,,2%9q.$w7--**********O********<$$:;%$X$XO",
" XXXXXXXXX<,,,,<<**%%%  #>----=------=--=-=--=3$;:XXXXXO",
" $X$6$X$X<,,,%5<,,<$X$7 -=->==>>=====->=->==>-$$:;%$X$XO",
" XXXXXXX<,,,,<1,,<XXXX  ==<0*000<<<*<<<O<OO*O<$6;;3XXXXO",
" $X$X$X<,,%42<*<<$%$X$7 =-*<**<O<<<<<<<<<<<<<*3$;:%6X$XO",
" X$XX31,,,,O<,,<.%6%XX  ==-=-=----------------$$;:$XXX$O",
" $X$X$<,,,21,,2eXeX$X$7 ==>->-&>==>r=>>->&=>==$6;;3$X$XO",
" X$36.<,,11,,<e.ty$X$X  =-*OOO<O<*O<*O0O<O<O<<33;;6X$3$O",
" $$$X$%1<%X1<6X$@$X$X6w -=<*<*<<<<<<<<*<*<<<<<9$:;3$36XO",
"u$6X$6$Xeie3$e$X$$6X$$  >->--=-------=--=-----36;;93$$$O",
" $3$3$X$y$+t+$X$X$9$X67 -==>=->r=>==>===>==>==$$;:%$3$3O",
"u$$$$$6$$$$$$$$6$$$$$$  ;:p:;;;:;;;;;:;;;;;;;;;;:;$$6$$O",
" $3$3$X$3$X$X6X$9$3$9$ :;:;;::;;:;:;;;:;;:;:;:;:a:3$3$3O",
" $6$$s$$$$6$$$$$$6$$6$$$$$6$$$6$$$$$6$$6$$$$$6$$6X$$6$$O",
" $$$3$$63$$t%6d93$$$3$6$3$$$3$$$36$$3$$$3$6$3$$$X$6$%$$O",
" 6$$$6$$$6$$$$$6$$6$$$$$$$$6$$6$$$$$$6$$6$$$$$$6$$$$$$$O",
" $3$$$$$6$3$$$$$$$9$$6$$6$3$$$$$6$36$$$$$$3$6$$$$63$6$6O",
" 6$$$$$$$6$$6$6$$6$$6$$$$$$$$$6$$$$$$636$6$6$$$6$$$$$$$O",
" $$$6$6$$$$6$$$$$$$$$$f$$6$6$696$6$$$$$$$$$$$$9$$6$6$$$O",
".OO0<<<<<<<<<<<<<<<OOOO0<0O0<O0<<0<<O<<O<<OOO<OOO<O0OOOO"};
