/* XPM */
static char * image_name[] = {
"56 46 34 1",
" 	c #FFFFFFFFFFFF",
".	c #D75CD34CD75C",
"X	c #000000000000",
"o	c #E79DE79DEFBE",
"O	c #69A669A671C6",
"+	c #965896589658",
"@	c #AEBAAAAAAEBA",
"#	c #AEBAA699AEBA",
"$	c #AEBAAEBAAEBA",
"%	c #A699A289A699",
"&	c #9E799A699E79",
"*	c #B6DAAEBAB6DA",
"=	c #514455554924",
"-	c #A6999E79A699",
";	c #BEFBB6DABEFB",
":	c #AEBAAEBAB6DA",
">	c #71C675D671C6",
",	c #8E388A288E38",
"<	c #CF3CC71BCF3C",
"1	c #C71BBAEAC71B",
"2	c #618561856185",
"3	c #D75CDF7DE79D",
"4	c #28A22CB230C2",
"5	c #5144A2894924",
"6	c #A69979E78E38",
"7	c #79E786179E79",
"8	c #186120812081",
"9	c #AEBA61856185",
"0	c #A699A699A699",
"q	c #30C234D330C2",
"w	c #082004100820",
"e	c #FFFFFBEEFFFF",
"r	c #FFFFF3CEFFFF",
"t	c #8E38861779E7",
"                                                      .X",
"  ...................................................oOX",
"  +@#$%&#$%&#$%&#$%&#$%&#$%&#$%&#$%&#$%&#$%&#$%&#$#+@*=X",
"  -$#@@;::**:*:;::**:*:;::**:*:;:**::****:**::;:##@@@;=X",
"  -@$:&O>>O>O>O>O>>O>O>O>>O>O>O>O>O>>O>O>>O>O>O>,#$@@*OX",
"  $@@*O,<..<.<.<.<.<..<..<<<o<..<..<<..<.<<..<..o.@@$;>X",
"  -@@;>*o*#;;;*;**;**;*;*;;<XX<1;*;;;**;;;**;**+$.$#$*2X",
"  -$$*O*.$*$$$*$*$$*$$$$*$$;<XX&*$*$$$:$$*$$$$;>+.#@$*OX",
"  %@@*>;.+$@$$*$$@$;;$;$$*$@*XXXO;$$$@;$$$*$@*:O@o&#$;OX",
"  -$*$>:.@@*@$$$*$;OX>;*$$@$;XXX$*$$*$$$@@$@$$*,&3#$$;OX",
"  -$$*>*.#$@;$@$$$$;>X=$*$@@*XX<**$#@@#@*$@@@@*O@3@@@;=X",
"  $@$$>:.$@@$@@@@$*$<=X4$;*$*XX.@$@@@@*@$@@*@@;5&.@$$;OX",
"  -$@;O$.$@@@@;$@@$@*=XXX&*$;XX<#$*@@@@@@@@@@@*6#3#@$*>X",
"  @@$*>*.@@@#$#$*@@@<=XX,*$$;XX<$@@$$;@*@$;@$$*5+.@$$;OX",
"  -$@*>*.$$:@@$#@@@@*=XX,:$$*XX<@*@@$$$*@@$@;$;O-3#@$*>X",
"  @$$;O;<@$*;<<.*;@@<=XX7;@$*XX<@@@*@#@@@@#$$$*5&3@$$*OX",
"  -@$*>$.$@;XXXXX;*@*=XX,@*;<XX1$@@@@@;$$;$$#$;5#3#@@;2X",
"  -*$$O*o&$.=XXXXX,*1=XX,*<>OXX1@$$;*;*$#$$*$$*5&3@$$;OX",
"  %$#;>$.@@:;OXXXX4<<=XX&<=X>XX<$**.O4$;$#*@@$*>#3&#@*>X",
"  #$$*>:.@$$;*&&XXX=1=XX&4XX.XX<*;OXXXX+;*@@$$*5&o@@$:2X",
"  -$$*>*.$#$$***<%X4<=XXXXX<*XX&=XXXXXXXO;;*$$*,+o&#@;2X",
"  @$$*>:.$@$#$$@@*+>1=XXX=;*;XXXXXXXXXXXX4*$$$*5&3#$$*>X",
"  -$@;O;<$@@@@@@@@**1=XXO****X@OXXXXXXXX67$@@**O#o#@$;2X",
"  -$$;O;.@@@*@@*@@***4X,<*$$;X<*&XXXXX&<$;*@@$;5&3@@$*OX",
"  -$$*O;<$@@@@@@@@;&8XXO*$@**X<;*&==&1*;$$$@@@*,#<@@$;>X",
"  $$$;O;.$@@@@$***&XXXX>*@$**X<$$****$$$$@@$;$*5&o@@$*OX",
"  -$$*>$.$@@@;$**OXX==XO;*$@;X<@@@@@@@@$#;*$$$*9+3#@$;>X",
"  -@@$>$.@@@$$**=XXX,=X9*$$**X.@@*@@@#$*$$$@@$*5-3@@$*=X",
"  -$@*>*.$@@@;<4XXX&<=XO;;***X<@@@@***;<<;**$@;,&3#@@;2X",
"  $@@*>:.@@$**XXXX4**=X>$$$**X<@@$*;**4XXX**;$*5&3@@$*>X",
"  -$@*>*.$*;7XXXXX.*1=X>;*$**X<@*;$O8XXXXXX,$;*O-30#$;OX",
"  $@$*O;<$;=XXXXX,*$*=X>*$$*;X<;$=XXXXXXXXXX=<*,&3#@$$>X",
"  -$@*>$.$:XXXXXX<*$1=XO;$@$*X$XXXXXXXXXXXXXXq$,-3-@@;2X",
"  %@$$>;.$;<4XX4<*@**=XO*;$*;X<*<<<<<<.<<<<<.$;5&3@;$;OX",
"  -@@;>$<$$*<==<*$@@*=X>*;$**X<*$*$@$$$$*$$$$$;5-.#@@*2X",
"  -$$*>:.$$$****$@$$;=XO*$$$;X<$@$$@@@@@$$@@$$*5&o@@$*>X",
"  -$$*9;.$@$$$$$#*@$*=O;*$$**X<$$*@$@@@@@@@@@@*5&30#$;2X",
"  -$*$>:.@***********<*;*;*;*X.***;*;;;;;;;;;;*,&3@@$*OX",
"  %$$*>$&====================X2=================+o0@@;2w",
"  #$$;$<   e eeeeeeee               ee          r.@@$$>X",
"  -$$$$@@@&@@-$@$-$$$-$-$+$$$@@@-$-$+$$$%$&$$$&&$#@@@;2X",
"  @#$#@@@@@#$@@@#$#$#$#$$@#$@@@@$#$@#$#$@$$$$@@@@@$*$;OX",
"  -$@@@@@@@@@@@@@@@@@$#$#@@@@@@@@@@@@@$#@@#@#@@@@@@$$;OX",
"  $*;*;;**;*;***;****;******;:******;****;;**;**;*;;;$2X",
"  O,7,7t7,7,7,,7,,7,,7,,,,7,,,7,7,7,7,,7,7t7,,7t7t7t7&OX",
" 4XXXXXXXXXXXXXXXXXXXXXXXXXXXXXXXXXXXXXXXXXXXXXXXXXXXXXX"};
