/* XPM */
static char * image_name[] = {
"56 46 26 1",
" 	c #FFFFFFFFFFFF",
".	c #BEFBBAEABEFB",
"X	c #000000001040",
"o	c #BEFBC30BBEFB",
"O	c #AEBAAAAAAEBA",
"+	c #BEFBC71BD34C",
"@	c #B2CAAEBAB6DA",
"#	c #51445555FFFF",
"$	c #000000000000",
"%	c #DF7DAEBA9A69",
"&	c #FFFFFFFFD75C",
"*	c #FFFFE79DBEFB",
"=	c #FFFF14514103",
"-	c #186124921C71",
";	c #C30B9A694514",
":	c #79E786179E79",
">	c #B6DA492430C2",
",	c #75D69248B6DA",
"<	c #AAAA79E78E38",
"1	c #8E388A288E38",
"2	c #DB6CDB6CE38D",
"3	c #9E799A699E79",
"4	c #EBADEBADF3CE",
"5	c #30C2DB6C30C2",
"6	c #A6999E79A699",
"7	c #EFBEBEFBC71B",
"                                                       .",
" ......................................................X",
" ......................................................X",
" .o..o..o..o..o..o..o..o..o..o..o..o..o..o..o..o..o..o.X",
" O...O...O...O...O...O...O...O...O...O...O...O...O...O.X",
" .....o......o.+..o......o.+..o....o..o...+......+..o..X",
" O.@.O.@.OoO.O.O.@.@.OoO.O.O.@.@.O.@.@.@oO.Oo@oO.O.@.@.X",
" o..o.O.o....#############$$$$$$......O....o..O..o.o..OX",
" O.O.O.@.O.@o#############%%&**$$OoOoO.O.O.O.O.O.O.O.O.X",
" ...@...O.o.O#############%%***$=$..O...O...Oo..Oo..Oo.X",
" O.O.O.OoO.O.#############%%***$==$O.O.@oO.O.@.O.@.O.OoX",
" .@...@.O.O.o#############%%***$===$..O.O.Oo..O.O.O.o.OX",
" O.O.O.O.@.O.$*%%%*%%*%%*%%%***$====$O.OoO.@.OoO.OoO.O.X",
" oO.OoOoO.OoO$*%*%%%%%%%%%%%***$$$$$$$O.@.O.O.O.@.O.O.OX",
" O.@.O.O.OoOo$********=======***%%%%%$oO.OoOoO.O.O.@.OoX",
" OO.OOO.@OO.O$********=======***%%%%%$O.OOO.O@O.OOO.OOOX",
" O.@.OoO.O.O.$********=======$$$$-$-$$oO.@oO.OoO.@oOoO.X",
" @OO@OOOO@OO@$********=======%%******$O@OOOOOOOOOOOOO@OX",
" O.@.OoOoOoOo$********=======%%%%%%%%$oOoO.O.@.O.O.O.OoX",
" @OOOOOOOOOOO$*******$**%%%%%$---$-*&$@OOOO@OOO@O@OO@OOX",
" OO@.O@O.@OO.$******$***%%*-$&*****$$$@OoOOO.OOOoOO@.OOX",
" @OO@OOOOOOO@$*****$***%%%$**********$OOO@OO@O@OOOOOOOOX",
" OO@OO@OOO@OO$*&**$***%**-*;:>,;:<:11>X@OOO@OOO@O@O@O@OX",
" @OOO@OO@OO@O$***$**&%***$*:+2++.2oo2+$@O@OO@O@OOOO@OOOX",
" 3O@O3O@O3@OO$###***%***$**1+XX1X+$X:+4$@3OOO3OO@3OO@3OX",
" O@OO@OOO@OOO$:<#**%****$XX52+2++2+2+++$OO@O@O@OOO@OO@OX",
" OO3@3O3@OO3@$11#$$$$$$$$*&<+XX+:$X+$X2$@OO3O3O3@OO3O3OX",
" O@OOO@OOO@OO$11#%%*****$**:2+2+4++4+4+$OO@OO@O@OOO@O@OX",
" 3O3@3O3@3O3O$1>#%%%%%%%$**1+X$:$+X+X:+$@3O3@3O3O6O3O3@X",
" @O@OO@OOOO@O$###%%****&*$*:+2++4+2+2+$@O@O@OOOO@OOO@OOX",
" 3O3O3O3@3@3@$%%*%%******$*11:1:51:5<1$3@3O3@3@3O3@3O3@X",
" O3@O@3@OO3OO$*%%%%*******$**%%%7%%7%$3OO@3@OO3@O@3O@O3X",
" 3O3@3O3O6O3@$*************$$%%%%%*$$1$6O3O3@3O3O3O6O3@X",
" O3@3O3@3O3@3$***************$-$$$$*$$1$3@3O3@3@3@3O3O3X",
" 3O3@3@3@3@3O$*********&*************$$1$3O6O3O3O3@3@3OX",
" 33@333O333O6$************&**********$3$1$3O333O633@333X",
" 3O3@3@3@3@3O$*****************&***&*$O6$1$3@3@3O3@3@3@X",
" 3O3333333363$$$$$$$$$$$$$$$$$$$$$$$$$333$1$33336333333X",
" 3O3O6O3@3@3O3@3@3@3@3@3O3O3O3O3O3O3O3O3O6$ @3@3O3@3@3OX",
" 336333333333633633633333633O33O33633636333333333333333X",
" 333OO33@336O336O363O3O3O333O333O333@333O363O3O3@363@36X",
" 6363333333336333633333333633633636333336333O3333333333X",
" 3O33363O3@3333333@3633O33O3333633O3636333O33333O3OO333X",
" 3636333333333O3633333333336363333633333636333633333363X",
" 333336333O33333336363363633333633336363333363333633333X",
".XXXXXXXXXXXXXXXXXXXXXXXXXXXXXXXXXXXXXXXXXXXXXXXXXXXXXXX"};
