/* XPM */
static char * image_name[] = {
"56 46 38 1",
" 	c #FFFFFFFFFFFF",
".	c #B6DAAEBAB6DA",
"X	c #000000000000",
"o	c #8E388A288E38",
"O	c #BEFBB6DABEFB",
"+	c #9E799A699E79",
"@	c #082004100820",
"#	c #FFFFFBEEFFFF",
"$	c #38E36DB6A699",
"%	c #F7DEB2CAAEBA",
"&	c #965896589658",
"*	c #A69979E78E38",
"=	c #AEBA9E795965",
"-	c #8E38861779E7",
";	c #71C679E78617",
":	c #79E786179E79",
">	c #96589658AEBA",
",	c #AEBAAEBAB6DA",
"<	c #AEBAB2CACF3C",
"1	c #AEBAA699AEBA",
"2	c #AEBAAAAAAEBA",
"3	c #AEBA61856185",
"4	c #000000001040",
"5	c #000008200820",
"6	c #A6999E79A699",
"7	c #861779E78617",
"8	c #000000001861",
"9	c #AEBAA69971C6",
"0	c #FFFFF3CEFFFF",
"q	c #C71BBAEAC71B",
"w	c #71C675D671C6",
"e	c #514471C68E38",
"r	c #A699A699A699",
"t	c #5144A2894924",
"y	c #A699A289A699",
"u	c #69A68617BEFB",
"i	c #79E79248B6DA",
"p	c #EFBEF3CEF7DE",
"                                                       .",
" ......................................................X",
" ......................................................X",
" ........oooooooooooooooooooooooooooooooooooooo...O....X",
" +.O.+OooX@@@@@@@@@@@@@@@@@@@@@@@@@@@@@@@@@@@@@oo+...+OX",
"#.....o$X+%##################################%+@$o..O..X",
" +O&Oo$@%    ##################################%@$*&.&.X",
"#...o$@% %=-oo;=:*:ooo;=:*:ooo;=:*:ooo;=:*-oo-%#%@$o.O+X",
" +.>o@. %*,,..<1.....O,,.....O,,.....O,<2.O..,o% .@o.>.X",
"#...o@%#+......................................+#%@o+..X",
" +.+o@*#+.>.o$$$$$$$$$$$$$$$$$$$$$$$$$$$$$$o.+.+#3@o.+.@",
"#.+.o$@%%o.+o@X4X4X4X4@4X4X4X4@4X4X4X44X44@o>O3%%4$o..+X",
" +.>.o@3 :++o$@XXXXXXXXXXXXXXXXXXXXXXXXXXX$o.+o 35o+.+.@",
"#.6.>o$@%.7+.$X$X$XXXXX@XXXXXXX@XXXXXX$X$@$+>o%O8$o.+.+X",
" +.+.+o@*%9+6o$8$4$$$$$$o.%*$$$$$$$$$$4$4$o6+o%35oO+.>.X",
"0++.+>o$@.<;++$$$$$o:*oo.% %;oo:*ooo*$$$$$++o.%8$o>.+++X",
" +.+.+.o@o%3>6;$$$8*++++. 3 <++6++++:4$*$o++:O=8o6O+.+.@",
"0++>++>o$@.q;>>$*$$$;6++O%o%%.+++6>o$$o$:o+o..4$:++>++6X",
" +.+.6.+o@o.o>=+$*$8=>+&. =;#.+&+++:@o*;o+;=1o@*.+.+.+.@",
"06+++++>o$@>.$+*;>;$$;++.%*$%%.+66o$$w:$+o3>.@$:+6++>++X",
" +6+.+6+.o@$-*::ooe.@o6+<#$$$#.++6wXo1=*:::.$Xo+.++6.++@",
"0++666+++o$@r6$o>$ro$$=+.%$$$%%.6;$$=o$:+$-r4$=6++6+66+X",
"#++>++6+>+o@$-&o3o=668;1.#8$8$#.+=8r6o;ooo6$X;>o+6++6++X",
"0+6+6>*+6+o$@r+$*+$ro$$o.%$4$@%%1$$-+$o>$6=@$o6+6+6*+6+X",
"#t>++t,>+t6o@$-oooo3r.@o.#X$X$$%<@rO3&*:=6$4oo6++t1>6t6@",
"061+6>+6>66o$@ro$+o$.O$$.%$.8O%.$$.O$6w$+*4$o>+>1>++6>+@",
" +>t63>t6++w*@$=;o6o=,.8.%  $$#.XO.o6o+oo$@o+t6t1>+t6w6@",
"0+66>>>66+66;$8oo$o>$.%$$..%.@%O$.%$o+$w*@$o6666*o>6+1+X",
"#=+;+t6*+=+;6=8$>76+6*.%@3y. $%$.%36>+o:$@oo+w6;>w+w6t+@",
" 7++666o6*6>6;$8$o$&+$%%$$o61%O$%%$++$o$@$o++++>+1+6666X",
" ;1o+-+;>:+o+oo@$o$>+&*#%8o-*1$.%36++$$$4o+76t6=*:+7+o+X",
"#>*++u=1&+o++>o$8$o$6<3% o@@@83 %:+.$o$4$*t+66*++6=+6+;X",
" o+:+-+;6=+;>7>o@$$$++,&0 % % % *y.6$$$8o*6*>o+-u-u*+=+@",
"0+=+o+o>*uo6:13o$8$$$6.:.#     <;O.$;$4$tio&oo*+*rw+o6;X",
" :+;+o+o+=i3>:+:o@$$$O6.o3:=;ooo.+6$$$8o1*+:6-o:+o6:+o>@",
"#oo+o*o+oe->&-:r;$4$$$............$$$8$o*-:1wooo=e=+;=oX",
" o>:+:&:+-+o+o+=+*4$4$o.....O....o8$8Xo*+;6=o:6:6&oo6;>X",
"p**-=oo*too;=;o;o:$4$8$ooo:oooooo@$X8$*te=:*o:+9;;>e=:oX",
" :+:i*>o6*>9u*+:6oo@X$X$@$@$@$4$@$4XXo,*,*>-i3>;69+7>*+@",
" :*-=:oo;o+;o-:o&3o$X4@@@@@@@@X@X@X@$*o;;oo;::ooo;:*oo:X",
" :::i*:;6owo6:o:+:e9$XXXXXXXXXXXXXX$o::;,o:9+ooo>=;:>o:X",
" :3o*t:o:3o*t;-*t>o+;o$$$$$$$$$$$$;o:3o&e=w:*:oo;o:o-:oX",
" =ooo-oo=;>o&*&;3o>o:o**;o*:oo*:oooo;>::o;6:-oo-o:>:*;9X",
"p:o::*o:*&o:*6e9o:*;=;:o+:o;*o;o:*;ooo;=:ooo;o;*t*o*to;X",
" oo=*::3iw:*:3i-o=:o*:o;oo;>t*:;o>=e&;o3;>=*:ty*;6;o*o>X",
".@X4XXX54XXXXX8@@@@8@@@@XX@X88@4@@@4@@88@X4X44X8@@@@@@XX"};
