/* XPM */
static char * image_name[] = {
"56 46 29 1",
" 	c #FFFFFFFFFFFF",
".	c #BEFBBAEABEFB",
"X	c #000000000000",
"o	c #9E799A699E79",
"O	c #69A68617BEFB",
"+	c #AEBAAAAAAEBA",
"@	c #AEBAA699AEBA",
"#	c #BEFBB6DABEFB",
"$	c #514471C68E38",
"%	c #C71BBAEAC71B",
"&	c #A6999E79A699",
"*	c #FFFFFBEEFFFF",
"=	c #861779E78617",
"-	c #AEBAB2CACF3C",
";	c #082004100820",
":	c #79E79248B6DA",
">	c #71C679E78617",
",	c #000000001861",
"<	c #AEBAAEBAB6DA",
"1	c #BEFBC30BCF3C",
"2	c #38E36DB6A699",
"3	c #96589658AEBA",
"4	c #000000001040",
"5	c #AEBAAEBAAEBA",
"6	c #B6DAAEBAB6DA",
"7	c #A699A699A699",
"8	c #F7DEB2CAAEBA",
"9	c #DF7DBAEA8E38",
"0	c #79E786179E79",
"                                                       .",
" ......................................................X",
" ......................................................X",
" ......................................ooOoooo+@.......X",
" +...@...@...@...@...@...@...@...@...oOO@OXOoOXO+@.....X",
" ......#.......#.......#.......#....oOO.OOOO.oOOX+@#...X",
" +.@.@.@.@.@.@.@.@.@.@.@.@.@.@.@.@.o$O%Oo....XoOOX++...X",
" .....@.......@.......@.......@...&OOOOo.*...oOXoOO@...X",
" +.@.@.@.@.@.@.@.@.@.@.@.@.@.@.@.@OO=-%  .....OoXOXo@..X",
" ...@...@...@...@...@...@...@...@oO-O*   *...OOOO;OX@..X",
" +.@.+.+.@.@.+.+.@.@.+.+.@.@.+.+.oOO*.   ...oOOOOO;X++.X",
" .+...@.+.+...@.+.+...@.+.+...+.@O.O. . .*.o%o:OO;OX+.+X",
" +.@.+.+.@.+.@.+.@.+.@.+.@.@.@.+.>%>Oo.....#o.>>,OXX++.X",
" .+.+.@.+.@.+.+.+.+. X+.+.+.+.@.<o1%OO++@..o#o-Oo;OX+.+X",
" +.+.+.+.+.+.@.@.+.   X+.@.+.+.@.O@.OOOOo.o.oo2@>O;X++.X",
" +@.++@.++@.+++.++     X+++.++@.@o<<OOOO>O.&3>@O,O;X+++X",
" +.+.+.+.+.+.+.+.       X+.+.+.@.oo@oOOOOOooO&O4O;;O++.X",
" +++++++++++++++   .    .X. X+++@+Oo+&OOOOoO&OOO;XX++++X",
" +.+.@.+.@.+.@.   . .  ...  .O%5.@oOooOOO&OoO;O;XXO+++.X",
" +++++++++++++   . . ...     X5+++6OO&OO&oOO;OXXXX+++++X",
" +++.+++.+++.   . ....    .  .O+.+++O;OOO>O;OXXXX+++.++X",
" +++++++++++   . ...    ..    X++++@@OO;O,OOXXXO+++++++X",
" ++++++++++   . ..    ..  ..  .O+++++@oO;O;;XO+++++++++X",
" +++++++++     .    ..  ..     X++++++6+@6+++++++++++++X",
" o+++...........................+o+++o+++++++++++o+++o+X",
" ++++                            ++++++++++++++++++++++X",
" ++o+  . . .                     O+o+o+o+++o+o+o+++o+o+X",
" ++++  .. .                 787  XO++++++++++++++++++++X",
" o+o+  . . .                797  XOo+o+o+o+o+o+o+o+o+o+X",
" ++++                       088  XO++++++++++++++++++++X",
" o+o+                       68:  XOo@o+o+o+o+o+o+o+o+o+X",
" +o++                            XO+++o+++o+++o+++o+++oX",
" o+o+           >Oo.O..          XOo+o+o+o+o+o+o+o+o+o+X",
" +o+o                            XO+o+o+o+o+o+o+o+o+o+oX",
" o+o+           Oo.O..>1><#      XOo+o+o+o+o+o+o+o+o+o+X",
" oo+o                            XO+ooo+ooo+ooo+ooo+oooX",
" o+o+           Oo.Oo.Oo..       XOo+o+o+o+o+o+o+o+o+o+X",
" oooo                            XOooooooooooooooooooooX",
" o+o+                            XOo+o+o+o+o+o+o+o+o+o+X",
" oooo                            XOooooooooooooooooooooX",
" ooo+OOXXXXXXXXXXXXXXXXXXXXXXXXXXXOo+ooo+ooo+ooo+ooo+ooX",
" oooooOOOOOOOOOOOOOOOOOOOOOOOOOOOOOooooooooooooooooooooX",
" ooooooooooooooooooooooooooooooooooooooooo+ooooooo+ooooX",
" ooooooooooooooooooooooooooooooooooooooooooooooooooooooX",
" ooooooooooooooooooooooooooooooooooooooooooooooooooooooX",
".XXXXXXXXXXXXXXXXXXXXXXXXXXXXXXXXXXXXXXXXXXXXXXXXXXXXXXX"};
