/* XPM */
static char * image_name[] = {
"56 46 21 1",
" 	c #FFFFFFFFFFFF",
".	c #BEFBBAEABEFB",
"X	c #000000001040",
"o	c #AEBAAAAAAEBA",
"O	c #BEFBC71BD34C",
"+	c #B2CAAEBAB6DA",
"@	c #000000000000",
"#	c #EFBEBEFBC71B",
"$	c #FFFFFFFFD75C",
"%	c #A6999E79A699",
"&	c #DF7DAEBA9A69",
"*	c #186124921C71",
"=	c #B6DA492430C2",
"-	c #8E388A288E38",
";	c #FFFFE79DBEFB",
":	c #71C679E78617",
">	c #30C2DB6C30C2",
",	c #AAAA79E78E38",
"<	c #9E799A699E79",
"1	c #96589658AEBA",
"2	c #C30B9A694514",
"                                                       .",
" ......................................................X",
" ......................................................X",
" ......................................................X",
" o.O.+..O+.O.+..O+.O.+..O+.O.+..O+.O.+..O+.O.+..O+.O.o.X",
" ....................................................O.X",
" o.+.+.o.o.+.o.+.o.+.o.+.o.+.o.+.o.+.o.+.o.+.o.+.o.o.o.X",
" .....+.......o.@@@@@@@@@@@@@@@@@@@...o.......+.......oX",
" o.o.o.+.+.o#o.o@$$$$$$$$$$$$$$$$$@@.+.o.+.o.+.o.+.+.o.X",
" ...o...o...%...@$$$$$$$$$$$$$$$$$@&@...++#.o...%#..+..X",
" o.+.o#%.o.+.o.+@$@@@$$$$$$@@@$$$$@&&@.+.o.o.o.+.%.o.+.X",
" .+...%.o.o...+.@$$$$$$$$$$$$$$$$$@&&&X.o.o.+#o.o.o...oX",
" o.o.+.o.+.o.+.o@$$@@@@@$$$$$$$$$$@&&&&@.+.o.o.o.+.o.+.X",
" .o.o.o.o.+.o.o.@$$$$$$$$$$$$$$$$$@*@*@*=.o.+.o.o.o.o.oX",
" o.o.+.o.o.+.o.+@$$$$@@$@@@$@@@@@$$&&&&@-+.o.o.+.o.+.o.X",
" oo.+o%#%+%.ooo.@$$$$$$$$$$$$$$$$$$;&&&@-o+.%+o.%+o.oooX",
" o.o.o.o.o#%.o.o@$$@@@@$$$$$$$$$$$$$$;$@=..o.o.o.o.o.o.X",
" oooooooooooo+oo@$$$$$$$$$$$$$$$$$$$$$$X:+oo+ooooooooooX",
" o.o.+.o.o.o.o.o@$$$$@@@$@$@@@$@@$@@@$$@-o.o.o.o#%.o#%.X",
" ooooooooooooooo@$$$$@$@@$@@$@@$@$@@X$$*=ooooooooooooooX",
" ooo.ooo.+%+.ooo@$$$$@@@@@$@$@@$@@$@$$$X>.oo.+%+.ooo.ooX",
" oo+%+%+%+oooooo@$$$$@@$@@$@@$@$@@$@@$$X,+oooo+%oooooooX",
" oo%+oo+o%+%+ooo@$$$$@@@@@$@$@@$@@$@@$$@,ooo+%+oo+%+oooX",
" ooo+%+%o+oooooo@$$$$$$$$$$$$$$$$$$$$$$@:o%+%+%+%ooooooX",
" <ooo%%+o,+oo%oo@$$@@@@@$$$$$$$$$$$$$$$@,<oo+,+oo%ooo%oX",
" oooo%+oo+oooooo@$$$$$$$$$$$$$$$$$$$$$$X=oooo+oo+%oooooX",
" oo%o%%%ooo%%%o%@$$$$@@$@@@$@@@$@@@$@$$@-++%o1o%%+o1o%oX",
" oo%oooooooooooo@$$$$@$@@$@@@$@@@@@@@$$@-oo%oooo%+%ooooX",
" <o%o%%%o%%%o1o<@$$$$@@@$@@$@@@$@@$@@$$@--+%o%%%o%o%%%oX",
" ooooooooooo%ooo@$$$$@@$@@@$@@@@@@@@@$$X=o%oo%o+%ooooooX",
" <o%%%%%o1o%o%o<@$$$$@@$@@$@@@$@@$@@$$$@-1+%%%o%o%%%o<oX",
" o<oo%%o%%%oo%%o@$$$$@@@$@@@@$@@@$@@@$$@-o<oo%%o%%%ooo<X",
" <o%o%%%o%%%o%o<@$$$$@$@@@$@@$@@@$@@@$$@=1+<o<%%o%%<o%oX",
" o<%%%%%<o<%<%<o@$$$$@@@$@@@$@@$@@$@$$$X:+<o%o%%%%%%<o<X",
" <o<o<o%o<o<o<o%@$$$$@@$@@@@@$@@$@@@@$$@21%<o<o%%%%%o%oX",
" %<o<%<%<<%o<%<o@$$$$$$$$$$$$$$$$$$$$$$@:%%%<%<o<%<%%<<X",
" <o<o<%%o,+<%%%<@$$$$$$$$$$$$$$$$$$$$$$@--o<o<%%%<o<o<%X",
" <<%%,<<%1%<%<<%@@@@@@@@@@@@@@@@@@@@@@@X=<%<1,<%<<%<%<%X",
" <%<%%o<o<%%%<o<o,>,-=>,-=>,-=>,-=>,-=>,:oo<o%o<%%%%%<oX",
" <<%<<%%,<<%<<<<<1,<11%%11%%11%%11%%11%o<%<%<<<<<%,<<%<X",
" <<<%%1<o<,1o<,1o%%%o%1<o%1%o%1%o%1%o%11o%,1%%,1o<1<o<<X",
" 1,<<%,<%1%<<<%<<<<<<<<%<<<<<<<<<<<<<<<<<<<<%<%<<<<%<%<X",
" <o1<<1<<<o<,1%<%<%%<%<<%<%%<<%<%<%%<,1%,1o<%<<%,%%<,%<X",
" <<<%<<1,<<<<%1,<<<1,<<1,%<1,<<1,%<<1%<<<<1,<1,<1<%<1<<X",
" <%<,1<%<<%<%<<<%<<<<1<<1<<<1<<<1<<,%<<%<<<<<<%<<%,1<%<X",
".XXXXXXXXXXXXXXXXXXXXXXXXXXXXXXXXXXXXXXXXXXXXXXXXXXXXXXX"};
