/* XPM */
static char *marbleea[] = {
/* width height num_colors chars_per_pixel */
"    96    37      254            2",
/* colors */
".. c #050504",
".# c #5b5d51",
".a c #838e7d",
".b c #51312c",
".c c #876f61",
".d c #56463d",
".e c #7e5648",
".f c #877e71",
".g c #9f9487",
".h c #6b786d",
".i c #565045",
".j c #6c6458",
".k c #9f8676",
".l c #94a293",
".m c #836149",
".n c #9f776c",
".o c #a2a695",
".p c #8f8f83",
".q c #6c4f43",
".r c #6c6c5c",
".s c #877667",
".t c #6c5a43",
".u c #513c35",
".v c #878676",
".w c #976959",
".x c #9f9c91",
".y c #76493a",
".z c #7b7a6d",
".A c #424139",
".B c #939a8b",
".C c #82645b",
".D c #554c41",
".E c #251a16",
".F c #a08f7d",
".G c #815e4f",
".H c #726f66",
".I c #8a7069",
".J c #8b8179",
".K c #726860",
".L c #6c5545",
".M c #8a786e",
".N c #889d88",
".O c #63433b",
".P c #55514a",
".Q c #a4b09e",
".R c #6c5c55",
".S c #7c8679",
".T c #3e352e",
".U c #666a5c",
".V c #898e83",
".W c #2d2521",
".X c #af9b8d",
".Y c #afa99e",
".Z c #93918b",
".0 c #af9f91",
".1 c #87877e",
".2 c #634d3e",
".3 c #7e675b",
".4 c #5a5d57",
".5 c #a0958f",
".6 c #af8c84",
".7 c #836856",
".8 c #a19e9a",
".9 c #7e746a",
"#. c #977b71",
"## c #53544d",
"#a c #7e6c5e",
"#b c #70524c",
"#c c #8f6153",
"#d c #977364",
"#e c #978475",
"#f c #a0877f",
"#g c #9cae9f",
"#h c #a5ad95",
"#i c #7b8175",
"#j c #635349",
"#k c #989b93",
"#l c #6c6056",
"#m c #8f5b51",
"#n c #9ba39b",
"#o c #554238",
"#p c #af9183",
"#q c #97746c",
"#r c #97847c",
"#s c #68493b",
"#t c #433d38",
"#u c #809583",
"#v c #949585",
"#w c #7e7364",
"#x c #7e6c64",
"#y c #6c564d",
"#z c #8f6d61",
"#A c #815652",
"#B c #a08072",
"#C c #363632",
"#D c #726151",
"#E c #a1a194",
"#F c #784c45",
"#G c #7b7b73",
"#H c #4a4b40",
"#I c #433028",
"#J c #635c53",
"#K c #51483f",
"#L c #768375",
"#M c #8f6658",
"#N c #715547",
"#O c #977b6a",
"#P c #a08f85",
"#Q c #825e57",
"#R c #877b70",
"#S c #828982",
"#T c #978d82",
"#U c #513830",
"#V c #8a7362",
"#W c #8d8573",
"#X c #a19889",
"#Y c #422b23",
"#Z c #6f7368",
"#0 c #848f86",
"#1 c #525345",
"#2 c #726b5b",
"#3 c #a3a79c",
"#4 c #979185",
"#5 c #a79e93",
"#6 c #564e47",
"#7 c #877368",
"#8 c #463c35",
"#9 c #8a908b",
"a. c #161614",
"a# c #191615",
"aa c #292019",
"ab c #1c231f",
"ac c #252421",
"ad c #b3b1a6",
"ae c #100f0d",
"af c #976e61",
"ag c #9aa294",
"ah c #353029",
"ai c #63605a",
"aj c #87524b",
"ak c #7e5040",
"al c #42332c",
"am c #352725",
"an c #727a6d",
"ao c #978b7b",
"ap c #8f615c",
"aq c #633d35",
"ar c #635b4c",
"as c #5a3832",
"at c #9f7c70",
"au c #47463e",
"av c #657365",
"aw c #63574b",
"ax c #8f675e",
"ay c #8f6b59",
"az c #1e1f1e",
"aA c #352e28",
"aB c #635851",
"aC c #635452",
"aD c #4a4c48",
"aE c #634f44",
"aF c #636657",
"aG c #7e594a",
"aH c #a08a77",
"aI c #2b2f2b",
"aJ c #727360",
"aK c #8c7c68",
"aL c #878379",
"aM c #6c685f",
"aN c #b3ae9e",
"aO c #afa598",
"aP c #60665e",
"aQ c #9ba99f",
"aR c #1b1b19",
"aS c #564743",
"aT c #826355",
"aU c #725e50",
"aV c #45433f",
"aW c #666b63",
"aX c #51413d",
"aY c #694a41",
"aZ c #9f8078",
"a0 c #74827d",
"a1 c #29211d",
"a2 c #94958c",
"a3 c #a0988f",
"a4 c #a1a19a",
"a5 c #73554d",
"a6 c #a18b7f",
"a7 c #855a52",
"a8 c #784f47",
"a9 c #3e2b25",
"b. c #251d18",
"b# c #8c9585",
"ba c #7e776d",
"bb c #977f73",
"bc c #7e705f",
"bd c #a7ada1",
"be c #7e7864",
"bf c #7e7066",
"bg c #9ca994",
"bh c #976862",
"bi c #634c44",
"bj c #636055",
"bk c #5a362a",
"bl c #8f7162",
"bm c #87564b",
"bn c #8f8173",
"bo c #a79688",
"bp c #76695c",
"bq c #a78676",
"br c #a77a69",
"bs c #2d2c28",
"bt c #765347",
"bu c #767061",
"bv c #8f7969",
"bw c #5a4035",
"bx c #8f8979",
"by c #7e4940",
"bz c #989a8c",
"bA c #765a48",
"bB c #8d9a8c",
"bC c #6c4537",
"bD c #766058",
"bE c #82867b",
"bF c #473932",
"bG c #352924",
"bH c #b69c8c",
"bI c #b6a999",
"bJ c #8f8a80",
"bK c #87695f",
"bL c #5a5851",
"bM c #97644a",
"bN c #76645a",
"bO c #765a4f",
"bP c #5a3c32",
"bQ c #977765",
"bR c #978875",
"bS c #97776c",
"bT c #97887d",
"bU c #97806b",
"bV c #8b958c",
"bW c #65665c",
"bX c #b6a08e",
"bY c #808177",
"bZ c #869588",
"b0 c #5a4b44",
"b1 c #8f7d71",
"b2 c #76756b",
"b3 c #5a5640",
"b4 c #8f756a",
"b5 c #875b47",
"b6 c #8f867b",
"b7 c #766d63",
/* pixels */
".V.B#k.B#E#v.V#v.l.S.SbY.rb7b7bp.Ga5bOaU.3#w.f.1.9bubx#4.p.p.o#3.Y.x#3bJ.xa3bJ.J#vbz.x.5a3.xbz.p#w.fbnb6.JbNbN#7.3bN#wb6bxbJbx.JbRbc#r#ebN.c#fbD.GbDbjag.Z.p#T.JbNaEaK#x.Vb2#abA.G#N#b.K#4#ka2.p",
"bB#nagbzag.p.v.VbV.1.1ba.j#w.s#l.cbNaU#Dbp.9.zaLb7.f#4#4.pbz#3#3.oa2#5bJ.xbJ.JbJ.1.Z.x#ka2.x#4bxbn#P#P#x.9bf.M#a.3bD.K.f.f.z.fbabfbpbfbf.R#x.s.Ia5.s.xa4a2.H.fb7#7#j.t.9bYb2bp#V#2bf.sb6#k#k.V.p",
"a2.B.BbVbz.B.V.p.V#G#R#xbDbN.Kbpbebfbp#2#R.f.v.1ba#4a3.p#v#E#3#3#3a3#kbJbJ.H.K#G.1a2#ka2a2.Z#4bT#Pbnb1.R#RbN.9bfbN#y.R.M.9.9.9.Mbfbfbf#7.s#x#x#7bbbTaL#G#5bTbNb.#7bD.Rb6#G#Z#Kbc.v.p#v#Eagb#bE#T",
".Ba2.V#Sa2#kagag#X#R.I.Ibl.Cbp.f#4bx.faKba.9#GaL#Ta3#4.1#ka4aga4a3.Z#4bJaLb2#Ga3#4a2.BbBa2.x#P#r#ebN.R.R#7#l#lbfbDaE#j#xbN.R#l.Kbfbf.M#Rbnbf.K.KaC#Pa2.Z.fbb.c.cb1.F#r#5aLbY#J.f#v#v#X#k.B#0bY.p",
"#kbV.V.V.V#ka4#k#4#VbN.IbS#x.9bxbn#R#R.M.M.Mbn#Ta3#Tb2baa3a4#k#kbJ.xa2.Z.pbJbJa2#4.Za2a2a2.x#Pbb.Mb4bD.3.I.M#w#Rbb.I#7.M#x#lbN.KbN#6.K#R#x.K#7bN#x#R.9.J#r.6b4bvaHaob6.5#Tb6bJ.8.F.g#Pa2agbV.a.V",
".V.Va2a2a2.8.x.p.3bfbK#xb1bTbJbJba.9.Mbn.J.J#P.5.5#R#lb7#4.xa2.ZaMbJb6#4#4.ZbJ.1bJ.p#4bJ#4.5#r.M#x.R#o#ybiaU#jbf#abN#a.IbN.R#l#l.9.R.KbfbN.3.sbN.Ibfao#7bvaT.7blao#x.H#Tbob1.5.Z#Pa6#P.5bdaQbV.V",
"#S.1bz.x#4a3.g#RaE#7#R.J.Z.x.Za3a3.Z#TbJ#TbJbJbJ.J#xbfbab6a3a3bJbL.H.j.1.Z.x#ka2#T#TbTb1b1#r.J.J.M#x#ybKaUbO.Rbn.s.Mbnbb.Mb1bT#TbTb6#R#xbN#x.3.3.CbD#r#V.cbKbv.Fao.fbJ.0#fblbo#4a3.5.5.8bdaga2#v",
".Ba2#E.x#T#T#ebp.u.RbubEbB#S#G#9#kbJ.1.p#va2.Z#9#7.M.J#rb6.ga2.J#T#4b7.Z.x.x.Z.x.Z.5#r.cbK#7b6.p#J.M#7#N.qaU.3bN.Kbfb1b1#7b1#Tb6b6.5#R#l.I.3#NbO.C.C.cbK.qblaKbR#W#T.8bobAaUbXa3bg#ka2#k#n.B.pa3",
"#u#vao#p.I.cbNbfaTar#G.oa4.1bY.p.Z.V.paL.1.p.p.H.s.MaL#4.p#Gbu.zbJ.Hb2.x.x.Z.x.xaoao.M#e.M#abnb1av#S.f#Jbp.K#ybDbN#a#7bf.M#rb1bN#x.M.3#q#ba5#s.Caj#M#saE.Taobn#e.v#v#4#4bJbJa4a4ag#ka2a4#9b#bE#4",
".f.K.q#N#y.s#Rbn#..g.x.VbJ.8.x.1a2bJ.p.pbJbJbJaLbJ#Ta3#E#v#G.HbubJ.H#Ga2a2.Z#4#4#5.g#rb1#eb1#l.D.r#G#G#lbN#a.R#a#7.RbD.M.M#7bv.MaT.3.qafaxafbt.e#c#N#s#aaK.gbn#W.p.xa3.8.8.xbd#3bdbd#E#3#0.Sb2.f",
"#s#FbtbK.c#w#w#w#f#5#X.p.ZbT.J#4bJ.vbJbJaL.v#4#4bJa2#Ea4.x#4#4#TbJ#GbJ.8#ka2a3#4bx.f.g#T#T.g#R.f.MbabE#w.C.C.tbubfbpbNbNbD.C.3.C#M.ebk#Fbtapbt.Gay#N#abn#XaL#W#4.pa2.1.1.pa2bd#g.Q.o.Z.V#0.V.z.j",
"a8#Q#z#O#wbu#w.M#T.5#4#5#PbN#l.g.J.J#T.z.9bJ.x.Za4bdbd#E#ka2.5.ZbxbJbz.8.x.x.x#v#E.x.Y#T#R#JaB.j.IbpbY.z.C#Q#y#2.jbN#xbD#NbObOaY.G#M.e#M.G#daTbKbv.sao#Wbz.v.Z.p.1.V.Z.Za2.l.laQ.l.la2.V.Vb#.J.H",
".3.3bKbcbebeb1#ebT.8.g.f.M.I#aao#Tb6#TbJbJ.pa3a3aQbdbd.8a2#4bJbJ#GbJ.Za2#k.x.x.ga2.pbJbJaL.Pb7.9#Q.Rbu#R.I.C.R.j#J.D#y.C.C.qbtbO.G.7aTblblbvaK.g#5.5#4bJ#k#E#k.p.1#9.p#S.1bVaQaQb##E#Ea2#0bE.v.f",
"#Dbp.sbe#Wba#Rb1.9.J.z#xbvbb.M.fbJ#R.1#5.x#4a2.oag#k.x.8.5bJaL#G.fbJ.p.pa2.xa2a3.8.x#k.pbJ.D.K.KbDbD#xbcbf#aawbNaBaEbi#bbta5.GbA.LaU#j#Dbcbxbz#h#E#E#k#E#n#k.BbV.Z.Za2bJbE.Z.pag.v#G.f.z.1bE.J#x",
"#2.3.c.3#wbuaL#TaM.jb7#Rbb#..s.J.f#G#T#4.1.1.x#hbda4#ka3.ZaLb2.Hb6.Z.Z.p#k.x#4a3.pbJ.x#G.J#J.s#7.z.c#zbDbubu#jbO#j.RbObw.O#Qay.2arbp#Rb6.x#Ebzag.B#kbd#3#k.1#0.ZbY.1.8.8.5.Zb2.H.zbN.j.KbJbE#Gbp",
".Ia5a5bOa6.p.1#G.J.vbx#e.I.3ba.1aL#5#E#GbW.V#E.Ba4.paL#4.5.ZbJ.Z#4a2.pbJa2a2bJa3a4.1.Z#2#4#X.g#e.v#..CbO.r#LawapbD#y#b#b.eaTaTbA.J.g.ga3#5a4#n#3agag#3a2ag.V#9an.1b2.HaB.i.jaw#l#wbf#r.JbJaJaLao",
"ay.GaE.sbJaL.1.1.p.1#G.z#R.z.J.v.Z.p#4b2#GaLbz.x#4.v.rbJbYa2bJ.x.Z.1.1.xa3.pa4.p.p.p.p.p#vbz#v#4.vaL#Rbf.D#w.H#6.C#Qa5.q#N.Iao#T#v#v#v.Vbz.o.o.BbE#E.B.B.VbEaW#GbY#xbOaYa8bK#tbjav.v#r.G.eaT.7#w",
"#dbK.cbnaoaL.1.pa2bz.gbJbJ#4.Z#Ta2.p.1b2aL.1.xa2aLaL.K.zaM#4.1a2.1.V.p.xbJ.xbzbza2.p.V.vbJ.p#X#v.x#X.gbnaw#RbxbE.3bNbD.t#jbc.p#v.V.p#v#vbz.o.lb#.vag.V.1bY#GaW#ZaJ#l#D#N.L#7#J.z#ibY.s#obOaTaT#a",
"bKbl.s#r.p.v.Z.pbE.p#4bJb6#4#4.1bJ.1b2.H#ZaM.paLbJ.gaL.Jb2.x#k.xa2#E.ZaL.8.1#k#G.V.p.1.1.1.p#va3.5#4b6bnaB.HaLbY.ibpbnaoaL.p.oagbY.V.B.Bbz.B#v.Vb#.B.V#G.Sb2#Z#ZaMar.s#a#a.f.z#L#G#G.faU.c.caTbK",
".3b4#w.f#4a2.x.VbE.p.x.Z#TbJ#4.p.Z#G.4aM#G.H.8#G.9bT.f#G#G.x#ka2#3.xa2.J.xa2b2#Z#G.pa2a2.Za2a3.x#4#T.J#T.9b6#Gan.i.jao#5.x#Eag#0#i.1a2a2a2.Ba2#v.BbBb##GbYba#Gb2#R#lbv.3#abp.UaF.Hbxao.f.sbvaT#d",
"bvbT#W#4#vbz#3.Za2a2a2a3#4.1.1.ZaLaubsaub2#G.ZaM.K.K.K#R.J#k#k.Z#EaL.Z.5.Jad.P.V#G.Z#ka3a2.x.x.Z#4#PbT#PbT.5bJ.1.f.J#T#4#P.x#k#0.1.V.Za2.Va2.B#k.lbzbz.z.9b7.Mb7a6bKbK.q#y#l#Rbab7bx.zbu#l.s.G.n",
"#R.g#5bz.pa2#3#3#ka2#4.ZbJb2b2.1.1.PbLb2.1.1#kbJbT.JbaaL#T#ka3#kbJ#T.ga2a3.H#i.Z.1.Z#k.Z#4a2.Z#TaL#T.J#r.M#T#T#4a3.g#P#P#T#5a4a2.p#9.V.V#9a2#k#E#3bza3b1#abN#a#ya8as.b#Y#Ubi.I.saMba.H.9#lbv#Nay",
".f.g#X#v.1#Sbz#3ag#k#k.ZbJ#G.JbEb2aV#G.1.JbYbJ.Z.5#T.Jb6bJbJbJaLbJa3#T#4a3aV.obE#G.Z#k.p.Z#4.p.1.z#Tbnbbb1#P.F#P#TbJ#T#T#Ta3a4a2.BbV.V.pa2a2#ka2#Ebzaobv.G.7aybObP.OasbCa5bKblbb.z.H.f.JbT.I#N.c",
".g.x.p.VbE#i.V.Va2#ka2bJaLaLaLbYb2ac.H.1a2a4.Z.paLbxbJb6bJbx.J#G#T.Jb6#T#J.V.z.Z.rbEa2#vbz.x#4#G.9bx.sb1.kbHbbbN#v#X#5.g#T.x#3#3.B#v.V.Zbz#k#4.V.x#Tb1b4.G.n.n#Mbtb5.OaYaY.q#N.7.p.z.5#r#PaE.t#p",
"#k.V.1#ZbW#Z.1.1bB.B.x.5#T.JaL#G.1#GbY#G#k.Z#k.Zba.f.f#R.fb6bJaLbW.Z.1.rbJ#GaW.a.r#GbE.B#Ea2aL.z#e.sbn#X#5#4bnb6a2#3#3#E.B.Ba2#9.a.abVa2#ka2bn.3br#ebRbl.Gbpbc#aaw.DaEbAbya7#NbubE.z.fbn.MbnbJ.1",
"bz.Z.1.1#GbY#9.Z.B#k.5.5bT.J#GbY#G#GaLbY.x.x.o.x#Wb6bxb6aLbxbxbJ.f#Gb7#6.fb7#RbJ.zb2#G.p.p#4b6#w.sbu.f#4#X#4.p#4ag.o#3#na4#n.B#San.1.5.5.pbT.MblaG#VbR#.ay#V#Wbb.caUaU.ebya8bO.faL#wbc.I.sb6#k#n",
".Z.V.p.V.1.V.p.V.B.B.p#T#T.J#G.1#G#G.1#G#4a2.x.Z#4.p#4bJaL.zba.J#4.fbfaC#x.R#7.M.J.M.JbJ.J#P#T.Mb6bnbx#vbz#4#v#5#3#3#3.o#n#k.p#S.1#RbN#bbibDb4aZ.G#2#W#B#daKbR#.#y#o.G.ea8akbObnbnbfbN#xbf.1#vbZ",
".V.1.1.1#9.1aL.VbVbEaL#T#TbJaL.1aLbJ.1aL.1#4.Z.pa3.Za2#4aLaM.K.H.J.J#r#xbDaEaCaE.9.JbTbJ#T.Z#T#r.xa3a2bza2#v.Z#k#n#3#3#3#k.V.V.V.J.Kbt.q.GbK.c#a#d.f.J#B#B.k#e.Cblb5aTb5ap#saU.MbJ.J.J.JaL.V.V.a",
".Z.ZbE.1.1bYbYa2.1bY.1#T#4bJ.1.1.1.1.1aLaL.Z#4.p.Za2a3#kbJ.9b7#7.K.fb1bfaX.d#8alaBb6bJb6.Z#TaLa3a3.Z.1.V.V#9.V.Va4agag#k.B.p.V.V#i.KaT#MbQ#V#aaEat.f.v#..naH#eblbq.Ca7.eaTaE.sbT#0.S#S#9.p.Z.V.V",
".Ba2.1bY.1#G#Ga2.1.1bJ#4.pbJaL#GbJbJ.f.1#GbJbY.JbJbJ.pa2#4b6.M#7b7bf.KaB#8#t#8ah#6bnbJb6.8.ZaL#5a2.Z.p.V#9a2#9.1ag#k#9.Va2.Ba2#ibE.9aUbA.t.L.L#ybKbab6b4.7.sbnbS#7.CbtaU#Vb7#T.g.S.S.VbV#0.V.p.p",
".Z.ZbE#GbEbWaP.1aL#4.Z#T.1.1aL#GbJaL#GbJ.JbYaM.H.JaLbJ.p#4aobv.C.K.RaUb0.RaS.D#6.3.cb1#T.5bJ#Ta3#4a2bzbz.B#ka2.V#S.p.V#S#S.B#9#G.z.9#a.7bAaE#N#NaT#waLb4.C#aaKbbbJ.Fbva6.p.v.1#R#rb6#4.xa2a2#k#v",
".V.pbYbYbY.4###G.1.Z.xbJaL.1.1#Gb6#G.H#4bJbJb7.HbJ#T.p#4#4#P#x#Nbi#U#ybi.M.d.j#w#ObA#aa6bnbT.gbn.HbJ.pa2.B#k.B.VbW#S.BbEanbY#S#G.z#abN.C#y#Nbt#A#Qbu.J#.#dbn.F#e#4#Xb1.g.Vb##Sba#z#zbb.5.Za2.B.V",
".z.v.Z.pbYbEbY.H.v.vb6.fbTba#4bJ.Z.1.1a2.Zb2.HaLbx.faLa2a2bJ.JaLbD#oaq#NbK.R.sbN#a#V#RaLbx#TbSbm.ib7bJ#X.xbz.v.rbpbx.S.aaP.vbebe.V.zbc.7.q.GbtaYb3bR#ObS#.a6#5.pbx#vbz.vbE.V#v.V#Pbx.1bV#n.Z.f#w",
"babJ.1aWbW.p#k#Gbxbxb6b6#T.fb6#G#9.Z.ZbJbJ.pbx#GbabJ.p.p#4#4#4ao#o#oaY.G#D.D#w#2.j#wao.g#vao#7axbJ.g.x.p.z.r.r.r.raWanba.j.dar#W#2#Jbv.q.qaq#s#sbt.7b4.Mao.g.0#E#Eag#v.V.1.Va2#v.f.p.Ba2#9.V.vbx",
"bJ.1.1bYbYbJbJaL#R.M.J.g#TaM#GbJ#9bza2.1.1#v.p.H#waLbJ.J.JbJ#Tbn.R.3.7bO.R.Db7.9.r#W.g#5#5.JbpbvaL#4bz#vbEaJaJ.zbZ.VaL#7bK#baw.zaL#w#a.7.G#MaGaYaj#Qb4bnbx#4#Wbo.o#v.p.1.1.Z.V#S.1#4a2.p.1a2#9bY",
".1bY#G.1.p.zaM.j#P.Mbn.5#T#6###G.1.1.Z.p.Z#4bJ#G.f.Mbabn.Jbnb1bn.fa6#.bDb7.j.H.z#L.p.5.5.x.vbubx#5.V#G#G#ibY.1#4.SbBaWba.IaZ#D.s.RbN.cbl#oa5.2#QbS.n.F.kbRbnbcbR#X.p.1#9a2#9.1bEa2#4bx#Wbx.p#9a0",
"bJa2.p#GaLbJ.9#w#P.sbfbJa3bWaPaPb2bE.p#9.p.p.p#4bJbab7.9b1.J.M.K.9bn#fbN.9aMb2.JbB#E#T.Ja3.B.p#E.VaJ#Z.S.1.v.JbT.J.1avbV.pbT#y.7aTbD.k.c.c.3#B.k.1bx#fay#Q#zbp.f.p.p.pa2a2a2a2bV.paL.faK#wbabYa2"
};
SIMPLE  =                    T                                                  BITPIX  =                    8                                                  NAXIS   =                    2                                                  NAXIS1  =                   96                                                  NAXIS2  =                   37                                                  HISTORY Written by XV 3.10a                                                     END                                                                                                                                                                                                                                                                                                                                                                                                                                                                                                                                                                                                                                                                                                                                                                                                                                                                                                                                                                                                                                                                                                                                                                                                                                                                                                                                                                                                                                                                                                                                                                                                                                                                                                                                                                                                                                                                                                                                                                                                                                                                                                                                                                                                                                                                                                                                                                                                                                                                                             yutysdbbswnu|juhugsool\nkfuumtivk~twyxgd|ORyy|wfndnx|oyy}hwwdy`huxF^Rir|}|gynt`mna`Mnuik~ooxxq[YxtpngqcSci|whdyyywFFSgdMtjdtxsxiiiihuwdJ[j]~WWHQQ]n||xnwsnfFH\q`yhpx}ePnikbvvxrnWg]SSt[Ryyynnnp\R?\R|Jdt`pnduyxphl\\]dio}wvvydbyygn~lj`bO`KMOmuyxupn`T\\kt|lp~~}yyyy|xnsjZ>>>0O}ub`\ZZ\qw|nyxl]bxnunxjsEJ>7Z}jkqxpTxlgakTygjnpfTXTuj]Wgqup}lxgkgpQb|yyyyxwsXp`x|||}h[Rf|gj}~\Fga[]ashpsyyyyynOn}xsytyou|xcxtxubbaY[atrwyodoyyyw}diyhiyxymxgkrpYMT`Yg\ox|}s#ny]xiyuyh|gq]gLSSW\nxT\ysCyCyx~gntaDLBP^qxxnw\u}ssQWswn}|php\[B;1?Rwygwnub~\t~E+Esygjjj}Qyxun|nqqW\b}wnxobygm|ty[gynyuyysoyuyuPd}ywys}b~mpkfbny~k}qxysnogsyZnPkysoog[yppx|yybuukq}qusjxgY}mhf\Vryhoobd\Zx]x}yFakkptgTyyx}xsyi}sMtnOli^W\whypaS[q>_lgakntw^^aywmwydjlai|Ypf\[[akk`usnZPdYbtsojmumtogdn}yysny]yxxuvfooVaV`aGLitR[k}snxhdjykdkyvw}uxp~|}yMjjffprspYhZTR[]^g`ZbVdryxpmmqrvv|wpyQnui`o}wl`d]M\llW]agnkxx~~[ivtot|hbxu}]Zdwkxli\jdhpf\aaSgqaqg}kq~ynQZ]quttty}|wtll\oskhhflmlqa@Z]p]gt\pxdjW\\y}ynonybMiyybhp`px`f||x~|kmWzsz]an\Qp~swuhsk[yny|yoxns||pl]kj\fhpxs|hp|m~[^QlcqQT7kB`oyx|nuqx]|x\Wbmhjsx}bwm\alluqWx~`b}Tx}pswWnd|p\qba`y||}phpmmlfxuq~xmsqpwu|}bng|p`F\RbVsphpwh`bbu`jshmyhwsx~knxpnxhwpu}}|||sw||fmw|t}wx|pbhjhOj}pjxhp}u|~}wwxlk~wuysyh``xbbsfTVph`bjss|}sjjXuu]y}pfhjkvskj}wnjy`}hush\`|uuu|sssxyppxyhxf`yoIrwdtybuhbdkuxnpus|pmfjxwskss`pyw^ynnxV\uskxjsyinnkg^abmtuothhxmhtrhufgf_hT~psp`g\[j                                                                                                                                                                                                                                                                                                                                                                                                                                                                                                                                                                                                                                                                                                                                                                                                                                                                                                                                                                                                                                                                                                                                                                                                                                                                                                                                                                                                                                                                                                                                                                                                                                                                                                                                                                                                                                                                                                                                                                                                                                                                                                                                                                                                                                                                                                