/* XPM */
static char * image_name[] = {
"56 46 45 1",
" 	c #FFFFFFFFFFFF",
".	c #AEBAAAAAAEBA",
"X	c #AEBAAEBAAEBA",
"o	c #AEBAAEBAB6DA",
"O	c #000000000000",
"+	c #965896589658",
"@	c #BEFBB6DABEFB",
"#	c #AEBAA699AEBA",
"$	c #BEFBC30BBEFB",
"%	c #9E799A699E79",
"&	c #8E388A288E38",
"*	c #F7DEB2CAAEBA",
"=	c #A699A289A699",
"-	c #BEFBC30BCF3C",
";	c #EFBEF3CEF7DE",
":	c #E79DE79DEFBE",
">	c #D75CDF7DE79D",
",	c #FFFFFBEEFFFF",
"<	c #DF7DBAEA8E38",
"1	c #C71BBAEAC71B",
"2	c #5144A2894924",
"3	c #A699A699A699",
"4	c #8E38861779E7",
"5	c #FFFFFFFFC71B",
"6	c #FFFFFFFFD75C",
"7	c #AEBA9E795965",
"8	c #96589658AEBA",
"9	c #B6DAAEBAB6DA",
"0	c #CF3CC71BCF3C",
"q	c #CF3C555528A2",
"w	c #FFFFF3CEFFFF",
"e	c #79E786179E79",
"r	c #71C679E78617",
"t	c #71C675D671C6",
"y	c #AEBA61856185",
"u	c #A6999E79A699",
"i	c #082004100820",
"p	c #A69979E78E38",
"a	c #38E36DB6A699",
"s	c #69A669A671C6",
"d	c #000000001040",
"f	c #514471C68E38",
"g	c #861779E78617",
"h	c #69A68617BEFB",
"j	c #000000001861",
"                                                       .",
" .Xo.X.oX.Xo.X.oX.Xo.X.oX.Xo.X.oX.Xo.X.oX.Xo.X.oX.Xo.X.O",
" X...................................................o.O",
" .o...o...o...o...o...o...o...o...o...o...o...o...o....O",
" +o..+o.o+..o+..o+..o+..o+..o+..o+..o+..o+..o+..o+...+oO",
" .....@..@.X@#X@$X@$X@.$@#X@$X@$X@.$@#X@$X@$.@.X@#X@...O",
" +o%@+$&$***=+*****&*****+****=&*****+#***=&X+*+#+$&$+.O",
" ..-X#+X* ; **  :; *  > ;* :; ** :; ;**:; *.#*,*$@..o.+O",
" +.+.+o*;**<><<* *<<,**<<*;**<><;***<<,*<<:*X*;*=&X+@+#O",
" ..12-3*:<*<*=<*:<<*:<<*4*:<<*;* *<<&*5*+*6*+<:*+.o$+o.O",
" %.+178+*5: *+#*6*8*; :6*<6 : *<6:;;**;*7*;*+*;<=+.+9+.O",
" .+.8X++**<*6*&*;*&*6***2* *;*4* *<*7*:*&* <3* *712$.#+O",
" +.+0+9* *<*;*7<:*4*>*<*q*;**6*<6*<*<*6<**:*++*&X%1&.+9O",
" .+#+X++*:;>*%+* *+* ;:  *w<e*>*,:,;>**:,,<3+* *+#+o+@+O",
" +.+o+$+=***++X+*21r****<%*4#+*4**<**t+***++3%*+X&$t0+.O",
" ++.&%&X+y+%++&#+%%X+y+%++e.+&+%+y+%++%32&+.+&&X&+%@++&O",
" +9+021+o+3+X+9+#+#&o+X+#&3+X+X%Xeo&#+#%9u#+.+.%@+.&o%oi",
" +&+++++++++++++%&+++++&++%++++&+++++++%p++++++&+++++++O",
" +#+#+.+#+X+#+#+#+#%o+.+.+.+#+.+X+.+#+#+.+#+9+#+.%o+#&oi",
",++%+++o      ,,,,,    +++++++++.    ,   ,,     &++++%+O",
" +++9&+ # & X .    #aa# #&%+#+++,. & & X    XaaX &++#%+O",
",+++++&  s O t X   aOia,a+++++++  t O t X ,,aOOawa+++++O",
" ++++++ & O O + X  aOOa,a++++u&+,& O O + X ,aiOa,a&++++d",
"w++%+++  t O t,X X,.aaXwa+%p+++&  t O s,X X,.aaXwa++%++O",
" t+&%2u,# + + X,X   ,,,,as+++28%,# + t X X ,,,,,,a&++28i",
",+&#%8+          ,,,+7 ;f+++++++        ,,,,,,,,,a%&#8+O",
" ++t&t+, X*X *     ,,,, a&%s%s+t, s  s ,s,, * 3X,a+28t&i",
",++++++      ;     ,,,,,a+++++++    ,,,,,,,,; , ,f8%&%+O",
" t+2#t+,X X X X = =,=,,,as+2#t+s X X X,=,=,X,X,  a+t+s+i",
"w++8&++ ,X X X X X X X ;f++8++++  X X,X X X,X = wa+++++O",
" t%t+t+wX s O O O O s X as+y87&2,X,s O O O O s X,a%s%2ui",
",&7+++s  X O O O O O X 9a&78+gr+  o O O O O O X,.as+++tO",
" s8t%7& X O O O O O O X,ar&f+&+t,X O O O O O O X a%t+s+O",
" +t+t8s  X O O a O O X #a+&+t&s+, X O O a O O X .as+4%tO",
" t+g+y8 # O O a,a,O O X as&t+78t,X O O a,a,O O X a+p&g8i",
",&s+eet  X O O,a,O O X #a&t&hyt+  X O O,a,O O X .as+r4tO",
" s+t+s+*  O O O,O O O X*as+t%&&t*, O O O,O O O X*a%s+t+O",
" &s&s&yo X O O O O O X,sayey2sryo X O O O O O X,yar7s&tO",
" t%y828to X O O O O X Xt&&+t8r%2+o X O O O O X oes+r+s=i",
" &sepfyt t X X X X X,rsartsptfrps t X X X X X tsas&ss&tO",
" s2y+tte  s X X X X*yoaa+7ry8tty8  t X X X X*yXafryr%s&O",
" preteys XXoX.o..o#X#X.asrg2ps7rt X#oX.o..oXo=X.asestysO",
" s+sgtet7aaaaaaaaaaaaaafrr+rfypsesaaaaaaaaaaaaaaay+te4eO",
" t&tr7ssrfryssrtyssstrrsysrt4eet4s&srtysrtysreyrtf4s4ysO",
" sesrre4psyet&set&t&s7ftt&rpssryetyes&sp2getrsfy&trrse&O",
"@OOOOdOOOOOOOOOOOOOOOOdOiiOOOOOOiOOOOOOddiOOdOjiOOijOOOO"};
