/* XPM */
static char * image_name[] = {
"56 46 41 1",
" 	c #FFFFFFFFFFFF",
".	c #BEFBBAEABEFB",
"X	c #000000000000",
"o	c #BEFBB6DABEFB",
"O	c #AEBAAAAAAEBA",
"+	c #CF3CC71BCF3C",
"@	c #AEBAA699AEBA",
"#	c #9E799A699E79",
"$	c #F7DEB2CAAEBA",
"%	c #A699A699A699",
"&	c #C71BBAEAC71B",
"*	c #A699A289A699",
"=	c #AEBAAEBAAEBA",
"-	c #D75CD34CD75C",
";	c #DF7DBAEA8E38",
":	c #965896589658",
">	c #BEFBC30BBEFB",
",	c #E79DD75C9E79",
"<	c #B6DAAEBAB6DA",
"1	c #AEBAA69971C6",
"2	c #DF7DAEBA69A6",
"3	c #69A68617BEFB",
"4	c #71C679E78617",
"5	c #79E79248B6DA",
"6	c #79E786179E79",
"7	c #51445555FFFF",
"8	c #BEFBC30BCF3C",
"9	c #FFFFFFFFC71B",
"0	c #38E36DB6A699",
"q	c #AEBAAEBAB6DA",
"w	c #A6999E79A699",
"e	c #AEBAB2CACF3C",
"r	c #861779E78617",
"t	c #96589658AEBA",
"y	c #514471C68E38",
"u	c #8E388A288E38",
"i	c #A69979E78E38",
"p	c #082004100820",
"a	c #000000001040",
"s	c #000000001861",
"d	c #000008200820",
"                                                       .",
" ......................................................X",
" .o.o.o.o.o.o.o.o.o.o.o.o.o.o.o.o.o.o.o.o.o.o.o.o.o.o.oX",
" ......o.....o.....o.....o.....o.....o.....o.....o.....X",
" Oo.oO.+.@o.oO.+oO..oOo+.O.o.@.+.@.o.O.+oO..oOo+.O.o.@.X",
" ..+..o.o...+..o..o.+...o.o.+..o..o.+o.o..o.+...o.o.+o.X",
" O.@.@.O.OoO.@.O.@.O.@.@.O.@.@.O.@.O.O.O.@.O.@.@.O.O.O.X",
" ..o..Oo.O########## $ $ $ ####################...o.o.OX",
" O.OoO.O.@##%###%###$ $ $ $#%###%###%###%###%##OoO&O.@.X",
" .o.O.o.OO#########*$$$$$$$####################.O.o.@..X",
" O.O.@.OoO%#%=%%%O%#$$$$$$$=%%%=%%%=%%%=%%%=%%%@.O.O.@.X",
" .@.o.O.O=#%#######%$-$-$-$####################.OoO.o.OX",
" O.O.@.O.O%%%%%%%#;:$$$$$$$=%%%%%%%%%%%%%%%%;:%=.O.@.O.X",
" .OoO.@.O@%%%#%%%##*>,>=>,>%###;:##;:#:;#:%%:##.OoO.OoOX",
" O.O.@.O.=;:%#%%;:%%$$$$$$$#;#%%%%%#%%%#%%;:%%%<.O.@.O.X",
" O@.OO@.@@#%#;:%#%%%#%=%#%=%%%%%%%%%%%%%%%#%%%%.O@O.OOOX",
" O.O+O.O.O$$$$$$$%%#$$$,$$$#%%$$$$$$$:%%%%%%%#;*.O.@+O.X",
" OOOOOOOOO#%##%#%%%;#%#@*##;%%:#:#:##;;%1%2%;%%O@OOOOOOX",
" O.O.@.@.O$$$$$$$%%#$$$$$$$:%%$$$$$$$:%%%%%%%%%<oO.O.@.X",
" OO@OOOOOO3333334%;%3343334%%<4534534%;%%;;%;#;=OO@OOOOX",
" OOO.OOO.#$$$$$$$>%%$$$$$$$<%;$$$$$$$&%%$&$<$o$O.OOO.OOX",
" OOO@OOOOO3535365%;%5333353#;<3333334;%<4457434OOOOO@OOX",
" OOOOOOOOO$.$-$8$.;%$-$-$-$;=%$-$+$+$o%;$&$.9&$<OOOOOOOX",
" OOOOOOOOO3333334%%<3434336%%.3433334;%<3450444OOOOOOOOX",
" #OOO#OOO#=%;q%><;%%;o<o<%.%>%%.o=&o<<w;<e&&&eo<@#OOO#OX",
" OOOOOOOO<6574444%%&4343446;%>3434444;%<4347r04@OOOOOOOX",
" OO#O#O#O#@q%oe8e<.%<eeoee<@.;%e&eeee<&%<<qo<e&t<OO#O#OX",
" OOOOOOOO@3535704%;%57y5704%%<ry57304%%=t050t04<O@OOOOOX",
" #O#O#O#O#@@<=.&o<.%<=>oo&<<.%oe@=o&&<o;e&<&&<et<#O#O#OX",
" OOOOOOOOO3333504;%+4543534>%&44353y4%%&r0347t0@@@OOOOOX",
" #O#O#O#O#####w@@@.%@tq##wq%>%<twwwe@%&<@wq#=#@wO#O#O#OX",
" O#OOO#OOO3333504.%>u74yt04&%&4433044.%&3r03343OOO#OOO#X",
" #O#O#O#O###w#w@e%.<%**qewew+=qewwe@e@.%qewwwtw#O#O#O#OX",
" O#O#O#O#O3350t04o..300r044ow-y474474.&&0r03333@#O#O#O#X",
" #O#O#O#O##3w3@7<<.%%5e7o0&%.%@3q3q5t%.=<3ere0@#O#O#O#OX",
" ##O###@#w3333354..8i053t34..+4330334o&+4u7t053@###O###X",
" #O#O#O#O#3333333+o%433337t<o.4333333+o=4353333w@#O#O#OX",
" #########ppppppa..+ssssdds..&ssssssso.+ssssapp########X",
" #O#O#O#O#3333333334333333333333333333343333333#O#O#O#OX",
" #########ppppppppsssppppppXppppappppXsssXppppp########X",
" ###O###O###O###O###O###O###O###O###O###O###O###O###O##X",
" ######################################################X",
" #O#######@#######O#######O#######O#######O#######O####X",
" ######################################################X",
" ######################################################X",
".XXXXXXXXXXXXXXXXXXXpXXpXXXXXXXXXXXXXXXXXXXXXXXXXXXXXXXX"};
