/* XPM */
static char * new [] = {
/* width height ncolors cpp [x_hot y_hot] */
"48 48 9 1 0 0",
/* colors */
" 	s none	m none	c none",
".	c #AC0077004700",
"X	c #BB0087005600",
"o	c #910061003200",
"O	c #CE009E006E00",
"+	c #6E0047001F00",
"@	c #370024000C00",
"#	c #530033001400",
"$	c #E600C0009D00",
/* pixels */
" .X.XoX....XX.XX.....XXOOXOOXXXXXXXOXXXXXXXOOXO ",
"XXX.X...XXXXX.XX.X.XXXOXXXOOOXXXXXOOOXOXOXOOXXOO",
".XXOOOXXXX.XXXXXXXXXOXOXXOOXXXXXOOXOOOXXX.OXXOXO",
"XXX.XX.OXXXXOXXXXXO.OX..oo...OXOXXOXXXOXXX.OXXOO",
"XX.XXXXXO.XXXOXOOXO.o+@######+.XOOXOXOXXXXXOXOOX",
"XXXXXOOOOOOXXOXXOXo@###@@@###+##.XOOOXX.OXOXOOOO",
"OXOOXOOXOOXOOOOXX+###+@###@#@####oOXOOOXXOXOOOOO",
"XOOOOOOXXOOXOOOO+###o###@#@@#@####oOOOOOOXOXOOOO",
"XXOOOXOOOOXOOOO.###o.oo+##@@#@#####.OOOOXOXOOOOO",
"XOXOOOOOOOOOO$O#+XOO$OOX.o+#@#@#####XXOOOOOXOOOO",
"XOOXOOOOOXOO$Oo#XO$$$$$OOXo+##@#####oOOOOOOOOOOO",
"XOXOOOOOOOO$$X@.O$$$$$$$OO.o#@#@@#+#@OOOOOOOOOOO",
"OXOOOOO$OO$$O+#X$$$$$$$$$O.o+##@#@###oOOOOO$OO$O",
"OOOOOOOOOO$$X+#.$$$$$$$$$O.oo###@@@@@@OXXOOOOOOO",
"O$OOOOOOOOOOo#oX$$$$$$$$OOOXoo+#@@@@@#ooX...OOOO",
"OO$OO$OO$O$X##oO$$$$$$$$$$OOX.+####@#@oo.o..O.O.",
".XO$$O$$$O$.##oO$$$$$$$$OOOOXo+###@@@@#oooo...X.",
"...XO$O$O$Oo##+OXOO$$$.....ooo+#####@#+++oo.oX.o",
"o+oooO$O$$.+#+#+o.oOO.+o.o+##++######@#++o+o.oo.",
"++oo.O$OOOX+####.@+.$oo..@++o.o###@@#@#++#oooo++",
"++oooOO..XX##@.XXX.OOo.OOXoXOXo#####@@#+++++oo+o",
"+#+++ooo+oo##@.O$OOO$.XOO$$$O.+##########+oo++++",
"o+#++@#++++o@@oO$$$$OO.$$$$OO.o#+######o+++o++++",
"+######+###@##+O$$O$$XO$$$$O.o+##+#+###+o.oo..o.",
"#+#@++#@#@##@@+OO$O$OX.$O$OXo++#+#+####+#++oooo.",
"+#+o###+@#@#+#@.OOX$Ooo$$OO.oo####+#+#####++++o+",
"+#+##+###@####@oXOOX+@oOOOXoo+##++######+###+##+",
"+##########@#@#+..$Oo....X..oo#+##+++###++++++++",
"##+###@###@###@+.X...oooXXX.+###+#####+#+#+#+#+#",
"################oXOO..o.XO.oo+#####+#####+++++++",
"#+#########@###@#.OO....X.o++############+#+++++",
"##++++++o+#+@####@.$$$XXoo+#+######+#+##+++#o+++",
"#######+#++@##+#@#@XOX..++++#############+++++++",
"####+#+o..######@@@@o+++##+########+#####++#++++",
"@#++++o+ooo#####@@@@@#+@+#############@#####+++#",
"o+ooo....oo#@##@#@@@@+#+@####++###@#@##@##++#+++",
"+oo....+.oo######@@@@oo++##++o++#####@#@#+#+o++#",
"+o+.o+..+o++###@@@@#@+..oo+o+oo+###@#@@###+++++o",
"#+#o.+oooo+#####@@@@#+...o.ooo..+####@+@@#@##+#+",
"+#+#@#######@@#@@@##+o.XX....X.oo#######@#@#####",
"+#o@#@##@@######@#@o.OOOXXXOOOOXo+#++####@@#####",
"++##@@@###@@#@###ooXO$O$OOOOOOOX.o++++#######++o",
"+++@@@@@#@######o.OO$O$OO$$$O$OOo+++o+########+o",
"+o#@@#@#####@###XOO$$$$$$$$$$OOO.+o++#@##@#@###+",
"+#############+oO$$$$$$$O$O$O$OO.+o++#######@##+",
"++++##########+.OO$$$$$$$$$$$$OOo+o++####+######",
"o++#+o####@#+ooX$$$$$$$$$$$$$$OOo+o++###o+++####",
" ++#++#@@###+oo$$$$$$$$$$$$$$OOOoo++++oo+oo++#@ "};
