/* XPM */
static char * new [] = {
/* width height ncolors cpp [x_hot y_hot] */
"48 48 9 1 0 0",
/* colors */
" 	s none	m none	c none",
".	c #EE00F100F100",
"X	c #C300C100C400",
"o	c #9E009E00A700",
"O	c #B60022003000",
"+	c #040002000400",
"@	c #46002D003A00",
"#	c #750076008700",
"$	c #690063006C00",
/* pixels */
"                                                ",
"  .....................................XoO+.XX  ",
" ..................................X..XOO@+#Xo$ ",
" ................................X...OOO@+$#o$@ ",
" ............................X.X.X..XOOO+@$##$@ ",
" ..............................X....OOO+@$$#o#+ ",
" .....++++++++++++++++++++++++++@..OOO+++$#oo#@ ",
" .....+$$$#$$$###############$#$X.OOO@+@@oooX#+ ",
" .....+$##$####o#ooooo#o###o$#$o.oOOO+@@@ooXX$+ ",
" .....+$#####o#oo#ooo#oo#oo#o##..OOO+@@@$XXXo$@ ",
" .....+$$##oo#o#ooooooo#o#o##oX.OOO++@@@$.XoX$+ ",
" .....+###o#ooooooooooooooo#oo.XOO@+@@@$$.XXo#+ ",
" .....+##oo#oooXXoXoooooooo#o..OOO+@@@$$$.XoX#+ ",
" .....+#o#ooooXoX...ooooooooX.OOO+@@@@$##.oXo#+ ",
" .....+##o#ooXoX..oO@ooooooo.XOO++@@$$$$#.Xoo#+ ",
" .....+##oooooX.XOOOO#ooooo..OOO+@$@@$$#$.oXo#+ ",
" .....+##o#ooo..OOOOO+#oooX.OOO+@@@$##$#$.Xoo#+ ",
" .....+##ooooo.#OOOOOO@ooo.XOO++@@$$$$#$#.oXo#+ ",
" .....+##o#ooooOoOOOOO+#oX.OOO+@$@$$#$$o$.ooo$+ ",
" .....+##ooooooXXOOOOO@@o.OOO+@@@$##$##$#.ooo#+ ",
" .....+#####ooooXoOOOOO@..OO@+@@$$$#$#$$#.Xoo$+ ",
" .....+####oo#ooo.OOOOOO.OOO+@@@$$#$#$o$#.ooo#+ ",
" .....+$###o#oo#oXOOOOOOOOO++@$$$#$#$$$$#.ooo$+ ",
" .....+#######o#oo.OOOOOOOO+@@@$#$#$o$###.oo#$+ ",
" .....+$#########oXOOOOOOO++@$$$$#$$$$##$.ooo$+ ",
" .....+$#$#####o##oXOOOOOO+@@@$$#$#$###$#.ooo$+ ",
" .....+$$#$#$######.OOOOO++$@$$#$###$#$#$.o#o$+ ",
" .....+##$#$#######ooOOO@+@@$$#$#$#$##$##.oo#$+ ",
" ....X+$##$#$#$#$#$$$++++@@@$$#$$#$#$#$#$.o#o$+ ",
" .....+$#$#$#$#$#$#$#$$@@@@$$#$$#$###$#$#.o#o@+ ",
" ..X.X+#$#$#$#$###$#$$$$$@$$$#$o$#$#$#$##.o##$+ ",
" ..X..+$###$#$#$#$#$##$$$#$$$$#$#$#$###$#.o##$+ ",
" ...X.o...................................o##@+ ",
" ..X.X.X.XX.XXXXXXXXXXXoXXoXoXoooooooo$$$##o#$+ ",
" ..X.X.XXXXXXXXXXXoXoXooooXoooooooo#o#@@@X###@+ ",
" ..X.XXX.XXXXXXXoXXXoXoXoooooooo#oooo#oXoX###$+ ",
" .o#$#$#$$#$$#$#$$$$#$$$$$#$$$$$$$@$@$$@$@$@@@+ ",
" #++++++++++++++++++++++++++++++++++++++++++++  ",
"           .$@$@$@XXoo#$$@@@@++@@@@@            ",
"          .o#$$$$$@$###$$@@@+@@@$$$#$           ",
"         ..##o#####$$@@@@@@@@$$####oo$          ",
"        ..oooooooooooXoXoooooooooXoooo$         ",
"       ................................$        ",
"       .XoXoXoXoXoXoXoXoXoXoXoXoXoXoXoXo+       ",
"       .oXoooooXoooooooooooXoooooXoooooo+       ",
"       #++++++++++++++++++++++++++++++++@       ",
"                                                ",
"                                                "};
