/* XPM */
static char * image_name[] = {
"56 46 29 1",
" 	c #FFFFFFFFFFFF",
".	c #BEFBBAEABEFB",
"X	c #000000000000",
"o	c #69A68617BEFB",
"O	c #AEBAAAAAAEBA",
"+	c #AEBAA699AEBA",
"@	c #082004100820",
"#	c #000000001861",
"$	c #71C679E78617",
"%	c #F7DEB2CAAEBA",
"&	c #CF3CC71BCF3C",
"*	c #BEFBC30BBEFB",
"=	c #BEFBB6DABEFB",
"-	c #000000001040",
";	c #AEBAAEBAAEBA",
":	c #9E799A699E79",
">	c #FFFFE79DBEFB",
",	c #FFFFFFFFC71B",
"<	c #AEBAAEBAB6DA",
"1	c #000008200820",
"2	c #BEFBC30BCF3C",
"3	c #FFFFFBEEFFFF",
"4	c #C71BBAEAC71B",
"5	c #79E79248B6DA",
"6	c #A6999E79A699",
"7	c #E79DD75C9E79",
"8	c #D75CD34CD75C",
"9	c #A699A289A699",
"0	c #96589658AEBA",
"                                                       .",
" ......................................................X",
" ......................................................X",
" .....................oXXXXXXXo........................X",
" O...+...+...+...+...XXXXXXXXXXo.+...+...+...+...+...+.X",
" ...................XXXXoXooOooXooXXo..................X",
" O.+.+.+.+.+.+.+.+.XXXXXoXXXXXoooXXXXXo+.+.+.+.+.+.+.O.X",
" .....O.......O...XXXXXXXXXXXXXOXXXXXXXX......O.......OX",
" O.O.O.O.+.O.O.O.oXXXXXXXoXXXXXXoXXXXXXXoO.O.O.O.+.O.+.X",
" ...+...O...+...oXXXXXXXXXXXXXX@oXXoo.oXX...+...O...O..X",
" O.O.OoooO.O.OoXXXXXXXXXXXXXXXXXXXXoXXOoXO.+.O.+.O.+.O.X",
" .O.oXXXX#$.oXXXXXXXXXXXXXXXoooXXXXoOOXoo.O...O.O.O...OX",
" O.oXXXXXX#oXXXXXXXXXXooXXXo%%%%%oXXXoo@oO.O.+.O.+.O.+.X",
" .oXXXXXXXXXXXXXXXXXXXXXXXo%%%&%&%oXX@oXO.+.O.O.O.O.O.OX",
" OXXXooXXXXXXXXXXXXXXXXXXo%%&.%*%..oXXXo.O.O.O.+.O.+.O.X",
" oXXXXXoXoXXXXXXXXXXXXXXo=%-XXX% .%.o@o.OOO.+OO.OOO.OO X",
" oXXXXXooXXXXXXXXXXXXXXXO%XoXXo% %*XXX.O.O.O.O.O.O.O. XX",
" XXXXoXXXXXXXXXXXXXXXXXX;Xo&XX-% .oXXXOOOOOOOOOOOOOO XXX",
" XXXoXoXoXXXXXXXXoXXXXXX%*  XX%%%%o%XX.O.+.O.O.+.O. XX.X",
" XXX@ooOXXXXooXOOOoXXXoX%%%   %%%%o  oOOOOOOOOOOOO XXX:X",
" XXXXX@XXXXXXXXXXXXXoXXX=%%%%%%%>%=%.o:O.OOO.+OO. XX.oXX",
" oXXXXXXXXXoXXXXXXXXXXXX%%%%%%%%%%%:%.oOOOOOOOOO XXX:XXX",
" OoXXXXXXXXO.OoXoOoXoXXo%%>%%,%%%<o;%&oOOOOOOOO XX.oXXXX",
" OOXXXXoXOXXXooOooXXXoo1o%,%%%%%%%&%%=oOOOOOOO XXX:XXXoX",
" :OOooooXoOXXXXXXXXXo%%o-.%%%%>%,... .oOO:OOO XX.oXXXooX",
" OOOOOOXXXOOoXXXXXXXo%:.1%*%%%2o$XXo ooOOOOO XXX:XXXXXoX",
" OO:O:o@XXXoOoXOOoXXX%&&%%%%%%%-<3 :oo::OOO XX.oXXXXXXXX",
" OOOOOXXXXXX@o. oXX@#%%%%%%&>%%%#$:o$oOOOO XXX:XXX.:.XXX",
" :O:O:XXXXXXXXXXXXXXX%%*%%%%%%%%*2.4o<+:O XX.oXXX.o:o:XX",
" OOOOoXXXoXXXXXXXXXX1%%%5>%%%,%%   .o+OO XXX:XXX.::o:ooX",
" :O:OoXXXoXXXoXXXXXXX<%%%@<*%%%%%%%oo:O XX.oXXX::oo:ooXX",
" O:OOoXXXOXXXoXXXoXX1o%%%%o11#ooooooOO XXX:XXXXoo:oooooX",
" :O:Oo@XX.oXXoXXXXXXX1%%%%%%%%*ooO;:O XX.oXXXXX:oo6@:o@X",
" O:O:oXXXoOXX@oXXXoXX1<%78%%%*%&oO:; XXX:XXXXXXX::o:o:XX",
" :O:Oo@XXX.oXXXoXXXoXXo%%2*%%8 .o:O XX.oXXX:.:XXX::o:@XX",
" ::O::XXX@oOXXXXXXXXXX1%%%****%.o: XXX:XXX:o:o:XX@ooXXXX",
" :O:O:XXXX..oXXXXXXXXXXo%%*&.. .o:XoooooXoo:o:o:XX@@XX.X",
" :::::XXXXo.oXXXXXXXXX#1%%%...%%oXo%%%%%oXoo:X:::XXXXX:X",
" :O:O:XXXXX.OoXXo.OoXXX1o%%*.. %o%%%%&%*%:@oo:o:oXXX.oXX",
" :::::XXXX@OooX..oXXXXXX1%%%.*%%o%%%%.  ..:@ooooXXXX:XXX",
" :::O:oXXXXoo@o.XXoooXXX1#%%*. %o%%>%.%   .:@o5XXX.oXXoX",
" :::::oXXXX@@@oX@ooXXX&%511% *%%5o&%%%*%   .oXXXXX:XXo:X",
" :O::::XXXXXXXXXo@XXXXXo%o#5 .*%o1&*%%%*%. ..oXX.oXXo::X",
" ::::::oXXXXXX@oXXXX.*o#o*%#% *2%$  &%%%*%.%.oXX:X@o:::X",
" ::::::::::::::::::::::::::::::9<<0::<99:::::::::::::::X",
".XXXXXXXXXXXXXXXXXXXXXXXXX1XXXXXXXXXXXXXXXXXXXXXXXXXXXXX"};
