/* XPM */
static char * image_name[] = {
"56 46 31 1",
" 	c #FFFFFFFFFFFF",
".	c #BEFBBAEABEFB",
"X	c #000000001040",
"o	c #BEFBB6DABEFB",
"O	c #AEBAAAAAAEBA",
"+	c #AEBAA699AEBA",
"@	c #C71BBAEAC71B",
"#	c #9E799A699E79",
"$	c #965896589658",
"%	c #FFFFF3CEFFFF",
"&	c #FFFFFBEEFFFF",
"*	c #38E36DB6A699",
"=	c #A6999E79A699",
"-	c #A69979E78E38",
";	c #96589658AEBA",
":	c #69A68617BEFB",
">	c #514471C68E38",
",	c #71C679E78617",
"<	c #000000001861",
"1	c #B6DAAEBAB6DA",
"2	c #AEBAB2CACF3C",
"3	c #861779E78617",
"4	c #A699A699A699",
"5	c #51445555FFFF",
"6	c #F7DEB2CAAEBA",
"7	c #AEBAAEBAB6DA",
"8	c #BEFBC30BCF3C",
"9	c #A699A289A699",
"0	c #5965A289D75C",
"q	c #8E388A288E38",
"w	c #AEBAAEBAAEBA",
"                                                       .",
" ......................................................X",
" ......................................................X",
" ...o..o..o..o..o..o..o..o..o..o..o..o..o..o..o..o..o..X",
" O...O...+...O...O...+...O...O...+...O...O...+...O...O.X",
" .o..@o...@o..@o..@o.....@o..@o...@o..@o..@o...@o..@o..X",
" O.O.O.O.O.O.O.O.O.O.+.+.O.O.O.O.O.O.O.O.O.O.O.O.O.O.O.X",
" .....Oo...o################################..O...o...OX",
" O.+.O.O.+.O##$###$#####$###$####$###o% &o##o+.+.O.O.+.X",
" ...Oo..O..o####$#########$####$####&     o#O...+...O..X",
" O.O.O.+.Oo+##*==-*=#-*=##*=#-*==$*&&.....o#oO.O.OoO.+.X",
" .Oo..O.O.+@#==##==#;===-===;==##=  ......:#@.+.O.O...OX",
" O.O.+.O.O.+*=##*=*+>=;#*=>=>=;#*& ..o.o.#X#oO.O.+.O.+.X",
" .O.O.O.+.O@=##======##=======#=  ......o:X#O.O.O.O.O.OX",
" O.O.O.O.O.+##>=*=,;=#*=*+*==$*& ..o....:X:#oO.+.O.+.O.X",
" OO.OO+.OO+o#=====;=#======##=  .o.....:X:##OOO.OOO.OOOX",
" O.+.O.O.O.+*=>=*+*=*=,=*=,;*& ....o@o,<:#*=@O.O.+.O.O.X",
" OOOOOOOO++12,==23==45;=2,;=  .......:<:#:=#OOOOOOOOOOOX",
" O.O.O.O.O.+*+*=*=*+,4,;,2*& ..o.o@.,<:;:#:#oO.O.O.O.O.X",
" OOOOOOO+++1==1,=+1*=#O5;=  ......o:<:;,;##:OOO+OOOO+OOX",
" OOO.OOO.O++*=*154,+*+:#:% ..o....,<:;,2*=*=@OOO.OOO.OOX",
" OOOOOOOO+O11,=#+>;=1*##  .o.....:<:;:;==:=#OOOOOOOOOOOX",
" OOOOOOOOOO+*154:=*+,+:& .......,<:;:;:;*+*++OOOOOOOOOOX",
" OOOOOOOOOO1=:$:#:451*  ......o:<:;:#:=:=:=:OOOOOOOOOOOX",
" #OOO#OOO#OO:#:#:#:#:@ ...o@.o:<:;:#:;>=:=>=+#OOO#+OO#OX",
" OOOOOOOOOO+$:::#:::#  ......:<:;,::#:::#:::O+OOOOOOOOOX",
" OO#+#+#OOO#:#:$:$:$:  ..o..:X:#:2*=:;:;:#:;+#O#+OO#+#+X",
" OOOOOOOOOO+::$:::$::  ....:X:;:,*=:::;:::#:OO+OOOOOOOOX",
" #O#+#+#+#O#:$:;,;,;,; 6.#:X:#:;:2:;:#:#*=,;7;+#+#+#+#OX",
" OO+OOOOOOO+;::o   8;::.:XX:$:::=:*,=>::=:::++OOOOOOOOOX",
" #O#+#+#+#+$:#o     .#:;:#:#:$:$*+:2*+*+:;:;+#O#+#+#+#OX",
" +#OO+#OO+#O:.  .....:::::::::::::::::::::::O+#OO+#OO+#X",
" #+#+#+#+#+#:  .....#::$:$:;:;:;:;:#:=:;:$:$O#+#+#+#+#+X",
" +#+#+#+#+#+:  ....o#X:::::::::::::*::::::::#+#+#+#+#+#X",
" #+#+#+#+#+#:  .1o.#:X:;::>;>::$:::+:::$:::;+#+#+#+#+#+X",
" ##+###+###9:: ..o#:X::::::::::::::::::::::*###+###+###X",
" #+#+#+#+#+#:::6;#:X:::::::::;:::::::;::::::1#+#+#+#+#+X",
"&#########=;>::::XX:::::*:::::::::::::::::::###########X",
" #+#+$+#+#+;::::::::::::0:::::*0*:::*::*0*::+$+$+#+$+#+X",
"%#######$####$;$$;$$;$;$$;q;$;=##;;;;;;;#=;#;##########X",
" ###=###+###1;#$O##;9#$;+$;$w#$;+#$#w###+###+###=###+##X",
"%#$##;-######################################$###;-####X",
" #+###;##-+##$####+##$####+##$####+#####$#+###-;##+;#$#X",
"%#########;#####$################$##$#$#######;########X",
" ##-;##-;###-##-;#$##-;#$#$##-;######-=$#-##-;###-;##-#<",
".X<<XX<<XXX<<<<<XX<X<<XX<X<X<<XXXXXXX<<X<<<<<XXXX<XX<<<X"};
