/* XPM */
static char * image_name[] = {
"56 46 35 1",
" 	c #FFFFFBEEFFFF",
".	c #BEFBB6DABEFB",
"X	c #BEFBBAEABEFB",
"o	c #000000001040",
"O	c #C71BBAEAC71B",
"+	c #AEBAA699AEBA",
"@	c #FFFFFFFFFFFF",
"#	c #A699A699A699",
"$	c #965896589658",
"%	c #082004100820",
"&	c #DF7DBAEA8E38",
"*	c #B6DAAEBAB6DA",
"=	c #AEBAA69971C6",
"-	c #BEFBC30BBEFB",
";	c #A6999E79A699",
":	c #9E799A699E79",
">	c #000008200820",
",	c #71C679E78617",
"<	c #96589658AEBA",
"1	c #FFFFF3CEFFFF",
"2	c #F7DEB2CAAEBA",
"3	c #69A68617BEFB",
"4	c #AEBAAEBAB6DA",
"5	c #000000001861",
"6	c #BEFBC30BCF3C",
"7	c #CF3CC71BCF3C",
"8	c #79E79248B6DA",
"9	c #DF7DAEBA69A6",
"0	c #D75CD34CD75C",
"q	c #A699A289A699",
"w	c #AEBAAAAAAEBA",
"e	c #AEBA61856185",
"r	c #71C675D671C6",
"t	c #AEBAB2CACF3C",
"y	c #EFBEF3CEF7DE",
"                                                       .",
" ..X..X..X..X..X..X..X..X..X..X..X..X..X..X..X..X..X..Xo",
" XO.O.O.O.O.O.O.O.O.O.O.O.O.O.O.O.O.O.O.O.O.O.O.O.O.O..o",
" .....................................................Oo",
" +.O.+                XO.+O.O+X.O+.O.+O.O+X.O+.O.+O.X+.o",
" .X..X@#X#X#X#X#X#X#X$o...X...O....X..X...O...X..X..O..o",
" +O+.+ X$%%$#%&*#.=-#;o+.+.+.+.+O+.+O+.+.+.+O+.+O+.+.+Oo",
" ...X.@#%XX%.%-#*&.&.$oX.O.O.O+...O...+OX.O...+....O..+o",
" +.+.;@.%.Oo#%o%#*:oo$o+.+.+.+X+.+.+X+.+.+.+O+.*.+.+.+.o",
" X.O+.@#ooo%XoX.>#%#X$o.+O.X+..O+.O.+.O.+.X.+...+O.O+.Xo",
" +.+X+@.%*.o#%OXoX%X#$%+.+.+.+.+.+.+O+.+.+O+.+O+.+.+.+Oo",
" .+.X.@#%#O%Xoo%$#;%%$oO+.+O.O+.+X+...+O+.+.O.+.+X+.O.+o",
" +.+.+@X,O#,*$;$#X##$$%+.+.+.+.*.+O+.+.+.+.+.+.+.+.+.+.o",
" .+O+. $<;$<$$ @@  1          ..+.+.+X+.+O+X+.*.+O+.+X+o",
" +.+X+Xooooooo .2.2.232.2X2X2Xo+.+.+O+.+.+.+.+.+.+.+O+.o",
" ++X+++.+3333, 2.2.22oX2X2X2.$oO+++.+++O+++O+++O+++.+++o",
" +.+.+.+X+.+.4 X2X232o2X232O2$o+.+O+.+.+.+.+.+.+.+X+.+.o",
" +++++++++++*+ 2.2Xo252325.2X$o++++++++++++++++++++++++o",
" +.+.+.+.+.+.+ .,5oo2o2525253$o+.+.+.+.+.+O+.+O+.+O+.+.o",
" ++++++++++++* 262o2o252o2o2.$o++++++++++++++++++++++++o",
" +++O+++O+++X+ X2X3252o2323X2$o+.+++X+++X+++.+++.+++.++o",
" +++++++++++++ 2.272o282X2.2X$o++++++++++++++++++++++++o",
" +++++++++++++ $$$$+;;;@                .++++++++++++++o",
" +++++++++++++.oo5o5ooo X#X#X#X#X#X#X#.$o++++++++++++++o",
" $+++$+++$+++$+++333333 #.=-#%%%$X#.#.#$o$+++$+++$+++$+o",
" ++++++++++++++++++++++ *&X#o *oo=O=X9.$o3+++++++++++++o",
" ++$+$+$+++$+$+$+++$+$+ #.#7%$,oo0#X#O#$%3+$+$+$+++$+$+o",
" +++++++++++++++++++++q@7#w&oooo%#*&O=.$o3+++++++++++++o",
" $+$+$+$+$+$+$+$+$+$+$w #&#O$ooo<X&4#X&:o3+$+$+$+$+$+$+o",
" +++++++++++++++++++++:@.&.#X#X#$$<e7#*$o3+++++++++++++o",
" $+$+$+$+$+$+$+$+$+$+$+ #X#*=7##r<,t,-#;o3+$+$+$+$+$+$+o",
" +$+++$+++$+++$+++$+++$@$$$;:$$<   y     @      X+$+++$o",
" $+$+$+$+$+$+$+$+$+$+$+.%%%o%ooo X2X2.2.2.2X2X2$o$+$+$+o",
" +$+$+$+$+$+$+$+$+$+$+$*$*333333 2X2X2ooooooX2.$o+$+$+$o",
" $w$+$+$+$+$+$+$+$+$+$+$+$+$+$+$ .2O2X52X2Xo2X2$o3+$+$+o",
" $$+$$$+$$$+$$$+$$$+$$$+$$$+$$$+ 2.2.2ooo5ooO2X$o3$w$$$o",
" $+$+$+$+$+$+$+$+$+$+$+$+$+$+$+$ X2O2Xo2222o2.2$o3+$+$+o",
" $$$$$$$$$$$$$$$$$$$$$$$$$$$$$$$ 2.2.25223ooO2X$o3$$$$$o",
" $+$+$+$+$+$+$+$+$+$+$+$+$+$+$+$ X2235oX2oo32.2$o3+$+$+o",
" $$$$$$$$$$$$$$$$$$$$$$$$$$$$$$$ 2O25o32X2X2.2X$o3$$$$$o",
" $$$+$$$q$$$+$$$q$$$q$$$+$$$+$$$@$$+$;$+$+$$$$$$o3$$+$$o",
" $$$$$$$$$$$$$$$$$$$$$$$$$$$$$$$.oooooo5oo5o5o5oo3$$$$$o",
" $+$$$$$$$+$$$$$$$+$$$$$$$+$$$$$$$+333333333333333q$$$$o",
" $$$$$$$$$$$$$$$$$$$$$$$$$$$$$$$$$$$$$$$$$$$$$$$$$$$$$$o",
" $$$$$$$$$$$$$$$$$$$$$$$$$$$$$$$$$$$$$$$$$$$$$$$$$$$$$$o",
"Xoo%oooooooooooooooooooo%o%oo%oooooooooooooooooooooooooo"};
