/* XPM */
static char * image_name[] = {
"56 46 33 1",
" 	c #FFFFFBEEFFFF",
".	c #BEFBB6DABEFB",
"X	c #BEFBBAEABEFB",
"o	c #000000001040",
"O	c #C71BBAEAC71B",
"+	c #AEBAA699AEBA",
"@	c #FFFFF3CEFFFF",
"#	c #F7DEB2CAAEBA",
"$	c #965896589658",
"%	c #A699A699A699",
"&	c #000000001861",
"*	c #082004100820",
"=	c #DF7DBAEA8E38",
"-	c #8E388A288E38",
";	c #69A68617BEFB",
":	c #A6999E79A699",
">	c #BEFBC30BBEFB",
",	c #AEBAA69971C6",
"<	c #B6DAAEBAB6DA",
"1	c #CF3CC71BCF3C",
"2	c #71C679E78617",
"3	c #9E799A699E79",
"4	c #FFFFFFFFFFFF",
"5	c #A699A289A699",
"6	c #96589658AEBA",
"7	c #71C675D671C6",
"8	c #AEBAAAAAAEBA",
"9	c #AEBAAEBAB6DA",
"0	c #EFBEF3CEF7DE",
"q	c #514471C68E38",
"w	c #AEBAAEBAAEBA",
"e	c #000008200820",
"r	c #BEFBC30BCF3C",
"                                                       .",
" .X..X..X..X..X..X..X..X..X..X..X..X..X..X..X..X..X..X.o",
" .O.O.O.O.O.O.O.O.O.O.O.O.O.O.O.O.O.O.O.O.O.O.O.O.O.O.Xo",
" X...................................................O.o",
" +XO.+O.O+XXO+XXO+XXO+XXO+XXO+XXO+XXO+XXO+XXO+XXO+.X.+.o",
" ...XX....O.......O.......O.......O.......O.......X.O.Xo",
" +O+.@               XO+.+.+.+O+.                 .+.+.o",
" ..X. X#.#.#.#.#.#.#$o+.O.X.O.+X. .%.%.%.%.%.%X%.$oX.O+o",
" +X+. #.#O#&oo&ooO#.$o$+.+.+.+.+. %X%X$***$X%.%.=-o$X+.o",
" .O.+ O#X##o#O#.o#.#$o;X+..O+.O.: >,<=* <&*,X%=%.$o;+.Xo",
" +.+X #.#O#oooooo.#O$o;+.+O+.+.+X %1%<o:2o&1%.%X%3o;.+Oo",
" .+O. O#.##&####&#X#$o;O+.+..X+.+4.%.=oooo*%=%1,.$o;..+o",
" +.+. #.###&##;ooX#.$o;5.+X+.+O+. ,O,1-ooo6O%X%O=3o;.+.o",
" .+.+ X##;&o1#oo;#O#$o;O+.+O+.+.: X%X%X%.%$$%%.%<$o;+O+o",
" +X+. #X#&o;#X#X#.#.$o;5.+.+.+.+. %.=<%1%%7:2371%3o;.+.o",
" ++O+ $$8$:$:$+$+$$$$o;O+++.+++.+ $:33%$$6$6$6:$:$o;+++o",
" +.+..o&oooooo&oo&oooo;5.+O+X+O+..*ooo***oo&ooo*ooo;.+.o",
" +++++++;;;;;;;;;;;;;;;+++++++++++<+;;;;;;;;;;;;;;;;+++o",
" +.+.+.+.+.+.+.+.+.9.+.+.+X+.+.+X+.+.+.+.+.5X+.+.+.5X+.o",
" ++++++++8+++5+9++5++++++++++++++++++++++++++++++++++++o",
" +++O+ +++4+X+++.+++.+++.+++ +++ +++X+++.+++.+++.+++.++o",
" +++++  + 4; ;+4; ;+   ;+ ;+  +  ;    ;   ;+ ;+  ;+++++o",
" +++++ . . ; ;5 ;4;5+ ;++ ;+ . . ; ;+++ 29 ;4;4;5 ;++++o",
" +++++ ;4; ; ;+ ; ;+84;++ ;+ ; ; ;   ;+ ;9 ; ;44 4;++++o",
" $++++ ;5; ;0;$ ;0;9+ ;5+ ;5 29; ; ;5+$ ;+ q ; ;5 ;9+$+o",
" +++++4;+90;9  ;+44 ; ;++4;+ ;9+0;  44;   ;9 ; ;84;++++o",
" ++$+$+$5++$+$w$w5+$5$+$+5+$5$+$+95$5$5$5+5$5$+$5+5$+$+o",
" ++++++++++8++5+++++++9+++++9+++++++++9+++9++95+9++++++o",
" $+$+$+$+$+$+$+$+$+$+$+$+$+$+$+$+$+$+$+$+$+$+$+$+$+$+$+o",
" +++8      444444    .++++++++++++                .++++o",
" $+$+ .X.X.%..%.%X%X$o+$+$+$+$+$+$ .#.#.#;#.#.#.#Xo$+$+o",
" +$++ .$oo$Xe%<=>,X%$o$+++$+++$+++ #X#X##&##X#X#.$o$++$o",
" $+$+ %e.Xo.*XX<.X<X$o;$+$+$+$+$+$ .#O#;#&#O#;#O#$o;+$+o",
" +$+$ Xo.XoXo*o:X:**$o;+$+$+$+$+$+ ####&#o#;#&###$o;$+$o",
" $+$+ %*oooXoO.oXoX.$o;$5$+$+$+$+$ X;&oo#&#&#&#&;:o;5$8o",
" $$+$ XoXXoXo.XoXo.X$o;8$$$+$$$+$$ ###o#&#o#o#&#.$o;$$$o",
" $+$+ %*X.oXooo$X$oo$o;$+$8$+$+$+$ X##;#o#&#;#;##:&;+$+o",
" $$$$ <=X%X%X.X%.%XX$o;$$$$$$$$$$$ #X#r#;#o#r#1#X$o;$$$o",
" $+$w $3$$$$$$$$$$$$$o;$5$+$5$8$+$ +$+$5$6&w$8$+$$o;5$8o",
" $$$$.oo*o**o*o****ooo;$$$$$$$$$$$.o&oooo&ooooo&ooo;$$$o",
" $$$+$$$;;;;;;;;;;;;;;;$+$$$8$$$+$$$+;;;;;;;;;;;;;;;9$$o",
" $$$$$$$$$$$$$$$$$$$$$$$$$$$$$$$$$$$$$$$$$$$$$$$$$$$$$$o",
" $+$$$$$$$+$$$$$$$5$$$$$$$+$$$$$$$8$$$$$$$w$$$$$$$+$$$$o",
" $$$$$$$$$$$$$$$$$$$$$$$$$$$$$$$$$$$$$$$$$$$$$$$$$$$$$$o",
" $$$$$$$$$$$$$$$$$$$$$$$$$$$$$$$$$$$$$$$$$$$$$$$$$$$$$$o",
".ooooooooooooooooooooooooooooooooooooooooooooooooooooooo"};
