/* XPM */
static char *neontile2[] = {
/* width height num_colors chars_per_pixel */
"    32    32      233            2",
/* colors */
".. c #2efba7",
".# c #2efba7",
".a c #2efba7",
".b c #2efba7",
".c c #2efba7",
".d c #2efba7",
".e c #2efba7",
".f c #2efba7",
".g c #2bfcab",
".h c #2bfcab",
".i c #2bfcab",
".j c #2bfcab",
".k c #2bfcab",
".l c #2bfcab",
".m c #2bfcab",
".n c #2bfcab",
".o c #2bfcab",
".p c #28fcaf",
".q c #28fcaf",
".r c #28fcaf",
".s c #28fcaf",
".t c #28fcaf",
".u c #28fcaf",
".v c #28fcaf",
".w c #25fdb3",
".x c #25fdb3",
".y c #25fdb3",
".z c #25fdb3",
".A c #25fdb3",
".B c #25fdb3",
".C c #25fdb3",
".D c #25fdb3",
".E c #25fdb3",
".F c #22fdb7",
".G c #22fdb7",
".H c #22fdb7",
".I c #22fdb7",
".J c #22fdb7",
".K c #22fdb7",
".L c #22fdb7",
".M c #22fdb7",
".N c #20febb",
".O c #20febb",
".P c #20febb",
".Q c #20febb",
".R c #20febb",
".S c #20febb",
".T c #20febb",
".U c #1dfec0",
".V c #1dfec0",
".W c #1dfec0",
".X c #1dfec0",
".Y c #1dfec0",
".Z c #1dfec0",
".0 c #1affc4",
".1 c #1affc4",
".2 c #1affc4",
".3 c #1affc4",
".4 c #1affc4",
".5 c #1affc4",
".6 c #17fac8",
".7 c #17fac8",
".8 c #17fac8",
".9 c #17fac8",
"#. c #17fac8",
"## c #17fac8",
"#a c #14f4cc",
"#b c #14f4cc",
"#c c #14f4cc",
"#d c #14f4cc",
"#e c #14f4cc",
"#f c #14f4cc",
"#g c #14f4cc",
"#h c #11efd0",
"#i c #11efd0",
"#j c #11efd0",
"#k c #11efd0",
"#l c #11efd0",
"#m c #11efd0",
"#n c #0ee9d4",
"#o c #0ee9d4",
"#p c #0ee9d4",
"#q c #0ee9d4",
"#r c #0ee9d4",
"#s c #0ee9d4",
"#t c #0be4d8",
"#u c #0be4d8",
"#v c #0be4d8",
"#w c #0be4d8",
"#x c #0be4d8",
"#y c #0be4d8",
"#z c #0be4d8",
"#A c #09dedc",
"#B c #09dedc",
"#C c #09dedc",
"#D c #09dedc",
"#E c #09dedc",
"#F c #09dedc",
"#G c #09dedc",
"#H c #09dedc",
"#I c #06d9e0",
"#J c #06d9e0",
"#K c #06d9e0",
"#L c #06d9e0",
"#M c #06d9e0",
"#N c #06d9e0",
"#O c #03d4e4",
"#P c #03d4e4",
"#Q c #03d4e4",
"#R c #03d4e4",
"#S c #03d4e4",
"#T c #03d4e4",
"#U c #03d4e4",
"#V c #03d4e4",
"#W c #00cee8",
"#X c #00cee8",
"#Y c #00cee8",
"#Z c #00cee8",
"#0 c #00cee8",
"#1 c #00c9e8",
"#2 c #00c9e8",
"#3 c #00c9e8",
"#4 c #00c9e8",
"#5 c #00c9e8",
"#6 c #00c9e8",
"#7 c #00c3e9",
"#8 c #00c3e9",
"#9 c #00c3e9",
"a. c #00c3e9",
"a# c #00c3e9",
"aa c #00c3e9",
"ab c #00bee9",
"ac c #00bee9",
"ad c #00bee9",
"ae c #00bee9",
"af c #00bee9",
"ag c #00bee9",
"ah c #00b8ea",
"ai c #00b8ea",
"aj c #00b8ea",
"ak c #00b8ea",
"al c #00b8ea",
"am c #00b8ea",
"an c #00b8ea",
"ao c #00b3ea",
"ap c #00b3ea",
"aq c #00b3ea",
"ar c #00b3ea",
"as c #00b3ea",
"at c #00aeeb",
"au c #00aeeb",
"av c #00aeeb",
"aw c #00aeeb",
"ax c #00aeeb",
"ay c #00aeeb",
"az c #00a8eb",
"aA c #00a8eb",
"aB c #00a8eb",
"aC c #00a8eb",
"aD c #00a8eb",
"aE c #00a8eb",
"aF c #00a8eb",
"aG c #00a3ec",
"aH c #00a3ec",
"aI c #00a3ec",
"aJ c #00a3ec",
"aK c #009dec",
"aL c #009dec",
"aM c #009dec",
"aN c #009dec",
"aO c #009dec",
"aP c #009dec",
"aQ c #0098ed",
"aR c #0098ed",
"aS c #0098ed",
"aT c #0098ed",
"aU c #0098ed",
"aV c #0098ed",
"aW c #0092ed",
"aX c #0092ed",
"aY c #0092ed",
"aZ c #0092ed",
"a0 c #0092ed",
"a1 c #008dee",
"a2 c #008dee",
"a3 c #008dee",
"a4 c #008dee",
"a5 c #008dee",
"a6 c #008dee",
"a7 c #008dee",
"a8 c #008dee",
"a9 c #0088ee",
"b. c #0088ee",
"b# c #0088ee",
"ba c #0088ee",
"bb c #0088ee",
"bc c #0088ee",
"bd c #0088ee",
"be c #0088ee",
"bf c #0082ef",
"bg c #0082ef",
"bh c #0082ef",
"bi c #0082ef",
"bj c #0082ef",
"bk c #0082ef",
"bl c #0082ef",
"bm c #0082ef",
"bn c #007def",
"bo c #007def",
"bp c #007def",
"bq c #007def",
"br c #007def",
"bs c #007def",
"bt c #007def",
"bu c #007def",
"bv c #0077f0",
"bw c #0077f0",
"bx c #0077f0",
"by c #0077f0",
"bz c #0077f0",
"bA c #0077f0",
"bB c #0077f0",
"bC c #0077f0",
"bD c #0077f0",
"bE c #0072f0",
"bF c #0072f0",
"bG c #0072f0",
"bH c #0072f0",
"bI c #0072f0",
"bJ c #0072f0",
"bK c #0072f0",
"bL c #006df1",
"bM c #006df1",
/* pixels */
".WaXbFbwaJ#J#n#0aYbGbHaY#k.b.a.##daXbHbBag.d#rbjbLbubaa1bcbKa4.J",
"#9a1aN#J.I.k.H#GaAaJ#Q.k.t.3.u.nabbpbyaK.W.i#Ua4bHbJbqbabwbB#r.f",
"#R#o.m.j.J.q.#.E.Q.f.y#Wav#L.d#ea2bAbg#9.C.a.2a.bcbLbxbvbLak.d.Z",
".a.C#1aKaw#t.z.k.R#9bjbEaW.1.yaCbAbFbbaj#b.l.f#wa9bLbtbJa5.4.#.t",
"a.bwbLbLbjak#RaiblbLbHbH#0.##8bwbLbJbxaX#9.S.e#5bHbwbzbHaf.H.f.G",
"bMbebkbLbgaNa6bJbwbebMaJ.i#la8bJbLbLbKbqak.s.4bmbzbfbMa3#E.5#Ga5",
"babgbLbkaQa7bLbsa1bzbj.3.racbbbFbLbLbJa8#d.ta4bAa1bybua##o#YbbbK",
"bLbwaF#9aybwbGa5bkbKa#.j.F#NaEbgbFbKbl#I.eaJbHa8bBbr#Y.2#jawbDbM",
"#2.6.N#laKbLblb#bKbd#J.t...N#PaQbqbe#Y.#adbLbwbLaT.4.d.d.Va#aSaN",
"...a.d#zbpbDa7bnbLblat#r.u.d#qaHa0a..i#pbnbLbu#O...E.V.l.d.K.H.d",
"#r.u.uaGbLbea4bobKbLbpas.T.h#YaQau.Q.uapa5ar.C.IafaIab#..A.w.1#y",
"#D.##KbBbBa7a3babkbGbIae.a#naSaW#K.####Z#h.##HbgbHbuaLab#9aBaYaP",
".K.KaKbMbGbqbaa1babKaW.u#aa4buaF.L.l.4.E.fa.bBbLbMbnaVaXbkbGbzaF",
".##laKbrbMbJbubjbHa8.B#fbjbJbe#o.#.L.z.b#Fb.bDbza5aNaZbtbLbLbh#B",
".#.Q#zaia6bHbLbLaX.A#lbrbLbx#H.#.X.9.k.t#Jaoal#Y#Saia9bKbLbGaB.S",
".p.#.g.4aobkbwaE.u#fbobLbp#s.d#Jan#M.z.#.m.m.i.p.4aobxbLbLbiae.4",
"#W#..d.MahaYav.I.SaXbAaY.U.JaMbzbnaD#E.7.3.0.A.##gaXbKbLbKbeaGag",
"aV#A.##naIaC.9.i#9aWah.k#obwbHbFbLbta9a4aRad.P.kabbubLbLbIbzbxbp",
"aw.o.6aNa5#2.d.4#8#w.##VbJbka5bnbIbLbLbLbr#5.d##aPbwbFbGbHbLbLbG",
".r#hbfbFa0.3.j#g.6.##KbEbzb#bgbrbrbkbsbLa3.2.f#DazaSa0bgbGbLbIaC",
"#TbHbKbH#1.#.W.8.g.SaJbHbLbMbKbBbea6bubHaa.p.l.V.9#l#UaFbbba#6.b",
"bLbjbMaA.f.W#z.1.#.Y#7aJa1bpbLbza6babJba#H.E.i.g.a...N#J#5.9.aaw",
"a1bGaP.j#aapai#i.l.b.x.3#Ta2bLbia1brbLa1amaaajae#w.o.f.N.m.AaUbG",
"bIaK.d#Ba5bnaWab#n.O.f.j#FbnbGa5b#bIbJbzbDbMbMbn#4.t...#.NaUbHa7",
"aA.b#PbpbLbKbxa8aG#W.D.taybLbnbebBbLbLbKbqbibJa3.7.#.#.uaqbLbtbL",
".c#ubebLbLbLbJbCb.#R.b#rbqbJbDbMbLbLbHbda3bDbd.9.#.k.##wbqbLbLax",
".EanbhbDbJbLbLbHaN.T.uasbxbFbra7bcbGbJbAbLaK.x.u##.u.uaAbHbKaL.H",
".K#Kasa3bAbLbLbo#N.#.9aeak#R#l#ma.a3bxa8#x.##vam#z.##JbpbKbg#J.a",
".#.z#xaObDbLbFaF.T...C.u...a.b.d.4#U#C.m.RaGbjaC.z.6bcbLbMa6#J.u",
".C.a#wa8bMbLbg#X.E.f.s#c#3#2.9.a.l.m.a#JbkbJbe.9.Ha6bLbCbLbraC#E",
".O.raqbFbLbCaJ#E#f#LaMbrbuaJ#d.c.#.xa.bybLbw#y.paTbJbgbjbCbLbrav",
"..#FbsbLbHa0#6#NanbjbLbLbg#N.r...v#0bsbLbB#W.baqbLbka1a5bjbFbGa#"
};
SIMPLE  =                    T                                                  BITPIX  =                    8                                                  NAXIS   =                    2                                                  NAXIS1  =                   32                                                  NAXIS2  =                   32                                                  HISTORY Written by XV 3.10a                                                     END                                                                                                                                                                                                                                                                                                                                                                                                                                                                                                                                                                                                                                                                                                                                                                                                                                                                                                                                                                                                                                                                                                                                                                                                                                                                                                                                                                                                                                                                                                                                                                                                                                                                                                                                                                                                                                                                                                                                                                                                                                                                                                                                                                                                                                                                                                                                                                                                                                                                                             ßîc\^nàëÄf\\fëßßßãc\aãß~\fkkf^^Ößß~^\avî†ësccv†ßßßÖa\aóßq^ffa\c{ßßók\\fãßßß†àà§ßßßßëf^i§¶k\a\cxîßßósa\^xßßßßßßßßßéîßßvfxß§i\\këß¶ë~ka\\cëß§ÉÄéùùÖkakóßóÄóßëc^fëßßÄfa^\\^sßß~a^cki^^a\sßß§ßßx^^s¶ßói\\\^aiéßöc^a\\\^ikai§ßßßóc\\{xßéc\^akvãßß{\cia\\^cf^k§ßßß~\c\^sßîkcnÉößßßîc^ki^^aa\\càßßßßq^kk^sß†~Äùßßßßék\fkc\kÄÖÄÉóßßßßßq^\f\xß¶óßß¶Övkc\aki^iîßßßßßßëà§ß{é^^^àß¶§ßßv^\\^aikc^Ößß¶§ùéxiiàßßùf^nßß†§ßë^aifccfc\kßßîxqnf^\^x{ß§skàßßÖóßé^fkc^\\\càß§sa^^^\\^qîßövx§ßÖnÄßöa^^\cikqÉßßÉc\\^aacã§ß¶Än{¶ßnan¶¶sacxî§ßßßß†n^\^ivÉßßßß~faxß†c\cößëÄëßßßßßßß~a\\fÉßßßóÄk^\\nßùc\aîß¶§ßßë~ÄãéÄi^\^xßßùsc\^cf^kß†f^iöß¶ßßîiaaksnc\\fî¶¶s\^ciki^nß†kcx¶ßßßßÖa\\cqnf^axîßëaakkif^^Éßöqnëß§ãùßîf^csÉÖxnsößßv\ikc^\c~ßßãq{ßß~k~ß¶ÉvÉ§ßßßóßßßócakc\f{ößßövnÖßöc\céßß¶ßß¶¶ßà§ßùs\fi^iëßßßéqciãßÉ\a\qßßß¶Öqs\axÖ{a^kf^Öß¶ëxf^^fëßv^kacãßù{a\if\fqk\ckafßßÉi^\\^k†ßkakacÖöãi^\if\fsk^ai\vßùk^\\^cÄßßfaf\kîßîkÖa\\fÄéÄf\^^ãßÖa\^anÖßßà^aa^É¶ß¶ßßàs{óßßßÖf^nßßxa^iÄ†ßßói\c^kßßßéößß¶ßßßßßßã{ëß†kafÖßßßÖi\aa\Äß¶Öksë¶ß¶îxvéßßßßßÉcas¶ßék^^ciaaöß¶n^avëöãn^^nùßßß†n^aÉßöf\ciki^k¶                                                                                                                                                                                                                                                                                                                                                                                                                                                                                                                                                                                                                                                                                                                                                                                                                                                                                                                                                                                                                                                                                                                                                                                                                                                                                                                                                                                                                                                                                                                                                                                                                                                                                                                                                                                                                                                                                                                                