/* XPM */
static char *netcfg[] = {
/* width height num_colors chars_per_pixel */
"    64    64       22            1",
/* colors */
". c #000000",
"# c #050505",
"a c #171717",
"b c #272727",
"c c #333333",
"d c #383838",
"e c #474747",
"f c #565656",
"g c #676767",
"h c #777777",
"i c #878787",
"j c #989898",
"k c #9b9b9b",
"l c #a8a8a8",
"m c #b8b8b8",
"n c #c8c8c8",
"o c #cccccc",
"p c #d8d8d8",
"q c #e8e8e8",
"r c #ededed",
"s c #fafafa",
"t c #ffffff",
/* pixels */
"ssssssssssssssssssssssssssqsqqqqqqqqpppppppnpnnnnnmnmmmmmlmllllj",
"sssssssssssssssssssssssqsqsqsqqqqqpqqppppnpnnnnnnmnmmmmlmllllljj",
"sssssssssssssssssssssssssqsqqqqqqqpppppppnpnpnnnmnmmmmmmlmlljjlj",
"ssssssssssssssssssssssqqsqqsqqqqppqpppppnpnnnnnmnmmmmmmlllljljjj",
"ssssssssssssssssssssqssqsqqqqqqqqpppppnpnnnnnmnmmmmmmllmllljjjji",
"sssssssssssssssssssssqsqsqqqqqpppppppppnpnnnnnmnmmmmlmlljljjjjij",
"sssssstttttttttttttttttttttttttttttttttttttttttttttttttttkjjjjii",
"sssssstkkkkkkkkkkkkkkkkkkkkkkkkkkkkkkkkkkkkkkkkkkkkkkkkkk.jjjiii",
"sssssstkkkkkkkkkkkkkkkkkkkkkkkkkkkkkkkkkkkkkkkkkkkkkkkkkk.jiijii",
"sssssstkkkkkkkkkkkkkkkkkkkkkkkkkkkkkkkkkkkkkkkkkkkkkkkkkk.ijiiih",
"sssssstkkkkkkkkkkkkkkkkkkkkkkkkkkkkkkkkkkkkkkkkkkkkkkkkkk.jiiiih",
"sssssstkkkkkkkkkkkkkkkkkkkkkkkkkkkkkkkkkkkkkkkkkkkk.kkkkk.iiihhh",
"sssssstkkkkkkkkkkkkkkkkkkkkkkkkkkkkkkkkkkkkkkkkk.kk.kkkkk.iihihh",
"sssssstkkkkkkkkkkkkkkkkkkkkkkkkkkkkkkkkkkkkkkkkk..k.kkkkk.hihhhh",
"sssssstkkkkkkkkkkkkkkkkkkkkkkkkkkkkkkkkkkkkkkkkk.k..kkkkk.ihhhhg",
"sssssstkkkkkkkkkkkkkkkkkkkkkkkkkkkkkkkkkkkkkkkkk.kk.kkkkk.hhhhhg",
"sssssstkkkkkkkkkkkkkkkkkkkkkkkkkkkkkkkkkkkkkkkkk.kkkkkkkk.ihhggg",
"sssssstkkkkkkkkkkkkkkkkkkkkkkkkkkkkkkkkkkkkkkkkk.kkkkkkkk.hghggg",
"sssssstkkkkkkkkkkkkkkkkkkkkkkkkkkkkkkkkkkkkkkkrrrrrrkkkkk.hggggg",
"sssssstkkkkkkkkkkkkkkkkkkkkkkkkkkkkkkkkkkkkkkkroooo.kkkkk.ghgggf",
"ssssqstkkkkkkkkkkkkkkkkkkkkkkkkkkkkkkkkkkkkkkkr.....kkkkk.gggfgf",
"sssssqtkkkkkkkkkkkkkkkkkkkkkkkkkkkkkkkkkkkkkkkkk.kkkkkkkk.ggggff",
"ssqssqtkkkkkkkkkkkkkkkkkkkkkkkkkkkkkkkkkkkkkkkkk.kkkkkkkk.gfffff",
"sssqsqtkkkkkkkkkkkkkkkkkkkkkkkkkkkkkkkkkkkkkkkkk.kkkkkkkk.gggfff",
"sqsqsqtkkkkkkkkkkkkkkkkkkkkkkkkkkkkkkkkkkkkkkkkk.kkkkkkkk.ffffef",
"qssqqstkkkkkkkkkkkkkkkkkkkkkkkkkkkkkkkkkrrrrrrrrrrrrkkkkk.ffffee",
"sqqsqqtkkkkkkkkk........................roooooooooorkkkkk.ffefee",
"qsqqqqtkkkkkkkkk.kkkkkkkkk.kkkkkkkkk.kkkr...........kkkkk.ffeeee",
"qsqqqqtkkkkkkkkk.kkkkkkkkk.kkkkkkkkk.kkkkkkkkk.kkkkkkkkkk.efeeed",
"qqqqqqtkkkkkkrrrrr.kkkkrrrrr.kkkkrrrrr.kkkkkkk.kkkkkkkkkk.eeeeed",
"qqqqqqtkkkkkkroooo.kkkkroooo.kkkkroooo.kkkkkkk.kkkkkkkkkk.eeeddd",
"qqqpqptkkkkkkroooo.kkkkroooo.kkkkroooo.kkkkkkk.kkkkkkkkkk.eededd",
"qqqqpqtkkkkkkroooo.kkkkroooo.kkkkroooo.kkkkkkk.kkkkkkkkkk.eedddd",
"qqqppptkkkkkkr.....kkkkr.....kkkkr.....kkkkkkk.kkkkkkkkkk.dddddb",
"qppqpptkkkkkrrrrrrr.kkrrrrrrr.kkrrrrrrr.kkkkkk.kkkkkkkkkk.dedbdb",
"pqpppptkkkkkroooooo.kkroooooo.kkroooooo.kkkkkk.kkkkkkkkkk.ddddbb",
"pqpppptkkkkkr.......kkr.......kkr.......kkkkkk.kkkkkkkkkk.ddbbdb",
"pppppptkkkkkkcccccccckkcccccccckkcccccccckkkkk.kkkkkkkkkk.bdbbbb",
"pppnpntkkkkkkkcccccccckkcccccccckkcccccccckkkk.kkkkkkkkkk.bdbbba",
"ppppnntkkkkkkkkkkkkkkkkkkkkkkkkkkkkkkkkkkkkkkk.kkkkkkkkkk.bbbbab",
"pnnpnptkkkkkkkkk...............................kkkkkkkkkk.bbbbaa",
"ppnnnntkkkkkkkkk.kkkkkkkkk.kkkkkkkkk.kkkkkkkkk.kkkkkkkkkk.bbaaaa",
"npnnnntkkkkkkkkk.kkkkkkkkk.kkkkkkkkk.kkkkkkkkk.kkkkkkkkkk.bbabaa",
"pnnnnntkkkkkkrrrrr.kkkkrrrrr.kkkkrrrrr.kkkkrrrrr.kkkkkkkk.baaaaa",
"nnnnmntkkkkkkroooo.kkkkroooo.kkkkroooo.kkkkroooo.kkkkkkkk.aaaa#a",
"nnnnnmtkkkkkkroooo.kkkkroooo.kkkkroooo.kkkkroooo.kkkkkkkk.aaaa##",
"nnnmmntkkkkkkroooo.kkkkroooo.kkkkroooo.kkkkroooo.kkkkkkkk.aa#a##",
"nnmnmmtkkkkkkr.....kkkkr.....kkkkr.....kkkkr.....kkkkkkkk.aa#a##",
"nmmmmmtkkkkkrrrrrrr.kkrrrrrrr.kkrrrrrrr.kkrrrrrrr.kkkkkkk.#a####",
"nmnmmmtkkkkkroooooo.kkroooooo.kkroooooo.kkroooooo.kkkkkkk.a#####",
"mmmmmltkkkkkr.......kkr.......kkr.......kkr.......kkkkkkk.a#####",
"nmmmmmtkkkkkkcccccccckkcccccccckkcccccccckkcccccccckkkkkk.######",
"mmmllltkkkkkkkcccccccckkcccccccckkcccccccckkcccccccckkkkk.######",
"mmmmmltkkkkkkkkkkkkkkkkkkkkkkkkkkkkkkkkkkkkkkkkkkkkkkkkkk.######",
"mllllltkkkkkkkkkkkkkkkkkkkkkkkkkkkkkkkkkkkkkkkkkkkkkkkkkk.######",
"mmlmlltkkkkkkkkkkkkkkkkkkkkkkkkkkkkkkkkkkkkkkkkkkkkkkkkkk.######",
"lmlllltkkkkkkkkkkkkkkkkkkkkkkkkkkkkkkkkkkkkkkkkkkkkkkkkkk.######",
"lllljlk...................................................######",
"lllljjjjjiiiihihhghgggggffffefeededdddbbbbbbaaaa################",
"lljljjjijiiiihhhhhgggggfffffeeeeeddddbdbbbabaaaaa#a#############",
"lljjjjjiiiihihhhgggggfffffefeeedddddbbbbbbaaaa##a###############",
"jljjjijiiiihhhhghggggfgfffeeeededddbdbbbbaaaaaa#################",
"jjjjjiiiihihhghggggfffffefeeeddddbdbbbbaaaaa##a#################",
"jjjijiiiihhhhhgggfggffffeeeededdddbbbabbaaaaa###################"
};
SIMPLE  =                    T                                                  BITPIX  =                    8                                                  NAXIS   =                    2                                                  NAXIS1  =                   64                                                  NAXIS2  =                   64                                                  HISTORY Written by XV 3.10a                                                     END                                                                                                                                                                                                                                                                                                                                                                                                                                                                                                                                                                                                                                                                                                                                                                                                                                                                                                                                                                                                                                                                                                                                                                                                                                                                                                                                                                                                                                                                                                                                                                                                                                                                                                                                                                                                                                                                                                                                                                                                                                                                                                                                                                                                                                                                                                                                                                                                                                                                                             ˜˜˜‡˜‡‡‡‡wwwwwgggVggVVVVGGGG8G8888'''''˜˜˜˜˜‡‡‡‡w‡wwgwggggVVVVVGVGGG8888'8''''˜¨˜˜˜‡˜‡‡‡‡wwwwgwggggVgVVVGGGG8G888'8''''¨¨˜˜˜˜˜‡‡‡‡w‡wwwgggggVVVVVGVGGG88888''''''¨¨˜¨˜˜˜‡˜‡‡‡‡wwwwwgggggVVVVVGGGGG8888'8''''¨¨¨¨˜˜˜˜˜‡‡‡‡w‡wwgwgggggVVVVGVGG8G8888''''''¨¨¨¨˜¨›                                                   ¨¸¨¨¨¨ÿ›››››››››››››››››››››››››››››››››››››››››››››››››› ¸¸¨¸¨¨ÿ›››››››››››››››››››››››››››››››››››››››››››››››››› ¸¨¨¨¨¨ÿ›››››››››››››››››››››››››››››››››››››››››››››››››› ¸¸¸¸¸¨ÿ›››››››››››››››››››››››››››››››››››››››››››››››››› ¸¸¸¨¨¨ÿ›››››››33333333››33333333››33333333››33333333››››› È¸¸¸¸¸ÿ››››››33333333››33333333››33333333››33333333›››››› ¸¸¸¸¸¨ÿ›››››í       ››í       ››í       ››í       ››››››› È¸È¸¸¸ÿ›››››íÌÌÌÌÌÌ ››íÌÌÌÌÌÌ ››íÌÌÌÌÌÌ ››íÌÌÌÌÌÌ ››››››› È¸¸¸¸¸ÿ›››››ííííííí ››ííííííí ››ííííííí ››ííííííí ››››››› ÈÈ¸È¸¸ÿ››››››í     ››››í     ››››í     ››››í     ›››››››› ÈÈÈ¸¸Èÿ››››››íÌÌÌÌ ››››íÌÌÌÌ ››››íÌÌÌÌ ››››íÌÌÌÌ ›››››››› ÈÈÈÈÈ¸ÿ››››››íÌÌÌÌ ››››íÌÌÌÌ ››››íÌÌÌÌ ››››íÌÌÌÌ ›››››››› ÈÈÈÈ¸Èÿ››››››íÌÌÌÌ ››››íÌÌÌÌ ››››íÌÌÌÌ ››››íÌÌÌÌ ›››››››› ØÈÈÈÈÈÿ››››››ííííí ››››ííííí ››››ííííí ››››ííííí ›››››››› 'ÈØÈÈÈÈÿ››››››››› ››››››››› ››››››››› ››››››››› ›››››››››› '''ØØÈÈÈÈÿ››››››››› ››››››››› ››››››››› ››››››››› ›››››››››› ''ØÈÈØÈØÿ›››››››››                               ›››››››››› ''''ØØØØÈÈÿ››››››››››››››››››››››››››››››››››››››› ›››››››››› '''''ØØØÈØÈÿ›››››››33333333››33333333››33333333›››› ›››››››››› '8'''ØØØØØØÿ››››››33333333››33333333››33333333››››› ›››››››››› '8''''ØèØØØØÿ›››››í       ››í       ››í       ›››››› ›››››››››› 88''8'ØèØØØØÿ›››››íÌÌÌÌÌÌ ››íÌÌÌÌÌÌ ››íÌÌÌÌÌÌ ›››››› ›››››››››› 8888''èØØèØØÿ›››››ííííííí ››ííííííí ››ííííííí ›››››› ›››››››››› 8G8'8'èèèØØØÿ››››››í     ››››í     ››››í     ››››››› ›››››››››› 88888'èèèèØèÿ››››››íÌÌÌÌ ››››íÌÌÌÌ ››››íÌÌÌÌ ››››››› ›››››››››› GG8888èèèØèØÿ››››››íÌÌÌÌ ››››íÌÌÌÌ ››››íÌÌÌÌ ››››››› ›››››››››› GG8G88èèèèèèÿ››››››íÌÌÌÌ ››››íÌÌÌÌ ››››íÌÌÌÌ ››››››› ›››››››››› GGG888èèèèèèÿ››››››ííííí ››››ííííí ››››ííííí ››››››› ›››››››››› GGGGG8èúèèèèÿ››››››››› ››››››››› ››››››››› ››››››››› ›››››››››› GVGGG8èúèèèèÿ››››››››› ››››››››› ››››››››› ›››í           ››››› VVGGGGúèèúèèÿ›››››››››                        íÌÌÌÌÌÌÌÌÌÌí››››› VVGVGGèúúèèúÿ›››››››››››››››››››››››››››››››››íííííííííííí››››› VVVVGGúèúèúèÿ››››››››››››››››››››››››››››››››››››››››› ›››››››› VVVVGVúúúèúèÿ››››››››››››››››››››››››››››››››››››››››› ›››››››› gggVVVúúèúúèÿ››››››››››››››››››››››››››››››››››››››››› ›››››››› gVVVVVúúúúúèÿ››››››››››››››››››››››››››››››››››››››››› ›››››››› ggggVVúúúúèúÿ›››››››››››››››››››››››››››››››››››››››í     ››››› gggVgVúúúúúúÿ›››››››››››››››››››››››››››››››››››››››íÌÌÌÌ ››››› gwgggVúúúúúúÿ›››››››››››››››››››››››››››››››››››››››íííííí››››› wgggggúúúúúúÿ››››››››››››››››››››››››››››››››››››››››› ›››››››› wgwgggúúúúúúÿ››››››››››››››››››››››››››››››››››››››››› ›››››››› ‡wwgggúúúúúúÿ››››››››››››››››››››››››››››››››››››››››› ›› ››››› wwwwwgúúúúúúÿ››››››››››››››››››››››››››››››››››››››››› ›  ››››› ‡wwwwgúúúúúúÿ›››››››››››››››››››››››››››››››››››››››››  › ››››› w‡wwwwúúúúúúÿ››››››››››››››››››››››››››››››››››››››››› ›› ››››› ‡‡w‡wwúúúúúúÿ›››››››››››››››››››››››››››››››››››››››››››› ››››› ‡‡‡wwwúúúúúúÿ›››››››››››››››››››››››››››››››››››››››››››››››››› ˜‡‡‡‡wúúúúúúÿ›››››››››››››››››››››››››››››››››››››››››››››››››› ‡˜‡‡‡wúúúúúúÿ›››››››››››››››››››››››››››››››››››››››››››››››››› ˜‡‡˜‡‡úúúúúúÿ›››››››››››››››››››››››››››››››››››››››››››››››››› ˜˜˜‡‡‡úúúúúúÿÿÿÿÿÿÿÿÿÿÿÿÿÿÿÿÿÿÿÿÿÿÿÿÿÿÿÿÿÿÿÿÿÿÿÿÿÿÿÿÿÿÿÿÿÿÿÿÿÿÿ›˜˜˜˜‡‡úúúúúúúúúúúúúúúúúúúúúèúèúèèèèèØØØØØØØØØÈØÈÈÈÈÈ¸È¸¸¸¸¨¸¨¨˜¨˜˜˜˜‡˜úúúúúúúúúúúúúúúúúúúúèúúèúèèèèèèèèØØØØØÈØÈÈÈÈÈ¸È¸¸¸¸¸¸¨¨¸¨¨¨˜˜˜˜‡úúúúúúúúúúúúúúúúúúúúúúèèúèèúèèèèØØèØØØØØÈØÈÈÈÈÈ¸È¸¸¸¸¸¸¨¨¨¨˜¨˜˜˜úúúúúúúúúúúúúúúúúúúúúúúúúèúèèèèèèèØØØØØØØÈØÈØÈÈÈ¸È¸¸¸¸¸¸¨¸¨¨˜˜¨˜úúúúúúúúúúúúúúúúúúúúúúúèúèúèúèèèèèØèèØØØØÈØÈÈÈÈÈÈ¸È¸¸¸¸¨¸¨¨¨¨¨˜˜úúúúúúúúúúúúúúúúúúúúúúúúúúèúèèèèèèèèØØØØØØØÈØÈÈÈÈÈ¸È¸¸¸¸¸¨¸¨¨¨¨˜                                                                                                                                                                                                                                                                                                                                                                                                                                                                                                                                                                                                                                                                                                                                                                                                                                                                                                                                                                                                                                                                                                                                                                                                                                                                                                                                                                                                                                                                                                                                                                                                                                                                                                                                