/* XPM */
static char * image_name[] = {
"56 46 22 1",
" 	c #FFFFFFFFFFFF",
".	c #BEFBBAEABEFB",
"X	c #000000001040",
"o	c #BEFBC30BBEFB",
"O	c #AEBAAAAAAEBA",
"+	c #9E799A699E79",
"@	c #B2CAAEBAB6DA",
"#	c #30C251444514",
"$	c #96589658AEBA",
"%	c #51445555FFFF",
"&	c #8E388A288E38",
"*	c #BEFBC71BD34C",
"=	c #AAAA79E78E38",
"-	c #186124921C71",
";	c #A6999E79A699",
":	c #75D69248B6DA",
">	c #79E786179E79",
",	c #DF7DAEBA9A69",
"<	c #71C679E78617",
"1	c #EBADEBADF3CE",
"2	c #DB6CDB6CE38D",
"3	c #000000000000",
"                                                       .",
" ......................................................X",
" ......................................................X",
" .o..oO..oO..oO..oO..oO..oO..oO..oO..oO..oO..oO..oO..o.X",
" +...O...O.o.O...O.o.O...O.o.O...O.o.O...O.o.O...O.o.+.X",
" ..o...o.......o.......o.......o.......o.......o.o.....X",
" O.O.@.O.@.O.@.O.@.O.@.O.@.O.@.O.@.O.@.O.@.O.@.O.O.O.@.X",
" .o...O.......O.......O.......O.......O.......O.......OX",
" O.+.O.@.+.@.O.O.+.O.@.O.+.O.@.O.+.O.@.O.+.O.@.O.O.@.O.X",
" ...O...O...O...O...O...O...O...O...O...O...O...+...O..X",
" O.O.@.O.O.O.@#@#@#$%&#@#@#$%&#@#@#$%&#@#@#$*O.O.O.O.O.X",
" .O...O.O.O..*$*$*@.O*$*$*@.O*$*$*@.O*$*$*@*..O.O.Oo..OX",
" O.O.O.O.O.O.#%=%#$%-$%#*%#$#%;%#$%-*#%=%#$@.O.O.O.O.O.X",
" .O.@.O.O.O.$@:#=$%@$#$$#$>%$$#,%#$$%@:#=$%.@.O.O.O.O.OX",
" +.O.O.O.O.O.%#:%-$-%$%#$#%=#%$-%=%-@-%>%-@$.O.@.O.O.O.X",
" OO.OOO.OO@.$#:#<%@.@$=%=%=#%#=%<@$**>$#<%O.OOO.OOO.OOOX",
" O.O.O.+.O.O.%#%#%-$%1 1##%>#%#>#%11%#%=%X#$*+.O.O.@.O.X",
" OOOOOOOOOO@=:#%@X%#+> 1*%X%<%X%:#.<:-##$-%@OOOOOOOOOOOX",
" O.O.O.O.O.O.%X#%#:%#>1  1@##%$#%X*>%#%%#%>;.O.@.O.O.O.X",
" OOO@OOOOOO@$-%%-%-%->.> 1<%X%-%-%@<%#%#X%#OOOOOOO@OOOOX",
" OOO.OOO.OOO.%-##%#%-%.#< 1<#%X#%-@>--%#%-%>.@OO.OOO.@OX",
" OOOOO@OO@OOOX%%#%--%&*-%. 1#%#%X%@<%#%#%-#;OOOO@OOOOOOX",
" OOOOOOOOOOOO###%-%#%<@%-#*1 <#%-%$>#%-%-%%>OOOOOOO@OOOX",
" OO@OOOOOOOO>%%##%-%X>@-%## 12%-%#$<%--%###;OOOOOOOOOOOX",
" +OOO+OOO+OO;##%#%X%-%.%-%%- 11-%-*:#%%-%#%>O=@OO+OOO+OX",
" OOOOOOOOOO@:##%#%-%#&*X%-%## 11-%$<%X%-%##;@OOOOOOOOOOX",
" +O+;+O+OOO=@%%#-%#%%<@%#%%#%%1 1-*>-%%#%%%<;$O+OOO+O+OX",
" OOOOOO;@;@O$%-%%%#%#>$%#%%#%#>  *@%#%%#%##;OOOOOOOOOOOX",
" +;+O+O+O+;$;#%%--%<%O $1222111 ....>#<%-%%<O=O+;+O+;+OX",
" OOOOOOOOOOO$%#<*1$O<...@$@$O;@;..>=.*@@$<<$@OOOOOOOOOOX",
" +O+;+O+;+O+;.*:$$.$.> +;+@+O+;+O+.$.$@$$>@$O+O+O+;+O+OX",
" O&O@;+OOO+OO.=;O;+>    .O+OOO+OO;+;;O$;@O$OO;+O;O+OO;+X",
" +O+;+O+;+;+O$O$O+;+;+O&.+;+O+;+O+O+O+;+O+;+O+;+O+;+O+OX",
" O+O+;+;+O+;+O&O&O+;+O+O+;+O&O+O+O+;+O+O+;+O&O+O+O+;+O+X",
" +O&O+O+;+O+;+@+O+;+O+O&O+O+O+;+O+O+;+;+;+O+O+O&O+;+O&OX",
" &+O+&+O++&O+&+O&++O+&+O+++;+++O+&+O+++;+++O&++O&++O+++X",
" +O+O+;+;+O+O+O+O+;+O+O+O&O+O&O+O+;+O&O+;+;+O+;+O+;+O&OX",
" &+&++++&++&++&+&++&+&+&++&+&++&+&+&++++++&++&+++++&+++X",
" +O+O&O+O+O+O&O+O&O+O+O+O+O+O+O+O+O+O&O&O+O+O+O&O&O+O&OX",
" ++&+++&+&+&++++&++&++&++&++&+&++&++&++++&+&+&+++++&+++X",
" &++O&++O+&+O&+&@+++O&+++++&O++&O++&O+&+O++&O+&+O&++O&+X",
" ++&++++&+++++++&+&+&++++&+++&++++&++++++&++++++&++&++&X",
" +O+&+&++&O&+&++++O+++&+++O++++&++O+&+&+&+O&+&+&++O++&+X",
" +&+++++++&+++++&+&+&+&+&+&+&+&++&+&++++++&++++++++&+++X",
" +++&+&+&+++&+&++&+++&++&++&+&+&++&++&&+&++&+&+&+&++&++3",
".3X3XXX3XXX3XXX3XXX3X3X33XX3XX3XX3XX3XXX33X3XX3XXX3XX3XX"};
