/* XPM */
static char * new [] = {
/* width height ncolors cpp [x_hot y_hot] */
"48 48 10 1 0 0",
/* colors */
" 	s none	m none	c none",
".	c #000010001300",
"X	s iconColor1	m black	c black",
"o	c #00003E004900",
"O	c #F400F500F600",
"+	c #4B008C009B00",
"@	c #030056006200",
"#	c #9700B500BD00",
"$	c #67007F007F00",
"%	c #7F0083007F00",
/* pixels */
"    ........................................    ",
"  ............................................  ",
" .............................................X ",
" ...................o..o..o..o................X ",
"......o..o.o.o.o.o....o.....o..o.o.o.o...o......",
".o..o...o..........o.o..o.o..o.........o...o....",
"...o..o...o.oo.oo.o.o..o.o.o..o.oo.o.o...o...o..",
".o..o..o.o.......o...o.o....o..o..o...o.o..o....",
"..o..o..OOOOOOO.o.oo.o.o.oo.+OOOOOOOOO..o.o.o.o.",
".o..o..o..@OOOOO.o.o.o.o.o.o.o.#OOO#.o.o.....o..",
"..o.o.o.oo.oOOOO#.o.ooo.ooo.o.o.+OO.o.o.ooo.o...",
"oo.o.oo.o.o.#OOOO+.oo.oo.o.ooooooO#oo.o.o..o.oo.",
".o.o.o.ooooooOOOOO#o.oo.ooo.o.o.oO#o.oooooo.o.o.",
"o.ooooo.o.o.oO#OOOO@oooooooooooooO#ooo.o.o.oo.o.",
"oo.o.ooooooooOo+OOOO@ooo.ooooo.o.O#oooooo.oo.oo.",
"o.oooo.ooooooO@o#OOOO@.ooooo.ooooO#.oo.ooooooo.o",
"oooooooo.oo.oO@oo#OOOO@ooooooooooO#oooooooooooo.",
"oo.oo.oooooooOoooo#OOOOooooooooooO#oooooo.oo.ooo",
"oooooooooooo@O@ooooOOOOOoooooooooO#oooooooooooo.",
"oooooooooooooO@oooooOOOOOooo@ooooO#ooooooooooooo",
"ooooooooo@o@oO@o@o@ooOOOOOooo@o@oO#ooooooooooooo",
"ooooo@oo@ooo@Oo@@o@@@@OOOOOo@@o@oO#@@o@oo@oooooo",
"ooo@oo@@o@@@@O@@o@@@o@@OOOO#@@@o@O#@o@@o@oo@oooo",
"@o@o@@@o@@@@@O$@@@@@@@@$OOOO#@@@@O#@@o@@o@@@o@@o",
"@@o@@o@@@@@@@O@@@@@@@@@@+OOOO#o@@O#@@@@@@@@o@o@o",
"o@@@@@@@@@@@@O$@@@@@@@@@@+OOOO+@@OO@@@@@@@@@@@@@",
"@@@@@@@@@@@@@O@@@@@@@@@@@@#OOOO+@O#@@@@@@@@@@@@o",
"@@@@@@@@@@@@@O+@@@@@@@@@@@@#OOOO@O#@@@@@@@@@@@@@",
"@@@@@@@@@@@@+O@@@+@+@+@+@+@+OOOOOOO@@@@@@@@@@@@@",
"@@@@@@@@@+@+#O#+#@oo.o....o.o%#OOOO+@+@@@@@@@@@@",
"@@@@+@+++@o.oO@......................o#+++@@@@@@",
"+@++@.......#OO...........................o+++@@",
"@..........oOOO%..............................@#",
".........OOOOOOOOO#.............................",
"................................................",
"................................................",
"................................................",
"................................................",
"................................................",
"................................................",
"................................................",
"................................................",
"................................................",
"................................................",
" .............................................. ",
" .............................................. ",
"  ............................................  ",
"    ........................................    "};
