/* XPM */
static char * image_name[] = {
"56 46 46 1",
" 	c #FFFFFFFFFFFF",
".	c #BEFBB6DABEFB",
"X	c #E79DE79DEFBE",
"o	c #30C234D330C2",
"O	c #71C675D671C6",
"+	c #B6DAAEBAB6DA",
"@	c #965896589658",
"#	c #514455554924",
"$	c #000000000000",
"%	c #208120812081",
"&	c #000000001040",
"*	c #28A22CB230C2",
"=	c #79E79248B6DA",
"-	c #082004100820",
";	c #AEBA9E795965",
":	c #618561856185",
">	c #EFBEF3CEF7DE",
",	c #8E388A288E38",
"<	c #000008200820",
"1	c #69A669A671C6",
"2	c #38E36DB6A699",
"3	c #9E799A699E79",
"4	c #D75CDF7DE79D",
"5	c #BEFBC30BCF3C",
"6	c #AEBAAEBAB6DA",
"7	c #AEBAAEBAAEBA",
"8	c #BEFBC30BBEFB",
"9	c #28A25D754924",
"0	c #79E786179E79",
"q	c #5965A289D75C",
"w	c #69A68617BEFB",
"e	c #5144A2894924",
"r	c #71C679E78617",
"t	c #AEBA61856185",
"y	c #CF3CC71BCF3C",
"u	c #DF7DBAEA8E38",
"i	c #186120812081",
"p	c #E79DD75C9E79",
"a	c #D75CD34CD75C",
"s	c #AEBAA699AEBA",
"d	c #FFFFFFFFD75C",
"f	c #A699A699A699",
"g	c #000030C20820",
"h	c #30C271C65965",
"j	c #0820596528A2",
"k	c #000000001861",
"                                                        ",
"                                                       .",
"  XoOoooooooooooooooooooooooooooooooooooooooooooO+Oooo@#",
"  X$$$%$$$$$$$$$$$$$$$$$$$$o$$$$$$$$$$$$$$$$&*=$$$$$$$##",
"  X$$$$$%$-;$-$-:-$-$-&&$-&$o%$-$-$-$-#$-$-$$$&$$$$$=$##",
"  >$$-&&#%$&-$$-:$-$$&$-$%&$,@$$-$$-$$o$$-$$<$$%o<$$$$##",
"  X<$$$-o$-$$-&$--$&-$$$-o$-@1-$$-$$-$-$-$-$-$<o#$$$$$##",
"  >$$-$&-$%&o$-&$$$#O-$-$$$$&$$-%$-$-$$-$$-$$-$$$$-$-$##",
"  X<$$<$$$-$$-$$&-$&$$$-$&-$-$-$o$$-$$-$$-$$-$-$--$-$$##",
"  >$<$$-$O%$2 >X>X>3$$-$$-$$-$$&$$=4> X> >55%-%:;$$$-$##",
"  X$$-$$$$&$$#67    3%-$-$-$$-$-$$$$$O4X8*:90##%%o&-5###",
"  >$$&%-$-$&$&&$7     O$$$,$-$-$&$&$$<q O#w;:oo%%%%&<%##",
"  X<$$o9%$&-$-$$,X    #$$-X$$-$$-$$-$&q e@;r#$%%%$$%$$##",
"  >$-$&$&-$&$ooo#:      #&<$-$$-&$#o,e5Xo*##%%o#:Otyyt##",
"  X$$&-$$rooooo9#w4    X>O$$$-&$o;uw7@5>o$ii%o#;uup 4>##",
"  >$$$&$$=:2:##oo=X7    XXr&&$OO@65y@eq o%$$o#;@p X>4 ##",
"  X<oo:;rw:oo$$$$=p&o#8X>  +aXXas#ooo<qdoo%%o1;uX>    ##",
"  49X=0w0#oooo&<owa&$$O   X4@.a,;o&$-<q ioooo,w5>    p##",
"  X9q=2=woo$&$o%i0f<%&9yX  Xq58:ii$&o<a>ooe:*0eup   py:#",
"  4=0=#*oo<o$%$$owy&#e7w.    >5#&$$oo%qXo$9o%#:05Xp>4f##",
"  Xoog<<ooi$o:e:::dXX>X>@#84 X>>woo<o%y>o%o*ooo:1O1t:o##",
"  4<<%o<<oo#<#@=p0>  X7:o$<X   XX=oo:oqXoo#ooooo#oooo%##",
"  ><#:ooo&o=oeX44:>58,h%o:&=X   X40eo<q o9&%9wooioe#oo##",
"  X%oooooo%$o%ee;=5<$$ooo$oi$$#    >5oyXooo%:@oooioioo##",
"  4$oooooooeo:e:w0pio%ooo%oo$&o5X   poq>%oooo0ioo%oooo#:",
"  X%ooo9ooow##oojw4&9oooo#oooooO   Xa=qXoooooooo;u:9oo##",
"  Xioo:u:oooooooo=poooooooooooo*wX  X4Xd99#9oooooooooo:#",
"  4ooooooo=o0:02#w5io%%$&$&$&$$<<<h0w=0w2oq0::=ow=oooo##",
"  4ooo0=0#w#9o<$o=@<<$&%$$%$$%$&$$-&<<<<$<<<%oo90w0:09#:",
" XXoooww=:#oi<<$<wp<%$$$$&$&$$$&$$$<$<$$$%$<<<<*#ew=q9##",
"  Xo=0:j#%<<<%$$o4>o$$<$&<$<-$<$-$-$&$$&$$<$$%$$&%*o#o::",
"  a*9o<-$<<%$&$&ieeo$$-$-$-$$&-$&-$$$&$<$-$$$$&&$$<<<o##",
"  4<<$%$$%$$$$$$<<$&$$$-$$-$-$$-$$-$<$$$&$-$-$$$$&$&$<#:",
"  X&$$$&<$$$<$<$$-$$&-$$-$-$$-$$-$$-$-$-$-$-$$<$-$$&$k:#",
"  >$$$$<$-$<$-$-$$-$<$-$$$-$-$-$$-$$-$-$$$-$$-&$-$<$$$##",
"  X$$<$-$$-$-$-$$-$$$-$$-$$-$$$$-$$-$$$-$-$$-$$-$$%$<$##",
"  >$$&-&$-$$$-$$-$$-$$-$-$-$-$-$-$-$-$-$$-$-$$-$-$-$$$##",
"  X$<$$-$$-$-$$-$$-$-$-$$-$$$-$-$$&-$$$-&$$$-$-$$-$$-$##",
"  >$$-$$-$$-$-$$-$$-$$-$-$-$-$$$-$$$-$-$$-$-$$$-$$-$$-##",
"  X$$$$-$$-$-$$-$-$$-$$-$$$$&-$-$-$-$-$$-$&$-$-$$-$$-$##",
"  >$$-$-$-$$$-&$$-$-&$-$-$-$-$$&$-$$-$-$$-$-$$-&-$-$$$##",
"  X$$$-$$$-&$$-$-$-$$$-$$$-$$-$-$$-&$$$$-$-$$-$$$$$-$-##",
"  >$$<$-$-$-$-$$$-$$-$$-&-$$-$$-$-$$--$-$$$-$-$-$-$$-$##",
"  4$$-$$-$$$-$$-$&$-$-$-$$$-$$-$-$$-$$-$-$-$&$$-$-$-$$##",
"   #OOO1OOOO1OOOOOO1OOO1OOO1OOO1OOOOOO1OOOOOOO1OOOOOOO##",
" XO1O1OO1O1OO1O1O1OO1O1OOO1OOO1OO1O11OO1O1O1O1OO1O11O1##"};
