/* XPM */
static char * image_name[] = {
"56 46 37 1",
" 	c #FFFFFFFFFFFF",
".	c #B6DAAEBAB6DA",
"X	c #000000000000",
"o	c #A6999E79A699",
"O	c #8E388A288E38",
"+	c #38E36DB6A699",
"@	c #9E799A699E79",
"#	c #BEFBB6DABEFB",
"$	c #082004100820",
"%	c #A699A289A699",
"&	c #000000001861",
"*	c #A69979E78E38",
"=	c #79E786179E79",
"-	c #000000001040",
";	c #8E38861779E7",
":	c #AEBAAEBAB6DA",
">	c #965896589658",
",	c #71C679E78617",
"<	c #AEBA9E795965",
"1	c #96589658AEBA",
"2	c #AEBAB2CACF3C",
"3	c #FFFFFBEEFFFF",
"4	c #514471C68E38",
"5	c #C71BBAEAC71B",
"6	c #BEFBC30BCF3C",
"7	c #EFBEF3CEF7DE",
"8	c #5144A2894924",
"9	c #FFFFF3CEFFFF",
"0	c #861779E78617",
"q	c #AEBAA699AEBA",
"w	c #AEBAA69971C6",
"e	c #71C675D671C6",
"r	c #000008200820",
"t	c #AEBA61856185",
"y	c #79E79248B6DA",
"u	c #F7DEB2CAAEBA",
"i	c #51445555FFFF",
"                                                       .",
" ......................................................X",
" ...............oOO+O+O+O+OO@o.........................X",
" .......#.....OO++++++++++$+X++%........#....#....#....X",
" o..#%...%..O++$@O@+&+&+#*=+O$XX+%..#@#..%...%...%...%.X",
" ..........O$+-+$+$.O-+$;=*O$+XXXX%...:................X",
" @.@.%.@#>+$+X+o@-+O+++*++.,<&+X+XX@.%.@#>#>#>#>#>#>#@.X",
" ..#..>..+X+-+@.O...#+,.*:<1,*-+-+XX@.@......#@.......%X",
" @.>#@#@+&+X++#O++O..2.O:,2,-+,$+X+XX@#@.@#1#@2@#@#@#@.X",
"3#.#1..+X+-+&++++*O....2O24<OO&+X+-+XX@2@...@...@..2@..X",
" @.@.@=$+-+++++*4#3. ..O.O5*.O+$XXO$+X+@.1#@.@#1.@.@.@#X",
"3.1#..$+X+-+-++#33.......#,*O+$+O$++XX-+@.@...@.@.@...@X",
" @.@.++-++++*67.3. . ..O.O#82&+&O$X+O$XX.@.1#@.@.1.@.1#X",
"3.@.o+-+-++O: 3   . .....:*#*OO+$+-+$+X$+.@.@.1.@#1.@.@X",
" @.@=X+o@O+*3#3. . . ....O.O.=+$+X+-+-XX$@.@.@.@.@.@.@.$",
"9@@.++X@@.#+33 3  . .....2,O=*$+-+-+X+X+$+@.1@@.o@@.1@@X",
" @.OO$+O++3:9.3. . . ..O.O.O.X+X+X+X+-XXX+.@.@.@.@.@.@.$",
"9@@0O.&+#++9:3. . ....#...O.O+-+-+-+-+X+X$1o@@@o@o@@@o@X",
" @#+,<:$+.3+ . . . . ..O.O.O#$+-+X+X+X+-XX.@.@.1.@.@.@.$",
"9@>102O.&..#......#.......*;O+-+X+-+$X-+X-@@oo@@@@1q@1@X",
" @@+<450>X+*=..3.3:....O#=.=.O+$+-+-+XXXXX@o.oo*#1@*5@@-",
"9@o+,1O..O-+X+X......#..*;O=OOO+-+XX$#X+X$o@@o@1@@o1@o@X",
" @@+0q.O.$+X+-+-+O.O.O#O.=#O*+,+O+O$33 .X+=@o@@q,.@@@@oX",
"9o1+w0@1O+-+-+X+X+....OO,<O=e*+O++$3 X   .$+8o@1q1@o@o@X",
" O@+,w,o@$+X+-+-+-*r.O.=2,=+O+,+*&3 X+ X 33.&+8q@8o1@81$",
"9@1+,4<=@+X+-+X+X+X+X+=*OOO,OO++X  X +X  X@33.&+0o@ooo@X",
" @1t+,+O*=+-+X+-+X+-+X++,+w+*+O&  X  -  X @X333.-+<,18q$",
"9@oy+O1,O;++X+-+-+X+-+-*w4+,+=$3 3  X  X.X3 X3 33.&+*o@X",
" =@=<+*+=**;+-+X+-+X+XO+,+@+O$3 .. 3  X+   X @3. 33.&+O$",
"3o@o@&*=*<=,*+-+X+-+-+Oo+4+O$3 ..O..3  .X X3@+ X X=33.$+",
" <@=@+++=+,+>X+X+X+-++*+O+1&3 .O  . ..    +XX3X X @X 33X",
" o,@@@&++4+O,+-+-+X*O,+++OX3 .. .O .O .3 3  +X  .X3  3$O",
" ,q,o=<+++*+O-+-+XO+,+*+*&3 .O ..  O .   +#3  XO X 3 X.X",
"3oeow1,+&++1++X+&++O+++++.    .O .. .  3+u.+. 3@X   X.$O",
" Oo=@*oO++++*-+-@+*+1++,& 3..   .O .  3+#u 3#+.33 3X.X.+",
" 4<o,O=@*+&+++-+++++++++$ .  ..   .  3+#u$uu3uX   X.X.+X",
" Oo4oO@=1O+++++-++++++++&. O;  ..  3 +O*O7.u.X  3X.X.+-X",
"3,<O,<,w,**++-++++++i+&+X+@. ;O  ..3 .OX+*+#X   X.X.+$OX",
"3O1OoOO*1=@@1++-+-+-+X+-+-XO@..O;  ..  .*XO$ 3 X.X.+-O@$",
"3O,<14=O==OO,**+-+-+X+-+-+X$$4@.7*O  ..  .X3  X.X.+X>tOX",
"38*4o*w*@O*=%==;%++-+-+-+X+X+$$O@..O8  .#   3X.X.+-O@8O$",
"3**,w4==,<=t,;1,=*OOO,<,*OOOOO+$$Oo##OO  .  X.X.+$O=1*OX",
" O1OOO<,14>==<,O1=@O1O*=<,1O0*O,+$XOo..O= 3X.X.+-O@;*=O$",
"3=,w41,0,<OO>41O,<=*O,O41,O>;==OOO+$$O@.. X.X.+X=tO,>O,X",
" t1;*,w1,*=*=tOOO4OeOOO>0=,0,>;,OO=O+$+O@.X..+-O>==<,O<$",
".XX$$-&$-$$$X$$X$$$$$$X$$$$--$r$$XX$$X$$$+X+XXX$$$$$$$$X"};
