/* XPM */
static char * image_name[] = {
"56 46 32 1",
" 	c #FFFFFFFFFFFF",
".	c #D75CD34CD75C",
"X	c #000000000000",
"o	c #E79DE79DEFBE",
"O	c #514455554924",
"+	c #965896589658",
"@	c #AEBAAAAAAEBA",
"#	c #AEBAA699AEBA",
"$	c #AEBAAEBAAEBA",
"%	c #A699A289A699",
"&	c #AEBAAEBAB6DA",
"*	c #618561856185",
"=	c #A6999E79A699",
"-	c #BEFBB6DABEFB",
";	c #69A669A671C6",
":	c #B6DAAEBAB6DA",
">	c #71C675D671C6",
",	c #28A22CB230C2",
"<	c #9E799A699E79",
"1	c #CF3CC71BCF3C",
"2	c #30C234D330C2",
"3	c #8E388A288E38",
"4	c #186120812081",
"5	c #5144A2894924",
"6	c #79E786179E79",
"7	c #BEFBC30BBEFB",
"8	c #FFFFFBEEFFFF",
"9	c #D75CDF7DE79D",
"0	c #AEBA9E795965",
"q	c #082004100820",
"w	c #AEBA61856185",
"e	c #8E38861779E7",
"                                                      .X",
"  ...................................................oOX",
"  +@#$+##$%#+##$%#+##$%#+##$%#+##$%#+##$%#+##$%#+###%&*X",
"  =$##&$#@&@&$#@&@&$#@&@&$#@&@&$#@&@&$#@&@&$#@&@&$$$$&*X",
"  =@$@@@@@$@@@$@@@@@$@@@@@$@@@@@$@@@@@$@@@@@$@@@@@@@$-;X",
"  =@@@@@@@@@@@@@@$$-:-&@@@@@@@@@@@@@@@@@@@@@@@@@@@@@$&>X",
"  %@@@@@@@@@@@@@&-$OXX>$:$@@@@@@@@@@@@@@@@@@@@@@@@@@@-;X",
"  @@@@@@@@@@@$-:>OX;  >,$&@@@@@@@@@@@@@@@@@@@@@@@@@@$-OX",
"  <@@@@@@@@@&1;2X@  .3%<O@@$@@@@@@@@@@@@@@@@@@@@@@@@@:;X",
"  @@@@@@@@$:>XX<o  13o  XX$:@@@@@@@@@@@@@@@@@@@@@@@$$-*X",
"  =@@@@@@@-,41   -O$  .  OX>:-$@@@@@@@@@@@@@@@@@@@@@@:;X",
"  @@@@@@$$:O;   3:  133Oo  XO:$@@@@@@@@@@@@@@@@@@@@$$&*X",
"  =$@@@@@$-1XX  . -;$X#. 3>OX;-$@@@@@@@@@@@@@@@@@@@@$-;X",
"  =@@@@@$:<X  X.  :O53  ;,O  X<-&@@@@@@@@@@@@@@@@@@@$-OX",
"  %@@@@@@:OX   4%  1-o-*,3    X;-$@@@@@@@@@@@@@@@@@@@:>X",
"  @@@@@$$-O$,  .X$  .O,<1   X,.3O-:@@@@@@@@@@@@@@@@$$&*X",
"  =@@@@@:$Xo-X  .X& -O&   oO o 1,O$:-$@@&$@@&@$@@@@:$-;X",
"  @@@@$$-X.  <X  .X$    .<,   o$ ;X<$$:$@@$@@$@@@@$$$-;X",
"  =$@@@$:;O   3O  -;1  $$6   ,<oO$1>X4<$@@@@@@@@@@@@$-;X",
"  @@@@@$$-<Xo  14  3,o o    Ooo o <XXX+-@@@@@@$:@@@@$-OX",
"  =@@@@@@$$:XX1 OX  O;   1X :7O $XXX<;O@:$@@@@@$$@@@@-;X",
"  %@@@@@@@$$1OO;834. O;  $ <>$ 3XX;<o @,$-@@@@@@@@@@$&*X",
"  <@@@@@@@@$$:-;O 6X1oO>   9 .*XX,<   3.X$:$@@-$@@@@$-;X",
"  @@@@@@@@@@$$$-34 1>  ,<  oXXX>;   :.  oX$-@$@@@@@$$:*X",
"  =@@@:$@@@@@@$$:3O0;>9.Xo.XX4:$< o1%$1 ;>X1$@@:$@@@$-;X",
"  @@@$$@@@@@@@@@$$%;O3;ooOXXo.59 o-$$&$-  X4:-$$@@@@$&*X",
"  =@@@@@@@@@@@@@@$&@:O<0XXX*    9$<->O<$+  oX$:$@@@@$-;X",
"  %@@@@@@$:@@@@@@@@$$:OXX>;+  o.<>X;<XX4X1 $OO>-:@$-$&*X",
"  %@@@@@@$$$@@@@@$@@@-3XXX @O  1@<,X,XXX3 4.  ;O<$@@$-;X",
"  =@@@@$:@@@@$:@@@@@@$$:<@X ,*  o:*XXXX.  1   1XO:@@$-;X",
"  %@@@@@$@@@@$$$@@@@@@@$@@:X1O6  o$OX4 9>    ;qO:-$$@-;q",
"  @@@@@@@@@@@@@@@@@@@@@@@$--O;,1  ;XO83<    OX,1$$@@$-OX",
"  =@@@@@@@@@@@@@@-@@@:$@@$$$-;qX9 o. O+8   XX,4:$$@@@:;X",
"  %@@$:@@@@@@@@@@@@@$$$@@@$$$-$O2o  +.   .X,XX+-$@@@$-*X",
"  =@@$$@$@-@@@@@@@@@@@@@@@@@@$@:<O1     3XOXOX-:$$@@$:;X",
"  @@@@@@@@@@$:@@@@@@@@@@@@@@@@$$:<,$   O4*XOXO-$$@@$$&*X",
"  =$@@@@@@@@$@$@@@@@@@@@@@@@@@@@$-:O;oX,*XXX4:$$@@@@$-;X",
"  =@@@@@@@@@@@@@@@@@@@@@$:@@$:@@$$$-;2XX421:::$$:@@@$&*X",
"  %@@@@@@@@@@-$@@@@@@@@@@$@@@$$@@@$$-:$w;:$-$$$@$$@@@-;X",
"  =@@@@@$:@@@@@@@@@$:@@@@@@@@@@@@@@$$$%7$$$$$$$@@@@$$->X",
"  %@@@:$@-$@@@@@@@@$$$@@@@@@@@@@@@:$@$$$@$$@@@@@@@@@@:;X",
"  @@@$@@$$$@@@@@@@@@@@@@@@@@@@@@@$$@@@@@@@@@@@@@@$:@$-OX",
"  =@@@@@@@@@@@@@@@@@@@@@@@@@@@@@@@@@@@@@@@@@@@@@@$-$$-;X",
"  @$-:$-----:-:-:---:----:-:-:-:-:-:-:-::-::-:-:--:-::>X",
"  ;33636e636e636e636e636e636e636e636e636536e636e6e636e;X",
"o,XXXXXXXXXXXXXXXXXXXXXXXXXXXXXXXXXXXXXXXXXXXXXXXXXXXXXX"};
