/* XPM */
static char * image_name[] = {
"56 46 25 1",
" 	c #FFFFFFFFFFFF",
".	c #BEFBB6DABEFB",
"X	c #CF3CC71BCF3C",
"o	c #000000000000",
"O	c #AEBAAEBAB6DA",
"+	c #AEBAAEBAAEBA",
"@	c #BEFBC30BBEFB",
"#	c #B6DAAEBAB6DA",
"$	c #D75CD34CD75C",
"%	c #000008200820",
"&	c #BEFBBAEABEFB",
"*	c #F7DEB2CAAEBA",
"=	c #BEFBC30BCF3C",
"-	c #DF7DBAEA8E38",
";	c #AEBAB2CACF3C",
":	c #AEBAAAAAAEBA",
">	c #96589658AEBA",
",	c #E79DD75C9E79",
"<	c #A699A289A699",
"1	c #A699A699A699",
"2	c #082004100820",
"3	c #AEBAA699AEBA",
"4	c #A6999E79A699",
"5	c #9E799A699E79",
"6	c #965896589658",
"                                                       .",
" .X..X..X..X..X..X..X..X..X..X..X..X..X..X..X..X..X..X.o",
" ..XO.X.+X.OX.OX.OX.OX.OX.OX.OX.OX.OX.OX.OX.OX.OX.OX.OXo",
" .+@@+@O@@+.@O@@+.@O@@+.@+@@+.@O@@+.@+@@+.@O@@+.@+@@.@#o",
" +@O@+.+@+@+.+@.@++$++@.+%%.@+%%.+@+.+@.@++$++@.+.+.++.%",
" .@..X.@@#o%..@+@.%%..@@X.o%+oo.X+@.@%o@@.@..%%@..@@.@.o",
" +&+++@+.+%#%+.+.+%+o+++.+oo.%o+.+@+o#o+@+@+%+o+@+.+.+@o",
" O@*..+.+@X.o&+@+.X#%.+.X.oo.oo.O=-#o.+#.X-#o#+O@OX-&.+o",
" +&+O+.+-O#%#+o%%%o%#+.++%o.+.%o.O;+.oo%ooo+O%X+-+@+;+O%",
" @O.+@O=+.%.o%o.#oX.+.X.%%.=+.Xo%..=##.o+.oo%#%&+.O;O-.o",
" O.O.+X+O.o+o#X+&+o#.++%o#o%&%oOo%@+O+%##+.+o#o:#+.+X+=o",
" .+@X++.+.oo%Xoo+#%X+X.o+oo%#ooo+oO-@.oX+o%#ooo&>,+=.;+o",
" +X+.+=+++.+o+o+#%o+&+oooo.+#+.oooo+OO%o.+o.%+.O=>&+O+.o",
" #+.+.+O+=+.+oo%##+.+.oooooX+&ooooo=+&+#+ooo+=+&OO+.O-+o",
" +&+.+,<.+Ooooo+#+=+#+oooo.+#OO%oooO.+#+=+oooo#+=O.+=+;o",
" ++O+OO=+##o+o+o%.+O++ooo+o%#o%#oo%#+++Ooo+o#%+O1++O+++o",
" +.+=+OO.+=#.+#+oo%%o#.o.ooo.oo%#%#+oo%2%#.+=+.+.+X+.+.o",
" :::+O++++O+:+++++3++o+ooooo+ooooo#%#####++:+#+++++++++o",
" :=O-3#+,4#O,O=:ooooo+.+ooo+.+ooo+#.%oooo+=:#+@+=+,O=:=o",
" +::O++:O+O.<3%oooooooo3+oo3++oo++%ooooooo%:+:::::O::::o",
" O::=:::=:::#%o+oooooooo.+o+#+o+#oooooooo#oo#+:#*+#:#O:o",
" :::O::::::::o+oooo+++ooo+oo+oo+ooo+++oooo#o+:++>3::+::o",
" +::::::::::oo+ooo+3+ooooo+o+o+ooooo+3+ooo+oo+++++::#::o",
" +::::::O:::ooo+oo3+oooooo.ooo+oooooo++oo+ooo:#:::::::+o",
" 53::5+::5++ooo:.oo+.5:+.oo+o+oo++++#52o++ooo5:+:5++:5+o",
" 3+.++#+::+:oooo#++oo2oo++o+o:o::ooo22#3+ooo23+.:#+3+3+o",
" ++5353+3:3+o>%oo+oo+>+oo+o+o5o:oo:53oo+ooo5o+3<:+3::5.o",
" .3::3::::+3%o3+++o+:::+o+o:o:o:o::3++o:::+oo++:3+:3+3+o",
" 5++3::535353ooo3:o53::::535:535:5:::5o53ooo+3+5:+3::53o",
" +3:::::::+#++ooo:oo:::ooooooooooo:::oo:ooo:::3:3:::+3+o",
" 53+:53::::5+3:oooooo525o5o5o>2>%>o52ooooo:::5:::53::53o",
" 35+3.5::353::5:::5:+#5ooooo%oooo2::::::::::+353+.5:+#5o",
" 53+353+:535:53::>:::5:5.5#535.5+3:53::5:5353:+5353+35+o",
" #5+5#53535:322:::o25353o+o+2:o+o::#5oo:3+o2>:335353535o",
" 53535+435.5o53o:2o5o5.o+oo5o+oo:o:52>oo:o+4o5:4+3+4:5#o",
" 5+#5453535o5+oo5ooo+oo+oo>:o>5oo5oo4ooo5oo#5%>3545.554o",
" 53535.4+5#o35#53oooo53ooo:oo2#ooo:5oooo#5:53o+:3534353o",
" 55>4545535o535o>5oooooo255ooo+>ooooooo:5o535%>55455535o",
" 535:53>35:>o52+o5#2oooo::22ooo5:2oooo:5o5o5o5353>353>+o",
" 4>:>45355542>25>5:>5>5>>22>o522>55:>5>535o32544:555545o",
" 555:5553522+2>2:554:2242oo52>oo23o2:454:252+oo5:5>4:552",
" 5454555452>542o22222:5555>2o25455>52222oo25>525555>545o",
" 5:555>55132>5445535>54><5:52:>554:>555>5>:45254553545>2",
" 35455354>55145551>51555455:5554455144515455>4>45554455o",
" 55455555454554465455451514514455546554515>455454>165452",
".o2oo22222222oo2222222222oo222o222222o22222222222222222o"};
