/* XPM */
static char * image_name[] = {
"56 46 36 1",
" 	c #FFFFFFFFFFFF",
".	c #D75CD34CD75C",
"X	c #000000000000",
"o	c #E79DE79DEFBE",
"O	c #514455554924",
"+	c #965896589658",
"@	c #AEBAAAAAAEBA",
"#	c #AEBAA699AEBA",
"$	c #AEBAAEBAAEBA",
"%	c #A699A289A699",
"&	c #69A669A671C6",
"*	c #AEBAAEBAB6DA",
"=	c #B6DAAEBAB6DA",
"-	c #BEFBB6DABEFB",
";	c #9E799A699E79",
":	c #71C675D671C6",
">	c #A6999E79A699",
",	c #28A22CB230C2",
"<	c #8E388A288E38",
"1	c #186120812081",
"2	c #96589658AEBA",
"3	c #79E786179E79",
"4	c #8E38861779E7",
"5	c #618561856185",
"6	c #5144A2894924",
"7	c #CF3CC71BCF3C",
"8	c #208120812081",
"9	c #BEFBC30BBEFB",
"0	c #EFBEF3CEF7DE",
"q	c #492449245144",
"w	c #861779E78617",
"e	c #71C679E78617",
"r	c #AEBA9E795965",
"t	c #FFFFFBEEFFFF",
"y	c #BEFBC30BCF3C",
"u	c #082004100820",
"                                                      .X",
"  ...................................................oOX",
"  +@+#+#+#+#+#+#+#+#+#+#+#+#+#+#+#+#+#+#+#+#+##$%#+@#$&X",
"  @@@*@*@*=*@*@*@*=*@*@*@*=*@*@*@*=*@*@*@*=*=-+;$-*$$=:X",
"  >@@@@#@########$@#@#@###$@@#@###$@@#@###$=$OXX,<@@@-&X",
"  @@@@@@@$$$$$$$$@@@@@@$$@@@@@@$$@@@@@@$$-=$1,2;,,;=$$:X",
"  >@@@=$@=$@=$=-$=@@=$@=$=-=-=-$=$@=$=$=$=$XO==-$,&-$=&X",
"  >@@$$@$$@$--+<:&:&:&:&O<343<35O:&5&<$=OOX<==$-;,:=$=:X",
"  %@@@@@@@@@=&,<&&:&;=-$=<36664*-=$-;&775X17=--$18=-$-&X",
"  >@@@=@@=@$-O$&=;;@&O<-$-$=$=*-$$@$$o.:X,$OOO,X:$=$$$:X",
"  >@=$@@@@$@-X=O@#=#@=@&;O$O$%O$$#@=o7OXO=$$-$97$$$$@=&X",
"  @$$@$7....o:o$o..o..o070ooo.o..7-o$,X; O-$$$@$$$$@$=:X",
"  >$@@@..777777.7777-7-7-7797777-.o$1X<7;X7-$@@@@@@@$-&X",
"  >@@@*7.+;;;;%;;;;$$$$$$$$$$$%%7.&X,$-*5XO$=@@@@@@@@@:X",
"  %@@@@..&&:&:&&:&<##$#$#=<<3==..OX,6<$=5XOO-$@=@@@@@=:X",
"  >@@@#..===-=-=====$=#$==O8,= *OX:&O,;-&XOO=@@@@@@@$-&X",
"  >@@@@7.*$;=;@;=;#%>%>%>$;$- ;,X&#$;+$=5X5q-$$@@@@@@-&X",
"  >@@@*..O&w66666er&666&<<O7 &X1;<<&<43=&X5O$@$#=@@$$=:X",
"  %#$@@7.qo  tttttt      7 o:X,7       7OX5O-$#$$@@@@-5X",
"  @@@@*.7O.             7 7OXO         -OX5O=#$@@@@@@$&X",
"  ;@@@@..q.            70$,X<          =5X5q*$$@@@@@@=&X",
"  @@$%*.7O.          o7o+1X$           *5X5O-$$@-@@@$-:X",
"  >@@@@..q.         ..o<XX.            75X5q-$#$@@@@@-&X",
"  @@@@*.7O.        77.OXO              *OX5O$$#$#$#$$$5X",
"  >@@@$7.q7       -&&OX&               -5X5q9$$#$@$@$-&X",
"  >$@%*..O.      $&<OX;                75X5O=$#$-@@@$$&X",
"  %@@@@.yO.    o- &11=                 *5X5q*$$#$#$@@-:X",
"  >@@@*..O7   .7o:X,7        .  7 oo7o *5X5O-@$$#$-#@-&X",
"  >@@@$7.q.   o7OXOo      7 =. 7  o0   -5X5q*$$@$@#$$=:X",
"  $@@#*..O7   $,X&     7o-o$           y5X5O-$@@@$$#$-&X",
"  >@@@#7.q.  .XX-   777.7 7  =         -5X5q-$#$@@@$#-&u",
"  >@@$*y.O7 &,O+ 7.7o0 o               *5X5O=$$@@@@$$$5X",
"  %@@@$..O.6&+ $-.7                    -5X5q*$$@@@@@@-&X",
"  @@@@*..Oo                            y5X5O-@@@@@@$$-5X",
"  >@@@$7.q.                            -5X5q*$$@@@@@#=&X",
"  %@@@*y.O7                            *5X5O9@@@@@$#$9&X",
"  >#$@$..q.                            75X5q$$@@-=$$#=5X",
" o@$@@*o7+333<636<6<6<6<6<636<636<636<325X5O-@@@$$@$$-&X",
"  %@@@=:XXXXXXXXXXXXXXXXXXXXXXXXXXXXXXXXXXqO=$$@@@@@$=:X",
"  @@@$$$&OOOOOOOOOOOOOOOOOOOOOOOOOOOOOOOOOOO-$@@@@@$$-&X",
"  >@@@@=-<&&:&&&:&&&:&&&:&&&:&&&:&&&:&&&&&:&$#$@@@@@#-&X",
"  >@@@$$$=-=-=-@=-#-=#--#=-@=-#-=#--#=--@-=-#$@@@@@$$=5X",
"  %@@@@@#$$$@@@=@@=@@=@@=$@=@@=@@=@@@$@@@$$$$#$@@@-$$-OX",
"  @$===-===================================-$--=--$$-=&X",
"  &<<3<3<<3<<<<<<<<<<<<<<<<<<<<<<<<<<<<<3<<3<<343<<<3<&X",
" ,XXXXXXXXXXXXXXXXXXXXXXXXXXXXXXXXXXXXXXXXXXXXXXXXXXXXXX"};
