/* XPM */
static char * image_name[] = {
"56 46 29 1",
" 	c #FFFFFBEEFFFF",
".	c #BEFBB6DABEFB",
"X	c #BEFBBAEABEFB",
"o	c #000000000000",
"O	c #C71BBAEAC71B",
"+	c #AEBAA699AEBA",
"@	c #FFFFF3CEFFFF",
"#	c #9E799A699E79",
"$	c #F7DEB2CAAEBA",
"%	c #965896589658",
"&	c #69A68617BEFB",
"*	c #A6999E79A699",
"=	c #38E36DB6A699",
"-	c #082004100820",
";	c #B6DAAEBAB6DA",
":	c #514471C68E38",
">	c #000000001861",
",	c #71C679E78617",
"<	c #A699A699A699",
"1	c #96589658AEBA",
"2	c #DF7DBAEA8E38",
"3	c #A69979E78E38",
"4	c #AEBAB2CACF3C",
"5	c #000000001040",
"6	c #79E79248B6DA",
"7	c #AEBAAEBAB6DA",
"8	c #5965A289D75C",
"9	c #51445555FFFF",
"0	c #861779E78617",
"                                                       .",
" .X..X..X..X..X..X..X..X..X..X..X..X..X..X..X..X..X..X.o",
" .O.O.O.O.O.O.O.O.O.O.O.O.O.O.O.O.O.O.O.O.O.O.O.O.O.O.Xo",
" X...................................................O.o",
" +XO.+O.O+XXO+XXO+XXO+XXO+XXO+XXO+XXO+XXO+XXO+XXO+.X.+.o",
" ...XX....O.......O.......O.......O.......O......X.O.X.o",
" +O+.+X+X @   O#.+.+.+O+..+.+O.O.+.+.+O+  @  X#+O+.+.+Oo",
" ...O.+O. $$$%&&.O.X.O..+#+#+#+..X..O.+. $$$*&=.....O.+o",
" +.+.+.+. $$*&o&.+.+..+##+#+#+##+O.+.+X+ $$*&-&;O+.+.+.o",
" .OX+.X.+ $#&oo&+.O.O#.#O#.#.#.###+.+O.. $#&o-&.+O.X+O.o",
" +.+.+O+. *&ooo&.+..#.#.#.#O%O#;##=+.+.+ *&ooo&+.+.+.+.o",
" .+.O.+.+.&ooo&&+O.#.O.#O;O%O%.*;*;:#.+..&ooo&&.+.+O.X+o",
" +X+.+.+O.ooo&#&..#O%.O;.O;O%O#;*%#*=+O+.ooo&#&+.+.+.+.o",
" .+.+O+.+.o>,#<&+#.;O..O..O;O;O%O##**&.O.o>,#<&.+O+.+O+o",
" +X+.+.+O.o&1$<&%.#O...@.@...O%O%O%#=+=;Xo&1$<&+.+.+X+.o",
" ++.+++.+.&*$$<&#.O;O. . . .O;O#;##****O.&*$$<&.+++.+++o",
" +.+O+.+..#$$$2,1O... . . . ...O#O3#,1,1O#$$$2,4.+O+.+Xo",
" ++++++++ $$$$1&O.O. .     .@O.#;#1#4=1& $$$$1&*+++++++o",
" +X+.+X+O $$$+,&1...O .   . ...O#;##=;,1 $$$+,&4;+.+.+Xo",
" ++++++++ $$*&>&..O. .     . .O%O##***1& $$*&>&++++++++o",
"          $*&5o&1X..O . X . ....#;*#:*=+ $*&5o&        o",
" $$$$$$$$ *&ooo&.#O..X$. . ; .O#.*3**&*& *&ooo&$$$$$$$$o",
" ...O...X &ooo&&#...O . X$. ...O%O1#=+=+@&ooo&&.X.O....o",
" ++++++++Xooo&1&.%O...O.. O.O.O%O%#**&*&.ooo&1&++++++++o",
" ########.oo&#<,1O#.O...O.....#.%O%#=+:>Ooo&#<,11######o",
" &=,&&&=&.o&#$;&O#.#.#XX..X.O%O####*+&&&.o&#$;&&&&,=&&&o",
" -5>5o---O&#$$<,1;#.#.#O#.#.#.#;#3=*=+=>O&#$$2=>o5>5-ooo",
" +.++++++.#$$$;&1*##O#.#.#.#O####*+&&&6-.*$$$;&;+;;;+++o",
" #+#+#+#+ $$$$*,=71%#%#O#.##%###=*=+,8-- $$$$*,17#+#+#+o",
" ++++++++ $$$+&=4,###*%#%####13*;=298=&o $$$*&&++++++++o",
" #+#+#+#+ $$*&5&=4=*,1,1*#31##=*:;,&-&-- $$*&5&1+#+#+#+o",
"@+#+++#++ $*&o>&&0<94:4,1,1,#&<9+&=&&-o& $*&oo&+++#+++#o",
" #+#+#+#+ #&5oo,4=&#:*9*9<,4=*&6&&>&--o& #&ooo&#+#*#+#+o",
"@+#+#*#+# &oo-&=*&&5*&#&#&79,&,&&&&o&o&# &oo-&=+#+#+#+#o",
" #+#+#+#*.ooo&+&4*&&&&&&&&=&8=&&o&o&oo&#.ooo&*&*+#+#+#*-",
"@##*###+*.oo&#.=*##&o&&&&&&&&&&&&o&oo&%+Xoo&#<&+%##+%##o",
" #+#***#*Oo&%$<04%+#&&o&&&&&&&>&o&oo&#+#.o&#$<&#+#*****-",
"@#%*#####.&#$$O=####%&&o&o&5&5&o&oo&####.&#$$$=########o",
" #*#*****O#$$$2,4**#+#&&o&o&o&o&oo##+#**.#$$$<,7***#+#+o",
"@##*#####@$$$$793##1#%1%&ooooooo&#######@$$$$;=1#######o",
" ##%+###*&&&&&,&7###+######&&&<###%#*1##=&&&&&&++31#*##o",
"@#3##13###*#1171#######%####%###%#1###%*****1*1##*#####o",
" #+1###1##+####1##*#3*%##%+###%###*#######+##%####**3*%-",
"@##*3########%######1##########13####13#%##%####13##1##o",
" ##%*##31########31###31#31########3##*######3########%-",
".ooooooo-oooo-o-oo---5o-o5ooooo-o--5-oooooooo5oo--o-o-oo"};
