/* XPM */
static char * image_name[] = {
"56 46 15 1",
" 	c #FFFFFFFFFFFF",
".	c #BEFBBAEABEFB",
"X	c #BEFBC30BBEFB",
"o	c #000000001040",
"O	c #AEBAAAAAAEBA",
"+	c #9E799A699E79",
"@	c #B2CAAEBAB6DA",
"#	c #BEFBC71BD34C",
"$	c #000000000000",
"%	c #79E786179E79",
"&	c #8E388A288E38",
"*	c #75D69248B6DA",
"=	c #71C679E78617",
"-	c #96589658AEBA",
";	c #A6999E79A699",
"                                                       .",
" .X.X.X.X.X.X.X.X.X.X.X.X.X.X.X.X.X.X.X.X.X.X.X.X.X.X.Xo",
" X.X.X.X.X.X.X.X.X.X.X.X.X.X.X.X.X.X.X.X.X.X.X.X.X.X.X.o",
" X..X..X.XO.XX..X.XO.XX..X.XO.XX..X.XO.XX..X.XO.X.X.X..o",
" OXOX+X.OOXXOOXOXO.X.+.XOO.X.OXOX+.X.OXOX+.XOOX.OOXOXOXo",
" X.X.X.XX.X..X...X.XXX.X.XX.X.X..XX.X.X..X.XX..XXX..XX.o",
" O.OXO.OXO.OXOXOX+XO.OXOXO.+XO.OXOX+XO.OXOXO.OXO.OXO.+Xo",
" XXXXXOX.XXX.X@X.XX.XXO@.XXXX.@XX.XX.X@XXX.XXXOXX.X.X.Oo",
" O.+XOXOX+.O.+.OXO.@.O.OXO.@.O.+XO.OXO.O.+XO.OX+.OX+XOXo",
" .X.@.X.OXX.@.X.@X.X+.XXO.X.+.XXOX.X@O.XOX.X+.X.@.X.@.Xo",
" O.O.O@OXO.OX@.OOO.OX@.@.@OOX@.OXO@O.OXOXO.@.@.OXO#O.O.o",
" X@XX.OXOXOX@.@XOX@.X.OXOXOX..O#O.OX.X@.OXOX.X@X@.@.XXOo",
" OX+XO.@.@.O$$$$$$$$$$$$$$$$$$$$$$$$$$$$$$$$.O.@OOXO.@.o",
" X@.OX@.@X@.$XO.O.O.O.@.@.OXO.@.@.O.O.O.O.O.OX@.OXO.@XOo",
" O.@.@.OOOXO$$.@X@XOXOXO.OXOXOXO.OXOXOXOX@X@.OXOXOX+XOXo",
" OOXOOOXO@O.$$$.@O%%&%%%%%%%%%%%%%%%%%%%%%%%@O@.@O@.OOOo",
" OXO.@XOXOXOX$$$XO.%*=-=-=-=-=-=-%*&*=-=-=*%X+X@.O.@XO.o",
" O@O@O@OO@OO$$$$%@OO*%*=*=*=*=*=*=*=-=*=*%%%@O@OO@OO@O@o",
" O.OXOOO.O.O$$$%$O.O.&=*%+=*=-=*=-=*=*=-=*=-.O.OXOX@.O.o",
" @OOO@O@O@OO$%%%%$@OOO*&*=*=*=-=*=-=*&*=*&*=OO@O@O@OO@Oo",
" OO@.OOOXOO@.$%#&oOO.@OO.@@..@#O.@@@.@O..OO@.OOOXOOOXOOo",
" O@OOO@OO@OOO@$X.%$@OOO@@OOO@OOO@OOOO@OO@OOO@O@OOOO@O@Oo",
" OOO@OOO@OO@$$$$..%$OOOO@O@OOOOOOO@OOOOOOO@OOOO@O@OOOOOo",
" O@OOO@OOOOO$$$$oX#&$O@OOO.....X.O..O.OX..O.O@OOOOO@O@Oo",
" +O@O+OO@+@O$..X$o.%%oOO@+@@O+@O@+@O@+@O@+O@O+O@O+@OO+Oo",
" OOOO@O@OOOO$oX..$X.%&$OOOOOXX.X.X.X.X.@.X.XO@OO@OOOO@Oo",
" O@+O+O+@O@+$$$. .$..%%o@OO+O+O+@.OOOO.X.O@+O+@+OO@+O+@o",
" @OO@O@OOOO@.$$$.X.oX#%%$OO@O@XXOXXOXXXOOOXO@OOO@OOO@OOo",
" +O+@+O+@+O+O$$$$X. $X.%%$@+O+O+OOO+O+OXXX.XO+@+O+@+O+@o",
" OO@OO@OO@O@OO$$$$.X.oXX%%$OOO@O@X.@.XX.X.OO@OOO@OO@O@Oo",
" +@+O+O+O+O+@+O$$$$.X$.X.&%$@+O+OO@+.+OO@+O+O+@+O+O+O+Oo",
" @+OO@+@O@+OO@+.$$$ .X$ X#%%$O+@OO+.@@+OOO+@O@+@O@+@O@+o",
" +@+@+O+O+@+@+O+O$$$X.X$.X.%%$@+O+@X.X.+XX.XO+O+O+@+O+@o",
" @+O+O+@+@+O+O+@+O$$$ ..oX#%%&$O+@+O+.+@O@OO+@+@+@+O+@+o",
" +@+@+@+O+@+@+@+O+$$$$X.XoX.%%o;O+O+@X.X.XO+@+O+O+O+@+Oo",
" ++O+++@+++@+++O+++O$$$X .o#%%%$+;+O+@X.XO+@+++@+++@+++o",
" +@+@+O+@+@+O+@+@+@+$$$$.X.oX#&%$+@+O+.X.X.XX+@+@+@+@+@o",
" +++++;++++++++++++++$$$$X $..%%%$++++O+O;O++++++++++++o",
" +@+@+O+@+@+@+@+@+@+@+$$$$.X$X.O%%$+@+O+O+OOO+@+@+@+@+Oo",
" ++++++;+++++++;++++++++O+++@OO+++;+++++O++++++++++++++o",
" +O+@+++@+;+@+;+O;++@+++@+++O+++@+++@+++O+++@+;+@+;+@+;o",
" +++++O++++++++++++;++;+++;++;++++;+++;+++;+++++;++++++o",
" +@++++++OO+O+++;+O+++++;+O++++;++O+;+++;+O+;+++++@+;++o",
" +++;+++++++++;+++++;+;++++;+;+++;+++++++++++++O++;++++o",
" +++++;+++++++++;+;+++++;++++++++++;++;++;+;++++++++;++o",
"Xooooooooooooooooooooooooooooooooooooooooooooooooooooooo"};
