/* XPM */
static char * image_name[] = {
"56 46 31 1",
" 	c #FFFFFFFFFFFF",
".	c #BEFBBAEABEFB",
"X	c #082004100820",
"o	c #BEFBB6DABEFB",
"O	c #A699A699A699",
"+	c #AEBAAAAAAEBA",
"@	c #B6DAAEBAB6DA",
"#	c #000008200820",
"$	c #AEBAAEBAAEBA",
"%	c #9E799A699E79",
"&	c #69A68617BEFB",
"*	c #AEBAA699AEBA",
"=	c #DF7DBAEA8E38",
"-	c #71C679E78617",
";	c #000000001040",
":	c #F7DEB2CAAEBA",
">	c #AEBAAEBAB6DA",
",	c #BEFBC30BBEFB",
"<	c #79E79248B6DA",
"1	c #000000000000",
"2	c #CF3CC71BCF3C",
"3	c #000000001861",
"4	c #A699A289A699",
"5	c #E79DD75C9E79",
"6	c #79E786179E79",
"7	c #A6999E79A699",
"8	c #C71BBAEAC71B",
"9	c #965896589658",
"0	c #AEBAB2CACF3C",
"q	c #861779E78617",
"w	c #96589658AEBA",
"                                                       .",
" ......................................................X",
" ..o.o.o.o.o.o.o.o.o.o.o.o.o.o.o.o.o.o.o.o.o.o.o.o.o.o.X",
" o.o....                                       O......oX",
" +..o@.o XXXO#XXXO#XX+XXXXO#XXXO$X+XXXO#XXXO#XX%.@o.o+.X",
" .o..o.. XX##OXX##OXX#OX#O#OO&###OXX#O#XX#O#XX%X.oo...oX",
" +.@.+.* OOX#XO#X#OXXXO#XXO =-;XXO#XXOXXXO#X#%XXo$.+o+.X",
" ...o.+o #::X#:XXXOXXX=Xo:-O>&#OXOXX#=XX#:XX%XXX......+X",
" +o+.+.+ X#:O##OXX=OXXOXO::,-&@#X=XXOOXXO##OXXXXo+o@o+.X",
" ...+.oo X###=X#OXX$XXX#@<:-&-XXXXX#$XXO#1=XX&&X+...+.oX",
" +o+o+.+ &&%XXOXO#XO#XXXX-:2o&3XXXXXOXX=XO#XXXXXo+o+.*.X",
" .@...+o XXXX;:XXOXO+XXXX3o4XX#OOXX@OXO;1:XXXXXX+.+..o+X",
" +.*.@.+ XXXXXX=#=O=1XXXXXXOOXX=O:X:=OOX=;1%%%%Xo+.*.+.X",
" .+.*.+o %%&%XX;4::;XOOO:::   ::::O:@=X;X#1XXXXX$o*.+o*X",
" +o+.+o$ XXXXXXXO##1;###O::::::o#####X:##XXXXXXXo$.+.+.X",
" ++.+++. %%%X%X##;1XXXX###=O.O#1X##X#X#.XX+%%%%X+++o*++X",
" +.*o+.+ XXXXXXXX=$:=OOX#1#O=##1XO::O#XX:XXXXXXXo+.+.+oX",
" +++++++ XXXX&:XO$::=$==3=#O:#1#O=::=OOXOOXX%%%X+++++++X",
" +.+.+o+ O$OXO#O==###1#;O,X:O##XX;##1Oo#X:XXXXXXo+.*.+oX",
" ++*++++ &-##:#O1##OX#:X#X#:=#;=;#:=#X#X#OXXXXXX+++++++X",
" +++.+++ &;XXO#:OO=>XXX1XO#:O#1X11#;XOOXXO#XOOOXo+++.*+X",
" +++*+++ XXX1=$:5O:OOX#OO#,:$X#O+X#O:=::O=O####X$++*+++X",
" +++++++ OO&XO1:@=$=#$XX=$O:=#X$#@XO5:@O6o$#XXXX+++++++X",
" +++++++ X#XX=#OO=O:++@$=O= O:O#X1=:::.6$:XOO=OX+++++++X",
" %++*%++ XXXXXO=->O:O$+@;:; ::#:O::::::-.O#XXX1X+%+*+%*X",
" +++++++ +#OXX##@+=O:=$$OOOX#$5::::::$@;#X#;XXXX+++++++X",
" ++%+%+% OO=OO=X-oO=::$+#X##XXX::,:5:$OXO=O77%%X+++%+%+X",
" +++++++ #111X;XXOO=O:o+#O=OX:::5:O:$>-;-3-;-X&X++*+++*X",
" %+%*%+% XX;11XXX-8O@O$#O=X1#O#::$:o%%&3;X3X3XXX*%+%+%+X",
" ++++++$ OO=>=.-X;O=O=4=1;1;###::OO90-#OOOOOO%%X++++++*X",
" %+%+%+% ###XXX3XX-oOOX#X;XXX#####OO%-3<X##XX#XX*%+%+%+X",
" +%+++%+ &X&3-X&XX;O=XO#OO=XX:::=$$%&3;XX3-;-X&X++%+++%X",
" %+%*%+% XXXX3XXXXXXO=O=#=;1X=$=>+++&XXOOX;X3XXX+%+%*%+X",
" +%+%+%$ O=OOOOOOXX;XO=O*X1XX#$O@++&XX&X-=$=$OOX%+%+%+%X",
" %+%+%+% 11#XX#XX#XXXXO:::O#XXXO$@-3XXX;3;XX#X##*%+%+%*X",
" %%+%%%+ -3-3q;-X&XXX=X5:5OXXXX,-&&XX&X&X&3-3-X&%%%+%%%X",
" %+%+%+% 3;3X3;3XXXXX>OXO=;##XO#@X;OXXXXO#X3X;XX+%+%+%*X",
" %%%%%%% O+@O@&&&&XXXXOOXXXXXX#O#OXOXXXX#XXXXXXX%%%%%%%X",
" %+%+%+% ###X#XXXXXXXXO=1O&&&<-<OXO#=XXXXXXXXXXX+%+%+%*X",
" %%%%%%% ,O4=$O$O$O*X##O;-O=O :8-XXXX1:OXXO$O$O*%%%%%%%X",
" %%%+%%% X#XXXXXXXX#X-;O#&;-;O&&&3XXO#O=1XXXXXX#+%%%+%%X",
" %%%%%%% XXXXXXXX#XX3&-=X@&&&&&qOXX#:#O>1X#XX#XX%%%%%%%X",
" %+%%%%% +O$=OOO=OOO@@3o#-o=@ :8-;XXO#:oXXO:O:O:O%+%%%%X",
" %%%%%%%%OO%%%%O%OO$%%O%7>%%%4%%>7%OO4O%%O%OOOO%%%%%%%%X",
" %%%%%%%%9%%%%%%%%9%%%%%%w%%%%%%%%%%%%%%%%%9%%%%%%%%%%%X",
"oXXXXXXXXXXXXXXXXXXXXXXXXXXXXXXXXXXXXXXXXXX#XXXXXXXXXXXX"};
