/* XPM */
static char * image_name[] = {
"56 46 35 1",
" 	c #FFFFFBEEFFFF",
".	c #BEFBB6DABEFB",
"X	c #BEFBBAEABEFB",
"o	c #082004100820",
"O	c #C71BBAEAC71B",
"+	c #AEBAA699AEBA",
"@	c #A699A699A699",
"#	c #F7DEB2CAAEBA",
"$	c #000008200820",
"%	c #AEBAAAAAAEBA",
"&	c #DF7DBAEA8E38",
"*	c #B6DAAEBAB6DA",
"=	c #9E799A699E79",
"-	c #000000001040",
";	c #EFBEF3CEF7DE",
":	c #FFFFFFFFFFFF",
">	c #965896589658",
",	c #AEBAAEBAAEBA",
"<	c #A6999E79A699",
"1	c #71C679E78617",
"2	c #BEFBC30BCF3C",
"3	c #000000001861",
"4	c #69A68617BEFB",
"5	c #AEBAAEBAB6DA",
"6	c #514471C68E38",
"7	c #38E36DB6A699",
"8	c #FFFFF3CEFFFF",
"9	c #51445555FFFF",
"0	c #FFFFFFFFD75C",
"q	c #CF3CC71BCF3C",
"w	c #A69979E78E38",
"e	c #5965A289D75C",
"r	c #96589658AEBA",
"t	c #AEBAB2CACF3C",
"y	c #79E79248B6DA",
"                                                       .",
" .X..X..X..X..X..X..X..X..X..X..X..X..X..X..X..X..X..X.o",
" .O.O.O.O.O.O.O.O.O.O.O.O.O.O.O.O.O.O.O.O.O.O.O.O.O.O..o",
" ....................................................O.o",
" +O.O                     .O.+O.O+.O.+O.O+.O.+O.O+...+.o",
" .... +oo@oo@oooooooooo#ooo.O.......O.......O......O.O.o",
" +.+. o#oo@$o@ooo@oo@o#oo@o+.+.+O+.+.+.+O+.+.+.+O+.+.+.o",
" ..OX o$@oo@o%oo$@o@$@oo@oo..O+...O..O+...O..O+....O..+o",
" %.+. ooo&o+oo@%o@o*o%o#$oo==+.+O+.+.+.+O+.+.+.+O+.+.+Oo",
" .O.+ @@$@-o@o@&@o&o@#@oo+o==...+...+.O.+...+.O.+.O.+..o",
" +.+. o=oo#o@&#;:###@#$o=oo==+O+.+O+.+.+.+O+.+.+.+.+O+.o",
" .+.. ooooooo-o@@o-ooXo@@oo==.+.+.+.O.+O+.+..O+.+.+...+o",
" +O+. oo&o@#&@&@oo&#@o&o&oo==+.+O+.+.+.+.+O+.+.+O+.+O+.o",
" .+.+ @-#@$@o-o#o@o@oo@#o+o=>O+.+.+.+O+.+.+.+O+.+.+.+.+o",
" +.+. oo@#&&-@o#-@oo&#@o@oo==+.+O+.+.+.+O+.+.+.+O+.+.+.o",
" ++.+ oo@&=#%,@ #oo###<oooo==++.+++O+++.+++O+++.+++O+++o",
" +X+. +@oo@##*@o@&##@%-&@=o==+O+.+.+.+O+.+.+.+O+.+.+.+.o",
" ++++ oooo@*#*@&###O#1oo-oo==<+++++++++++21++++++++++++o",
" +.+. @%&-o@&=o-o#@#*3@%@@o==+O+.+.+.+.+4#45.+.+.+O+.+Oo",
" ++++:ooooo&o-&o###51oooooo==<+++++++++4#@4++++++++++++o",
" +++. @@&@oo@&o-$#.<3o@&@=o==+++.+++O+4#@15*.+++.+++.++o",
" +++%:oo-oo$@<#o3*1oooooooo==+++++++51#@*4*++++++++++++o",
" ++++ o-ooooo&o-oo3oo*ooooo==+++++++4#*@$%+++++++++++++o",
" ++++ .*****-31@#*1oo@o+*+o==++++444#*@-14o++++++++++++o",
" =+++ oooooo@o*13443o+ooooo===+64 4#@@$&;*.-4=+++=+++=+o",
" ++++ =====@@o44#44oo@o===o==+4O o#@&o@ @ @.=o+++++++++o",
" ++=+=oooooooooo-oooooooooo=+7O o#@@o@:@#@:@X=o=+++=+=+o",
" +++++++===@<=@<=@>======. 8   o#@Xo@:&+&@@:@.=o+++++++o",
" =+=+=++=>=====>=======6   ..@o#@@o& @#@&=1*:@.=o=+=+=+o",
" ++++++<=====>=====>==4  ==41o#@&o@ @8@&91*:*6=.=o+++++o",
" =+=+=+=++<<<++<++++++. =..23#@@o&8@8@ @0*8@14-1O=o=+=+o",
"8+=+++=++<<++<<++<=+*78 4O.o#@&o@8@8@:@ @:@ 4343@Oo7++=o",
" =+=+=+=+=+=+<<<+<+=+<  +4o =<o@:@8@0@ @ @ @ 144 .4o*=+o",
"8+=<=+=<<<=+=+=+=<=+==  ..=441@0@.@.@8@8@#@@* * #.<o=+=o",
" =+=+=+=+=+=+=<=+<<<+=.  . @ *8@X1141q @#,&#=< . =44+=+o",
"8==+=><<===+=w<+=><<===.  ::.:@ &9e441@q@##@@ . =4o====o",
" =+=+=<<<<<<<<+>+<<=+++=4.    :# #<144 @.@@@ . =4o=>+=+o",
"8==rw===<w=====<w===+<7=<41=.X    2 2 . .:. ..=4o>=====o",
" =+=+<<=+=+=<=<=+=++=6OO13tr==1r=X....*.>.@>=13o==+=<=<o",
"8=============<==+<@9O443o===r<<====444441-1-44>=======o",
" ==>+wr=<<wr+=wr+63y>y4-o=>=+===+==r+>==*r<r*=>r+==w+<=o",
"8rw=<=<><><=====<*=4oo$7==========>=======r=======r=r>=o",
" =+r=>=wr=<==wr===++++<<<=<<wr=>==<=======+===>==w+====o",
"8======<====<==================rw=====>==>==>=rw<===>==o",
" ==>=wr=>=wr===wr=>=====>====>==<==wr=wr==wr<=======<wro",
".ooo-oooo-ooooooooooooooooooooooooo-oooooooooooooooo-ooo"};
