/* XPM */
static char * image_name[] = {
"56 46 32 1",
" 	c #FFFFFBEEFFFF",
".	c #BEFBB6DABEFB",
"X	c #BEFBBAEABEFB",
"o	c #000000000000",
"O	c #C71BBAEAC71B",
"+	c #A699A699A699",
"@	c #AEBAA699AEBA",
"#	c #DF7DBAEA8E38",
"$	c #9E799A699E79",
"%	c #71C679E78617",
"&	c #69A68617BEFB",
"*	c #082004100820",
"=	c #A6999E79A699",
"-	c #AEBAAEBAB6DA",
";	c #514471C68E38",
":	c #000000001040",
">	c #38E36DB6A699",
",	c #000000001861",
"<	c #B6DAAEBAB6DA",
"1	c #79E79248B6DA",
"2	c #96589658AEBA",
"3	c #AEBAB2CACF3C",
"4	c #A699A289A699",
"5	c #965896589658",
"6	c #F7DEB2CAAEBA",
"7	c #FFFFF3CEFFFF",
"8	c #AEBAAAAAAEBA",
"9	c #000008200820",
"0	c #BEFBC30BCF3C",
"q	c #AEBAAEBAAEBA",
"w	c #208120812081",
"e	c #A69979E78E38",
"                                                       .",
" .X..X..X..X..X..X..X..X..X..X..X..X..X..X..X..X..X..X.o",
" .O.O.O.O.O.O.O.O.O.O.O.O.O.O.O.O.O.O.O.O.O.O.O.O.O.O.Xo",
" X...............+++++++.............................O.o",
" @XO.@O.O@X.O@+#$$%&**%&=++XO@X.O@XO.@O.O@X.O@XO.@X.X@.o",
" ....X..X..X+=-;%&:**:::&&%#+..X.....X.X...X......O.O..o",
" @O@.@.@.@O+%&>&,,ooooooo:&;&<O@.@O@.@.@.@O@.@O@.@.@.@Oo",
" ...O.@OX+<&&1,&,ooo&oooo:,&:%++O....O@.O...O.@.O.O...@o",
" @X@.@.@++%&:,&&&o&ooooo&oo:::*++<O@.@.@.@O@.@.@.@.@O@.o",
" .O.@.O.X%2&&&&*oooooo.ooooooooo#...@..O@...@.O.@...@X.o",
" @.@.@.+%3*%&*o&ooo&&oo&ooooo&ooo+X@O@.@.@O@.@.@O@.@.@.o",
" .@..O<%&>,&,o&&&oo&oooooooooooo:%+O..@.@.@.O.@.@.@O.O@o",
" @O@.@+%&&&&&&o&&oooo&o&ooooooooo:<+O@O@.@.@.@.@.@.@.@.o",
" .@.@<&,,,*&&&&ooooooooooooo&&oo&:%+@.@.@O@.@O@.@O@.@.@o",
" @X@O+%&&&&*&&&&oo&&&oooo&oo&&&&&o:+X@.@.@.@.@.@O@.@O@.o",
" @@..<&&&&&o&oo&&&&&&&&oooooo&&ooo*$.@@O@@@O@@@.@@@.@@@o",
" @.@+$&&&&&&.&o&&&o&o&o&&ooo&&&o&oo&+@.@.@.@.@O@.@.@.@&o",
" @@4#5&&2&&&&o&&o&&&o&&o&ooo&oo&&&:%#@@@@@@@@@@@@@@@@&6o",
" @O=+=;&2;2;-25o$@o@@o@@&ooo&&&&&&o&-@.@O@.@.@.@.@.@&66*",
" @@@+$@$2-=2$$$&$@.o.o.oooo@.&-&&&,%+@@@@@@@@@@@@@@&66+o",
" @@@#$=.@@..O<@&@@@@@o&&ooo@&-@&&&:&<@<@.@@@.@@@O@&66#%,",
" @@@=@..O.7O... .....@.@oo&&&&&&5$,%+=@@@@@@@@@@@&66O>,:",
" @@<+@O...@.@@&@@&@&&&*ooo$5&&&&&$o&<<@@@@@@@@@@>66#;,&o",
" @@@@+O>&6&&&&&&&&&&&&&ooo&&2&2;2%:+.@@@@@@@@@@&66@&,&<o",
" $@<@#.OO..&&@&&&&&&&&&ooo&&&&&&&&,++=@@@$@@@$>66#%,&$@o",
" @@@=-6O.&6.6 3..3.3.3@ooo@5&&-23*&+<@@@@@@@<&66<&,&@@@o",
" @@=@=+.666X.6.66@6...&oo@.-4@4@%:=.@$@$@@@$>666;,&2@$@o",
" @@@=++6O6666666.6X6X.&oo.@.@2@2:$+@@@@@@@@&668&,&@@@@@o",
" $@$@$=+6 666 66 66 6 oo6 .6@..o$$@$<$=$@$>666&9&$@$@$@o",
"7@@=<@<$#666666  6  6 oo&    &&$@@@=@@@@@& 60%:&@@@@@@@o",
" $@====$@=      6  6X.ooooo$ o@$@$@=@$@$;66q%,&$8$@$@$@o",
"7@$@=@=@@+&.      &&ooooooo$.&$@@@$@=@$<& +&,&$@@@$@@@$o",
" $@$@$@==$+%&66X.&oooooooo@$.&@$@$=$@$**&$o:&@@$@$=$@$@o",
"7@$@$=$<$@=<-&6oooooooooo@$$$$$=$@$@$o&$*,%@$@$@$@==$@$o",
" $@$@$@$==@$++ o&ooooo&o&$@$>&@$@$@$*&6&oo<$@$@$=$===$@o",
"7$$=$$$=$$$@$$.&.&oo*+.o$$$$w>$@$$$o&.&oo&$@$$$@$$$@$$$o",
" $@$@$@$@$@$@$X%2O&o&$X&&$=Oo&<$@$>*=&ooo$@$=$=$@$@$@$=*",
"7$$$=e$$$$$$$$$=2$&o$$ *>$$ &;$$$=*&$ooo$$$$$$$$$$$$$$$o",
" $=$@$@$=$=$@$@$@$.o$$.&&=@$<=<$e>*&*oo$@$=$@$@$===$===*",
"7$$$$2=e=$$$$$2$$.&*>$$O$$$$2$2=&*&*o&$$$$$$2e$$2e$$$$$o",
" $$$=$$$@e$$=$$$=7o*&=$$=$$$=$;,***&@$$$=$$$@=2$@=2$@$$o",
"7$=e$$$$2$$$=e$$$6&9>$$$$$$$$===$$$$$$2$$2e$$$$$$$$e$$$o",
" $=2$$e=5$@$$2$$$$O&&=$$$e@$$$$$$$@$$5$$$$@2$e$$e2@=2$$o",
"7$$$$$$$$$2e$$$$$$$&$$$$$=2e$2e$$$$$$$5=e$$$$$2$$$$$$$$o",
" $$$$$$e2$$$$e$$$$2$$$e2$$$2$$$2$e2$e$$2$$$e2$$$$$$e$$$o",
".oooo****oo*****oo*oo**ooooo*oooo*o***ooo***o*oooo**oooo"};
