/* XPM */
static char * image_name[] = {
"56 46 20 1",
" 	c #FFFFFFFFFFFF",
".	c #BEFBBAEABEFB",
"X	c #000000001040",
"o	c #AEBAAAAAAEBA",
"O	c #BEFBC71BD34C",
"+	c #B2CAAEBAB6DA",
"@	c #000000000000",
"#	c #EFBEBEFBC71B",
"$	c #FFFFFFFFD75C",
"%	c #A6999E79A699",
"&	c #DF7DAEBA9A69",
"*	c #FFFFE79DBEFB",
"=	c #186124921C71",
"-	c #8E388A288E38",
";	c #B6DA492430C2",
":	c #71C679E78617",
">	c #9E799A699E79",
",	c #96589658AEBA",
"<	c #AAAA79E78E38",
"1	c #30C2DB6C30C2",
"                                                       .",
" ......................................................X",
" ......................................................X",
" ......................................................X",
" o.O.+..O+.O.+..O+.O.+..O+.O.+..O+.O.+..O+.O.+..O+.O.o.X",
" ....................................................O.X",
" o.+.+.o.o.+.o.+.o.+.o.+.o.+.o.+.o.+.o.+.o.+.o.+.o.o.o.X",
" .....+.......o.@@@@@@@@@@@@@@@@@X....o.......+.......oX",
" o.o.o.+.+.o#o.o@$$$$$$$$$$$$$$$$@@+.+.o.+.o.+.o.+.+.o.X",
" ...o...o...%...@$$@@@$@$$$$$$$$$@&@o...++#.o...%#..+..X",
" o.+.o#%.o.+.o.+@$$@@@$@$$$$$$$$$@&&@+.o.o.%.o.+.%.o.+.X",
" .+...%.o.o...+.@$$@@@$@$$$$$$$$$@&&&@%#o.+..#o.o.o...oX",
" o.o.+.o.+.o.+.o@$$@@@$@$$$$$$$$$@&&&&@o.o.o.%.o.+.o.+.X",
" .o.o.o.o.+.o.o.@$$@@@$@$$$$$$$$$@&*&&&@o.o.+.o.o.o.o.oX",
" o.o.+.o.o.o.o.+@$$@@@$@$$$$$$$$$@@@=@@@-o.o.+.o.+.o.o.X",
" oo.+%+.ooo.ooo.@$$@@@$@$$$$$$$$$$&&&&&X;oo.ooo.ooo.+ooX",
" o.o.o.o.+#%.+.o@$$@@@$@$$$$$$$$$$&&&&&=-+.o.o.+.o.o.o.X",
" ooooooooo%ooooo@$$@@@$@$$$$$$$$$$$$*$$@:+oooo+ooooooooX",
" o.o.o.+.o.+.o.o@$$@@@$@$$$$$$$$$$$$$$$@-o.+.o.%.+.o.o.X",
" ooooooo%o+%oooo@$$@@@@@$$$$$$$$$$$$$$$X;ooo%ooo+%oooo+X",
" ooo#%+%#%o+.ooo@$$@$$$@$$$$$$$$$$$$$$$@>++o.+oo#%+o.ooX",
" ooo%oo+%+oooooo@$$@$$$@$$$$$$$$$$$$$$$@:o+%+%oo%o+%o+oX",
" ooo+ooooooooooo@$$@$$$@$$$$$$$$$$$$$$$@-ooooo+o+%+ooooX",
" oooo%+ooooooooo@$$@$$$@$$$$$$$$$$$$$$$@-oooo+%ooooooooX",
" >ooo,ooo,ooo%oo@$$@$$$@$$$$$$$$$$$$$$$@<>ooo%%+%%%+o%oX",
" ooooooooo%ooooo@$$$@@@$$$$$$$$$$$$$$$$@:oooo%o+oo+%oooX",
" oo%o%%%o+o%o,o%@$$@@@@@$$$$$$$$$$$$$$$X<oo%o%o<+oo%o%%X",
" ooo%oo+%oo%oooo@$$@@@@@$$$$$$$$$$$$$$$X;oooooo+ooo%oooX",
" >o%o%%%o%o%%%o>@$$@@@@@@$$$$$$$$$$$$$$X>%o%o%o%%%%%o%oX",
" oo%ooo%oo%ooooo@$$@@@@@@$$$$$$$$$$$$$$X1oo%oo%ooo+ooooX",
" >o%o%o%o%o%o%%%@$$@@@@$@$$$$@$X@@X@@X$X<%o%o%o%%%%%o>oX",
" %%o%%%o%%%%oo>o@$$@@@@@@$$$$$$$@$@@@@$@<o%o%%>oo%>ooo%X",
" >o%o%%%o%%>o%o>@$$$@@$@$$$$$$@@@@@@@@$@<>%%o%%%o%o>%>oX",
" o>%%%>%%%%o>%>o@$$$@@@@$$$$@@@@@@@@@@$X1o>o>%%%>o>o%o>X",
" >o>o%o>o>o>o%%%@$$$$@@@$$$$$$@@@@@@@@$X<%o%o>o%o>%%%>oX",
" >%%>>>o%<%o>>>o@$$$$$$@@$$@@@@@@@@@@@$@<%%%>%>o>%>o>>%X",
" >o%%%%>o,o>%%%>@$$$$$$$$$$$$$$$$$$$$$$@:-o>o>%%%%%%o>oX",
" >>>%>>%>%>>%>%>@@@@@@@@@@@@@@@@@@@@@@@@->%>,<%>%<>>>%>X",
" >%>%%%%%>%%%>%%o<1<:--<1<<1<<1<<1<<1<<1<>o>o%%%%,o>%%%X",
" >%>>>,<>>%<>%>>>%%>>>>%<>%%,<%,<%,%<,%<%>%>>%>>>>>>%>>X",
" >><o%>%o>>,o>>%%>%>o>>>+%-%%>%%+%>>+%%%%%<,%><,o%<,o>%X",
" >>,>>>>,<>%>,<>>%>%>>%>>>%>%>%>>>>%>>%>%-%>>>,%>>%%>>>X",
" >o%><,%>%o>>>>%<,%><%>>%>%>>>>%>%%>>><,>%%>%>%><,%>><,X",
" %>>,%>>>>>,<%>>,>%>,>>,<>>,<>>,<>>>>>>>>>>>,<>>%>>>>%>X",
" >><>>><,>%>>,>>%>>>%>>%>,%>>,>>>,><,>>%<,>%>%>>>%><,>>X",
".XXXXXXXXXXXXXXXXXXXXXXXXXXXXXXXXXXXXXXXXXXXXXXXXXXXXXXX"};
