/* XPM */
static char * image_name[] = {
"56 46 18 1",
" 	c #FFFFFFFFFFFF",
".	c #BEFBBAEABEFB",
"X	c #000000001040",
"o	c #BEFBC30BBEFB",
"O	c #AEBAAAAAAEBA",
"+	c #BEFBC71BD34C",
"@	c #B2CAAEBAB6DA",
"#	c #FFFF14514103",
"$	c #000000000000",
"%	c #79E786179E79",
"&	c #B6DA492430C2",
"*	c #71C679E78617",
"=	c #FFFFFFFF0000",
"-	c #A6999E79A699",
";	c #9E799A699E79",
":	c #75D69248B6DA",
">	c #96589658AEBA",
",	c #8E388A288E38",
"                                                       .",
" ......................................................X",
" ......................................................X",
" .o..o..o..o..o..o..o..o..o..o..o..o..o..o..o..o..o..o.X",
" O...O...O...O...O...O...O...O...O...O...O...O...O...O.X",
" .....o......o.+..o......o.+..o....o..o...+......+..o..X",
" O.@.O.@.OoO.O.O.@.@.OoO.O.O.@.@.O.@.@.@oO.Oo@oO.O.@.@.X",
" o..o.O.o.....Oo.o..o.O..o...oO.......O....o..O..o.o..OX",
" O.O.O.@.O.@oO.O.O.O.O.@.O.OoO.OoO.OoO.O.O.O.O.O.O.O.O.X",
" ...@...O.o.O...O.o.O..oO...O...O...O...O...Oo..Oo..Oo.X",
" O.O.O.OoO.O.@.O.O.O.@.O.O.O.@.O.@o##O.@oO.O.@.O.@.O.OoX",
" .@...@.O.O..oO.@.O.o.O.@.Oo..OoO.####O.O.Oo..O.O.O.o.OX",
" O.O.O.O.@.O.O.O.O.O.OoO.O.@.OoO.$%##&.O.O.@.OoO.OoO.O.X",
" oO.OoOoO.O.O.OoOo@.O.O.OoO.O.O.$%%*&.O.O.O.O.O.@.O.O.OX",
" O.O.O.O.OoO.@.O.O.O.@.O.O.OoO.$=%%X.-.O.O.O.O.OoO.@.OoX",
" OO.@O@.OO@.OOO.OOO.OOO.OO@.OO$==&$.OO@.OO@.O@O.OOO.OOOX",
" OoO.O.OoO.O.O.Oo@.O.O.O.OoO.$==&$oO.@.O.@.O.O.O.@oOoO.X",
" O@OOOOOOOOOO@O@OOOO@OO@O@OO$==&$OO@O@OOOOOO@O@OOOOOO@OX",
" O.Oo@oO.@oO.O.O.O.O.@.OoO.$==&$oOoO.O.O.@.OoOoO.O.O.OoX",
" OOOOOOOOOOOO@O@OO@O@OOOOO$==&$@OOOOOOO@OO@OOOOOO@OO@OOX",
" O@OoOO@oOOOoOOOoOOO.@O@o$==&$@O.OOOo@OOoOOO.OOOoOOOoOOX",
" OOOO@OOOO@OOO@OOOO@OOOO$==&$OO@O@O@OOOOOOO@O@OO@OOOOOOX",
" OOOOOOOOOOO@OOO@O@OO@O$==&$OOOOO@OOOOO@O@OO@OO@OO@OO@OX",
" O@O@OO@O@O@OO@OO@OOOO$==&$OOOO@OO@O@O@OOO@OO@OO@OO@OOOX",
" ;OOO-OOO;OO@;OO@;O@O$==&$O@O-OOO;OOO-OO@;OOO;O@O;@OO-OX",
" @O@OO@O@O@OOO@OOOOO$==&$O@OOOO@O@O@OOOOOOO@O@OOOOOO@OOX",
" OO-O;O;@OO;@;O;@O@$==&$OOO;@;O;@OO;@;@;@OO;O;@;@OO;O-OX",
" @OOOO@OOO@OOOO@OO$==&$O@O@OO@O@OO@OOOOOOO@O@OOOOOO@OOOX",
" ;O-O-O;@;O;@;@;O$==&$O;O;@;O;O;@;@;@;@;@;O;O-O-O-O;@;@X",
" O@OOOOOOO@OOOO@$==&$O@O@OO@O@O@OOOOOOOOOOO@OOOOOO@OOOOX",
" ;O;@;@;@;O;@;O$==&$O;O;@;O;O;O;@;@;@;@;@;@;O-O;@;O;@;@X",
" O;@OO;OOO-OO@$==&$OO@;OO@;@O@;@OO;O@O;OOO;@OO;OOO-OOO;X",
" ;O;@;@;@;O;O;$=&$%%%%%%%%%%%%%%%%%%%%@;@;O;@;@;@;O;@;OX",
" O;@;O;O;O-O-$$$$%%%%%:%>%%%,%:%>%%%,%%%-O-O;@;O;O-O;@;X",
" ;O-O;@;@;O;O$$%%%>%;%%%*:%;%:*;*:%:*:,:%%O;@;O-O;O;@;OX",
" ;;O-;;@;;;@;;;@;;>O;;-O-;>O;;>O>;;O--;O;;-O;-;O;-;@;;;X",
" ;O;O;@;O-O;@;O;OOO;O;O;O;O;O;O;O;O;O;O;O;O;O;O-O;O;@;OX",
" ;-;-;;-;;-;;;O;;;;;;;;-;-;;;-;;;-;-;-;;-;;-;-;;;;-;;-;X",
" ;O;@;O;@;O;@;O;O;@;O-O;@;O-O;O-O;O;O;O;O-O;O;O-O;@;O;OX",
" ;-;;;-;;;-;;;;;-;;-;;;;;;;;;-;;;;;-;;;-;;-;;-;;;;;;;-;X",
" ;;;O-;;@;;;@;-;O;;;O-;OO;-;O;;-O-;;O-;;O;;;@;;-O-;-O;;X",
" ;;O;;;;;;-;;;;;;-;-;;;;;;;;;-;;;;;;;;;-;-;-;;;;;;;;;-;X",
" ;O;;;-;;;O;-;-;;;O;;-;;;-O-;;;-;-O-;-;;;;@;;-;-;-@;;;;X",
" -;;-;;-;;O;;;;;-;;-;;;-;;;;;-;;;;;;;;;;-;;;;;;;;;;;;O;X",
" ;;;;;;;;;;;-;-;;;-;;-;;;-;;-;;-;-;-;-;;;;-;O;;O;;-;;;;X",
".XXXXXXXXXXXXXXXXXXXXXXXXXXXXXXXXXXXXXXXXXXXXXXXXXXXXXXX"};
