/* XPM */
static char * image_name[] = {
"56 46 41 1",
" 	c #FFFFFFFFFFFF",
".	c #D75CD34CD75C",
"X	c #000000000000",
"o	c #D75CDF7DE79D",
"O	c #E79DE79DEFBE",
"+	c #514455554924",
"@	c #208120812081",
"#	c #9E799A699E79",
"$	c #AEBAAAAAAEBA",
"%	c #AEBAAEBAAEBA",
"&	c #AEBAAEBAB6DA",
"*	c #B6DAAEBAB6DA",
"=	c #618561856185",
"-	c #BEFBB6DABEFB",
";	c #A699A289A699",
":	c #71C675D671C6",
">	c #000008200820",
",	c #CF3CC71BCF3C",
"<	c #8E38861779E7",
"1	c #186120812081",
"2	c #5965514428A2",
"3	c #30C234D330C2",
"4	c #082004100820",
"5	c #8E388A288E38",
"6	c #000000001040",
"7	c #AEBA61856185",
"8	c #A69979E78E38",
"9	c #BEFBBAEABEFB",
"0	c #AEBAB2CACF3C",
"q	c #BEFBC30BBEFB",
"w	c #A6999E79A699",
"e	c #AEBAA699AEBA",
"r	c #69A669A671C6",
"t	c #79E786179E79",
"y	c #96589658AEBA",
"u	c #C71BBAEAC71B",
"i	c #AEBA9E795965",
"p	c #71C679E78617",
"a	c #965896589658",
"s	c #5144A2894924",
"d	c #000000001861",
"                                                      .X",
"  .o.o.o.o.o.o.o.o.o.o.o.o.o.o.o.o.o.o.o.o.o.o.o.o.o.O+@",
"  #$$$$$#$$$$$#$$$$$#$$$$$#$$$$$#$$$$$#$$$$$#$$$$$$%&*=X",
"  $$&$&$&$$$&$$$$$&$&$$$&$$$$$&$&$$$&$$$$$&$&$$$&$$$%-+X",
"  ;$$$$$$$&$$$$$$&$$$&$$$$$$$&$$$&$$$$$$$&$$$$&$$$$$$&:X",
"  $$$&$$&$$$&$$$$$$&$$$$&$$$$$&$$$$&$$$$$$$$&$$$$&$$%-:X",
"  $$$$$$$$$$$$$$$&$$$$$&$$$$$$$$$$$$$&$$&$$$$$$$$$$$$&+X",
"  #$$$$$$$$$$&$&$$$$$$$$$$$&$$$$&$$&$$$&$$$$$$$&$$$$%-=X",
"  $$$$&$$$$$$$$$$$&$$$$$$&$$$$$$$$$$$$$$$$$$$&$$$$&$$&=>",
"  $$$-$$&$$$&$$$&$$$%---,-,-,-*-$$$$$$&$$$$&$$$$$$$$%-:X",
"  $$$$$$$$-*--*&$$$-$<1XXX>XXXX##-$&$$-*--*--*-*&$$$%*=X",
"  #$$$$&$%=+++2-$%*#3XXXX>XXXX4>X<-$%-=++++++++:-$$$%-+X",
"  $$$$$$$->>XX>-%*#XXXXX>X4X>XXXXX:*%*@>XXXXXXX3%%&$%%:X",
"  $$$$$%*-34XXX.&5XXXXX4X%,-,4@XXXX+%,@XXXXXXXX+-%$$%-:X",
"  $$$&$$%%:XXXX,%+XX>X3;,$$%--%3XXXX:,@>XXX>XX3.%$$$$&+6",
"  $$$$$%$%,@XXX.#XXXX3$-$$$$%%*$+>X6>%3X>X>XXX3&$$$$%-:X",
"  #$$*%$$$,>X4X@&>X>X:*$$$$$$$%-7>>XX8@XX4XX>X39*%$$%*=X",
"  $$%-$$$%,4XXXX:X4X+,$$$$$$$$%%0:XXXXX4XXX4XX:*%$%*;q=X",
"  #$$%$&$$-5XXXXXXXX+-%$$$$$$$$%-:XXXXXXX4XXX3,%%%$%%*:>",
"  w$&$$$$$$,XXX4XX4X+*$$$&$$$$%-%:XXX4XX4XX6X@-%$$$$%%:X",
"  $$$$$$$$%-3XXXX4XXX+,%$$$$%$$&:XXX4XX4XX4X@,-%$$$$%-:X",
"  $$$&$$&$%$,X4X4XXXX3#*$$$&e%-*3X4XX6XXXXXX:-%$$$$$%%:X",
"  $$$$*%$$$$-#XXXX4X>XX#,-%-*,%XXXXX4X4X4XX$-%%$$$*$$-+X",
"  #$%*%$$$$%%-,XX4XXX>XXX:##%XXXXXX4XXXXXX@*%e%$$$$$%*:X",
"  $$$%$$&$$$$%-3XXX4XX4XXXXXXXXX>X>XX4X4X+,&%$$e$$$$$-rX",
"  w$$&$%*$$$$%%*:4XX4XXXX>XX>X>X4XX4XXXX:,$$$$$$$$$$%*+X",
"  %$$$$$%$$$$$$%-*5XXX4X4XX>X4XXXX4XX4X;*$$$$$*$$$&$%-:6",
"  #$$$$$$$$&$%&-%-&53@XXXXX4XXXX4X6X+%*--*-*$$$$%*$$%%:X",
"  $$$&$$$$$$*,333+&-,#::@X4XX4X4@::$,$%&333+,-%$&-%$%-+6",
"  $$$$$$%*%-->X>@%-%***,$$$$$$$$&,*$$%%-&X>>@%*$$%$$%%:X",
"  $$$$*%*%-tX6XXXXXXXXX:X6XX3XXX4@+XX4XXXXXXX>#-%$$$$-:X",
"  #$$&%%%-*X>XX>XXXXX3-3XXX+.-+XXX+$@XXX>XXX>X@%%*$$$%:X",
"  $$$$$$$%*%X4XXX>XX39:XXX5,$*yXXXX:*@X4XX>XX@%$%%$$**:X",
"  w$$&$$$%%-,3X>X$,u,+XXXX$$%%*$4X6X:,,,;XX4+,-%$$$$%%:X",
"  $$$$$$$$$$$,+++=-%-r+++*-$$$$-;++=:-%-++++,$%$$$$$$-+X",
"  #$$$$&$$$$%%&--&%$%&9&-$$$$$$$%-&-%$%%&--*e$$$$&$$$%:X",
"  $$$$$$$$$$$$$%%%$$%%%%%$$$$$$$$%%%$%$$%&%%%$$$$$$$%-:X",
"  $$$%*$&$$$$$$$$$$$$$$$*$$$$$$$$$$$$$$%$%$$$&$$$$$$$%:X",
"  $$$$%$$$$$$&$$$$$&$$$$$$$$$$$$$$*$$$$$$$&$$$$$*$$&$*:X",
"  y$$&$$$&&$$$$$*$$$$$&$$$$$%$$*$$$$$&$$$$$$$$$$$$&%$%:X",
"  ;$$$$$$*%$$$$$$$$$$$$$$&$$$$$%%$$$-$$$$-$$$&$$$$$$$-+X",
"  $$$$&$$%$$$$&$$$$$*$$$$$$$$&$$$&$$$$$$$$$$$$$$%*$%*&:X",
"  #$$$$$&$$*$*&$$*%$$$$&$$$*%$$$$$$$$$$&$$$&$$$$$$&$%-:X",
"  %***-*-*--%--%9%--%-*--%--&--*--%--%-*--%-*-*-%-*-*%:X",
"  :5<t<<t<<t5<t5<8tipt<t<at7s8t<<t5<t5<t<s55ts555<t<<#=X",
" 3X1>161X1>@X1X1>6X16@>@X1>d1@X1>@X@>@6>116@X@@61>161X1X"};
