/* XPM */
static char * image_name[] = {
"56 46 36 1",
" 	c #FFFFFFFFFFFF",
".	c #B6DAAEBAB6DA",
"X	c #000000000000",
"o	c #BEFBB6DABEFB",
"O	c #9E799A699E79",
"+	c #A699A289A699",
"@	c #8E388A288E38",
"#	c #38E36DB6A699",
"$	c #AEBAAEBAB6DA",
"%	c #F7DEB2CAAEBA",
"&	c #A69979E78E38",
"*	c #FFFFFBEEFFFF",
"=	c #A6999E79A699",
"-	c #A699A699A699",
";	c #AEBAA699AEBA",
":	c #96589658AEBA",
">	c #965896589658",
",	c #AEBA61856185",
"<	c #000000001040",
"1	c #AEBAB2CACF3C",
"2	c #000000001861",
"3	c #BEFBBAEABEFB",
"4	c #FFFFF3CEFFFF",
"5	c #C71BBAEAC71B",
"6	c #000008200820",
"7	c #5144A2894924",
"8	c #861779E78617",
"9	c #71C679E78617",
"0	c #AEBA9E795965",
"q	c #8E38861779E7",
"w	c #79E786179E79",
"e	c #EFBEF3CEF7DE",
"r	c #514471C68E38",
"t	c #082004100820",
"y	c #71C675D671C6",
"u	c #AEBAA69971C6",
"                                                       .",
" ......................................................X",
" ......................................................X",
" .........o....o....o....o....o....o....o....o....o....X",
" Oo..+.o.O..oO...Oo..Oo.O@#######@O..Oo..Oo..O.o.O..oO.X",
" .......$o..$o.$o..$o.$O#@       %&O$o.$....$o..$o.....X",
" OoOoOoO.OoO.O.O.OoO..O#* %%%%%%%% #@..OoOoO.O.OoO$OoOoX",
"*..$.$O.o.$...O......=# %%o%-%$%.%.O#.Oo$..$o.=....o$.OX",
" OoO.O.O.O.O.O.O.O.O.#*%%;=O+OO.%.%O#=.O.O.O.O.O.O.O.O.X",
"*...:o..>..o:..o:....# %.o,XX<<O-%.O#@..:o..O...O...O..X",
" O.>.O.:o:.OoO.O.O.O.# %%O<#@&,#%o%=X@.O.:.O.O.:o:.O.:.X",
"*.=.o.OoO.O...:.O.=$o# %o&#@Oo# %%.@<@..O.=..1OoO.=...OX",
" O.O.:oO.O.:.OoO.:.O.O#%%X@:.# %%o,X#O.O.O.O.O.:.Oo:.O.X",
"*.O.O.O.:.OoO.:.OoO.O.O##@O.# %%$,2#OoO.O.O.:oO.O.O.O.OX",
" O.:oO.:.O.O.OoO.:.O.:.O.:.# %%3,2#+.:.:o:.O.O.O.O.OoO.<",
"4OO.OO:.O=O.=O:.OO:.OO=.O.# %%o@2#+oOOO.OOO.O=O.:=O.:OOX",
" OoO.O5O.O.O.O.:.O.OoO.O.@*%%.,6#$.O.O.:.O.O.O.:oO.:.OoX",
"4OO:O=>O:78@O7O7O7@@&7890# %$q2#@@90w90O7=78@O7O7OOO=OOX",
" O.O.O.O#4 *4444*4**** *e#%%.&60144** e444*  444#:.O.O.X",
"4OOOOOO=#O          *   *&###2#:4*             o<==O=:OX",
"*O=O.:OO#=49@&;o*. o*. . . ###o>*@ w 0e& 9*& 91O#=OO.O=X",
"4OO:=&O=#o 0%O%.  . . . . # o##*# #*9*9 @ & ..*.#O=OOOOX",
"*=O=O=:O#.e$4*   . . . . # %%$<.*# q r q w w .*q#OOOO=OX",
"4OO=O=O=#.*4. q & % @ & o# %.&<.. & @ &e@eq @*.$#=&O=OOX",
" 7:OO7:O#.4. .eO @ O*. . &,o@X#. . .O@#w#&#wO.*@#w:=O7:t",
"*:OO=:=:#.  .eO @*O*O .*O 9###. . w    .o.   *..#OOO=:=X",
" =O7;y=0#.e. O*O*O4.*. .*$ ... . . @ .     . . w#==08wOX",
"eO==O=:9#.*.OOOOOOOOOO.O.O....o...@@O@O@OwO@w;qo#OO=:O=X",
"*@O@&8:@#5e *4*44********           ****     . 9#@>9=0OX",
"4OOOOO=@#..*O*O O*O*O*O*O*O*O*O O w q w , @ @ .1#O==O@OX",
"*wO8:0O&#=.. .*.*.*.*.*.*.*.*.*.*. &e9 q w , . O#9=9=9=X",
"*@0O=:@:9#OOOOOOOOO=O+OOOOOOOOOO>OOOO=OOOOO:OOO#9:0O;:@X",
" wO9=7:u#.*4*4*4*******4**4**4******      e  ***ty=wO0@X",
"*Ow;,:&#e*..# #.#.#.#.#.#o#.#.#  . . . $  . . .* <0Ow=wX",
" @OwO@#**. # # # #*# # # #*# #.#  .o#o..#. #.#.X  <9=0@X",
"*@q;r#* ..# # # # # # # # # # #@#  ***o.    w # X *2@9@X",
" wOw#* ..#o# # # # # #*# # #o#.#.#  r.#.#@. .0e# X  <0:X",
" 9q#  . .*$$#*#o#o#.#$#o#o#4$$ .. .  . . . . eo @..  <&X",
" @#       *4* **e*  *4**e* *4*                 *   .  <X",
" w&      *        * *   *                             #X",
" @0$.........$..$..$.$.$.$.............O..o....O..o.O@XX",
" r9##XXXXXXXXXXXXXXXXXXXXXXXXXXXXXXXXXXXXXXXXXXXXXXXXX@X",
" >@@@@@@@@@@@@@@@@@@@@@@@@@@@@@@@@@@@@@@@@@@@O@@@@@@@q&X",
"*r@&,:90w&&7>w,w@w,w:9u9&7>ru9&7:90wqw@90@89ur0@&@:,9@qX",
" >@ww@99ru9&:&wwu9:w0r&w&:&@r:@&&wr&@@9:r9u&9@r:@9@w@w9<",
".XX6tt<<<X2<XX6XXXXX<t2<XtX<tXX<XttttX<Xt<<X<<t<XX<X6X<X"};
