/* XPM */
static char * image_name[] = {
"56 46 20 1",
" 	c #FFFFFFFFFFFF",
".	c #BEFBBAEABEFB",
"X	c #000000000000",
"o	c #BEFBB6DABEFB",
"O	c #AEBAAAAAAEBA",
"+	c #AEBAA699AEBA",
"@	c #C71BBAEAC71B",
"#	c #9E799A699E79",
"$	c #69A68617BEFB",
"%	c #F7DEB2CAAEBA",
"&	c #71C679E78617",
"*	c #AEBAAEBAB6DA",
"=	c #000000001861",
"-	c #FFFFFBEEFFFF",
";	c #BEFBC30BCF3C",
":	c #EFBEF3CEF7DE",
">	c #96589658AEBA",
",	c #38E36DB6A699",
"<	c #CF3CC71BCF3C",
"1	c #A6999E79A699",
"                                                       .",
" ......................................................X",
" ......................................................X",
" ...o..o..o..o..o..o..o..o..o..o..o..o..o..o..o..o..o..X",
" O...O...+...O...O...+...O...O...+...O...O...+...O...O.X",
" ..o..@o...@o..@o.@o...@o..@o.@o...@o..@o.@o.....@o.@o.X",
" O.O.+.O.O.O.O.O.O.O.O.O.O.O.O.O.O.O.O.O.O.O.+.+.O.O.O.X",
" .....O...o...+.......+...o...O...o...+.......O.......OX",
" O.+.O.+.O.O.+.OoO.+.+.O.+O##+.+.O.O.+.OoO.+.+.+.+.+.O.X",
" ...Oo..Oo..O...O...O.O###.   #.Oo..O...O...O...O...+..X",
" O.+.O.O.O.+.+.O.+O####.    ...$.O.+.+.O.+.+.O.+.O.O.O.X",
" .O...O.O.O...O####.   .# .#.##.$.O...+.O.O...O.+.O.o.OX",
" O.O.+.+.O.+O##.    .##XX. ##... #.+.O.O.+.+.+.O.O.O.O.X",
" .+.O.O.OO##.   ..#XXX$..X  #     #.O.+.O.O.O.O.O.+.O.OX",
" O.O.+.O.$O   .#XX$..$. . $   % #  #.O.O.+.O.+.O.+.O.+.X",
" OO.OOO.O##  .$$.$$ . . . .$   % .. .#O.OOO.OOO.OOO.OOOX",
" O.O.O.+.& $  .$. . . O O ..$   .     .#.O.+.O.+.O.+.O.X",
" OOO+OOO*$  $  .$ . O # # ...           .#OOOOOOOOOOOOOX",
" O.O.O.O.$   $  ... # # #..               .#.O.O.O.O.O.X",
" OOOOOOOO$    $  .# # ...      . .         ..#OOOOOOOOOX",
" OOO.OOO.$  .  $  ....      . . . ..     ..# &*+.OOO.OOX",
" OOOOOOOO$   .  $  .     . . . . .    .... . =*OOOOOOOOX",
" OOOOOOOO$  . .  &    . . . . .    .... . .# XOOOOOOOOOX",
" OOOOOOOO$   . .  ..   . . .     ... . . #$$ XOOOOOOOOOX",
" #OOO#OOO$  . . .   ..   .    ... . ...  & . XOOO#OOO#OX",
" OOOOOOOO$   . . ..   ..   ... . . #.. .-*.  XOOOOOOOOOX",
" OO#O#O#O$  . . . . .   #.. . . ...  #.  &;. XO#OOO#O#OX",
" OOOOOOOO$   . . . . .  #. . #..     & .:>o. XOOOOOOOOOX",
" #O#O#O#O$  . . . . . . $  .#     . .;.  $@. XO#O#O#O#OX",
" OOOOOOOO$.  . . . . .  #. #   . . . $ . #$# XOOOOOOOOOX",
" #O#O#O#O#&;  . . . . . $  .  . . . O..  ##. $O#O#O#O#OX",
" O#OOO#OO**$&    . . .  #. .   . . #O$ . . . X#OOO#OOO#X",
" #O#O#O#O#*>*,<   . . . &  .  . ##OO.#. . ..$$O#O#O#O#OX",
" O#O#O#O#+#+1+$#   . . -*. # .##O....# ..$$$#O#O#O#O#O#X",
" #O#O#O#O#+#+#+$$.  . . &- .$#O......#.$$#O#O#O#O#O#O#OX",
" ##O###O###O#O#O#$#  .  >. #O......+$$$####O###O###O###X",
" #O#O#O#O#O#O#O#O#$$.   $  #...oO#&$##O#O#O#O#O#O#O#O#OX",
" ###################$#  #. #.O#$$$>*###################X",
" #O#O#O#O#O#O#O#O#O##$$.$ .#$$$#+#+#+#O#O#O#O#O#O#O#O#OX",
" ######################$##$$###########################X",
" ###O###O###O###O###O###O###O###O###O###O###O###O###O##X",
" ######################################################X",
" #O#######O#######O#######O#######O#######O#######O####X",
" ######################################################X",
" ######################################################X",
".XXXXXXXXXXXXXXXXXXXXXXXXXXXXXXXXXXXXXXXXXXXXXXXXXXXXXXX"};
