/* XPM */
static char *red_marb_0[] = {
/* width height num_colors chars_per_pixel */
"    61    60       26            1",
/* colors */
". c #c7201b",
"# c #e52729",
"a c #bd1d16",
"b c #db2221",
"c c #e53331",
"d c #d11e1c",
"e c #c71e1b",
"f c #b31e15",
"g c #c71d18",
"h c #d1211c",
"i c #e92d32",
"j c #db2a27",
"k c #e93432",
"l c #e52c29",
"m c #bd1e17",
"n c #db2521",
"o c #b31d16",
"p c #d12420",
"q c #e93d3b",
"r c #bd1d17",
"s c #b31e16",
"t c #c71e18",
"u c #d12120",
"v c #e9343b",
"w c #e52c31",
"x c #db2527",
/* pixels */
"tmttthnnhhphhhhhetmaaaamtrffhwklkqlpuhhh.h.thhh.t.ttttaamthet",
"aaatehh.bhhhhh.htttmaaaaaaoaelllwlnhhphbh.d.d.ttd.t.ttmttthth",
"tettt.thphhheh.hhttgmagmaaaathnllphehhuphhththtt.dttttttttt.h",
"kln.tttth.d.thhuh.tttmtmtrafotpllhtthnnhh.te.ttte.ttt.thh.tdh",
"kclnhtratheh.hhhd.htttagttmtathnctt.hhnhhhhthtta.dt.tdthhdt.h",
"llwklnhtnnhhhhh.heettttmattunh.dk.th.hn.hh..ttttt.ttt.h.e.th.",
"pnlwcwlljxjlnphhhhhh.t.ttatplxnhcttht.uhhhhd.eta.td.tettttete",
"h.hhnlwklllwllnnhphhhetehga.llljiatutthhubh.httmtt.thttmtt.tt",
"huhhhhnjnlllllcnhuhhhnnttmthlclnuttthh.hnphhetttrttd.tthrttth",
"bhhhpnnxlllkjilnhnphpnhtphehnlnn.aamtttennhhh.ettteht.d.atett",
"pnhhhnlcllcwlcwnnnnnnnu.nhhhnnjntraarathphnuhhhhtth.htt.ttttt",
"nhhupnllljllllknnjnnbphhnuhhnlj#httmatehhuhphh.tth.hh.dtttttt",
"npuhhnlllnnllclllxnpphhnnnpnlj#nphhtatt.hhhhhttt.dhhhtt.thet.",
"hhhhhnnj#hhxllcjlnnnhhpnj#nnnnphnbhmrttth.hettrat.hhth.dt.thh",
"hhhhhhhhn.hnnllnxnn#lhhnljnnpnbnnphtthetthtettttt.d.hheh.hd.h",
"t.h.hh.hlthhnxnnnnlclnnnlnnhunjlnnuthpht.tttmtehathh.d.hhhhhh",
"hhthhhht.d.hnnj#hpn#j#jnnuhhhunxnnhhhnlnbphttt.thd.th.hhhphph",
"h.d.hhd.d.hhpnphhnnjlj#jhhnjnhnh.hpnpxph.uhhhhhd.th.dhhhphuhh",
"d.ttd.h.d.ehhhhtphnnnxjlphxnhhhhthnnnnhthhnphhh.hhthh.hhhhhhh",
"e.t..hdt.thhhhhehpnnnnlllnnp.hnpnnuhbnnhhuhhunnhe.h.dhhdhhhhp",
"tttdtt.hthehhuhhhnhbpnlllnnhehhnxjnhpnxnhhhthhnpttd.h.h.bhphu",
"ttt.thth.eh.hnpnnunpnnxllnnlhhuhnnnnnjnnph.t.bpht.hhhhhhppnhn",
"mt.d.ehhhhthhnnnhpnnunnnjnjxhhphhubpnxnhhphthnhh.hhunuphnnhuh",
"ttt.tthhuh.thunnnnnnnnnnlxnhthnn.hhhhnnhuhhhpnpdhhnnnnnhhhhhh",
"hhhhh.hh.htdhphpxnpnunpunnnnuhhhhnnhpnnnnhetehhulnhpnnjh#jlnn",
"hh.d.dhhhth.hhhhnnxnnpnnnnpnhphhhnnhnnjnhhh.hhhnclclnnunnjlln",
"htd.tht.hh.thhuhpnnlnnnnpbnunhnphuphpnxn.hnnnpnnlkvln.hhh#clj",
"e.ttt.dth.d.hhhhhpljnnxjnnpnnpbhhhhhnnnnehhnnnxjnllnhthuhnxln",
"thettet.hh.hhhuhhbllxnnlnnnnhnpb.hhbpnnnh.tdhnnnnnuhtt.hnphnj",
"hh.h.hhhuhhhphhhhpnnnnnxnnnpnhhhhhhunuhnlpd.nlnnwjnh.hhhnhhhh",
"hphhuhhhnbhhhnuhhnpbpnnnnpnnhbphh.hpnhhulxnpnjxnlxnnuhd.hhuhh",
"nhnhhnnpnphhhnhpnhhhnunhhhhpbpnuhhhnnh.hnnhhhhhhhnnnphh.dnnpe",
"xnunphhhnnnpbpnnhhpnnjnnbnpnnnnhhd.dhhdettdhdtdhhhhnxnhdhhxnb",
"nnnhhpunnpbhphupunhhphnjpuhpnphhphdthhhhttetetetuhnnnnhuhhnnn",
"nnphuhhuhbphhhhhhpuhhhnnnnhhhuhhbhetthhhettgtttthn#nnbnhnunnn",
"nnhuhhphnphhhh.hhhhh.ehnnnuhhhhhhhd.ehdhtttttttghnjnuhh#nnnnx",
"npnhhhhhnhnphhhhthphhhhnxnnnuhhh.dhhhhhdh.ttedtahbnbhhbxnnhnn",
"nnphhhhphpuhnhuhhhuhnhhhnnnphpbnt.hbhhtthdtttttrthnnhhhnhbhbh",
"nnunhnhhhhhnunhunnhhphh.upnnbhphtdhhhhdhhtdttgatahbnnubnuhunn",
"nnnhuhunehhpnhnhkxhhhuhthhnnphhuhhhhtthhtd.taaagr.hnnnnnhnnnh",
"xpnpthh.hhhhhphpnpd.hhhaphhhhhhphdhdhd.tththtttttaghnhhnnbhhb",
"lhunnunnhhpbhnhhhttmgttthed.hnuhhht.d.dtd.dttt.ttgthbpbnhnhbn",
"nmthpnphhuhphphn.hhtma.uhtmthnnuhhdtdttttdtttdedhtthhhhhbuhnn",
"htttthnhuhhhhhuhnpnhtrthtttthpnhh.ttttgrhtdtthhhdhtehhbbpbhpb",
"hnnronwnhhhehhhhuhhth.tamtettthhhhdetttahh.dttthhtdthhuhhnhbn",
"tnnafhlphhhh.hhuhh.huhhmgth.ttebhhhdtttadedhtd.tdtetdhhhhubnl",
"ethtaenhnpuhhhhhnhhhnnhtmt.ett.hnbhh.dtgtt.ehtdeattttbhehhnnl",
"htephhnnnnhhhupunhttedtatttt.dh.nnuhhettattdhhttrtttehhthhnx#",
"ehhnnnjnhhh.tthntt.ttmmttraaatthunnhtht.ttd.ttehtgtttdtthbhhl",
"tttehh.d.h.tehhnehtettgmtaamrathhnnuh.dtt.hhh.httttet.dthhnhn",
"ttmtmaamteththunh.hhttmtttaatmt.hnnnhh.ttt.hhhettttttdttthunh",
".ttaaraatt.h.hhhhuh.tttttrattathepnnpnhtedthhh.ttehthtedtthun",
"ttttaagatttehh.h.hhhtttttmamtrt.thhnnnuhh.tt.hhhttdhttthetdhn",
"rmaramamttgtthtthhhd.tt.ttgttmttthunnln.hhttehhhehhhdtthttthn",
"aaaaaaaaraamtt.thth.ettetamttttehhnujnnhhh.htehbthbhettdhthhn",
"aaamamaaaoaamehtt.tht.thtmgt.tathnpnnxn.thhh.h.hthhhdtehtdhnh",
"faamatrtmaaaatthehttttttmgmtatttmnlnhnphd.hhh.hth.dehhhtd.dhd",
"asaarataaaatrt.th.e.dtttttttttt.hnlhhpnn.d.hhhhhdtthhhhhth.dh",
"soaaamaaaaamtttthhd..h.tt.tttd.dp#nphxnhe.hhbhnuh.tdhhnhded.h",
"aaaaramgoartttetphhhhhhh.tt.tt.htpnlllnhhhhhphphhhdthhbphhhdh"
};
SIMPLE  =                    T                                                  BITPIX  =                    8                                                  NAXIS   =                    2                                                  NAXIS1  =                   61                                                  NAXIS2  =                   60                                                  HISTORY Written by XV 3.10a                                                     END                                                                                                                                                                                                                                                                                                                                                                                                                                                                                                                                                                                                                                                                                                                                                                                                                                                                                                                                                                                                                                                                                                                                                                                                                                                                                                                                                                                                                                                                                                                                                                                                                                                                                                                                                                                                                                                                                                                                                                                                                                                                                                                                                                                                                                                                                                                                                                                                                                                                                             RRRRSRSVORSWWWWW^\\\\\\\XWWXWWX\W^bkkkb\\\\\^\^\\\[W\\a^\\\[\OORRRSRRRRRSWWWW\\[XX\XWWXWWW[X[^hb^\cb\WX\\a\b]\XW[\\b\[W[X\RORRSRWRRRRWSWXW\XWX[WWWWWWWWWWX\bk\\^bbX[X\\\\\[WW\\\\\W\X[\ORRSRWSWSRRRRWW\W\WWWWWWSVSWRWWWSbkb\b^\[X\\\X\W\X[W\\\W[X[\[RRRSRSRRRORRSW\WWXW\WXW\WSVWXWRW\b^bbcbXW\\\X\X\W\\\[WW\W[\b\RRRRRRRRSRRSWWXW\W\XWWWWWRSWWWWW\\b]fbb\\\X\WW\aW\a\WWW[\W\\bSSRSRSRSWWVWW\WW\\\[XWWXWWVWWSWWW\]bbkbX\\WWW\\\W\\\[WW\WWW\bWWWWRRVRWWWW\\X\X\\\WWWWWSRSWSWXW\\bbb]\\XWWX\\\WW[\WWW\WW[\bXWWRRSRRWWX\X\\\\]\XWWWWWSRWWRW\W^bb^b\WW[W\\\XWWW\W\WW[WW\]bWWSWSRRSWWW\W\]b\X\\WWSWWWRRWSWX\bbb\\XWWWX\\\WWWWWWW[WWW\]b\WWWW\\X[X\XWW\\bW\WWWWVSWRRSSRW\\bb]\X[WWX\\\X\WWWWWWX[W\\b\bW\\bbbfb\\\XWW\bWWXWWSSWWSRRRWW\]bb\W\WXWW[XWWW\WVWWW[WW\a\\k\WW^\\bbbb\\\]^]b\WWW[WRWWWWX[\Xbb]\\WWWRWW[\\WWSWWWW\\W\\bchWW\WRWb\b^]\\\\\b\\\bb\WSWXWWWX\ba\\X[WVWWXW\W[WRWWWWa\W\\bbkWbbRO\k^\\\\X\\]\\X\]\\SVW\XWWWa\\\[WWWR[W[\W[XW[WWW[\\\\]abk\bbSOblb\\\W\\\\]\\W\XWRSWWWWW\\\\[WWWWR\\X[WWW\\W[W\\]\\b\ab\WWWW\b\]\\\\\]\b^b\WSW\WWWW\^b\\XWWWWVS\W[WW\\\[\WW\\aa^a\^abSW\^b^\\]\^\^\bX\\WSRX]\WSW\bb]\\[W[WWWW[WWW[W[\WW\\\\\a]\bbk\]bb]bb\\^a\b\\\WWSVWWW\W[X\b]\\\WX[X[W[X[WWWXWWVW\a^ab\b\abc^b^W\\X\\\\\^\^b^[X\\\R^\\\\\\^\[\[\[XWW\W\WWWWWRV\b\\bba\\abbb\]\]bW\\^b\b\qc\\\]\W\\bb^\\]\\\\WW\\W[XWRRRVSX\bbbbb\bbb\bb]b\b\\\\\b]b\]bb\\^\\X]^bba\^\W[\\\\[\\W[WWVRWR\abb]ab]\]bbbb^\\\\^\^]\b\]\\\]\b\\\bbb^\^abWX\a\\WW\[WWWWWSW\bb\\\b\a\a\b^b\\\\\b\b^\\\\W\^\\\\bcbbb]\\\X[\\\\\[\XWWW[WR\aba\\acbb\bbbb\]\\^\b^\\\\X\\\\\XW\bbb]\\\\\\\[XW\[\WWWWWWWV\bfb]\\hbbbbcbb^\]\\]\a^\\\\\\^]\\\bbbb\\\]\\a\WWW\\\WWWVWWWW\bhbbab\b]bbbbbb\\^]bb^a\^\]^]b\\^\bf^]\^b^\\^\[W\\\\WWWWWWWW]\bbbb\]\\bbbcb]b^\\\bbb^a^bb\\^bbfbbab^bbbb\\[X[\\[WWW[\[W[\\\\bcb\[\\cbab\b\\bb^b^\\\b\^b\\\b]b\\\\^a^b]\\\bb\X\bb\\\\\\\bbb^\\X[bb^W\^\\]\\\ba\\\b]\\b^a^bbbb^bb\a^\\X\^b\\]kcb^bfcbkcbb]\[X\\]\\\\X\X\\\]\\\^\\\\^bbbbbcbbb^b\\\\\\]b]\bk^[Xbkbblfb\X\\\b\\\\W\WWWWWX\\X\\\]\\akkcbbkbbbb\b^aX\\a^bbb\XW[\bbbbb]\WWX\b^\bfWXWWWX[W\X[X\\\\\^kfbbcfbb^bb^a\\\\\bbbbW\\bbbcfbkkb\W\]\bckb\W[XW\WX\\XW\\]\^bbkbbbb^ab]b\b^\]^\^bcbX\bbb^bbkqskbX\\\hokf\\X[X[\\\W\X\\\\bbcbb^bbbb^b\^\\\bb\bbfb\\\X\\\bokokbb]bbfkkb\\\\\X\\X\W[\^\^cb^b]b^]bbbb]\\\\bb\^bbbb\WWW\\]kb\^bbf\hfkbbWWWXWW\\]\XW\]bbbbbbbbbbkcb\W\bbX\\\\bb\]\\\^b^[\\bbbbb\\\\\\SWX[XW\\\\W\\bbb\^bb]bbbfbfc\\^\\]a^bcb\\^\W\b\\X\\]b]^\bb\]\WWWXW\W\XW\X\b^bb]b^bbckkbbk\\]\bbbbbfbb^\XWXa^\WX\\\\\\^^b\bWWW[WWX\W\W\\]\\\b\a^bkkkbb\W\\bcfb\^bcb\\\W\\b^WW[X\X\Xa\^\]WXWXX\[WXW\\\\\W\^bbbbkkkbb^X\b^bb]\abb\\]\\]bb\WX\X[\\[\\\\^[XWW[X\X[XW\\\\W^\bbbcfk^\cb\\\\W\bbbb\W\\b^\\\X\\W\\X\\\\\\\\X[X\\[X[X\\^b^\\bbfkfhf\\bfb\b\X\^b^c^\X]\\\\\[XW\X[\\\^\]\\\\W\\\\WX[X\bbfh\^bhfhfbb]\\\]bcbb\\\bkba^\WWWXW\[XW\X\\\^\^\WX\X\\X\kW\\bcbbbbkokbbbkbb\]bfkbb]W\^\WXWWWSWW\RW\\X[X\\\\\\\\\\\\\\bX\bbkkbcbbhk\\bkfbb^babb^\WW\WWW\WWWWWWWX[X\\W\X\[X\\\\\\bbfh\\ckkofkbbb\\^bfhbbbb^\ba\SSWWW\X\WWWSRWX\\W\X[WXW\\b^]\\bkkkbbkkokkkcb^^\\bbb^bkfhb^\\WRWWX\\\\\WWWX[\\\WWXW\WWXb\\]^bkkkfkkkkqbbfbba^\\b]\\bkfh\WWSRWW\\]\^\\XWW\X\\X[WWWWWW^b\\\bkokkolkolbbbbbbb]Xb\\\bbfbWSRRSRW\^\b]\\\\WW\X\WWXWWWWWa\\\^bbckkkqfnkb\b^\^b\W^\W\bkbbXRRSWWWWbb\\\XWWWWW\WX[XRWWWW\]\\\\bfbkkkkkob\]\\\bbWWSW\kokb]WWW\\X\b^\\WWWWSWW[XWW\SWWW\\X\\bklqkkklkkbb\^\\\WWW\VRXkkkfnRW]WW\\]a\X\WWSWWXW\WWSWWXWW^bklolkkfcfkb^\\\\\\XWXWWRW^kcb\oWW\WX]\\\\[XWWRXW[XWWWWWWWWWkklqkb\Wbb\\\\\X\WWWWWWSRWW]b\X[qXW\X\bX\\XXWWWWWXWWWX\XWXW\Xqokb\WSRW\W\X\\\[X\WWWRVWWSWRW\boWWX\\b\\\\W\WWRX[WXW[W\\[WX\qkbXWWWW\X[XW\\]\XWWWSWSWSROOW^kk\WW\bb\\XWWXWWWWXWWWXW\\XW[\WWWWWXW\^\\\W\X\\WWVSRVSRRRRW\bkk^\W\\]^\\W\W\WWX[WWWWWWWWWX\RRRWW\\Xa\\\\\X\WWWSRRRRRRORWkkklkb\\^\a\X[X[XWW[XWXWWSWWW\W\WSWWW\bb\\^\\\\\WWSRRRRSWSOO\lqkqwk^]\\\X\XW\\\XWXWWWWRRSW\WW                                                                                                                                                                                                                                                                                                                                                                                                                                                                                                                                                                                                                                                                                                                                                                                                                                                                                                                                                                                                                                                                                                                                                                                                                                                                                                                                                                                                                                                                                                                                                                                                                                                                                                                                                                                                                                                                                                                                                                                                                                                                                                                                                                                    