/* XPM */
static char * image_name[] = {
"56 46 39 1",
" 	c #FFFFFFFFFFFF",
".	c #BEFBB6DABEFB",
"X	c #CF3CC71BCF3C",
"o	c #000000000000",
"O	c #AEBAAEBAB6DA",
"+	c #AEBAAEBAAEBA",
"@	c #BEFBBAEABEFB",
"#	c #BEFBC30BBEFB",
"$	c #DF7DBAEA8E38",
"%	c #BEFBC30BCF3C",
"&	c #AEBAB2CACF3C",
"*	c #69A68617BEFB",
"=	c #96589658AEBA",
"-	c #71C679E78617",
";	c #965896589658",
":	c #514471C68E38",
">	c #A699A289A699",
",	c #38E36DB6A699",
"<	c #9E799A699E79",
"1	c #69A669A671C6",
"2	c #AEBAAAAAAEBA",
"3	c #5965A289D75C",
"4	c #000000001861",
"5	c #082004100820",
"6	c #B6DAAEBAB6DA",
"7	c #000000001040",
"8	c #000008200820",
"9	c #D75CD34CD75C",
"0	c #E79DD75C9E79",
"q	c #C71BBAEAC71B",
"w	c #EFBEF3CEF7DE",
"e	c #AEBAA699AEBA",
"r	c #A6999E79A699",
"t	c #71C675D671C6",
"y	c #51445555FFFF",
"u	c #F7DEB2CAAEBA",
"i	c #79E79248B6DA",
"p	c #A699A699A699",
"a	c #79E786179E79",
"                                                       .",
" .X..X..X..X..X..X..X..X..X..X..X..X..X..X..X..X..X..X.o",
" .OX.+X.+X..X+@X.+X.+X..X+@X.+X.+X..X+@X.+X.+X..X+@X.+Xo",
" O##+##+#O#+##+.O##+#O#+##+.O##+#O#+##+.O##+#O#+##+.O#@o",
" +@.#+.#O+#.O+#.++.##+.+#+.#.+#.#+O#O+#.++.##+.+#+.+#+Oo",
" $O%$@                                           .#X.#.o",
" O%O&+ *=-* ;*;*=*;*=-=*=*;*;***-:*****- ***o ***o.>.>#o",
" #O#.O +,O* +=*+*<*O*>*+*<*+*=1&*=*.*:*: *:*o *:*oX$.@+o",
" +.+X+ -&:* ;*>*=*>*+,2-=*O:=*&,@,***3*4 ***5 ***5&+%+Oo",
" #XO+@6744ooooooooooo7o77o848ooo7757587o7o57oo57oo@O+.9o",
" +#+$O o.%.X.XOX.%.%O96%.#6%.X.90.99qX.X.%0&0 =<Oo#+.++o",
" $+&%6 o&0O.@#..&$O#.X@O.XO.OXOXOXOO.OXO.&O9O =*<o+@.&+o",
" O&+.+ o@X##OX#O#%O#$%O#$#..XO.O@O9O#@.X.O%O% *;*o6+#+.o",
" @+@>. o6&.O..O#0O9O   %O%OX#OX   O.%+#O%$#.O +*=7+X+6+o",
" 26+%+ o.$#.X$#.&$  ooo*  O#  *ooo  O0O##&+9. *=*o0O.+.o",
" ++O++ 8&%###&.%. oo*=**oo ooo**=*oo 9O%.##.+ O:*oOO+++o",
" +X2$+ o.#OO$%&#wo=<=+<=;< o<;=;+;<<o O9O$X#O *>*o.O%267",
" e+2O2 8+.X#&##. o<X<2;9OX o222.2@<@o $#O%O.# &:*o222++o",
" 2.+%2 o@$#&    @o<<Xr<<6< o<=<<.226o.    &#$ *=*oX+6+%8",
" ++222 o&XO oooo o=X<6>.=. o<@<q+6+. ooooo .O O**o2+2O2o",
" 2e26+ o.# o<<<<< o6.XO.0O o.6#<+.. o<<<.#*o# *=:4O2.+2o",
" +62++ 8O@ o<q2X< oX<6=#=. o<X<9+X+ o.rXX@ o6 <**o+.622o",
" ++222 o@. o.;<<q> o.X@#.X o.+.+.. o.;..O. o. *O*72+++2o",
" 22222 oX#; <X>q;. 8&@$O#O 80.@#.X o<@#X#.O*& =:*o2e+22o",
" <22.; o6##8 ...X.X o.%&@# o&.XO# o<6XO$X o#. ***56+2<eo",
" 2222+ oX&$6o O.#O. 8&$##6 oX#O.@ oO9$&@ o.XO @:*o+22e2o",
" 2222< o6@%&.o .#.#@ o#O$# o.#.+ o.XO#O o.XO# ***722222o",
" 22222 o.#$.#.o +#XO o%#&# oX+#X o##@& oO##.@ O:*o22222o",
" <2222 oX.&X+.#o .+#X o&X# o@.# o.O#X o.#.O.# ***76<2=+o",
" 22222 o&##O9O@.o X.              #. o6#X$.XO %:*o2+222o",
" <222< o.#+#.+##@o  ;<<<@<6#@O.#@O< o.XO.%&#$w***76<e<eo",
" e<222 o.#O#$XX$#.o.2r+6<X<#.#+X#.oo.O@##&$%& *:*5<222<o",
" <2e2< oX.#X&#O&.#@ ;<q.@.#OX.XO.#o.X.+@###O. *3*72>+2eo",
" 222<2 o#O.+.#.##O6 <X=.<@#$O#$+#.8O%$.##.O## 3,*o<+22<o",
" <2<e2 o@.###O#X6## .<##..&%&X##OXo.#&#$&#..# t3yo.=2<2o",
" <2e<< o##O#u#&$##@=ooooooo8oooooo*+X#&#.##O@ **io=2p=<o",
" <e<22 o.#XO&#..OX#..$@..X@$X&..X@OX#$%O#.X.O *a*o6<p<eo",
" r;rr< oX+.#.#.OX+..X&O##@O&#@#OO##O%+OX#+.## *,*o=<<e<o",
" <2<2< o6.#+#$%.X.+##@X.$X.#$&##$@X..XO###.#6 *3:7.<.=eo",
" <2rr< o                                      ***o=p<<<o",
" <r<e< ooooooooooooooooooooooooooooooooooooooo88772<ep<o",
" r<r<r=<<<<=<<<<=<<<<=<<<<==<<<=<<<<=<<<<<<<<<<=22<<<r<o",
" <=<=<r<p=r<r=r<r<2=><e=r<><e=><r=r<r<rrr=r<e=e<<<<<<r<o",
" <<p<>=<<<=<<r<<p==<<<<=p<=<r<<<<r=p=<=<<<<=<<<rr<r<<r<o",
" <r<<<r<e<p<<<p<e<p<err<<<p<2<r=<<p<e<p<e<p=p<r<=<<e<r<o",
".oooo5ooo5ooooooo555oooo555ooo555oooo5o5ooooo5oo55555ooo"};
