/* XPM */
static char * new [] = {
/* width height ncolors cpp [x_hot y_hot] */
"48 48 10 1 0 0",
/* colors */
" 	s none	m none	c none",
".	c #A000A800A000",
"X	c #560053005000",
"o	c #FF00C800A000",
"O	c #A60090007100",
"+	c #570037004500",
"@	c #010000000100",
"#	s iconColor2	m white	c white",
"$	s iconColor1	m black	c black",
"%	c #8D001400C600",
/* pixels */
"                        .XXXXXXXXXXXXX          ",
"                      XXXoooooooooooOOXX        ",
"                    XXooooooooooooooooooX       ",
"                   XoooooooooooooooooooooX      ",
"                  XoooooooooooOoooooooooooXX    ",
"                 XoooooooOOOOOOOOOOOXXOoooooXX  ",
"                Xoooooo+XX++XX++X+X+OOooooooooXX",
"               XooooX+Xooooooooooooooooooooooooo",
"              XOooXXoooooooooooooooooooooooooooo",
"             XOoo+oooooooooooooooooooooooooooooo",
"            XOoooXoooooooooooooooooooooooooooooo",
"           XOoooO+oooooooooooooooooooooooooooooo",
"@@@@@@@@@@@@@@@@@+XOOO+O+@X+X++OOooooooooooooooo",
"#################.X+@@@@@@@@@@@+XOoooooooooooooo",
"...................XXXXXX@@@@@@@@@Oooooooooooooo",
".......................XX@@@@@@@@@@ooooooooooooo",
".......##############@..X@@@@@@@@@@@oooooooooooo",
".......#............X@..X@@@@@@@@@@@@Ooooooooooo",
".......#.@X......X@.X@..X@@@@@@@@@@@@@@ooooooooo",
".......#.X@X....X@X.X@..X@@@@@@@@@@@@@@@Oooooooo",
".......#..X@X..X@X..X@..X@@@@@@@@@@@@@@@@XOOoooo",
".......#...X@XX@X...X@..X@@@@@@@@@@@@@@@@@@XOooo",
".......#....X@@X....X@..X@@@@@@@@@@@@@@@@X++OOoO",
".......#....X@@X....X@..X@@@@@@+X@@@@@X+X+OOOoOo",
".......#...X@XX@X...X@..X@@@@@X$ ++@@@@X+O+OOOoO",
".......#..X@X..X@X..X@..X@@@@$$     X+X+ +XXO+OO",
".......#.X@X....X@X.X@..X@+@$$$          X+++X++",
".......#.@X......X@.X@..X@X+$$$             X+X+",
".......#............X@..X@ X+$                  ",
".......#XXXXXXXXXXXXX@..X@                      ",
".......@@@@@@@@@@@@@@@..X@                      ",
"........................X@                      ",
"........................X@                      ",
"XXXXXXXXXXXXXXXXXXXXXXXXX@                      ",
"@@@@@@@@@@@@@@@@@@@@@@@@@@                      ",
".........................@                      ",
".........................@                      ",
".........................@                      ",
".........................@                      ",
".........................@                      ",
".........................@                      ",
"XXXXXXXXXXXXXXXXXXXX#....@                      ",
"@@@@@@@@@@@@@@@@@@@.#....@                      ",
"@@+@+++++%+%%%%%%%%.#....@                      ",
"@@@+++++%+%+%%%%%%%.#....@                      ",
"@+@+@++++%+%%%%%%%%.#....@                      ",
"@@@@+++++%+%%%%%%%%.#....@                      ",
"@@@+++++++%+%%%%%%%.#....@                      "};
