/* XPM */
static char * image_name[] = {
"56 46 38 1",
" 	c #FFFFFFFFFFFF",
".	c #D75CD34CD75C",
"X	c #000000000000",
"o	c #E79DE79DEFBE",
"O	c #618561856185",
"+	c #965896589658",
"@	c #AEBAAAAAAEBA",
"#	c #AEBAA699AEBA",
"$	c #A699A289A699",
"%	c #A6999E79A699",
"&	c #AEBAAEBAB6DA",
"*	c #AEBAAEBAAEBA",
"=	c #69A669A671C6",
"-	c #B6DAAEBAB6DA",
";	c #BEFBB6DABEFB",
":	c #71C675D671C6",
">	c #79E786179E79",
",	c #514455554924",
"<	c #28A22CB230C2",
"1	c #30C234D330C2",
"2	c #8E388A288E38",
"3	c #000008200820",
"4	c #186120812081",
"5	c #CF3CC71BCF3C",
"6	c #D75CDF7DE79D",
"7	c #9E799A699E79",
"8	c #FFFFFBEEFFFF",
"9	c #BEFBC30BBEFB",
"0	c #EFBEF3CEF7DE",
"q	c #208120812081",
"w	c #5144A2894924",
"e	c #BEFBC30BCF3C",
"r	c #AEBA61856185",
"t	c #30C271C65965",
"y	c #BEFBBAEABEFB",
"u	c #A699A699A699",
"i	c #861779E78617",
"p	c #8E38861779E7",
"                                                      .X",
"  ...................................................oOX",
"  +@#+##+##+##+##+##+##+##+##+##+##+##+##+##+##+##+#$#OX",
"  %@@@@@&*@&*@&*@&*@&*@&*@&*@&*@&*@&*@&*@&*@&*@&*@&**&=X",
"  $@@@@@@@-;&;**@-;&;*@*-;**-;*-*@@-;**-;&;;&*@@@@@@@;:X",
"  %@@@@*->,<1=-@*=<,+;&2<+*;=<&,,--+,2&2<<<<2;@@@@@@*&,X",
"  @@@@@;=3XX3,; <3XX,;-<3o*;3X X4&;,X&.3X,3XX&;**@@@@;=X",
"  %@@**;<X5 .+6,X2 o=<5<3o;5XX X<52,X;.XX   :X75@@@@*;,X",
"  $@@@*-:=4XX<oX48*;:3;,Xo;53X X,5XXX.6XX 7@=X< @@@@@-=X",
"  @@@**9*;oo *X2X *74< ,X 5=XX X, =XXo7XX ;-X35o@@@@*;,X",
"  %@@#**43=3XX. 7XXXX*5,,2X3X oX= 2XXo5XX7X3X=o**@@@@;OX",
"  %*@@*-:57>2-o.#@775o*==,<,7;=:oo2=:5$X,->250**@@@**;=X",
"  @@@@@**55555**-7<<3XXXXX<,,<X,,XX<7 57;55.5@@@@@@@*&,X",
"  %@@@@@@******5>44:==.    o    ;<=:=<:5;**@@@@@@@@@*;=X",
"  $@@@@@@@@@*;2+<q    o=6o:X 5*=     :<-:**@@@@@@@;*@;OX",
"  @@@@@@@@*;;=X,,o 22 ,X.oX, -XX &O75*7XX* -@@@@@@*@*;=X",
"  %@@@-*@@@*XX; o *X= ,@  ,  .X  7X2 5@  X@X;*@@@@@@**OX",
"  %@@**@@.oX< 82X 2, o*. 5o7 5;o =, o23o= X, *-@*-@@*;,X",
"  *@@@@@-*:X  5,,& 5oo.*o.o7 5.; 55o <X,6 <oO+O;**@@@&:X",
"  @@@@*;wX,o X *- o5  56 *;o 65 o*.  ,X4 , =5X4&@@@@*-,X",
"  $@@@@.,Xo X428* 5...o* .o* 5.;o..5=XX  <5.,X= 7@@-*;OX",
"  @@@@*<X5  2o* * .55o.7+.=*$.=o .-,X,  *2X,22=,,;***;=X",
"  $@@-=<5 .<+o &  .5  6<Xo3 X 3  5<3=   ,XX=  7<X7@@@;OX",
"  $*-O3*  <X* ;o*o5.56o,2X <X2X 533;  @ 2,X,=  7X,5@*&OX",
"  $@;=< 5 5 o .5; .&.o.744 X-X- 7X= o.*  ,XX<o @X7o*@;=X",
"  @*&O<o.,,oo o5oo*.  .o,58.:5 oX<o o5. *;XX,2 @X7o**&OX",
"  $@-=: ,X2 * ;o9855..55o5 * ;=3, ...o* & ,<X= @XX:;*;OX",
"  $**5o ;o  * .5* .;5 .*0o5* ,X2  .5o.*oo.@XX=6 7X:&*;=X",
"  $#*. 5,,55. o5o .5o 5. o.*4X5  o5 o.. o5o3<X2 2X=;*;OX",
"  %@*5 7X*  ; &05 e.o.o5 5 XX   o..o.o5 ; ; XX,82X:-*&,X",
"  %@@5 ==.&,X2O<,,,<,=,,<,,X7 -,,,4,=,,<=<32X<  ,X2-*;=X",
"  %@*-57,=,=,>,2O=:==:==wOr,o@=,=====:tr,+,>O*.#,>;**&OX",
"  $@@**@-;;-55*;*.-9-;;5*555;;;5;;5.;;;y;;*-5***-****;OX",
"  @@@@@@*-*,331*u435*=3:5<XX3XX:5=XXX=#.<Xo*XXw@***@*;=X",
"  %@@@@@;7<X=2,X*X, -,X5.3X7772+2342=X= XX <X,o@@@@@@-OX",
"  %@-@**-<X*5.&..X,.<<X.oXX6w<77X<o5;5  XX<X,o-@@@@**&OX",
"  $@@@@*5qX ;;-7*XX,3345.XX=X4i2X= **775XX=w  **@@@@*;=X",
"  %@@@**-,<>2=,X%X,882X5.XX @#**<O7=<X< XX .X=;@@@@@*;,X",
"  %@@@@**7=:XXX5oX= *<<o.XXXXXX25=<3X=; XO 7XX;*@@-*@;OX",
"  *@@@@@@@*=7  ;*:o@*:*.**@    o***. .*&, @@,5o@@**@*;=X",
"  %@@@@@@@;@@@@*@@*@@***@@@@*@*@@@@**@**@@@@;***@@@@*&OX",
"  %@@@*;@@@@@@@@@@@@@@@@@@@@@@@@@@@#@@@@@@@**@@@@@@@*&OX",
"  *@@@@*@@@@*@@@@@@@@@@@@@@@@@@@@@@@@@@@@@@@@@@@;@@-*;=X",
"  *;-;--;--;--;-;-;-;-;;&;;;;&;;;;;;;&;;;&;;&;;-;-;;;;=X",
"  =w2>p2>p>p>2>p>2>p>2>p>2>p>2>p>>p>22>p>22>p>2>p>p>p>:X",
"o<XXXX3X3X33X3X3X3XX3XXXXXXXXXXXXXXXXXXXXXXXXXXX3X3X3XXX"};
