/* XPM */
static char * image_name[] = {
"56 46 21 1",
" 	c #FFFFFBEEFFFF",
".	c #BEFBBAEABEFB",
"X	c #000000000000",
"o	c #BEFBB6DABEFB",
"O	c #C71BBAEAC71B",
"+	c #AEBAA699AEBA",
"@	c #F7DEB2CAAEBA",
"#	c #69A68617BEFB",
"$	c #B6DAAEBAB6DA",
"%	c #FFFFFFFFFFFF",
"&	c #082004100820",
"*	c #EFBEF3CEF7DE",
"=	c #9E799A699E79",
"-	c #A6999E79A699",
";	c #AEBAAAAAAEBA",
":	c #A699A289A699",
">	c #FFFFF3CEFFFF",
",	c #96589658AEBA",
"<	c #AEBAAEBAB6DA",
"1	c #965896589658",
"2	c #A69979E78E38",
"                                                       .",
" ......................................................X",
" ooooooooooooooooooooooooooooooooooooooooooooooooooooooX",
" OoOoOoOoOoOoOoOoOoOoOoOoOoOoOoOoOoOoOoOoOoOoOoOoOoOoOoX",
" +ooo+ooo+ooo+ooo+o@o+ooo+ooo+ooo+ooo+ooo+ooo+ooo+ooo+oX",
" oooOooOoOoOoOoOoO@ @OoOoOoOoOoOoOoOoOoOoOoOoOoOoOoOoOoX",
" +O+o+o+o+o+o+o+o@ # @o+o+o+o+o+o+o+o+o+o+o+o+o+o+o+o+.X",
" o.ooo+OooOooo+Oo@ # @+oooOooo+Oo@oOoo+oooOooo+OoooOoo+X",
" +o+O+o+o+o+O+o+.@ # @o+O+o+O+o+@ @+o+O+o+o+O+o+o+o+o+oX",
" .Oo+ooo+Ooo+ooo$@ # @Oo+ooo+o.@ # @+ooo+Ooo+ooo+oOo+OoX",
" +o+o+O+o+o+o+O+o@ #% @+.+O+o+o@ # @O+o+o+o+o+O+o+o+o+oX",
" o+.Oo+o+o+oOo+o+@%#%# @+o+ooO$@ # @oO+o+O+oOo+o+O+oOo+X",
" +o+o+o+O+o+o+O+o@ # #%@o+o+o+o@ # @o+.@O+o+o+o+o+o+o+o&",
" o+o+O+o+o+O+.+o$@ # # @+O+O+o+@ # @+.@ @o+O+o+O+o+O+o+X",
" +O+.+o+o+o+o+o+o@ #*#%@o+.+o+O@ #%@o@ # @.+o+o+o+o+o+OX",
" ++o+++O+++o+++o$@ #%# @+++o++$@%# @+@ #  @o+++O+++o+++X",
" +.+o+o+o+O@O+o+O@%# #  @+.+o+o@ #%@.@ # # @O+o+o+O+o+.X",
" +++++++++@ @+++@% #*#%# @++++@  X%@$@%# # @+++++++++++X",
" +.+o+o+o@ # @o@ # #%X #%@o+o@ # X @o@ #%#%@.+o+o+o+o+oX",
" ++++++++@ # @$@%#%X X%#  @+$@ # X  @@ # #  @++++++++++X",
" +++o+++O@ #  @@ # X X #%# @@@ X X #  %X%#%# @++o+++O++X",
" +++++++@@ X # @ X X X X%# @ @ X X #%# X X%# @+@+++++++X",
" +++++@@ @ X #   X X X X #% #  X X X #%X X X  @ @@@++++X",
" ++++@  X XX X X X X X X X  X XX X X X X X X X X   @+++X",
" =++@ XX XX XX XX XX XX XX X XX XX XX XX XX XXXXXXX @=+X",
" +++$@ #  X X X X X X X X X @ X X X X X X X X X    @$++X",
" ++=+=@ @ #   X   X X X X  @$@  # X   # X X #  @@@@-+=+X",
" +++++$@$@ @@ # @ # X X # @;$$@ # X @ # X X # @$$$;++++X",
" =+=+=+=$=@:@ # @ # X # # @=+=@ # X @ # X #  @;=+=+=+=+X",
" +++++++++++$@ @$@  X #%# @$+$$@  X @@  # # @$$++++++++X",
" =+=+=+=+=+=+=@-;=@ X #%%@$=+=+=@ # @:@ #%#%@=+=+=+=+=+X",
" +=+++=+++=++$=++$@ #%#%@$=+++=$@ # @;@%#%%@$+=+++=+++=X",
" =+=+=+=+=+=+=+=+=@ #%# @=+=+=+=@ #%@-@ # @=+=+=+=+=+=+X",
">+=+=-=+=+=-=+=+=$@%#*#%@+=+=+,+@%# @<@ #%@$,+=+=-=+=+=X",
" =+=+=+=-=+=+=-=+=@ #%# @,+=+=+=@ #%@-@%# @=+=+=+=+=-=+X",
">==-===+===+===+,=@ #%%@===-===$@%# @=-@ @=+===-===+===X",
" =+=+=---=+=-=+=+=@ # @,+=+=+=-=@ # @--1@-+=+=-----=+=+X",
">===========-====-@ #%@=========,@%@===-=,====-========X",
" =+=-------=-=---=@ # @-+=+=--+=+=@-+1+=+=+=-=-=-----=+X",
">=,2==,2==,2=-====@*# @==,2========,============,2=====X",
" ===+===+===+=2,+=@ #%@-+==,-=2=+===+==1-==2+-2,+-==--=X",
">==-=========,====-@ @======-==,====1===-==,=,====,2===X",
" =-=2,=2,=--2=====+=@,==1=-======2+-=2,=2,+=======+=,==X",
">===,=-====,===,2===-=====-2=,2==,-1=,======2===2====1=X",
" =====1=2-======,====1=2,==,===-1==2,=======,===,==2===X",
".XX&X&&&&X&X&XX&&XXXX&&&&&&&&&XX&X&&&&&&XXX&&X&X&X&&&&XX"};
