/* XPM */
static char * image_name[] = {
"56 46 42 1",
" 	c #FFFFFFFFFFFF",
".	c #D75CD34CD75C",
"X	c #000000000000",
"o	c #E79DE79DEFBE",
"O	c #514455554924",
"+	c #965896589658",
"@	c #AEBAAAAAAEBA",
"#	c #AEBAA699AEBA",
"$	c #AEBAAEBAAEBA",
"%	c #A6999E79A699",
"&	c #BEFBB6DABEFB",
"*	c #618561856185",
"=	c #000008200820",
"-	c #AEBAAEBAB6DA",
";	c #A699A289A699",
":	c #71C675D671C6",
">	c #CF3CC71BCF3C",
",	c #B6DAAEBAB6DA",
"<	c #186120812081",
"1	c #208120812081",
"2	c #30C234D330C2",
"3	c #69A669A671C6",
"4	c #28A22CB230C2",
"5	c #9E799A699E79",
"6	c #082004100820",
"7	c #FFFFFBEEFFFF",
"8	c #8E388A288E38",
"9	c #EFBEF3CEF7DE",
"0	c #5144A2894924",
"q	c #AEBA9E795965",
"w	c #BEFBC30BBEFB",
"e	c #79E786179E79",
"r	c #A699A699A699",
"t	c #28A25D754924",
"y	c #D75CDF7DE79D",
"u	c #FFFFF3CEFFFF",
"i	c #492449245144",
"p	c #410338E34103",
"a	c #8E38861779E7",
"s	c #A69979E78E38",
"d	c #000000001861",
"f	c #000000001040",
"                                                      .X",
"  ...................................................oOX",
"  +@#$+##$+##$+##$+##$+##$+##$+##$+##$+##$+##$+##$+@%&*=",
"  -##@@$#@@$#@@$#@@$#@@$#@@$#@@$#@@$#@@$#@@$#@@$#@@$$-OX",
"  ;@$@@@#$@@#$@@#$@@#$@@#$@@#$@@#$@@#$@@#$@@#$@@#$@@$&:X",
"  %@@@@-$-&>>>>>>>>>>>>>>>>>>>>>>>>>>>>>.>>-&@@@-@@@$&OX",
"  ;@@@@,&:==============================X===O$,$@@@@@-:=",
"  %@@@$$<XXXX==========================X=X=XX=$@@@@@$&OX",
"  ;@@@&:X12==XX111111111111111111111111111121XO,$@@@$&3=",
"  @@@$,OX2X.o oXOOO2224222O422OO42222422O2OXOX2&@@@$$,:X",
"  5@@$&O=OXo&$$6O3.3, %@73O:73O:o 8.>: 3OOO6O=2&$@@@$&O=",
"  %#$$&OXO=9$$&XO:,8$>>5 :$o$o#:.@:>o@ :OOOXOX2>$@@@$-*X",
"  ;$#$,OX2Xo>$&X**0O*:OO:O0:O*:O3q***O:OOOO6OX2&$@@@$&3=",
"  %@@$>OXO=9=&,=OOOOOOOOOOOOOOOOOOOOOOOOOOO6OX2>$@$@$&:X",
"  ;@@@&O=OXo$9$=*OOOOOOOOOOOOOOOOOOOOOOOOOOXO62&$#@@$,:=",
"  @@$$&OX2=9&$&=O:-28wO:>*O2.2OO$o+532-:OOO6OX2>@@@@$,OX",
"  %@@$>OXOXo$$$=OO$&$o.> :O  oO8.*O& o :OOOXO62&$$@@$&3=",
"  ;@@$&O=O=ow$&X*3$Oqe:O&O>+2r.O$.5+:2&*OOO6OX2>@@@@$$:X",
"  ;#@$,OX2= >&>=OOOOtOOOOOOOOOOOOOOOOOOOOOOXO62&$@@@@,:X",
"  ;@$$&OXOXX==X=*OOOOOOOOOOOOOOOOOOOOOOOOOO6OX2>@@@$$-*X",
"  ;#@$>O=OX    XO*3O3:OO8OOOqtOO383:O2:OOOOXO62&$@@@$&:=",
"  @@@$&OX2=o@$$=O:>8$o&$ :2, $2:y$0>o, :OOO6OX2>@@@@$,:X",
"  ;#@@>OXO6 >&>X*e>O$.r: 3o.3.o*9 +w$0u3OOOXO=2&$@@@$&3=",
"  ;@@$&O6O6X=X1=OOOOOOOOOOOOOOOOO2OO*iOOOOO6OX2>@@@$$-*X",
"  ;#@@>O=2X  o X*OOOOOOOOOOOOOOOOOOOOOOOOOO6O62&$@@@$&:=",
"  ;@@$&OXO=o&$&=OOOOOOOOOOOOOOOOO2OOOO2OOOOXOX2>@@@@$&3X",
"  ;#@@>OXOX.$$;X*qoOwoq8 :O* :O:o $>&* :OOO6O62&$@@@$&:=",
"  @@@$&O6OX=XXX=4<O330e0+2=r$+=O:=6*$r$2212XO=2>@@@@$,OX",
"  ;@@@>O=X2O2O2O22222p22222222222222212222226X2&$@@@$&3=",
"  ;@@$&OX66X6XXX==X=X=X6X6=6=66XX6666666X66X6X1>@@@$$,:X",
"  ;#@@$32222222222XX=X=X66X66X6X66662222222222O&$@@@$&:X",
"  ;@@@$&&,&&&&>&,&@O6X61X26262X16X6$&>&>&>&>,&&$@@@$$,OX",
"  ;#@@$$$$$$$$$$$$,&8<21O6OXO6O12O,&$$$$$$$$$$$$@@@@$&3=",
"  @@@@@$@$$$$$@@$$$$O6X6X6X6X6X6X1$&$@@@@@@$@@$@@@@$$$:X",
"  ;@@@@@@@,@@#@@@&$2XX66X1626162X61$$$@@@@@@@@@@@@@@@&O=",
"  ;@@@@@$,&>&>&>>&3OO*O:O:O:O3O:OOO*@>>&>&&&,@@@@@@@$&*X",
"  ;#@@@@,O222O=O=X=XX=XXXXX6666XXXXXX62=2222O&$@@@@@$&3=",
"  @@@@@$&O=111XOXXXX=X6X666X6X6X6=X6X6OX111=2,$@@@@@$,:X",
"  ;@@@@$,2=X=XXO6666X6X6X6X6X66X66X6X62XXXXX<&$$@@@@$&3=",
"  @@@@@$$$$@@@$&@@@@@@@&@@@@@@@@@@@@@$&@$@$@$$$@$,@$$-*X",
"  5@@@,$@@@@@@@@@@@@@@@@@@@@@@@@@@@@@@@@@@@@@@@@@$@@$&:=",
"  ;@@@$$@@@@@@@@@@@@@@@@@@@@@@@@@@@@@@@@@@@$,@@@@@@$$,:X",
"  ;#@@@@@@@@@@@@,$@@@@&$@@@@@&@@@@@&@@@,$@@@$@@@@@@@$&OX",
"  $&,@&$,$,$&,&&,&&&&&,&,&&,&,&,&&,$&&$&&&,&&&,&,&&,$>:X",
"  :8e8888e8eae0e0e0seqe088e0808eae8eaqe0e08e0ae88eae88*=",
"o2XXX=XXX6XXX=X=66d=XX6d666ffXX=X=XXXX=X=X=XXX===X=XXX=X"};
