/* XPM */
static char * image_name[] = {
"56 46 24 1",
" 	c #FFFFFFFFFFFF",
".	c #BEFBBAEABEFB",
"X	c #000000000000",
"o	c #AEBAAAAAAEBA",
"O	c #AEBAA699AEBA",
"+	c #C71BBAEAC71B",
"@	c #F7DEB2CAAEBA",
"#	c #BEFBC30BBEFB",
"$	c #69A68617BEFB",
"%	c #9E799A699E79",
"&	c #082004100820",
"*	c #000008200820",
"=	c #71C679E78617",
"-	c #AEBAAEBAAEBA",
";	c #000000001861",
":	c #B6DAAEBAB6DA",
">	c #AEBAAEBAB6DA",
",	c #BEFBB6DABEFB",
"<	c #A6999E79A699",
"1	c #96589658AEBA",
"2	c #CF3CC71BCF3C",
"3	c #000000001040",
"4	c #AEBAB2CACF3C",
"5	c #965896589658",
"                                                       .",
" ......................................................X",
" ......................................................X",
" ......................................................X",
" o...O...O...O...O...O...O...O...O...O...O...O...O...O.X",
" ......................................................X",
" o.O.O.O.O.O.O.O.O.O.O.O.O.O.O.O.O.O.O.O.O.O.O.O.O.O.o.X",
" .....O.......O.......O.......O.......O.......O.......oX",
" o.O.o.o.O.O.o.o.O.O.o.o.O.O.o.o.O.O.o.o.O.O.o.o.O.O.O.X",
" ...o...o...o...o...o...o...o...o...o...o...o...o...o.+X",
" o.o.O.O.o.O.o.O.o.O.o.O.o.O.o.O.o.O.o.O.o.O.o.O.o.o.o.X",
" .o               ..o.o.O.o...o.o        .o.       ...oX",
" o. @.@@#@.@.@@.@.$%oO.o.o.O.O.o.$@@.@.@$o.o$@.@.@.$.o.X",
" .o #@#$&$@.$*$@#@X%o.o.o.o.o.o.oo$$@#@&$oo.o$@#@$&$%.oX",
" o. @.&$% #@*=$*@.&%oo.o.O.o.o.o.o+-*@#@*$ooo .@*X$%oo.X",
" oo @&$%% @.;$%:*@X$o.O.ooo.ooo.oo-o:*@.@&$o .@&&$%.oooX",
" o. $*=>, .@;$<oo$&%oo.o.o.O.o.O.o.o.o&@#@& .@*X$%.o.o.X",
" ooo&$1>o @.&$%ooX&$ooooooooooooooooooo*@.@.@*X$%ooooooX",
" o.o%%OO. .@*=>oo.$%oo.o.O.o.o.o.o.o.o.o$@#@*X$<.o.o.o.&",
" oooooooo @.;$%oo               oooooooo>#@.&$%ooooooooX",
" ooo.ooo. .@*$%ooo$@.@.@.@.@.@.@Xooo.ooo @.@.&oo.ooo.ooX",
" oooooooo @.&$%oooo$@#@X*X*X*$@.X$ooooo @#@#@.&ooooooooX",
" oooooooo .@&$%oooo>o@#&=$$%$%$@*=>ooo @#@*@.@.XoooooooX",
" oooooooo @.&$%ooooo #@;$ooooo$+;$:oo @.@&*$@#@.&ooooooX",
" %ooo%ooo .@*=>ooooo @.&$<ooo%o*X$oo @#@*&=>$@.@$$ooo%o&",
" oooooooo @.;$%ooooo #@X$%oo ooo$$o @.@&&$>O>$@2@&$ooooX",
" oo%o%o%o .@*$%%ooo% @.&$%o  @*%oo  .@*3=>O1o%$@.@&=>%oX",
" ooooooo #@.@$%ooooo #@$    @.&$.  #@.&$1Ooo.. #@.@;$ooX",
" %o%o%  .@#@.@$%ooo% @#@.@.@#@X= @.@#@.@&%o%  .@#@#@*$o&",
" ooooooXXX;&*&&$%ooo .@&&*X*@.;$>X&3&&&&;=oooXXX;&&&&$oX",
" %o%o%o%$$=$$$$$<oo% @#3=$$$&@&$o%$=$=$$$$>%o%=$=$$$$$o&",
" o%ooo%oo>>:oo%ooo%o .@;$o<ooX&$oo>>>4>o::%ooO4>4:<ooo%X",
" %o%o%o%o%o%o<o%o%o% @#&$%o%o%o$o%>1:%O%o%o%o%O<O%o%o%o&",
" o%o%o%o%o%o%o%o%o%o .@&$%%o%oo Xo%O%o%o%o%o%o%o%o%o%o%X",
" %o%o%o%o%o%o%o%o%oo @.&$%o%oo @*$o%o%o%o%o%o%o%o%o%o%oX",
" %%o%%%o%%%o%%%o%oo @#@.      @.&$%o%%%o%%%o%%%o%%%o%%%X",
" %o%o%o%o%o%o%o%o  @#@.@.@.@.@#@X$o%o%o%o%o%o%o%o%o%o%o&",
" %%%%%%%%%%%%%%%%%X3&&*&*X*X*X&X&$%%%%%%%%%%%%%%%%%%%%%X",
" %o%o%o%o%o%o%o%o%o=$=$$=$$$$=$$$$o%o%o%o%o%o%o%o%o%o%oX",
" %%%%%%%%%%%%%%%%%o14>O1>o%%1>%<%%%%%%%%%%%%%%%%%%%%%%%X",
" %%%o%%%o%%%o%%%o%%%O5%%1<%%O%%%o%%%o%%%o%%%o%%%o%%%o%%X",
" %%%%%%%%%%%%%%%%%%%%1%<%%%%%%%%%%%%%%%%%%%%%%%%%%%%%%%X",
" %o%%%%%%%o%%%%%%%o%%%%%%%o%%%%%%%o%%%%%%%o%%%%%%%o%%%%X",
" %%%%%%%%%%%%%%%%%%%%%%%%%%%%%%%%%%%%%%%%%%%%%%%%%%%%%%X",
" %%%%%%%%%%%%%%%%%%%%%%%%%%%%%%%%%%%%%%%%%%%%%%%%%%%%%%X",
".XXXXXXXXXXXXXXXXXXX&XXXX&XX&XXXXXXX&XX&X&X&X&XXXXXXXX&X"};
