/* XPM */
static char * image_name[] = {
"56 46 26 1",
" 	c #FFFFFFFFFFFF",
".	c #BEFBBAEABEFB",
"X	c #000000000000",
"o	c #BEFBB6DABEFB",
"O	c #AEBAAAAAAEBA",
"+	c #AEBAA699AEBA",
"@	c #C71BBAEAC71B",
"#	c #69A68617BEFB",
"$	c #9E799A699E79",
"%	c #71C679E78617",
"&	c #082004100820",
"*	c #000000001040",
"=	c #000000001861",
"-	c #F7DEB2CAAEBA",
";	c #AEBAAEBAAEBA",
":	c #FFFFFBEEFFFF",
">	c #79E79248B6DA",
",	c #A699A699A699",
"<	c #DF7DBAEA8E38",
"1	c #000008200820",
"2	c #51445555FFFF",
"3	c #79E786179E79",
"4	c #A6999E79A699",
"5	c #BEFBC30BBEFB",
"6	c #BEFBC30BCF3C",
"7	c #AEBAAEBAB6DA",
"                                                       .",
" ......................................................X",
" ......................................................X",
" ...o..o..o..o..o..o..o..o..o..o..o..o..o..o..o..o..o..X",
" O...O...+...O...O...+...O...O...+...O...O...+...O...O.X",
" ..o..                                           Oo.@o.X",
" O.O@O #$## $#$#$#$#$#$#$#$#$########### ###X ###X.O.O.X",
" ..... $#$# $$#$#$#$#$#$#$#$#$#$#$#$#### ###X ###X....OX",
" O.+.O #$## $#$#$#$#$#$#$#$#$#$#$#%####& ###& ###&.+.O.X",
" ...O..XX&XXX&X&&&&&&&&&&&&&&&&&&*=&&&&XX&&&XX&&&X..+..X",
" O.+.O X.........o...o...o...o.............o. $$$X.O.O.X",
" .O... X....o..o...o...o...........o.....o... $#$XOo..OX",
" O.O.O X.o................................... #$#X.O.+.X",
" .+.O. X..................o...o..o...o.o..... $#$XO.O.OX",
" O.O.O X...X#&o&X.X#&#&#.&#&.&&.&.&.&&.&#...o #$#&.O.O.X",
" OO.OO X.....................o............... $##X+.O#OX",
" O.O.O X...X.X#.XX.X.XX.X#.XX.X.XX.&o&X.X.... #$#&.##-.X",
" OOOOO Xo.................................o.. $####-  OX",
" O.O.O X...XX#.&X.X#&oX.X&.X.XX.X#.XX.X#..... ###-    .X",
" OOOOO X.................o...................##-    -OOX",
" OOO.O X...X#&oX.XX.#&#.................o.o##-    -;$$OX",
" OOOOO X........................o..o..o..##-    -;$$$$OX",
" OOOOO X.o.XX#.XX.XX.X#&X.X.X#&#.&$&$..##-    -;$$$$#XOX",
" OOOOO X.............................##-    -;$$$$#XXXOX",
" $OOO$ X...XX.&X.X.XX.XX.X.XX.XX.X..&-    -;$$$$#XXXXXOX",
" OOOO; X.....o.....................X    -;$$$$#XXXXXX#OX",
" ;O$O$ X...X#&.#.XX.X.XX.#&oXX.X..#$  -;$$$$#XXXXXX#O$OX",
" OOOOO X.........................# $-;$$$$#XXXXXX#;OOOOX",
" $O$O$ X.o.&#X.XX.X.............#:-$#$$$#XXXXXX##&O$O$OX",
" OOOOO X.............o...o.....#  -$X$#XXXXXX#$##XOOOOOX",
" $O$O$ X...XX#.X.X#&.XX.#&.X..% ---;>XXXXXX#$.###&O$O$OX",
" O$OO; X...........o........@%*,<,,<,XXXX#$.. ###X$OOO$X",
" $O$O$ X.o.X.&X.XX.&X.#&.X#.#==1%2>3%##4..... ###&O$O$OX",
" O$O$O X....o......o....o.@.....555666....... ###&$O$O$X",
" $O$O$ X...X#&oX.#&.X...........o...o........ #%#*O$O$OX",
" $$O$$ X..........o.......o...47......o....o. ###&$O$$$X",
" $;$O$ X..............o...o@o.+$$Oo.......... ###&O$O$OX",
" $$$$$ X...o........o..........$$$$7..o...... ###&$$$$$X",
" $O$O$ X.....o.o......o...o....+$$$$$O.@o.... ###&O$O$OX",
" $$$$$ X  ::     ::::   :       .......   ::  ###&$$$$$X",
" $$$O$ XXXXXXXXXXXXXXXXXXXXXXXXXXXXXXXXXXXXXXX&&&X$$O$$X",
" $$$$$$$$$$$$$$$$$$$$$$$$$$$$$$$$$X$X$X$X$$$$$$$$$$$$$$X",
" $$$$$$$$$$$$$$$$$$$$$$$$$$$$$$$$#$X$X$X$X$$$$$$$$$$$$$X",
" $$$$$$$$$$$$$$$$$$$$$$$$$$$$$$$$$#$X$X$X$X$$$$$$$$$$$$X",
" $$$$$$$$$$$$$$$$$$$$$$$$$$$$$$$$$$#$#$#$#$#$$$$$$$$$$$X",
".XXXXXXXXXXXXXXXXXXXXXXXXXXXXXXXXXXXXXXXXXXXXXXXXXXXXXXX"};
