/* XPM */
static char * image_name[] = {
"56 46 32 1",
" 	c #FFFFFFFFFFFF",
".	c #D75CD34CD75C",
"X	c #000000000000",
"o	c #E79DE79DEFBE",
"O	c #514455554924",
"+	c #965896589658",
"@	c #A699A289A699",
"#	c #AEBAAEBAAEBA",
"$	c #8E388A288E38",
"%	c #AEBAA699AEBA",
"&	c #B6DAAEBAB6DA",
"*	c #618561856185",
"=	c #A6999E79A699",
"-	c #AEBAAAAAAEBA",
";	c #AEBAAEBAB6DA",
":	c #69A669A671C6",
">	c #71C675D671C6",
",	c #5144A2894924",
"<	c #BEFBB6DABEFB",
"1	c #CF3CC71BCF3C",
"2	c #EFBEF3CEF7DE",
"3	c #492449245144",
"4	c #186120812081",
"5	c #28A22CB230C2",
"6	c #79E786179E79",
"7	c #D75CDF7DE79D",
"8	c #AEBA9E795965",
"9	c #AEBA61856185",
"0	c #208120812081",
"q	c #FFFFFBEEFFFF",
"w	c #A69979E78E38",
"e	c #000008200820",
"                                                      .X",
"  ...................................................oOX",
"  +@##$#%#$#%#$#%#$#%#$#%#$#%#$#%#$#%#$#%#$#%#$##%$##&*X",
"  =-----#---#---#---#---#---#---#---#---#---#-----;--;*X",
"  =--------------------------------------------------&:X",
"  =-------------------------------------------------#&OX",
"  @---&---&---&---&---&---&---&---&---&---&---&------&>X",
"  =------&&&&&&&&&&&&&&&&&&&&&&&&&&&&&&&&&&&&&-,+-#&#;*X",
"  =-&---&:>:O:>O:>O:*:>O:>O:*:>O:>O:*:>O:>:O:>:.o--#-<:X",
"  #----#&+12o2oo2oooo2oo2oooo2oo2oooo2ooo2ooo.& .---#&OX",
"  +---&#&>.                                .;.o##+---&>X",
"  -----#&:o                               +#  1--%--#&>X",
"  =-----&+o  :X X*3+ #O4Oo:O:O,o54O;+OOO O.  &##---&-&*X",
"  =--#&#&:.  2ooooo  o oooooo.o         :  o+#&+#&-##&OX",
"  @---##<$o  $++6O6.1;<+:$+++O$<      1,  .##&#*:&#--&>X",
"  =-&---#6o  :,,>#o:>:,O:,,: :,*O::+ +#  1##&-O3,<#-#;*X",
"  =#----&>1                     7o  $1  &#--&+3O>&--&&:X",
"  =---&-&$o  ###&###&#-# 1-+   o>:1+.  -+-&;$OOO:&-##&>X",
"  @-----&8o  XXXXXXXXXXXOXXX  :$#.1o .#--&&:O3OX*;#-#&OX",
"  -----#&:.  oo  1XO o o  XX4  oo.. .##&&&OOOOO:-<--#&>X",
"  =--&--&+o  >+1>>XO.11.$1oOXX>O11 1+%;+OOO35OX>&--&#&*X",
"  =----##6o  $#&&+X>o>::69> $64. o@#&;$OO3OX5$4>&--##&:X",
"  @----&&>1  X> >OX45XXXXXX- :$1 #--&>3OOOXO o5:&&#-#&OX",
"  =-&--#&+o  oo77&XO$41  o  41  &&--:OO3OX>  1X>&##--->X",
"  =#----&:2  ++%:$XO:X+-#O$@:  . o&*OO30X-1+ .X8&#-&#&*X",
"  =----#&>1  >::5>X5OX5O5  5  &71.:O3OXX1    .5:&--##&>X",
"  @#--&#&+o      1X>$XXXXoO#  o1o##&>XO      1X>&##--&*X",
"  -----#&>o      .XO34O+.1:  .12+>:*5>       .4:<&-#&&>X",
"  =-----&>1  OOO$:XO4O@1 O. 121#:>XXXO+$:    14:&##-#&*X",
"  =--&-#&+o  XXX& &@OXO#>.1 @;9X5O:$OXX4o    1X>&#--#&:X",
"  @#----&:2  .77 &&.:04XO&7>XXO-     +XX     .4:&#&##&*X",
"  =----#&>7  +%# +$&1 $XX5XX+.        1$     14>&####&:X",
"  =#-&--&+o       oO>#5XX4$+qOXOO>+45O>:O    1X:&&#--&OX",
"  =---#&&:o  # 1.&7. #X5.1o7.o .  1  oo17.1  74>&###&&>X",
"  =#---#&>o  O +$:#$1&:>:5+$+- 6&7$11++*+++  .X$&#--#&OX",
"  @&---#&+o           1#&&..1                1X:&--##&>X",
"  =#--&-&>o            7&<#&&##1             o5>&&<#-&OX",
"  =----##68$$+6$+6$+6$++:OOOOOOOO:+6$+$$$$$++:X>&##-#&>X",
"  @#----&+:XXXXXXXXXXXX440444440X4XXXXXXXXXXX5O:&#--&&*X",
"  ---&-#&&&&&&&&&&&&&&&-&#------&&&&&&&&&&&&&&###--##&:X",
"  =-----##&#<&<#<##<&#&#&----<-&&&&<#<&#<&<#<##&#-&#-&*X",
"  =------########&#####-#-------###########&#--#--#-##:X",
"  @#--&----&##&####-#-----<--&---#&##&########&#-----<*X",
"  #&&&&<&&&&&&&&&&&&<&&&&&&&&&&&&&&&&<&&&&&&&&&&&<&<&1:X",
"  >$w68696$96$696$$96$$$$$96$$96$869686$69696$$$$6$$6$>X",
" 5XXXXXXeXX4XXeeeXeeXXXXXXeeXXeeXXXeeXXXeee4XXXXXXXXXXXX"};
