/* XPM */
static char * image_name[] = {
"56 46 24 1",
" 	c #FFFFFFFFFFFF",
".	c #BEFBB6DABEFB",
"X	c #CF3CC71BCF3C",
"o	c #000000000000",
"O	c #AEBAAEBAB6DA",
"+	c #AEBAAEBAAEBA",
"@	c #BEFBC30BBEFB",
"#	c #B6DAAEBAB6DA",
"$	c #000008200820",
"%	c #BEFBC30BCF3C",
"&	c #DF7DBAEA8E38",
"*	c #AEBAB2CACF3C",
"=	c #BEFBBAEABEFB",
"-	c #082004100820",
";	c #AEBAAAAAAEBA",
":	c #F7DEB2CAAEBA",
">	c #A699A699A699",
",	c #AEBAA699AEBA",
"<	c #9E799A699E79",
"1	c #96589658AEBA",
"2	c #A6999E79A699",
"3	c #A699A289A699",
"4	c #FFFFFBEEFFFF",
"5	c #965896589658",
"                                                       .",
" .X..X..X..X..X..X..X..X..X..X..X..X..X..X..X..X..X..X.o",
" ..XO.X.+X.OX.OX.OX.OX.OX.OX.OX.OX.OX.OX.OX.OX.OX.OX.OXo",
" .+@@+@O@@+.@O@@+.@O@@+.@+@@+.@O@@+.@+@@+.@O@@+.@+@@.@#o",
" +@O@+.+@+.+$+@.@++@+$@o#@+@@++X.+@.+.#@@+.O@+@+.+.O++.o",
" O.X.#X@.@@%.o.+@X.oX.oX.o@.O%&@@O.@+.@O@@@.@X.@..@@@@Oo",
" +@+O+.+O+@+.+o+.+o$.oo+o+@oX+*+.+@+$$$oooX+++.+@+.+.+@$",
" .#@@.+.X.#@XX#oXo.oo.+oo.o.X.+@XO.$o.#oooo$X.$@+@X&..+o",
" +@+#+O+@+#+++.+ooooooo+.oo#o+.+.+$oo#X.ooooooo+X+O+%+.o",
" =@#+@%&+@+.#O=ooooooooooX.o+X+%+.oo+O..oo$o$o.#+..%+OXo",
" +O+O++O%+@+X+.o.+ooo+oooooo.$.+#+oo.+%+.oooo+X+%+++O+.o",
" .+@X.+.+.+...oo+oooo.-oooo.$#+.+.+oo.+.+#;X.@+O+O+...+o",
" +X+.+.+O+&O+@oooo$oo+ooooooo.o+#+%ooo@+O+.+#+:+%+.+#+=o",
" #+.+++.+%+%+oooooo$Oooo-ooo+o+X+.+.oooooo+#+@+#+#+X+.Oo",
" O.+%+.+O+O+O$oo.oo;-o-ooooooo.o.+O#X$oooooo%+*+.+.+@+#o",
" ++.+++@+++=+oo.oo+.oooo-o$o+.o.++++++#.+oooo++#+++%+++o",
" +#+O+.+&.%+O+%+.+%+.oooooooooo.o+%O.+.+.+.ooo.+@;#>++.o",
" ++++;;+O+++;+O+O;+;+ooo-o-oo++o+++#oooo;;++oo++;++.+++o",
" ;%;.;%+@+#OX;.;%O.;.oooooo-oooo.ooooooooo.;oo.;%+++.+%o",
" ;+;;+++;;;+;+;;+;;;ooo-o-oooo;+oooooooooooooo;;;+;++;+o",
" ;;;X;;,.+;;.+;;.+;;oooooo-o-ooooo-oo-ooooooo+;;.;+;%;;o",
" ;;;;;;++;;;;;;;+;;oooo-;+ooo-oo-oo-oooo-oo;+.;+#;;;+;;o",
" ;;;;;;,;#+;O;;;;;;oooooo-;oooo-ooooo-o-oo-o;;;+++;;;;;o",
" ;;;;;;;;+;;#;;;;;.oo;o-ooo-o-oooo-;oooooooo;;;.;;;;;;;o",
" <;;;<+;.<+#oooooo;-#o-oo-o;ooo-ooo+-o-o-ooo.<+;;<#+;<;o",
" ;;;,++,+++.oooooo;o+ooooo;oo-oo-o-o;ooooooo++,++;+;;;;o",
" ;;<;+,<,+,<-o=-o-#o;-o-oo#o-oooooo-;o-o-o-1;<,+,;;+;<;o",
" ;+;;,++#++#o-#;#oo#o#ooo-;ooooo-o;;o#ooooo;+,+,+;;;;;;o",
" <+<#<,<+<,<oo#1;1;1;1-oo2o-o-o2;<;oo1-o-o-<.<;<,<;;;<,o",
" ,;;#+;;,;;;oo;;;;;;;;o-o;+#;;;;.;;#o-#ooo--,+,.;;;;,;;o",
" <;;;<#<;;;<-o#;;3;>;oooo1;;;1+<;<;;+oo<-oooo<+<,;;<;<;o",
" ,<;;;<;+#<.oo-;;;,+#-o-;;<;;.<;;;;;;;--;;o-o-,;;;2+.,<o",
" <+<,<#<;<;<,ooo;1;<,ooo;<;<;<,<#<;<-ooo-1#ooo+<,<,<,<,o",
" ,<#;+1#<;,+1+oo-;<;<oo;<#<#<,<+<;<ooo-;<;<o-,<,;;;,<+<o",
" <#<;<;<;<;<;1;-o<#<oo-<;<;<#<#<#<-o-<#1.<-oo1;;;<,;,,+-",
" +<;<;<;;1<,;;<;o<<;-o<.1,<+1;<;1oo,<;1;+<o-12<,<<<;<<<o",
" <,<,<;<,<#<;<,<.<,<oo;<;<;<;<;1--o<#<;<#oo<.<;1;<,2,1#o",
" 1;<<<12;<<2<<,<<#<o-<1<;<22<2><o-<<2<<,<o-<><22<2<<<<<o",
" <;<.<;<,2#<#<,<,<,o-<,<;>#<,<,---;1;<,1-o+1;<;<><,2;<;-",
" <21<<><;<2<,<22,<o-<,1><2<<12<-o-,<<><-o-1><<2>1><2<,<o",
" <<;,<<1,<<1,<<<,oo<,2<<#<1>#<1-o11<#<--+,2<#<<<#<12;2<-",
"4>1<<2<2<<<2<<2<oo-;<1252<2<<<><<2<><---2<25<,125>1<<2<o",
" <,<>1<<<>,<<21<2<,<<<2<2<,2<21<2<,<121<<>,2<2<<<,,<<<<-",
" 212<<2<2<<<><122<12<<<<2<2<25<2<>12<<2><1<12<<,<<<<<,<o",
" <2<2<2<<2<2<<><<><12<225<<2<2<<<<<<2<<<2<<<<<2<<2<,<<<-",
"#------------------------------------------------------o"};
