/* XPM */
static char *usercfg[] = {
/* width height num_colors chars_per_pixel */
"    64    64       20            1",
/* colors */
". c #000000",
"# c #050505",
"a c #171717",
"b c #272727",
"c c #383838",
"d c #474747",
"e c #565656",
"f c #676767",
"g c #777777",
"h c #797979",
"i c #878787",
"j c #989898",
"k c #9b9b9b",
"l c #a8a8a8",
"m c #b8b8b8",
"n c #c8c8c8",
"o c #d8d8d8",
"p c #e8e8e8",
"q c #fafafa",
"r c #ffffff",
/* pixels */
"qqqqqqqqqqqqqqqqqqqqqqqqqqpqppppppppooooooononnnnnmnmmmmmlmllllj",
"qqqqqqqqqqqqqqqqqqqqqqqpqpqpqpppppoppoooononnnnnnmnmmmmlmllllljj",
"qqqqqqqqqqqqqqqqqqqqqqqqqpqpppppppooooooonononnnmnmmmmmmlmlljjlj",
"qqqqqqqqqqqqqqqqqqqqqqppqppqppppoopooooononnnnnmnmmmmmmlllljljjj",
"qqqqqqqqqqqqqqqqqqqqpqqpqppppppppooooononnnnnmnmmmmmmllmllljjjji",
"qqqqqqqqqqqqqqqqqqqqqpqpqpppppooooooooononnnnnmnmmmmlmlljljjjjij",
"qqqqqqrrrrrrrrrrrrrrrrrrrrrrrrrrrrrrrrrrrrrrrrrrrrrrrrrrrkjjjjii",
"qqqqqqrkkkkkkkkkkkkkkkkkkkkkkkkkkkkkkkkkkkkkkkkkkkkkkkkkk.jjjiii",
"qqqqqqrkkkkkkkkkkkkkkkkkkkkkkkkkkkkkkkkkkkkkkkkkkkkkkkkkk.jiijii",
"qqqqqqrkkkkkkkkkkkkkkkkkkkkkkkkkkkkkkkkkkkkkkkkkkkkkkkkkk.ijiiig",
"qqqqqqrkkkkkkkkkkkkkkkkkkkkkkkkkkkkkkkkkkkkkkkkkkkkkkkkkk.jiiiig",
"qqqqqqrkkkkkkkkkkkkkkkkkkkkkkkkkkkkkkkkkkkkkkkkkkkkkkkkkk.iiiggg",
"qqqqqqrkkkkkkkkkkkkkkkkkkkkkkkkkkkkkkkkkkkkkkkkkkkkkkkkkk.iigigg",
"qqqqqqrkkkkkkkkkkkkkkkkkkkkkkkkkkkkkkkkkkkkkkkkkkkkkkkkkk.gigggg",
"qqqqqqrkkkkkkkkkkkkkkkkkkkkkkkkkkkkkkkkkkkkkkkkkkkkkkkkkk.iggggf",
"qqqqqqrkkkkkkkkkkkkkkkkkkkkkkkkkkkkkkkkkkkkkkkkkkkkkkkkkk.gggggf",
"qqqqqqrkkkkkkkkkkeeeeeeeeeeeekkkkkkkkkkeeeekkkkkkkkkkkkkk.iggfff",
"qqqqqqrkkkkkkkkeehhhhhhhhhhhheekkkkkkkehhhhekkkkkkkkkkkkk.gfgfff",
"qqqqqqrkkkkkkkehhhhhhhhhhhhhhhhekkkkkehhhhhhekkkkkkkkkkkk.gfffff",
"qqqqqqrkkkkkkehhhhhhhhhhhhhhhhhhekkkkerrrrrrekkkkkkkkkkkk.fgfffe",
"qqqqpqrkkkkkehhhhhhhhhhhhhhhhhhhhekkkerrrrrrekkkkkkkkkkkk.fffefe",
"qqqqqprkkkkkehhhhhhhhhhhhhhhhhhhhekkkererrerekkkkkkkkkkkk.ffffee",
"qqpqqprkkkkehhrrrrrrrrrrrrrrrrrrhhekkerrrrrrekkkkkkkkkkkk.feeeee",
"qqqpqprkkkkehrrrrqqrrrrrrrrrrrrrrhekkerreerrekkkkkkkkkkkk.fffeee",
"qpqpqprkkkkerrrrrrrrrrrrrrrrrrrrrrekkkerrrrekkkkkkkkkkkkk.eeeede",
"pqqppqrkkkkerrrrrrrrrrrrrrrrrrrrrrekkkkeeeekkkkkkkkkkkkkk.eeeedd",
"qppqpprkkkkerrrrrqqrrrrrrrrrrrrrrrekkkkkkkkkkkkkeeeekkkkk.eededd",
"pqpppprkkkkerrrrrrrrrrrrrrrrrrrrrrekkkkkkkkkkkkehhhhekkkk.eedddd",
"pqpppprkkkkerrrrrrrrrrrrrrrrrrrrrrekkkkkkkkkkkehhhhhhekkk.dedddc",
"pppppprkkkkerrrrrrrrrrrrrrrrrrrrrrekkkkkkkkkkkerrrrrrekkk.dddddc",
"pppppprkkkkerreeeeeerrrrrreeeeeerrekkkkkkkkkkkerrrrrrekkk.dddccc",
"pppoporkkkkerrereeererrrrereeererrekkkkkkkkkkkererrerekkk.ddcdcc",
"ppppoprkkkkerrrrrrrrrrerrrrrrrrrrrekkkkkkkkkkkerrrrrrekkk.ddcccc",
"pppooorkkkkerrrrrrrrrrrerrrrrrrrrrekkkkkkkkkkkerreerrekkk.cccccb",
"poopoorkkkkerrrrrrrrrrerrrrrrrrrrrekkkkkkkkkkkkerrrrekkkk.cdcbcb",
"opoooorkkkkerrrrrrrrrrrerrrrrrrrrrekkkkkkkkkkkkkeeeekkkkk.ccccbb",
"opoooorkkkkerrrrrrrrrrerrrrrrrrrrrekkkkkkkkkkkkkkkkkkkkkk.ccbbcb",
"oooooorkkkkerrrrrrrrrrrerrrrrrrrrrekkkkkkeeeekkkkkkkkkkkk.bcbbbb",
"ooononrkkkkerrrrrrrrrrererrrrrrrrrekkkkkehhhhekkkkkkkkkkk.bcbbba",
"oooonnrkkkkerrrrrrrrrrrrrrrrrrrrrrekkkkehhhhhhekkkkkkkkkk.bbbbab",
"onnonorkkkkerrrrrrrrrrrrrrrrrrrrrrekkkkerrrrrrekkkkkkkkkk.bbbbaa",
"oonnnnrkkkkerrrrrrerrrrrrrrrerrrrrekkkkerrrrrrekkkkkkkkkk.bbaaaa",
"nonnnnrkkkkkerrrrrreeeeeeeeerrrrrekkkkkererrerekkkkkkkkkk.bbabaa",
"onnnnnrkkkkkerrrrrrrrrrrrrrrrrrrrekkkkkerrrrrrekkkkkkkkkk.baaaaa",
"nnnnmnrkkkkkkerrrrrrrrrrrrrrrrrrekkkkkkerreerrekkkkkkkkkk.aaaa#a",
"nnnnnmrkkkkkkkerrrrrrrrrrrrrrrrekkkkkkkkerrrrekkkkkkkkkkk.aaaa##",
"nnnmmnrkkkkkkkkeerrrrrrrrrrrreekkkkkkkkkkeeeekkkkkkkkkkkk.aa#a##",
"nnmnmmrkkkkkkkkkkeeeeeeeeeeeekkkkkkkkkkkkkkkkkkkkkkkkkkkk.aa#a##",
"nmmmmmrkkkkkkkkkkkkkkkkkkkkkkkkkkkkkkkkkkkkkkkkkkkkkkkkkk.#a####",
"nmnmmmrkkkkkkkkkkkkkkkkkkkkkkkkkkkkkkkkkkkkkkkkkkkkkkkkkk.a#####",
"mmmmmlrkkkkkkkkkkkkkkkkkkkkkkkkkkkkkkkkkkkkkkkkkkkkkkkkkk.a#####",
"nmmmmmrkkkkkkkkkkkkkkkkkkkkkkkkkkkkkkkkkkkkkkkkkkkkkkkkkk.######",
"mmmlllrkkkkkkkkkkkkkkkkkkkkkkkkkkkkkkkkkkkkkkkkkkkkkkkkkk.######",
"mmmmmlrkkkkkkkkkkkkkkkkkkkkkkkkkkkkkkkkkkkkkkkkkkkkkkkkkk.######",
"mlllllrkkkkkkkkkkkkkkkkkkkkkkkkkkkkkkkkkkkkkkkkkkkkkkkkkk.######",
"mmlmllrkkkkkkkkkkkkkkkkkkkkkkkkkkkkkkkkkkkkkkkkkkkkkkkkkk.######",
"lmllllrkkkkkkkkkkkkkkkkkkkkkkkkkkkkkkkkkkkkkkkkkkkkkkkkkk.######",
"lllljlk...................................................######",
"lllljjjjjiiiigiggfgfffffeeeededdcdccccbbbbbbaaaa################",
"lljljjjijiiiigggggfffffeeeeedddddccccbcbbbabaaaaa#a#############",
"lljjjjjiiiigigggfffffeeeeededddcccccbbbbbbaaaa##a###############",
"jljjjijiiiiggggfgffffefeeeddddcdcccbcbbbbaaaaaa#################",
"jjjjjiiiigiggfgffffeeeeededddccccbcbbbbaaaaa##a#################",
"jjjijiiiigggggfffeffeeeeddddcdccccbbbabbaaaaa###################"
};
SIMPLE  =                    T                                                  BITPIX  =                    8                                                  NAXIS   =                    2                                                  NAXIS1  =                   64                                                  NAXIS2  =                   64                                                  HISTORY Written by XV 3.10a                                                     END                                                                                                                                                                                                                                                                                                                                                                                                                                                                                                                                                                                                                                                                                                                                                                                                                                                                                                                                                                                                                                                                                                                                                                                                                                                                                                                                                                                                                                                                                                                                                                                                                                                                                                                                                                                                                                                                                                                                                                                                                                                                                                                                                                                                                                                                                                                                                                                                                                                                                             ˜˜˜‡˜‡‡‡‡wwwwwgggVggVVVVGGGG8G8888'''''˜˜˜˜˜‡‡‡‡w‡wwgwggggVVVVVGVGGG8888'8''''˜¨˜˜˜‡˜‡‡‡‡wwwwgwggggVgVVVGGGG8G888'8''''¨¨˜˜˜˜˜‡‡‡‡w‡wwwgggggVVVVVGVGGG88888''''''¨¨˜¨˜˜˜‡˜‡‡‡‡wwwwwgggggVVVVVGGGGG8888'8''''¨¨¨¨˜˜˜˜˜‡‡‡‡w‡wwgwgggggVVVVGVGG8G8888''''''¨¨¨¨˜¨›                                                   ¨¸¨¨¨¨ÿ›››››››››››››››››››››››››››››››››››››››››››››››››› ¸¸¨¸¨¨ÿ›››››››››››››››››››››››››››››››››››››››››››››››››› ¸¨¨¨¨¨ÿ›››››››››››››››››››››››››››››››››››››››››››››››››› ¸¸¸¸¸¨ÿ›››››››››››››››››››››››››››››››››››››››››››››››››› ¸¸¸¨¨¨ÿ›››››››››››››››››››››››››››››››››››››››››››››››››› È¸¸¸¸¸ÿ›››››››››››››››››››››››››››››››››››››››››››››››››› ¸¸¸¸¸¨ÿ›››››››››››››››››››››››››››››››››››››››››››››››››› È¸È¸¸¸ÿ›››››››››››››››››››››››››››››››››››››››››››››››››› È¸¸¸¸¸ÿ›››››››››››››››››››››››››››››››››››››››››››››››››› ÈÈ¸È¸¸ÿ››››››››››VVVVVVVVVVVV›››››››››››››››››››››››››››› ÈÈÈ¸¸Èÿ››››››››VVÿÿÿÿÿÿÿÿÿÿÿÿVV››››››››››VVVV›››››››››››› ÈÈÈÈÈ¸ÿ›››››››VÿÿÿÿÿÿÿÿÿÿÿÿÿÿÿÿV››››››››VÿÿÿÿV››››››››››› ÈÈÈÈ¸Èÿ››››››VÿÿÿÿÿÿÿÿÿÿÿÿÿÿÿÿÿÿV››››››VÿÿVVÿÿV›››››››››› ØÈÈÈÈÈÿ›››››VÿÿÿÿÿÿÿÿÿÿÿÿÿÿÿÿÿÿÿÿV›››››VÿÿÿÿÿÿV›››››››››› 'ÈØÈÈÈÈÿ›››››VÿÿÿÿÿÿVVVVVVVVVÿÿÿÿÿV›››››VÿVÿÿVÿV›››››››››› '''ØØÈÈÈÈÿ››››VÿÿÿÿÿÿVÿÿÿÿÿÿÿÿÿVÿÿÿÿÿV››››VÿÿÿÿÿÿV›››››››››› ''ØÈÈØÈØÿ››››VÿÿÿÿÿÿÿÿÿÿÿÿÿÿÿÿÿÿÿÿÿÿV››››VÿÿÿÿÿÿV›››››››››› ''''ØØØØÈÈÿ››››VÿÿÿÿÿÿÿÿÿÿÿÿÿÿÿÿÿÿÿÿÿÿV››››VyyyyyyV›››››››››› '''''ØØØÈØÈÿ››››VÿÿÿÿÿÿÿÿÿÿVÿVÿÿÿÿÿÿÿÿÿV›››››VyyyyV››››››››››› '8'''ØØØØØØÿ››››VÿÿÿÿÿÿÿÿÿÿÿVÿÿÿÿÿÿÿÿÿÿV››››››VVVV›››››››››››› '8''''ØèØØØØÿ››››VÿÿÿÿÿÿÿÿÿÿVÿÿÿÿÿÿÿÿÿÿÿV›››››››››››››››››››››› 88''8'ØèØØØØÿ››››VÿÿÿÿÿÿÿÿÿÿÿVÿÿÿÿÿÿÿÿÿÿV›››››››››››››VVVV››››› 8888''èØØèØØÿ››››VÿÿÿÿÿÿÿÿÿÿVÿÿÿÿÿÿÿÿÿÿÿV››››››››››››VÿÿÿÿV›››› 8G8'8'èèèØØØÿ››››VÿÿÿÿÿÿÿÿÿÿÿVÿÿÿÿÿÿÿÿÿÿV›››››››››››VÿÿVVÿÿV››› 88888'èèèèØèÿ››››VÿÿÿÿÿÿÿÿÿÿVÿÿÿÿÿÿÿÿÿÿÿV›››››››››››VÿÿÿÿÿÿV››› GG8888èèèØèØÿ››››VÿÿVÿVVVÿVÿÿÿÿVÿVVVÿVÿÿV›››››››››››VÿVÿÿVÿV››› GG8G88èèèèèèÿ››››VÿÿVVVVVVÿÿÿÿÿÿVVVVVVÿÿV›››››››››››VÿÿÿÿÿÿV››› GGG888èèèèèèÿ››››VÿÿÿÿÿÿÿÿÿÿÿÿÿÿÿÿÿÿÿÿÿÿV›››››››››››VÿÿÿÿÿÿV››› GGGGG8èúèèèèÿ››››VÿÿÿÿÿÿÿÿÿÿÿÿÿÿÿÿÿÿÿÿÿÿV›››››››››››VyyyyyyV››› GVGGG8èúèèèèÿ››››VÿÿÿÿÿÿÿÿÿÿÿÿÿÿÿÿÿÿÿÿÿÿV››››››››››››VyyyyV›››› VVGGGGúèèúèèÿ››››VÿÿÿÿÿúúÿÿÿÿÿÿÿÿÿÿÿÿÿÿÿV›››››››››››››VVVV››››› VVGVGGèúúèèúÿ››››VÿÿÿÿÿÿÿÿÿÿÿÿÿÿÿÿÿÿÿÿÿÿV››››VVVV›››››››››››››› VVVVGGúèúèúèÿ››››VÿÿÿÿÿÿÿÿÿÿÿÿÿÿÿÿÿÿÿÿÿÿV›››VÿÿÿÿV››››››››››››› VVVVGVúúúèúèÿ››››VyÿÿÿÿúúÿÿÿÿÿÿÿÿÿÿÿÿÿÿyV››VÿÿVVÿÿV›››››››››››› gggVVVúúèúúèÿ››››VyyÿÿÿÿÿÿÿÿÿÿÿÿÿÿÿÿÿÿyyV››VÿÿÿÿÿÿV›››››››››››› gVVVVVúúúúúèÿ›››››VyyyyyyyyyyyyyyyyyyyyV›››VÿVÿÿVÿV›››››››››››› ggggVVúúúúèúÿ›››››VyyyyyyyyyyyyyyyyyyyyV›››VÿÿÿÿÿÿV›››››››››››› gggVgVúúúúúúÿ››››››VyyyyyyyyyyyyyyyyyyV››››VÿÿÿÿÿÿV›››››››››››› gwgggVúúúúúúÿ›››››››VyyyyyyyyyyyyyyyyV›››››VyyyyyyV›››››››››››› wgggggúúúúúúÿ››››››››VVyyyyyyyyyyyyVV›››››››VyyyyV››››››››››››› wgwgggúúúúúúÿ››››››››››VVVVVVVVVVVV››››››››››VVVV›››››››››››››› ‡wwgggúúúúúúÿ›››››››››››››››››››››››››››››››››››››››››››››››››› wwwwwgúúúúúúÿ›››››››››››››››››››››››››››››››››››››››››››››››››› ‡wwwwgúúúúúúÿ›››››››››››››››››››››››››››››››››››››››››››››››››› w‡wwwwúúúúúúÿ›››››››››››››››››››››››››››››››››››››››››››››››››› ‡‡w‡wwúúúúúúÿ›››››››››››››››››››››››››››››››››››››››››››››››››› ‡‡‡wwwúúúúúúÿ›››››››››››››››››››››››››››››››››››››››››››››››››› ˜‡‡‡‡wúúúúúúÿ›››››››››››››››››››››››››››››››››››››››››››››››››› ‡˜‡‡‡wúúúúúúÿ›››››››››››››››››››››››››››››››››››››››››››››››››› ˜‡‡˜‡‡úúúúúúÿ›››››››››››››››››››››››››››››››››››››››››››››››››› ˜˜˜‡‡‡úúúúúúÿÿÿÿÿÿÿÿÿÿÿÿÿÿÿÿÿÿÿÿÿÿÿÿÿÿÿÿÿÿÿÿÿÿÿÿÿÿÿÿÿÿÿÿÿÿÿÿÿÿÿ›˜˜˜˜‡‡úúúúúúúúúúúúúúúúúúúúúèúèúèèèèèØØØØØØØØØÈØÈÈÈÈÈ¸È¸¸¸¸¨¸¨¨˜¨˜˜˜˜‡˜úúúúúúúúúúúúúúúúúúúúèúúèúèèèèèèèèØØØØØÈØÈÈÈÈÈ¸È¸¸¸¸¸¸¨¨¸¨¨¨˜˜˜˜‡úúúúúúúúúúúúúúúúúúúúúúèèúèèúèèèèØØèØØØØØÈØÈÈÈÈÈ¸È¸¸¸¸¸¸¨¨¨¨˜¨˜˜˜úúúúúúúúúúúúúúúúúúúúúúúúúèúèèèèèèèØØØØØØØÈØÈØÈÈÈ¸È¸¸¸¸¸¸¨¸¨¨˜˜¨˜úúúúúúúúúúúúúúúúúúúúúúúèúèúèúèèèèèØèèØØØØÈØÈÈÈÈÈÈ¸È¸¸¸¸¨¸¨¨¨¨¨˜˜úúúúúúúúúúúúúúúúúúúúúúúúúúèúèèèèèèèèØØØØØØØÈØÈÈÈÈÈ¸È¸¸¸¸¸¨¸¨¨¨¨˜                                                                                                                                                                                                                                                                                                                                                                                                                                                                                                                                                                                                                                                                                                                                                                                                                                                                                                                                                                                                                                                                                                                                                                                                                                                                                                                                                                                                                                                                                                                                                                                                                                                                                                                                