/* XPM */
static char * image_name[] = {
"56 46 16 1",
" 	c #FFFFFFFFFFFF",
".	c #BEFBBAEABEFB",
"X	c #000000001040",
"o	c #BEFBC71BD34C",
"O	c #AEBAAAAAAEBA",
"+	c #B2CAAEBAB6DA",
"@	c #000000000000",
"#	c #EFBEBEFBC71B",
"$	c #A6999E79A699",
"%	c #8E388A288E38",
"&	c #79E786179E79",
"*	c #75D69248B6DA",
"=	c #9E799A699E79",
"-	c #AAAA79E78E38",
";	c #96589658AEBA",
":	c #71C679E78617",
"                                                       .",
" ......................................................X",
" ......................................................X",
" ..o......o......o......o......o......o......o......o..X",
" O...+...+...+.o.O.o.+...+...+...+...+...+.o.O.o.+...+.X",
" ...........................o..........................X",
" O.+.+.+.+.+.+.O.+.O.O.+.O.O.O.+.+.+.+.+.+.O.+.O.+.+.O.X",
" .....O.......+....@@X@@@@@#..+.......O.......O.......OX",
" O.O.+.+.+.O#$.O.X@%@@@@@@&@@O.O.+.+.+.O.O.+#$.+.O.+.O.X",
" ...+...O...O...@%@@&&%&%&@@%X..O...O.+#O...$...+...O..X",
" O.+.O.O.O.O.O.X@@&&&&&&&&&&@@@O.O.O#$.O.O.+.O.+.O.+.O.X",
" .O...O.O.+...@@@&&&&oOoOo&&&%@X$#O...O.O.+...+.$#O...+X",
" O.O.O#$.+.O.X%@&&*$  +O.$.+&&@&@O.$oO.+.O.O.+.O.$.+.+.X",
" .+.O.O.O.O.+@@&&.$ O.O  .O.+.O@@.O.O.O.O.+.O.O.O.O.O.OX",
" O.+.O.O.+.OX%X&oO.O.O O.O.+.O.@&@.+.O.+.$.+.O.+.+.O.O.X",
" OO.OOO.+OO.@@&&OOO  OO.OOO.OOO.@@O.+$+.$+$#$OO.OO+.OOOX",
" O.O.+.O.O.+@@&+.O O.O  .O.O.O.O@@&O.O.O#$.$.+.O.O.+.O.X",
" OO+OOOOOO+O@@&OOOOOO OOOOOOOOOO@@&OOOOO$O+O+$+OOOOOOO+X",
" O.O.O.O.$.O@@&O.O.O.O.O.O.OoO.+@@&O.O.O.+.$.+.$.+.$.O.X",
" OOOOOOOOO+O@@&OOOOOOOOOO+OOOO+O@@&OOOOO+$OO+O$++$OO+OOX",
" OOO.+$+#$OO@@&+.OOO.+OO.OOO.OOO@@%+.OOO.OOO.+OO#$+O.OOX",
" OOOOO+$$OO+@&@OOOOO+OOOOOO&OOO@&X&OOOOOOOO+OOOO$OOOOO+X",
" OO+$+$+OOOOO@@OOOOOOOOOOOOOOOO@@&&+OO+$+OOOOOOOOOOOOOOX",
" O+$+OOOOOOOO@&@OOOOOOOOO&OOOOX%X&O$+$OOOOOOOOOOOOOOOOOX",
" =OOO-++$$OOO$@@O$OOO$O&O;OOO@@@&&+O+;+OO-+OO-++$$OOO$OX",
" $+OO++$+OOOOO&@@@OOOOOOOOO+@@@@@+OOOOO$++OO++OOOOOOOOOX",
" +$$O$$$OOO$$$O&@&@@O$O$OOX@%@@= @O$$$O$$OO;$$$$OOO-+$OX",
" OOOOOOOOOOOOOO+&@@&@@@@@@&@@&@&O@@@O+$OO+$+OOOOOO++OOOX",
" =O$$$$$O$$$O=O=O&&@@@@@@@@&&&&X@  =@$O$$$O$$$O;$$$$O=OX",
" OOOOOOOO$OOO+OOOO+&&&&&&&&&&*&&@&O +@OOOOOOOOOOO+OOOOOX",
" =O$O$$$O$O=O=O$O;$;O&&&*&&;O%&&@@&= =@$O$$$O$$$O-+=O$OX",
" O=OO$$OO$$OO$=OOO$OOO;O$O=OO+;&&@@&O $@O$$O$O$O+O=OOO=X",
" =O=O$$$O$$$O=+=O=O=O=O=O=O;O=O;&&@@&= =@$O$O$$=O$O=O$OX",
" O$O=$=O=$=$=O=$$O=O=O=O=O=O=O=O;&&@@&= $X=$$$=O=$$$=O=X",
" =O=$$$=O$O$$$O=O=O$$=O=O$O=O=O=O=&&@@&= =@=$$O$$$$$O=OX",
" =$O$=$O===O==$$$==O$=$O===O=$=O==;&&@X:= $X$=$$$==O=$=X",
" =O=O=O=$$$$$$$$$=$$$$$=O$$$$=O=O=O;&&@@&= @O=$=O=O=$=OX",
" ==$=;-$=$=$=$===$=====;========$===;&&@@&&@=$=$=$-$=$=X",
" =$=O=O$$=$=$$$=$$$=$$$$$$$$$$$=$=O=O=&&@@@=O=$$$$$$$=OX",
" ==$==$=$-$$=======$=$====$======$===;=;=$==$=$-==$====X",
" ===$===$;=-O=-$$$-;O=-$$=-;O$-$$==$$==$O==$$=$;O=-;O$=X",
" =;-=$-$===;=$;$==$===;=$=$===;$=;-==$===$=======;=====X",
" =O$=;=;=$O==$==-;O=$===-;O$=====$O$=-===-O;=-$=$=O$=-=X",
" =$==$===-===;-=$===$-=$====$-=$-=====;$=;===;==$-==;==X",
" ===-;===$=-$==;=$-;=;===$-;=;$=;=$-;===-=$=-====;=$==$X",
".XXXXXXXXXXXXXXXXXXXXXXXXXXXXXXXXXXXXXXXXXXXXXXXXXXXXXXX"};
