/* XPM */
static char * image_name[] = {
"56 46 39 1",
" 	c #FFFFFFFFFFFF",
".	c #D75CD34CD75C",
"X	c #000000000000",
"o	c #E79DE79DEFBE",
"O	c #514455554924",
"+	c #965896589658",
"@	c #AEBAAAAAAEBA",
"#	c #AEBAA699AEBA",
"$	c #9E799A699E79",
"%	c #AEBAAEBAAEBA",
"&	c #618561856185",
"*	c #A6999E79A699",
"=	c #AEBAAEBAB6DA",
"-	c #A699A289A699",
";	c #B6DAAEBAB6DA",
":	c #BEFBB6DABEFB",
">	c #69A669A671C6",
",	c #71C675D671C6",
"<	c #8E388A288E38",
"1	c #CF3CC71BCF3C",
"2	c #79E786179E79",
"3	c #28A22CB230C2",
"4	c #BEFBC30BCF3C",
"5	c #AEBA9E795965",
"6	c #5144A2894924",
"7	c #186120812081",
"8	c #492449245144",
"9	c #208120812081",
"0	c #000008200820",
"q	c #30C234D330C2",
"w	c #BEFBC30BBEFB",
"e	c #BEFBBAEABEFB",
"r	c #A699A699A699",
"t	c #AEBA61856185",
"y	c #D75CDF7DE79D",
"u	c #8E38861779E7",
"i	c #082004100820",
"p	c #5965514428A2",
"a	c #FFFFFBEEFFFF",
"                                                      .X",
"  ...................................................oOX",
"  +@#+##$##+##$##+##$##+##$##+##$##+##$##+##$##+##$@#%&X",
"  *@@@@%=%@=@%=%@%@=%%=%@%=%@=@%=%@%@=%%=%@%=%@=%%@=%=&X",
"  -@@@@@@@@@@@@@@@@@@@@@@@@@@@@@@@@@@@@@@@@@@@;%@@@@@:>X",
"  @@@@@@@@@@@@@@@@@@@@@@@@@@@@@@@@@@@@@@@@@@@,><;@@@%=,X",
"  *@@@@@@@@@@@@@@@@@@@@@@@@@@@$>@@@@@@@@@@@@&#->,@@@%:>X",
"  *@@@@@@@@@@@@@@@$+:><@@@@@@$1O,;2<1.$@@@@O=3&45>@@%;&X",
"  -@@@@@@@@@@@@>o:$O63>;@@@@@<1$OO><117$:@@8%O2+>2%@%;,X",
"  @@@@@@@@@@@@@%%X@oOX<;@@@@-=@;>7.o6X3X@@@$>@-<,@@@%:>X",
"  *@@@@@@@;%;;O,3O*<2#=%%@@@@@$<179OOOX1.>;;@OO>;%@@@:>X",
"  *@@@@@@%%:2:,>X79<;$%%@@@@@@#;$+:<3X&%%o6;@;;:%@@@%:OX",
"  -@@;%@@;:>0Oo O@%+%@@@@@@@@@@@#@@=;OXoo0O,@@@@@@@@@%,X",
"  *@%%@%;$$XX% %>33:@@@@@@@:@@@@@@%;q=:-o O@@@@@@@@%%;&X",
"  *@@@@;:30XXXX;1;:%%@@@@@@=:%@@@@@:%:>OXOOX76;@@@@@%:>X",
"  %@@@%<O1OX,3>:<%%%@@@@%:17:@@@@@%%%:;%3O+3;-<;@@@@@@,X",
"  *@@@;%% 3< &&=%%%#@@@;:%X3%%:@@@@;%+$@$1OO 77%:%@@@=OX",
"  *@@%%$>%@+21;%@@@@@@%%%X0::%>;@%%<,977X;<X@OXO%@@@%;,X",
"  -@@@:OX,3X3>:%:;1::@%:33X%w>0:::>O+:;1>X $7><X@@@@%:>X",
"  @@@%;>XXX3%:%:%OX7<::>X%0:%X01%,3%;:%%13X1X313;@@@%;,X",
"  $@@@1,O333%%%,XX7XX3%XO1X%X:X:33%e:+9+:<7;OO.O>%%@@:>X",
"  @@@%1#,+3X,13O+:1;%O7X$1XX>%X+0<w%,X+.$X1%X>+3%@@@%:&X",
"  *@@$<.O>;&O101:%%%;<X>:1XX1%XO7%:<X,3XX<;@33X31:%@@%,X",
"  @@@+7+o;&%>:X%%:;:%>7X$1XX;@X71:%3O1%::=%:rq3,3<@%%=&X",
"  *@@#*; >X>:130OOO&O>@X$*XXO;X7%;,7$%%%%%@:,9,+1$%@@:>X",
"  @=-tO3O&XO&%:>>,>>%:;9+77<X:X91%OO:@@@@@%O09o$>,;@%;&X",
"  -@@;OXXXXX@%%::;%:%%;79X%1X1$X,,X<%%@@:%#%&2o.:>%%%:OX",
"  *@%;$OXXX3@@%%%%%%%%130>@:X3;O3>O;%@@@@@%%1%%6:+:@%:>X",
"  -@%%:@<830y;%%%@%#%%:30$;:20.<XO$;@@@@@@@,X&&Ou%@@@:&0",
"  @@@@@@>01&oO@@#@@@@@w77%%%%X=+73;@@@@@@@@3XXi>@@@@%%>X",
"  *@@@=OO3yo0 6:%%#@@@:9p#@%;%,@OO;%%:@@@$71X36$@@@@@;&X",
"  @@@%%:;,: <o@>;@@@@%;Xt:@@%@@@#+%@@%@@@ X%<O>,;@@@%:>X",
"  *%@@@:>1<>:>OX1;@@@%:+@-%@@@@@@@@@@@;Oo X oO@:%%@@@:>0",
"  *@@@%%%,OXXXOX@$%:@%@%=#@@@@@@@@%;:;$%@OOo3<;%@@@%%=&X",
"  -@@@@%%;+X7XOXO<+<#%@@@%@@@@@@@@@+O$3XXX<o$O%%@@@@%:&X",
"  @@@@@@@%:<;X.o.;;#@@@@:@@@@%:@@@.1O$>X3<=61@@@@@@@%:>X",
"  -@@@@@@@@=0X> y,XO .@@O+:@;%%>$  $119X+&O%@%@@@@@@@%&0",
"  @@@:@@@@%:::13>$&OO+OX>1O3<.<X$@&XOXO7,=;@@:@@@:@@%%,X",
"  -@@@@@@@@%%%<O   +XXX, OO+Ooo<X+.11@7O#%%%@@@@@%@@@:&X",
"  -@@@@@@@@%%%%#%O><OX7133o +X1a<7O%:;%;@@@@@@@@@@@@%;>X",
"  -#@@@;%@@#@#@%#@$O99O7X3,>,XX+>833$%%%@@@@@@@@@@@@@:>X",
"  -@@@%%@@@@@@@@@%;;1:;%><;@;<><<<%;%@#@@@@@@@@@%;@%%:,X",
"  -#@;%@@@;%@@@@@#@%%%%;%;%%%@:@;-%%@@@@@@@@@@;%@%@@%;OX",
"  @;;;:;;:%:;;;;;;;;@:;%;;;;;;;;;;;;:;:%:::%:::%:::;::>X",
"  ><<2<2<<<2<<2<<<<<<<2<<2<<2+<<2<<2u2<<2u2<<2u<2u2u2+&X",
"o3XXXXXXXXXXXXXXXXXXXXXXXXXXXXXXXXXXXXXXXXXXXXXXXXXXXXXX"};
