/* XPM */
static char *weird[] = {
/* width height num_colors chars_per_pixel */
"   142    50       59            1",
/* colors */
". c #64666c",
"# c #7c8684",
"a c #8c9694",
"b c #6c767c",
"c c #8c868c",
"d c #7c767c",
"e c #949e9c",
"f c #848e8c",
"g c #7c7e7c",
"h c #9c9a9c",
"i c #8c8e8c",
"j c #6c6e6c",
"k c #747e7c",
"l c #848684",
"m c #949694",
"n c #847e84",
"o c #949294",
"p c #747674",
"q c #9c9e9c",
"r c #747274",
"s c #7c828c",
"t c #8c929c",
"u c #848a94",
"v c #949aa4",
"w c #747a84",
"x c #6c6a6c",
"y c #7c8a8c",
"z c #8c9a9c",
"A c #8c8a8c",
"B c #7c7a7c",
"C c #849294",
"D c #7c8284",
"E c #8c9294",
"F c #6c7274",
"G c #748284",
"H c #848a8c",
"I c #949a9c",
"J c #848284",
"K c #747a7c",
"L c #9ca2a4",
"M c #646a6c",
"N c #7c868c",
"O c #8c969c",
"P c #949ea4",
"Q c #848e94",
"R c #7c7e84",
"S c #9c9aa4",
"T c #8c8e94",
"U c #6c6e74",
"V c #747e84",
"W c #84868c",
"X c #94969c",
"Y c #94929c",
"Z c #74767c",
"0 c #9c9ea4",
"1 c #74727c",
"2 c #8c8a94",
"3 c #7c7a84",
"4 c #84828c",
/* pixels */
"DgR#WWDlDRDHHWDKKRlWHHAHWDRRDHHHHTHDRKKWWDDRgVBKRlHAQAHKKRDDWWHJJDJ4WATWlRRBZZZZB3DWA2i4l4WlWJ4HlJJDJlWlWlWWAHARRRg3g3g1pBRJWWWlW#DDRgVRDDlWHH",
"HWRKgWETHDgRRDDWHDDRRKKwgKKBKgRDWHAHHHAKKlHTHlDRgRVRRRRTHH4#J#WK3RDlWlWJWlWWWAWJDDnRRRDiTiAAWWlJJDRgRgJRgnRggBBRgB3B3g3ATTEYomoOmTHWDRgJ#4W#JD",
"WHHWDDWHWHHHWlDTHHWHWHTlslNDD3KKRDWHHAQDJDDRDDDRVKKKkgDlHTiTHWDBRRnRRRBRJWAToTEAAWJDRnRRJRDRRRRBgRnlWAAWHHAlWJJD4lWHATTDJ4JlsJ4RDDWiEXIQAHWW#J",
"RDWiQJKgDH2iTH2Kg3gRDlW#WHAHHlWDDlDlDDJTuDRKBRDDJDRDWHHRDWHHHJDAlRBKBgRRRJlWWcWWWW4lJJDBR3BBZZrl4llJJDRgJJllWlWgBwB3gRRRRRRRnDDDDDDDNlWTTHHWHu",
"lkBRWWNJDRKkJQoDsDDRKKZKBRDWWHHHHWHWWW#JWHiQHWWlslWlWHWHDgZKKDWW4DRRJWA4JDRBgKBZBgRJsJRAHWlRBZZrpKBRgggRgJDJJJDTAHHlDJDWlWWWWWcHWJRKZZp#lWHHAH",
"QTHDgDHHWDDRD#WAHiTTiTHHHWNlDDDl4lWHiHH#lWWHHWHWWlWDRKKKBVRRDRRZBJWATTTiH4D3K3BZBRDJDJDJ4J4JDJRrZBRlWAAlJDJJRDnZKZdwB3gcWllJDJDBKRDDlWHRsiEETD",
"WTEulDRDWWTTADKVgDNHiTEYaETHHWWDDRDDWWJQW#RRRDlNlNDDDRBFKRlW#RkKRJHAHWWWWl4JJJsJDJ4J4DJZKKRDJJWiiAHlDRBRgBZZBKBgnDJJWA2Wl4DJJJW#WWHHHW#WHHTiHW",
"gRJHTHWDRgDHHHDWWJRgVRRDlWHiTTTHWDDDDRKRDHAHWDgNJWWHAfTTHRZFZBDAHW4RRBdBRJWH2HAW4RRKRnD4JWJ4JDRZZKBRJJlWlDJDlcH2HWJRBKKZKZBKRRJDlWf2iHHHWRk3DH",
"WRKKDiETfWRp1RHHHTTiHDDKZKKRDlHTiTTfWDDBKKKR#WTHHHAHuAH#DDgVRDDJRJlJRgKZBKBBRgRHAHcHWHcHWJRgwBBlWAWlJgKZBRJgggRpZdRRJ4l4ciTTTWWHHWDDDHAgDlDKKR",
"lNlWDRRH2fHW#DJRRkRDDWHAQAHHDRKJNHHTEEEHHWDRKZpZZKKKBVgZZRRDJDDHW4DDJWWJDnDRRg3BKBKBZBZBKBRJWHARggggBKdggBBZZgnTTAWJDRgRBKdZBRJTET2lRZURDDWWJD",
"KJWHWDRDDWAEETH#DRgwRDlDWWHWWDDZZKKRDWWHAHiHWDDDDDDJDDsAfTiTHWJRBBZdwRRnRRBBKZZZZZdKBKBKBKKB3RRgRnRJWAADnggKBgDrrFZZBRRJR3KBRJWgKgRDHHTDRDDHH2",
"gVDDlHHDRDDWHHH2iHHHWJDKKKgDWiEDgRBKKBKRDWTEEoEETETTTHiHHlVRKKkZKBRRBBK3KBKBZZpr1pZKBRR44nRBZZpZppKKBgRZgRDJJJRAHWAHAHARDJlWHWWDRwkDWiEHWDDJHQ",
"HJRRRDlAHWDRgRDDWWHAfuiHWWW#WHTEEEETHHWlDW#WWWWWlWDDDDRKKZZKgRJWWAAAHWJDRJR4JWJWJJW4WlWlJNlWl4Jg3BBprFjpZBgRgRgZZBKdZZrFZBRRRBBDDWAHWDRiTfWDRg",
"HHW#DDR#WHH#WDWDDgRDJHHTTETTHJDWHHiTTETHWlDRgVgKgKRgRgRRDJHfAQHAWWDD4lWJJWWAuATiTAHAWlWZKBRRJDJlWlWJDJRRgBKBRgRg3RRRRg3B3B3gRDRgDDWHWHWkDWHlRR",
"DWHAHW#RRDWHAHHWlDRRRDDDDlHHHW#KKK3DDlWHHW#JNlWDslNWWWHDlWWHWDRRRBBK3RDJDJJWlWWRRB3KZZZBB3BBwBZRBgRgnDJlJgRDJlWiAJRBZZpWl4DJ4WATHlRkRRDK3DWHTf",
"RlHHHWWWDKgDWWRlWHTfHDD3gKRDWTTWlRkBkRDJ#WWHHHHWWlW#lNlTHNWDDlWDJWuAAAWRJDRRR3gRDRDRJnJWWWHWWWJJJgZBKBRBBgJcHlnKZZpZRWAK3gRRRg3kR#WWlDgEWDD2Em",
"lVKBRlfiWRZZKkDwDHTTiWDlsRgKDDHTEETTWDKRDWiTTHHAHAA2AHWJ4lWWAHAWAWWAH2TAWWJRBpFBBnJlHHAggRggBBKWDJJWAlJWlDRgZpZrZRJWJKZBRWAiTAHnR3gRWATHAAHWWA",
"JDRkRDRWHEEEHRKlRKZpVJHHHHHHWRgDDlWHfTTDDRKpZZZZBKKKBKBZBKBKB3BRRBKdKBKBRRlWHA2BKBRJlHATAgZrZgDrrpZKgBgZpZpKdKBDnRRRRDJWlWWJRRRRJlWHcHH4JWJRRg",
"HWHWDRRbZDWiTETHWDRkBVgRRWHWWDDK3kRDWHAaTHW#WlHRRRRRRRRWWWWcHWHWl4lDRB3pZZdBRRDiAlgKBBKBgJHlJBppZKBZZKZpZBBBgRJJDBZBBJ4RRBBK3gRJD4WJRZZBRRJWWW",
"WHHHWlDlDKpZKRJDWfiTHDRVgRgDlHAHWJDRBk3DDWHH2fTiTAAA2iTJJJJJDJDnDJDnR3KJRRRRBRgRRgRRJ4lDJRgnDJlRJJJJggJgJRJDJJJRRDnD4DJWWWWHAoTAWWJJDJJRgRlATA",
"RRDlNJNJlsDDgKKDRgRDHTEoQWDRRsWfHHHW#DRKBRDDlNJZZ1rFZZZRRK3KBZd3gRRDRgRKBKBBRJ4pBBRJllWlJJRgRg3KgDJRJJl3gggBRggJWWAHAWJKBZZpZ1p3gRRD4HAWWRDJWJ",
"kRRDlWHRDlWHH2HlDRRRJHHTiHWlDDDRDJWHTTiEQHlDDDWWAWHWWcH4lWl4JsJDD4lWcHcR33KZZZZJDDggKZrZKJAWJBpgnRRgBZKppZKBgRDHcWWWDJDcWWW4l4JKBRJlJRRWJDnDJW",
"J#JsWlWETHlsJNWHHHHHDRKDRDDDWlWk3RDDWHHTHWDDDDDRDnJJDRnl4l4l4JJDnRRRRRJTiAA4DBBZdBBBgRngBZrpg4HlJDJggKdBRBRRDnDnDgRBRRRgRgJDJWWATATHWlJRJJWWHA",
"NWDDRGRRDWWfAHHlWHWW#JDRgRkR4HfTi#DRBKRBDluATAWlWHHWAWlWWWWWWWWAHWJJDnDZRRJWAHAHlDBKZZpBKggRBBZBKBRlWWlAWWlgBBKrZBRJJDJRRg3gRRDR3BZZ3RJRJHWWJ4",
"BKgRDDDKBkRRRDRRDDlWWWHW#DRRDRRRRWHHf2HkRgRRDRDRRRRBRBBZKKBgRgRR3gD4HATWlJRRgRRBDlAiAHlBBZpZpKBJRgBKdKZBgJJlWlWl4JRRBKdRBRJJWAAHWlJDJWWWATTAWl",
"DDRRKBKRgVBkRKgKKBVDlNlWWWHHlHWHlNJDRKK3gVDgRDDnRgnRRRDJJJJRRRRJD3BZpZpJ4DJD4J4gBBBZZBKAHlJgRgRprppKgnDBZprpZBRgRRDJWWWRDRRRBKZJJD4JWATAToTTAT",
"Wl#DDDRDDJNWHHH4DDgRkRRDDlWHHHHRRgRDDWHDDJDNlDJWWcHAAH2WWWDJDnRKBBRRJ4WBRRRJDJDAWJRgJJJZKBRJlAHl4DRBBKKBKp1ppZdKBB3g3gRlWcWHWcW3K3BKBKKJDJDJJW",
"RDJDWlWKKKRgRRDWlDVBwBkgRDNlWWWiQHHWlJDW#4#JslDZKZKZKBKBKBwBBKBRRgRBRBBg3gRg3BZBggDJJDDgRgRgKBZJJJllAAAgDJlWJggZZZp1rFrZKBDJl4#A2AAWWJ4g3RRRRD",
"gVRRDDDWJDDRkBKRk3gRD#WWWlJWWHHiHTHHWWlDRDDRDRDcWcWWW4l4WlWWA2ADJRJRRRRRRRRRKZZrrZBgBgBJllWJJggUrpZKBgBJlWAWlRBZpZZKBRRdB3g3KZZrZKRDJJsWWWAHAW",
"WNJDDDRHHHHHH2fWlNlNHAHHHWNl#WWKKRDWHHHDDJDJDDJDJDJJRRRBKBB3BKBRJWWHAHADJJJJJJDRRBKKBgRrZBRJlWWiAHAlWDJDJgBKdKBKBRRJ4l4#4lWWJJRBRJWATToWAWWAWW",
"HAHWlDWgRDJWWHHTf2HHWWHWlNJDDDDJsDgKKZKJsD4#WW#WWWWlWlWAH2WHWWHW4JDRdZ1DJDRDRJDJggBKZBKgBBKp1rUjUrZBBRRgZZppZBgJDnDRDRngRRgRRDJRgRRRRRgJRgBRRg",
"DDD#WWWHHWWlDDDDDDlWl#W#WlWNJDRRgKKKRDJKKkBVgRRZdZdZBBBZZpZZKdZBRJlWWHHRR3B3BR3JWHiAWJgKBKBKdKZgBgBgBBKrpBRJllWRRDRJJJDJDJRRJRRWWlWlWl4DRBKBRR",
"ZdZdKBgR4HTTTA4Wc4DR3BKdKB3gRRgWJW4lJRRRB3BRRJlRRDDnDRRJDJ4lWWHRRR3RnJJAHAHWJDRKdKBgRDnWlJJggBBpZZZKKBBlWlWJgZpBBBKBKBKBZBBgRllHDKBDWHHWWDDRgW",
"KZKBRRRJJWlWJDRJDDJJJsJHWWJDBRBZZKBBRBRJJWJWlWWDJJRR3g3KdKBZBBKnRg3gBKBUUZZRRJJJJJDngggpZBgDJlWWlHWlAWHgBZrpKJlRRDJJWHWAWlWlJRnKJHWRpZRDlWWDDg",
"nRRJDWWRgBBZKdBB3BRRDJJDJDJDJDJJJJDsRJDJslWl4RRcWlWlJDJWW4JDJRRRgRKBZKB4JDgBKKKJDJJJJWJRRgRBRBgBKdBBKBBKBgRJJ4JHcJRgZrrggRJDJRgRDWHfulDBR#WlWW",
"WHcWWWWg3ZBK3gRKBKBKBwB11ZwRnD4HHWWWWAH4JWW4DJRKZBZBwB3JDJDRRRBAWWWWWWWZpZZBRnJZpKKgRDJWlJJRgBKBggBgBgBJJWWlDBprFrpppBZrpBBRDJJ#RZgWTfWDDRDDWf",
"lWlWJJJRJsJ4l4JR333B3BKRRgnRRRRB3BgRJ4WWHlJWlWWcHWAHA2iRRRRRgRRRRngRJRJTTWnKZFUBBBZZpprZBKRJlHAJWJlDJJDJDBrrpZKBKBRRJllWJDJJJlWWHiNgK4iHHWDRgR",
"RRRgR3RJDJlWJDDDJ#JDl4lWAWlWlWJRRRB3BgBRg3BKBgRgBRB3KBK4lJWlWWlRgKBBKBKBgRJWATolDJJgRBBpppKZKBKpZpZZZZZpKZKBgJDAAHlJRgRJJDRgRDJHHHWDRDRRNlWWDR",
"RnRnRgRB3RRRR3RJ4WWWWWA4l4WWWWWWWWWJDRRRBKKZZZZRRRRRRRRBBRB3gRRWcWWWWWcDRRRRBKZnDJJlWlHJRgBprUUdpZBKBBBKBJHAWJRpKdgRDJDZKdBggnDgZrKDJKFgDWHfHH",
"WAHWJDRBKB3gDJWDJJDJJJJDRRRBg3gBgRlWA2AH2A2cJDnZZBKBgBg3gwgB3BBdKKBBRDJ4WlWJRRgKdKBBgRnDJJJWlAHgRJgJDJlAlJBBZKBRBgBZBpdgnDl4lDJlHuHW#WTHAHTATE",
"gBRRJ4lWHAHA2HcJsJDRRRBRgRgRRgRB3gRDRRRZBRRgRJHJWWA2HWWDJDRRKZrKdKBKBBKZB3gR4lWlJJDDgBgZZKBgRgnlJDJRggRRRBKKBBgBgRDJJJ#ggBgBBBBRRDDDJDWDDWWHiT",
"ZKZBKRRAAH2AHAWWlWWWWWWHAHcWWWWTi2AWJRBgRRRK3JWJgRBBRRnDJ4WWAAADRR3BZZZKZBKBBRBRgDRJJJJJJJRRggBZpdKg3gRpBgJlcHHWWllJllWJJ4lWWHHVRg3gVBkZZKZKZZ",
"JJDJ4JWKZ3BKdZZZZdKBBg3BZBKBdKdZKBDJWA2JJDnRRgRRRRBRBRRBKBBBwRRWlWl4Wl4Rg3KZ1FUprZdKBRkRDJDJJJDgRgBBKBZlWWHlJgggBZrUFrrKKBggRgnHHHHWHWHHHHHHHH",
"HWWWHWHnDRRRRRgBg3gBRBRBRBRRRJDB3B3KdKZRDJWWl3ZgnWHHWlRl4RRRgRgZdZB3gRnWAWWWJJJBBBKpZpppppBBgDJlWlJDRgBBKBBgJWAJRgKBKBKdpZZpZppFFFrbpZZ3gBVgRR",
"nRJRRRRWlWlJl4JWWlWWJNJWWWAWAWHAWlRBKZrg3RJWlDRBRJWcWWJ4l4l4WATRRRRBKBKBKBRRJNWlWJJJDRRBdKZp1rFBgRRJlWWgBBKBgDJlJWlWlWlJJJDJDJDWWWHHHHfHWHHHHH",
"RRRgnRgnRRRRRRDRDnDJ4lWWJJDRRBRRRDJWWA2DRRKBRJWRRRgRJlWKKBKBBRgHWAWWWWWdKBZBKZZgRgDgDJJJDJRggKBrrpKBggnHAHJDBrFZZKBBgBBgRRDJJJJDDDDDRDRDRRRg3k",
"WlWWWl4JJJJDJWWWWWWHHWHJDJRnRRRJJDJDJJWJJDB3KRlWJRBKR4WJnRRRKZZdpZBgRJDA2HclJJDBKBBBgBgRDnJJWlWRgBBZpZrpZgJJWlJggg3gBwgZKdBKBgRgRgRgRgRDDDRDRR",
"JJ4lWJJDRRRD4JWJJJDnRR3BK3gRDJDRRB3RRJDRJWlRZZdDJRDRRgRJsJJRRBdKZBZZZZZZZBRRJWWAAWlDRgKdpKKBRgRlWJDBBZpZBZZKRJWA4DgBKBBJJDDnDRJDD4#WWWHWlWHHfi",
"RBZZZZKRJlWAHAWWWWWWlWl2AHAWWJWlWlWlJDJrKBJJJDDpBDllJgKBgDJWlWlJRgBKpppBZpZpZprZKBgJJWAJllWJDBBZBgDJllWgBpprppZBDlATAlDKBBBKBBKBKBKBKBBgRgRg3g",
"lWJWlWcBK3KBBwBgBBBBBBBKZ3KBBBBngRRDJlJTiAHWlngZpZdBJWAgBBKBgRDJJlJlWAABggggg3grrrpZKBKggRJlWlWggBBB3gDJJJJRBZrpppZKgJlWlWllWlWJlJWllWlDDJDJJJ"
};
SIMPLE  =                    T                                                  BITPIX  =                    8                                                  NAXIS   =                    2                                                  NAXIS1  =                  142                                                  NAXIS2  =                   50                                                  HISTORY Written by XV 3.10a                                                     END                                                                                                                                                                                                                                                                                                                                                                                                                                                                                                                                                                                                                                                                                                                                                                                                                                                                                                                                                                                                                                                                                                                                                                                                                                                                                                                                                                                                                                                                                                                                                                                                                                                                                                                                                                                                                                                                                                                                                                                                                                                                                                                                                                                                                                                                                                                                                                                                                                                                                             ユ閲x|x{{y{}{{{{{{{xv|x{{{{±~~ュヮ豪±vuvy{ユ急{{x{}~ャュ給{}}}}}|}sssuvx{x}}~ュ}}{{{|}ャャ~{vsuuuvx}ュュユムャミ{vvvvx~ュ笈究結究ユムピx{ャムu{マx{}ユミ}{xuuu{vuvuvusvx{}ャ泣ム{{v{}ュ}{uusuuv{去球x{{{x{{x{x{x{x{{}~}~}|}ャуャ~~~сャム×~|{x|}~ム~~{|~~ム~ユ~vvyミ~~}~メャ~~{yxv{vvvvvvv{~~ユ給~}xyuxx{~}~ム{{vuv{vvx~ユ灸}{x{{ャ÷~ムр轄сャムユムミ×~~ャムャャ{|x~ミ{x~фメ~~~xvvyuv{}~ム旧怨ャ{x{{{}{}~＜ユ~}{{vuvsuv}ャマ}}|}{y}vxy{x{}~}~}~}~}~~~~~~~}×}×~~~~~~÷ヤャ~~{~~~ユ旧~~x{~ユ~~~}~ュxx{x{{~}究yx{v{xvv}~}}ャムミ}}x{ssux{}}∴笈ム{spvvx{{}{{}~~ャャ~~~~~}|z×ミ~~~ュсャユ究究究~{xvs}|~ユ~{~ユ掩ヤуф去~~~~{x{x{x{~~ャャム~~{yxvutsp{}~~ュ}{{x{}ュユャムムム活÷~~~~~}{}|}{~{~{~{~~~ム{|{|xyxv~ユ|v}≧~н~~}~}vyv{|}~≧究ャボ{{xuvuuuuu{{}ュム~}{{x{{}ユ泣~}x{x{xyuvvuvuupppssuvv|}{{}~~ャヤユxv|{xyvvvvyx{{}|{v{x{yxyvx{ユ旧ャ×~}~~~~{~{~~{x{{{y~~фн}|xvtpnusvyx{~z~ムャム}~}{{x{vマ}}{vsnpssxx{}}~}∴vxv{x~~給結究笈掩詩結ミ{}~~~x|ユマ~{{~~÷ヤ給朽~~|{vvvxv{x{{~{~}~ャャャミ~}}{vuyx}|}~u{}ュ沿ュャу{~}|}{{zvvxvxvv}{~~ヤ笈旧宴＜~~~{~}~}~~}~{|}~~~~v{~~}~ヨユ旧ム~~xvsxyx{x{{xv{|}~уャ}{}vvx{}~}≦ムミ}}~~~{xx{{}{}~ャモ}}{}{{{{~~ム克笈ム~{x{|}ユャャャ~~~{}|}{}~旧笈結潔ム」v{x{}{}|}y}{|{{yxx{{~ヤミ~}xyx{{}~÷ャユ笈}~マムュ球ボ{vx{~{}{v{uy}÷уュ沿ｆ肢笈視諮~××}~{|~~~~|~ヤ灸фム~~~{xxvvvv~~~~~~~~{{~{|}~~掩園~~~~{xv÷ャミ}{usnnyuv{x{{{x{ヨ究ミuxy}~ムvxy{}}÷}vsxベp}活~~~}~|~ムュムモムу究ミ~~{|{}{~}|{x{}~}{~{|x{xуユ~}x{{x{x{}~ユ去套ャ}~{{uuuxvx{xuvuvvvvvuxvx{}ム給ミ}~ャ~}~ヨ~~~ュ~ャミメヤс~|||{|{x~~}×~~~{|{}~ヤユ沿笈旧降~~~~}~~~~±~ミヮ紙』vpn{{{vvuusv{x~ュ泣ュャム{ssuvx{x{~~ュムャュ鴻}xы~}~掩}|v{x|}~x{x{x{y{ttvy~÷ц笈соミxv{v{y{|ムム~~~{究vuvv{~＜vuxx}~ユャ~}{x{}}{}{}{ャ{uspsuuu{vsu{{~ャ~v}至~梶~~ム~}{{vxy{{|{~~ャムムムャャ×ムメн~掩ムユсミ~~}~x{vx{с}{xxxムャャミ~}~{~{}{xy{{x{{x{}~ャс宴~}vss}}~ムミ}~渇{~ｆxvx{~~~ャム~ムャメヨム{~{vvx{{~{~ャユャ~~|}|xyx{v{{x×}|}{x{nnvv~~ャャム±}}uv{}ュ究}{vsuxュ~~ャ究ミ』ヨ~uv~}vyvyx{}~ц試視ф延~|{xyx{|}~~}ユуミ~~{|{~~ュ~~÷~~ムヤ~~~|~＜ル笈ム~xyx{}~≧ャ}}{{uvvvxx{{マvu{{{x{x{x{v{{}~x{~}ｆｆｆャ~~}xxx~ベxz{{}~~vyvyv{{{vvuvvxyv{~ュ~~|{|{~|ユ豪マx{x{xyxv}{}{}{{xsu{~ュ~~~ャムムミ~ミ~о~{x{~~笈}~ユ至決ャメ}xxvxメрｆ笈傑с~yvtム~~ムマ}{xv{x}{{xutsnmnsv{{~~}vvuuv{}ム÷~~±~~}~~ミ}~~~~~}ミ}{~~}ャ~穴ュヨ笈ュｆxx~ムムムムャ~~~{x{{|{x{~ユ笈朽ャャャ~~{xx{}~sv{~ュ豪球ムマ{xyx{x{~~ヤруャ~{~ユ去雌究究}{~~ム~z{x~z|}~ｆユ壕肢~~~掩掩уф旧朽ミミ~~~~~~~~xvvssv{}{}{ュャ}}nsuvx{}{ュ究~{vuvvx{~~y{|}|xvvsvx~ャ≧笈究~ムxxx~}~~{{y{z}~ュ豪ムｄｃ≦vxvxvx{x{x{y{{x{~~}~{~{{}|}~}|{v{}}ャ}~}~}x{vャュ給急ュマ}vvvutspsvx{ュр旧給ヤ}|~~~~~ャо}~z~~~~}~ムュユ沿給傑ム×x{{~~ヤ{~~~ムム究ミ}ャプx{~ュ笈о~{{xx{xutuuvyx{{|}|}~掩掩|x|{x{xxムムャ~~x{x~}{{z~x}xx{{ュャ~xx|}{}~×}×~~ャャ~~~~ム|{vuvuヤムсм{{{vv{x笈マ~}~usuux}÷{vusuv{~}~~ユ~~~~{xvャс去去梼視施x}~x{z~~~~~~~~~~~褐z~}~~~~~~~{~{{vxx{}~}~~|}ц去ミ~}~~{牛笈{{vuvux{ミ}{xyxv{}ャс~~{xy~{~ャ給ムユ去視ユ~}~~葛ｃ~}~z~ц且高~{x~{焔視究笈ャ÷v~~ユ笈笈{xvvu{x}}~{{v{x{~究}{{xsv{~ャミ~}|}~~~|{vv|~ミヨヤモメ錘＜ユ~x~z|~肢~＜ム~≦уусム×~~~~ヮ豪灸{{vy{{{}~±{vsu}цムマ}xy{~{~~÷÷}~{~~~}~}ムユ去去ミャ吸~~~決~~~ヨ詩~ユ試告笈究沿ус＜у沿円||xvvvvム}}xvsvxルボu}×~}{vxuuvx{}~掩ム掩усx{~ュミ~ム÷ユ~~ャャ÷}xx~}~諮搭~~≧活~x{~ャvvtspvvv~~x|x{vy|}~~~}~x{x{{~ヤu{{~ュャ~}~}|x}ミャ|}}}{~}}ユ笈究ベ{vvuvtu|}~~ц究~ユユxuvx~ム轄肢~{}~}笈ム~{z|穴詩視給訣祉ャャム÷ム×|xミ~~~{~}~~}~~ヤミ}÷ュ~ャャ}}マミムャミ~÷оユ挙視ャャ~}~去笈~~sv克錘~z{{}~~x|z~拠肢ｆ~~~~~~~~沿у~{|uvvy{~~豪}x{{x{}ヨボuuvx{vvxvuv{{{}~ャ{v{{ヤ~~{{x|}~ムфミvv{~~ユム~z~~瑞粋~x~xvu{ヨ~}且死~xuvvvv{xxx{x{v{x{x{|{~~{xyx{x{~~旧{x{~ュ去急vsv}ssuvx}{}vuvuxyx{×~~~ユミ~~~ュ沿сミ~}{x{~轄~vvxzy試号×}x諮錘紙x~克肢笈給結ヤ笈究究笈月究ミ{up{{＜急}~}}{{xャ球ユ~}vuvsv~ユベv{~牛視×|}~去給救x}~至|}x~試~z{z~モｅュ肢ユユ焔給~ム~~~|}~~~メユャマv{x{~{{}ラ』vvuv~休|}~~~}|z~ｆ}炊倹斧笈~~笈~~~Ｙxx|ｃュ≦ユ~~~{{x|~ムャ~~{|xvvv{{|{{y{v~{}~}÷ュマ~ュ豪ミ{vvuоヤ去~z~~x|至~ｆｆ}~ヨ試錘肢ム克諮肢~}{}x}x~}~}~~ヨ葛笈究уャ級去克笈究vx{~~ムュムミ~}{x{~}~}|~~~~}|{|{|}~~}z~~ミ~~笈~}~糾燕ｆ諮瑞錘ｆ~xxvvx}~ユ給笈ム~ミсユャфャс}|{{uspmuv{}~}~}vv{xyvvspv{~~~{{笈~克恰~}}{~訣ムxxx}告}~{xx{x~諮嵩瑞諮試肢壕{~xxzvx{~~{{x|x{x{vvustuvx{~~т×{vvuvuuxx{}~v}~ャミ笈笈笈救ュ~yz告ヨ休ユ~巨錘~}y~vvxx~笈壕ム°且克ミ{{vyy~~×~{{xvvvvvyx{x{x{xx{|~~}~×ユ給±}x{}sspvv{~~ミ|x{~ユ}x}~死~桁ュ~~穴ミ~z~給笈~xャ諮瑞~xvuvvxxx{{}vv~~ムоユム÷~~}|{x{x{v{v{x{~ユ救}}}}{xy}}{{vv}℃視ム~}~{xyv{~ヮ錘桁~vn~ム~xx告至~ut~試壕xvxx~詩試恰{xxx~ｆ肢笈焔}{~ミュミ}xv{x{{~}~笈沿沿ミ}y{{究マxv{~マ}}~uvy~~ヤч克試急xx~}~ヨ肢~}ミ}{~~克試~x~笈}ャ糾試~vpv{笈н~{y{~ユ決究н~x~÷сヤム~vvx{~ャム沿決ミ{xxvxv{x~~ム褐壕~z|諮怨~試朽x{}ヨ克数註肢~ル~~~ュム~{px~~zx~ヨ笈сャ＜ヤヤプxx~ャ麹笈~{~}{vv{x{}÷ャ旧оャユｆｆ詩去}~ｆ笈克詩肢ュу壕ｅ~xxx{{~~~~v{ユ去試壕о|x|{v{~ムムヤヤムミsv{~給ムャ~」xvyy{|}掩ムム{x~~″瑞死z{~ャ~xzル凍÷~xxvx{~ｃ豪≦}vxxо~~ユ灸ム~{}x{v{}~メミ笈~{vvsux{~}}}~}ムャム視ム沿ミxvvuｅ笈~豪ベ}訣肢警}|}~ｆ笈ヮ園~x{~ム~~ム球~{x{}~~~ュ掩уャ{~|{{vvsуャ~}ャ}{y{|}~~~~~~~÷ュ試掩肢糸≦ム|xx~給ム~~{xxxz}詩肢{~~×~~{~ユ去梼遂究ム~×~ミ~~~~{}~≦給球ャу去死ヤュ＜н告迄給ｃ~x}錘}~~~~xxy}xx{x}~笈休x肢~}~{~~~~肢рモx|~ユ究ム×~~克豪究ャ~}~}ミ}×}}{{~}{|{|}|去諮箔蕪燈肢~}モфｃ}~ｆ~xx~笈~~肢~xx~}{{x~給笈xx~ャヤ去~~{vvvv{|旧剛фヤャュ笈救~~}|}|}tu{~ユ~}{~                                                                                                                                                                                                                                                                                                                                                                                                                                                                                                                                                                                                                                                                                                                                                                                                                                                                                                                                                                                                                                                                                                                                                                                                                                                                                                                                                                                                                                                                                                                                                                                                    