/* XPM */
static char * image_name[] = {
"56 46 22 1",
" 	c #FFFFFFFFFFFF",
".	c #EBADEBADF3CE",
"X	c #BEFBBAEABEFB",
"o	c #AEBAAAAAAEBA",
"O	c #000000000000",
"+	c #B2CAAEBAB6DA",
"@	c #000000001040",
"#	c #BEFBC30BBEFB",
"$	c #DB6CDB6CE38D",
"%	c #BEFBC71BD34C",
"&	c #186124921C71",
"*	c #30C251444514",
"=	c #75D69248B6DA",
"-	c #96589658AEBA",
";	c #A6999E79A699",
":	c #9E799A699E79",
">	c #0000FFFFFFFF",
",	c #FFFFFFFFD75C",
"<	c #EFBEBEFBC71B",
"1	c #51445555FFFF",
"2	c #8E388A288E38",
"3	c #79E786179E79",
"   .   .   .   .   .   .   .   .   .   .   .   .   .   X",
".XXXXoXXoXXXXoXXoXXXXoXXoXXXXoXXoXXXXoXXoXXXXoXXoXXXXXoO",
" XoXoXoX+XooX+XoXo+oX+XoXo+oX+XoXo+oX+XoXo+oX+XoXo+oXoX@",
" #o  .. ..   .. ..   .. ..   .. ..   .. ..   ..  . .$+X@",
" oo X+#+#+#oX+#+#+XXo#+X+#+XXo#+#+XXo#+X+#+XXo#+X+X%+oX@",
".XX +##$$$%$$$#$$$%$$$$$$%#+#$%$$$%$$$$$$$$%$$$%##o$#+X@",
" o+ X#%&&&OO&OO&&OO&OO&&&O X$&&O&OO&OO&&O&O&OOO* +#$ooXO",
".+X X#$o=%o%%+%-%%+%%-#;%o o$#+%%o%+%%;%o%%+%%;# ##$oX+@",
" +o o#$o#$%%$%%$%%%%%$%%$% X$:$%%$$%%%%$%%%$%%$..+#$o++@",
".X+ XX$+%=$ ..=%=.=.=%=.=% #$%%%% $.=$=%=$=%=.=% +X#++o@",
" oX o#$+=.$ $%.%%%%%%%%%%%.+$-$=. $%%%%%%%%%%%%$.##$XoXO",
".Xo ##$%=%..=.=%=.=.=.=.=..#$%%...=%=.=.=.=.=.=% X#%oX+@",
" oX +#$o%%$%$>.%%%%%%%%%%%.+$-%%%%.%%%%%%%%%%%%..+#$X;XO",
".+o.##$%=%.=%,=.=.>%=.>.=$.#$%%.=%=.>$=.>.=.>.=%.##<oX+@",
" +X +#$o%%=.%=.%%%%%%%%%%%.%$-%%%%%%%%%=.%%%%%%..%#$+ooO",
".oo.##%X>$.=%.>$=.=.1$=.=%.#$+.=.=$=.=%.=$=%=.=% +#%ooo@",
" o+ o#$oX%%%%=.%%%%%%%%%%$.%$-$%%%%%%%%=.%%%%%%$.%#$X:+O",
".oo ##$+==.=%.=.=%=.=$>$=%.o$+.=.>.=.1%%.>$1$=%%.o##ooo@",
" oo X#$+%.%%%%%%%%%%%%%%%%.+$+$%%%%%%%%=.X$%%%%%.%#$+oXO",
".oo ##$+=.=$>$=$1.>$=$=.=$.%$=$=$=%=$>%.=%=.>$=$ X#%+oo@",
" +: X#$o%%%%$%%%%%%%%%%%%> #$+$%$%%%%%%=.%%%%%$%.##$+o:O",
".oo +#%+$.$.$.$.$.$...$... #%%$.$.$.$......$.$...+#%:oo@",
" oo X##$$%$%$%$%$%$%$%$%$%%+%%$%%%%%$%%%%%%$%.%%%##$ooo@",
" :o ###o-+-o-+++=+++-+=+-:##%+-+++++=++++++-o-++$#+$o:o@",
" :o.+#$oO&&&&&&&&&&&&&&&&& #$:&&&&&&&&&&&&&&&&@* +#$o:oO",
".oo ##$-%$$%$.$.$.$$$$$$.$.#$=$$.$$%.$$.$$..$$$..###ooo@",
" oo.X#$:=%%$$%=.=%=.=%=.=..+%:%=.$$%=%=$=%=.=$=..##$o2oO",
" oo ##$%=%...%%%%%%%%%.=$%.#$+%.$.$%.%%%%%%%%%%$ +#$:oo@",
" :o +#$2%%..$%=.>.=.>.=.%=.#$-$=..%=%>.=.>.=.=.%.%#$::o@",
".oo.X#%%=%$$=%%%%%%%%%%%%$ #$=%$.%%.%%%%%%%%%.=$ +#%o+o@",
" :o.##%:%%%%.>.=.=.=%=.=$=.+$=.>.=$=%%=.=%=$=$%%.##$o2+O",
" o2 ##$+=%.=%X%%%%%%%%%%%. #$+%X%%%.1%%%%%%%%%>$ oX$:o:@",
" :o.+#$3%%>.%=.=%1.=.=.>.=.#$=$%=.=.%%=.=.=.=.%%.%#%o:oO",
".o: ##$%=$.=%%%%%%%%%%%X%$ #$-%%%.=.>%%%%%%,>.=$ +#$:o:@",
" :o.#X$2%%%%%1.=.>.=.=%=.=.+$:$=.=.%X%=.>$=$%%%%.##%o2oO",
" :2.$+.o>=.=%%$%%X%%%%%%%. #$=%.%$=.=%%%X$%%=.=$ +#<:2:@",
" :o +#$:X.%%%=$>$=%=$>.=.=.+$:$=%>,%%%=$=%1.%%%%.%X$o3oO",
" 2:.##$=$=$=.%%X%%%$%%%%%$ #%=$%%.=$=$%%%%%.=.=$ +#$2::@",
" :o o##@%%$%$>$%%%%%%%%%%%.#$:$%%%$%$%%%%%%=$%.$.###o2oO",
".2:.###...........$$$.$.$..##........$$...$.....$##$:::@",
" :2 +####%+%%+%o%+%+%+%%-%###+%%%-+%=%%%+%%%+%-%%o#%o2:O",
" :2 $$$$%$$%$%$$$%$.$$%$$$%%$$$%$.$%$$$$$%%$%$$%$$$$22:@",
" :o O&O&&&&O&&&&@&&@@&&&&&&&O&&&O&&&&&&&@*&&O&&&&&&&::2O",
" 2::2::::2::22:2:::::2223:2::2:2:::2:322:22::::2:2:22::@",
" :22:2:2::2::22:32:::::::2:2::2::2::::::::::2:2::2::2:2@",
"oO@O@@@O@@O@@O@O@O@O@OOOO@@O@O@O@OOOOO@OOOOOOO@OOO@O@@O@"};
