/* XPM */
static char * image_name[] = {
"56 46 39 1",
" 	c #FFFFFFFFFFFF",
".	c #BEFBB6DABEFB",
"X	c #CF3CC71BCF3C",
"o	c #000000000000",
"O	c #AEBAAEBAAEBA",
"+	c #AEBAAEBAB6DA",
"@	c #BEFBC30BBEFB",
"#	c #BEFBBAEABEFB",
"$	c #BEFBC30BCF3C",
"%	c #000008200820",
"&	c #DF7DBAEA8E38",
"*	c #EFBEF3CEF7DE",
"=	c #E79DD75C9E79",
"-	c #A699A289A699",
";	c #AEBAB2CACF3C",
":	c #B6DAAEBAB6DA",
">	c #D75CD34CD75C",
",	c #F7DEB2CAAEBA",
"<	c #69A68617BEFB",
"1	c #9E799A699E79",
"2	c #71C679E78617",
"3	c #AEBAAAAAAEBA",
"4	c #A6999E79A699",
"5	c #965896589658",
"6	c #79E79248B6DA",
"7	c #AEBAA699AEBA",
"8	c #96589658AEBA",
"9	c #514471C68E38",
"0	c #000000001040",
"q	c #082004100820",
"w	c #A699A699A699",
"e	c #000000001861",
"r	c #AEBAA69971C6",
"t	c #FFFFFBEEFFFF",
"y	c #28A22CB230C2",
"u	c #FFFFFFFFD75C",
"i	c #208120812081",
"p	c #71C675D671C6",
"a	c #38E36DB6A699",
"                                                       .",
" .X..X..X..X..X..X..X..X..X..X..X..X..X..X..X..X..X..X.o",
" .OX.+X.+XO.X.OX.+XO.X.OX.+XO.X.OX.+XO.X.OX.+XO.X.OX..@o",
" +.@+@@.@O@O@O@@.@O@O@O@@.@O@O@O@@.@O@O@O@@.@O@O@O.@+#.o",
" O@+XO+@O..+@O#+@O.X@+@O.O...O$.@O+@.O@.++.@+.#.+O@O@O+%",
" ..@@.$&@@.X.+@.O@.++.@. *&@X+=@O.@O.X&.@@O@$&+X@+.XO@.o",
" O@OOO+O+O@O.O@O@OXO.O@  .*O+O.O=-@+@O;OOO.O++@O@:@O.O@o",
" .O.X.O.@@:@@.O@.X:.X.  O . X.++$+X&#.O.>+.@.@O@+#X&#.Oo",
" +.O+O@O+:@OOO.O+O@O@  . . # O;O@++O+OOO.O+OXO.OXO+O$O+%",
" @@+.;&.O..XO.@.O$&O  O O + , ..O;.$O@X.OX@:O.X.-..+O.Xo",
" +.O.O+O.O.O.O.O$O;  . . % # ; O.O@O+O.O.O.O.OOO.+@O.O.%",
" .O@+.O$O@O.+$-&O.  O . o . O , O$O@.$OOO.OO@.O$O.OO.XOo",
" O@O@O.O+.OO&+.+$  . . < O 1 .*. O+O.O.O$O.O.O&+.O$O$O.o",
" .O.O$O.O.O.O.O+  . O %*. 1 , ,*, O.OXO@O.O+O$O@.+O.O+Oo",
" O$O&.@-XO.O@O.  + . % . o ; O X , O.O.O++>O.O+O+O.+@O@o",
" O+@O-O.OOO$-O  . O : O o . 2 , ,*, OOOXOOO@OOO.OOO.O33o",
" O:O+O@OXO.O.  O . % . % . o ,*1 ,*, O:O.O.OOOXO.O.O=4+%",
" 3OO3OOOOOOO  . . o O : O < + 5 , ,*, OOO<o633OOOOOO+O3o",
" 3#+.3.O@3+O.  O o . < . < , < ,*O , , O< oX<O:O@3:O+3.o",
" +333OO33OOO-<  . . o O o X <*, 5 ,*,*, o o.o3O333O33OOo",
" O33@733@333@8<  O o . . ,*. , , , , ,*,ooo$%333$O33.33o",
" 33333333333OO1<  . O < X 1 & O*,*,*,X%ooo%oooo<3333333o",
" 3333333333333O5<  . % O < , 1 , , & %<  .:<oo1o+O33333o",
" 33333333333333O8<  O . o ; 9 , ,*, , oo1X%oo1o33333333o",
" 133333333333133O5<  . < , , ,*X , , , oo1oo<o333333333o",
" 373337+<o0o0oo<1:8<  O @*< , 1 ,*,*,*,oq#oo<o333333333o",
" +333190<w  w  <o%<O<  # < ,*, , , ,*,%o1 oo<o<13331.13o",
" 333+<%  O  O  w  woo<  , , X ,*, & ,oo1 +qoe9q<3333133o",
" 1319e>oo%o<&  @  r .oo: X*@ ,*, ,t,o0: .<ooq<<0<1:1713o",
" 37.%w  w  ooo%w  .  ..o< , , ,*,*,O0<  <ooqqy9<q<13-33o",
" 137320o  w@  w%oo&  w  w%O  & , ,*oo1 O%oooqqe<90:-313o",
" 383O.83<%r  @w  1oo r uw Xo, ,*, ,oo1 <oooqoo0<<%-3371o",
" 13338O1332eowu w@  o%  @  wo, ,*, <oo8oooqoqo0<i9:8343o",
" 71313138:83#2o%w  @w oo   1Xq& ,t&,<ooooooqooo0<:13131o",
" 13171.131+17831p0ow   w%o w wo, ,t,X:X,O8.138.17831:13o",
" 113:11744171:83:8#2o%r  w%O  X0,&,X,X,O31171.1:1313311o",
" 8.131:13171:138O1:83820o@ .<r woa>,X,O134.1717131:131:o",
" 18111471441411-414188:48<o<<o%X >e9,5714154711:1717118o",
" 1:1:831717171:17131:1O8O1:1O-3<o< >q131383137313178313o",
" w111111841841818141844111w8w18518<< o<1411411811811141o",
" 141714131143141:141318438313131381-O8o<711171417114714o",
" 4118411w8w1111111711w11411814111311131714841w114414111o",
" 1744141117471414w71w81w1w7w181411711111413111841171414o",
" 481414141w18w1411441141118111w181w1414171411711w814841o",
" 11w1141418141441114111444141441711111114118w1411414141o",
":qqoqqqqqqqqqqqqqoqo0q0oqqqqqqqqqqq0oo0oooqqqqqq0qqooooo"};
