/* XPM */
static char * image_name[] = {
"56 46 65 1",
" 	c #FFFFFFFFFFFF",
".	c #BEFBBAEABEFB",
"X	c #000000001040",
"o	c #BEFBB6DABEFB",
"O	c #AEBAAAAAAEBA",
"+	c #C71BBAEAC71B",
"@	c #AEBAA699AEBA",
"#	c #082004100820",
"$	c #30C234D330C2",
"%	c #28A25D754924",
"&	c #AEBAAEBAAEBA",
"*	c #208120812081",
"=	c #208124929658",
"-	c #38E36DB6A699",
";	c #5144A2894924",
":	c #79E79248B6DA",
">	c #8E388A288E38",
",	c #BEFBC30BCF3C",
"<	c #5965A289D75C",
"1	c #EFBEF3CEF7DE",
"2	c #000008200820",
"3	c #51445555FFFF",
"4	c #69A68617BEFB",
"5	c #D75CDF7DE79D",
"6	c #AEBAB2CACF3C",
"7	c #E79DE79DEFBE",
"8	c #000000001861",
"9	c #FFFFF3CEFFFF",
"0	c #618561856185",
"q	c #BEFBC30BBEFB",
"w	c #514455554924",
"e	c #D75CD34CD75C",
"r	c #186120812081",
"t	c #5965514428A2",
"y	c #0820596528A2",
"u	c #A699A699A699",
"i	c #965896589658",
"p	c #9E799A699E79",
"a	c #30C271C65965",
"s	c #B6DAAEBAB6DA",
"d	c #E79DD75C9E79",
"f	c #CF3CC71BCF3C",
"g	c #FFFFFBEEFFFF",
"h	c #B6DA45145965",
"j	c #EFBE28A25144",
"k	c #AEBAAEBAB6DA",
"l	c #BEFB20812081",
"z	c #71C675D671C6",
"x	c #A6999E79A699",
"c	c #AEBA61856185",
"v	c #410338E34103",
"b	c #28A22CB230C2",
"n	c #F7DEB2CAAEBA",
"m	c #96589658AEBA",
"M	c #FFFF14514103",
"N	c #FFFFEBADAEBA",
"B	c #492449245144",
"V	c #A69979E78E38",
"C	c #000030C20820",
"Z	c #FFFFFFFFD75C",
"A	c #AEBA9E795965",
"S	c #FFFF0C304924",
"D	c #FFFFE79DBEFB",
"F	c #DF7DBAEA8E38",
"G	c #861779E78617",
"                                                       .",
" ......................................................X",
" ......................................................X",
" ..o.o.o.o.o.o.o.o.o.o.o.o.o.o.o.o.o.o.o.o.o.o.o.o.o.o.X",
" O..+O...@+..O.+.O.+.O.+.O.+.O.+.O.+.O.+.O.+.O.+.O...O.X",
" ...oo+o....o.o..o..o..o.XX..o..#$%%%%%%$#..o..o..o.+o.X",
" O.O.&.O.@.O.@.O.O.@.O.O*=-=.O.@#;:>,<1<:2OO.O.O.@.O.O.X",
" ..o..O...o...O..o....O*=333=XO.24%$5<6<;#..o.Oo...o..OX",
" O.O.@.@.O.@.O.@.@.@.#==363=3==X2;:<<<5<;2+&.@.@.O.@.O.X",
" .o.O...@...@...O..+#X336776333-8;<6<5<6;2..@...@...@o.X",
" O.@.@.O.O.@.O.@.O.#==3617579333=0,<5<<1:2qO.@.@.@.@.O.X",
" .O...O.@.@...O.@.O=3367757713=3=0<<<:<:w2O...@.@.@...OX",
" O.Oo@.O.O.@.@.O.OX33797e77,3333=rt$yty$$22O+O.&+&.O.O.X",
" .O+@.O.@.O.O.@.OX=367e579633=33-;:u:i:p:w#OO.O.O.O.O.OX",
" O.&.O.O.O.@.O.O==66175e7733=33==awww0wwwr2soO.O.O.@.@.X",
" OO.OO@.OO@.OO@=3377e5777367==33=;:5ad&:f;2#OOO.OOO.OOOX",
" O.O.O.O.O.O.OX=6757571,3371763=:e7f1555f1:2+&.@.@.O.O.X",
" OOOO########=333e1e177333gg773-$%;*aw%%a002&OOOOOOOOOOX",
" O.O##$w$w$w$56333677763=369  33=- h---3:$22.O.O.O.@.O.X",
" OOO#*:<o<o<+@533=33e333333316333=hj333-k22O@OOO@OOOOOOX",
" OOO#$:%:e<5<;97533=33=3=33=633733lj=3kr*2#s.OOO.OOO.OOX",
" OOsX$;;<<6<e0g7+76=3=333=33333616hj36z#$x2@OOOOOOOOOOOX",
" OOO2$4<5<<<6r;7 ,193=3=3=3==3=337ejc,X#@z#O@OOOOOOOOOOX",
" OOO2v<5<6<5,wjjjjjjjjjjjjjjjjjjjjjjk#w z2#s2#2#O.OOOOOX",
" pO@2$k<5<5<<tjjjjjjjjjjjjjjjjjjjjjj#$,2#w00w00w2p@OOp@X",
" OOs##;waw;w;b22c5dn1nn563===3==3ejj#&02$5<<eee:2@OOOOOX",
" OOp#;wca0000w22#z5ge@fmf@-633335xwM0m#2w:26<<<52OOp@pOX",
" OOs20:4::::;;2s&#*,N0;00;B67=36+#hj,222$:<<5<542OOOOOOX",
" pOp#;$0$0$w;%*#&p##0<me<e<z166V8#hjX2s2$<<5<<<<Cp@p@p@X",
" OO&*7eZqeee9e:#OO@+;:b<6<e*9568XAlj2@O2$56<<65o#@@@OOOX",
" pOp#&f;5:qe:efw2pOp0::<5<<$ 1X#>zhjVuO2$<5<5<<<tAkpOp@X",
" @pO2*rrrrrr22*#2sAq;<,6<<5$ x$>5XtjO@p2$y$y$yt$2#pOO@pX",
" p@pOp&:&:&;qpOpOpxp0e<<5<6y1e5z##hjtwtw;0m0;m0;w2Op@p@X",
" @p@pOi&Aup&p@p@pkAs;q::<:q$17p###tjjjMh0;0;:;;;w#p@p@pX",
" pOp@pOp&p&pOppp@pk#$$y$y$$*f1w##xhSwtB#w;:0;;;:;*2p@p@X",
" pp@>pp&ppp@ppp@pp4*NA:p:A:;%njthvjj##2$,1e77e7e1x##pppX",
" p@p@p@p@iOp@p@p@pu*4>0;0;;0$jjjjjjjcu#%i:;:;;:04:r#@p@X",
"gppppp>ppppppp>ppp2ew:a:0;:%uwthtthtpp222222222222##pppX",
" p@p@p@p@p@p@p@p@>#De75e7q5Z70#cFcAcux@p@pupupkpupOx@p@#",
"9pppppppxGppGpppp#r%k%;a;;;i%>#pm@xppppppppppppppppppppX",
" ppi@ipi@xpp@pGp@#*22222222222#xxppp@pppppppippGsppi@ppX",
"gipppppppippppxppppppppupupppxppppppppppppGppppppipppppX",
" p@ppVmppp@ppppppp@pp4Apppppppppppxpppippp@ppppppp@pppi#",
"9ppppppmVppmVxppmGpppppxGpppppppVppppVpmVpppmVpmVppmVppX",
" ppVmppppmpppppVxppGxipppppGpppppppVxppppmppppmppppVmppX",
"+#88###########X#X#X#######X###8#8#8##8###########XXXXXX"};
