/* XPM */
static char * image_name[] = {
"56 46 34 1",
" 	c #FFFFFFFFFFFF",
".	c #D75CD34CD75C",
"X	c #000000000000",
"o	c #E79DE79DEFBE",
"O	c #618561856185",
"+	c #965896589658",
"@	c #A699A289A699",
"#	c #A6999E79A699",
"$	c #AEBAAEBAAEBA",
"%	c #514455554924",
"&	c #000008200820",
"*	c #AEBAAAAAAEBA",
"=	c #AEBAAEBAB6DA",
"-	c #AEBAA699AEBA",
";	c #71C675D671C6",
":	c #BEFBB6DABEFB",
">	c #B6DAAEBAB6DA",
",	c #30C234D330C2",
"<	c #69A669A671C6",
"1	c #8E388A288E38",
"2	c #CF3CC71BCF3C",
"3	c #EFBEF3CEF7DE",
"4	c #D75CDF7DE79D",
"5	c #28A22CB230C2",
"6	c #5144A2894924",
"7	c #79E786179E79",
"8	c #AEBA9E795965",
"9	c #208120812081",
"0	c #A699A699A699",
"q	c #186120812081",
"w	c #082004100820",
"e	c #BEFBBAEABEFB",
"r	c #BEFBC30BBEFB",
"t	c #8E38861779E7",
"                                                      .X",
"  ...................................................oOX",
"  +@#$@$#@$$#@$$#@$$#@$$#@$$#@$$#@$$#@$$#@$$#@$$#@$$#$%&",
"  #$**=**=-$**=@*=-$**=@*=-$**=@*=-$**=@*=-$**=@*=**$=;X",
"  #**************************************************:;X",
"  ******$>:=:>:>:>:=:>:>:>:=:>:>:>:=:>:>:>:=::******$$;X",
"  #$*****,&&&&&&&&&&&&&&&&&&&&&&&&&&&&&&&&&X&X;******:<&",
"  #****$>;     o           o                 o%:****$>;X",
"  @*****$<o    $ o+.o$+$+%+,+11o1$o          .%=$***$>;X",
"  *****$$$o  % < ;2$.%>+%,o, o3 $%.$>        .%:***$$>;X",
"  #*****$;.. .<3 2%%%%<%<o;4 .oo.1   +.2     2%:$$**$>;&",
"  #*****$< $ $$%+%<%%;$;$%$%$,%O+;$4   $     .%>$**$$:;X",
"  @$*****$$22;+%%O+%%%%%%%%%%%%5%,,%$6$  $:  .%=$***$><&",
"  #******;.;o%$%+<+%O+;%+O%%$<. 4O:>%%.%   % 2%:$**$$:;X",
"  #******+7$$1<%<%%%=+O%%%%%%+        =, $   .%:$***$>;&",
"  *****$@8 41%;%;%<3 1%%%%%%%%o  2$    . 9<7 .%>$***$:<X",
"  #$****=;o; %$%%8o  .<%+%%%$%%;7%1       o% 2%=$$***>O&",
"  ******$1o  2,%@4   21+;%;%;%<%<;           .%:$**$$=;X",
"  #*****$7o  >,%7;    +%<+8%<%;%%;o          .%:$***$:O&",
"  ***$:*$<.   o%2;     <1%@%$%+%71           .%>$**$$=;X",
"  #$*$$**+o   2;1=14o4  $56,6,;<0            2O=$$**$:O&",
"  #**-$:2+    :  . 44.   > $ $               o;:$**$$=;X",
"  @***:%XX9X9,q9X999+           >&99999X X9q,&&%>$$**:;X",
"  ***$>%XwX&XXX,&XX&<           :XXXXXXX 9,XXX&%:$*$$>;X",
"  +***2%&,*.XX&  1Xw;             +X&wX   +XX&*>$$**$:O&",
"  ***$:%X;$2XwX   #&<             o%XwX, %XwX+:$$***$:<X",
"  #***>%&<:2&ww   :X;               ;XwXwXwX:>$$*****>;&",
"  #*$:$<,1$2wwX   .%$                $XwwX9.$$*****$$:;X",
"  @**$$$:$*2&wX                       ,wXw92:$******$><&",
"  *****$***2XwX .XXX&XXXXX&XXX9      %wXwXX&>:*****$$:;X",
"  #*******$:wXw o,9Xww,%,%%wX&X    o,&X9,wXX&+>$****$>;&",
"  ******$>:.XwX    %X%    >.wwX   $9X9;:2;,XX&$>>:**$>;X",
"  @***:$*6&XXwXXX% $w9.  ,&  Xw :X&X&XX+2wXwXX&&%$$*$>;&",
"  #***$*$;,X999w&% +X%>.%XX  X, $XX9w9X$:w9w,X9X%:**$$;X",
"  #*****->:>.:2::>:;X&X&XXw:>22$$:.:2::$>>.:.:.>:$$$*>;X",
"  ****$:$$$$$$$$$$>;XX;+%X&:$&,:*$$$$$$$$$$$$@$$$$$*$>;X",
"  #$***$$*$$$*$*$$>;X,+>2&X$:&X:$-$-*****$$**$$$$-***>;&",
"  *****-**-**-**$$>;X9+$:%,>+X&2$***************-$*$$:;X",
"  +*************:2+&X,*222..XXX:$****:$$************$>O&",
"  ********$:***$+X&XXXXw&X&XX&X:***-$$*-************$=;X",
"  #******:$$$-***9,,,,,,,,,,,,%>$****-**************$:O&",
"  #*$:**$-$-****$>>:>::e>:r>:>:$********************$=;X",
"  @*$$-$*$-*****$:$:$$$$$$$$$$$$**:>$********:$*****$:<&",
"  $>-:$>:$>:>>:>>$:$=:=:=:=:>:>$:>$>:$>:$>:>>$>:$>:>:>;X",
"  ;17t717t717t7617t711711717t6717616717t7171717t717t71<&",
" ,XXXXXXXXXX&&&&&X&&X&X&XX&X&X&XX&XX&XXXXX&X&XXXXXX&&&&X"};
