/* XPM */
static char * image_name[] = {
"56 46 33 1",
" 	c #FFFFFFFFFFFF",
".	c #D75CD34CD75C",
"X	c #000000000000",
"o	c #E79DE79DEFBE",
"O	c #618561856185",
"+	c #A699A289A699",
"@	c #AEBAAEBAAEBA",
"#	c #965896589658",
"$	c #AEBAA699AEBA",
"%	c #9E799A699E79",
"&	c #BEFBB6DABEFB",
"*	c #492449245144",
"=	c #A6999E79A699",
"-	c #AEBAAEBAB6DA",
";	c #B6DAAEBAB6DA",
":	c #69A669A671C6",
">	c #AEBAAAAAAEBA",
",	c #71C675D671C6",
"<	c #8E388A288E38",
"1	c #AEBA61856185",
"2	c #71C679E78617",
"3	c #79E786179E79",
"4	c #D75CDF7DE79D",
"5	c #CF3CC71BCF3C",
"6	c #28A22CB230C2",
"7	c #514455554924",
"8	c #186120812081",
"9	c #5144A2894924",
"0	c #30C234D330C2",
"q	c #208120812081",
"w	c #BEFBC30BBEFB",
"e	c #BEFBBAEABEFB",
"r	c #8E38861779E7",
"                                                      .X",
"  ...................................................oOX",
" o++@@#$@$#@$+%$+@%$+@%+@$#@$@#$@$#@$+%$+@%$+@%$+@%$%&*X",
"  =-@$-@$@-$@-@@-@$@-@$-@@-$@$-@$@-$@-@@-@$@-@$@-$@@@;:X",
"  =>@$@$@$@@$@$@$@$@$@$@$$@@$@$@@$@$@$@$@$@$@$@@$@$-@;OX",
"  =>>>$@$@>$>>>>$@@$@>>>>>>$@@$@$@$@>>>>>@$@@$@$@@$@@&:X",
"  =>>>>>>>>>>>>>>>>>>>>>>>>>>$>>>>>>>>>>>>>>$>>>>>>>@;:X",
"  =>>>>>>>>>>>>>>>>>>>>>>>>>>>>>>>>>>>>>>>>>>>>>>>>>;;,X",
"  %>>>>>>>>>>>>>>>>>>>>>>>>>>>>>>>>>>>>>>>>>>>>>>>>>@;OX",
"  >>>>>>>@;;;;;;;;;;;;;;;;;;;;;;;;;;;;;;;;;;;;;>>>>>@;:X",
"  =>>>>>;<:12:12:12:12:12:12:12:12:12:12:12:123>>>>>;&OX",
" o+>>>>@@<:O,:O,:O,:O,:O,:O,:O,:O,:O,:O,:O,:O:<>>>>@@;:X",
"  >>>>>@$o                                    o@>>>>;&OX",
"  >>>>$-@o                                    o@>>>@@;:X",
"  =>>>>>@4                                    o+>>>>@;,X",
"  +>>>>>+o                                    o@>>>@&;:X",
"  =>>>>>=o                                    o@>>>@@;OX",
"  +>>>>>@o                                    o=>>>>@;:X",
"  +>>>>>@o                                    o@@>>;@;,X",
"  =>>>>>%o                                    o+>>>@@;:X",
"  +>>>>>@o                                XX  o->>>>@&OX",
"  >>>>>>+o                                XX  o=>>>>@;:X",
"  %>>>>>@o                                XX  o+@>>>>;:X",
"  =>>>>>+o                             XX XX  o=>>>@;;,X",
"  +>>>>>=o                             XX XX> o@@>>@@;,X",
"  =>>>>@@o                             XX X5X o+>>>>@&:X",
"  +>>>>>@o                     4o    o XX X X6o@>>>>>;OX",
" o>>>>>>%o                    .X6    6XXX X oX @>>>@;;:X",
"  =>>>>>@o                    oX7    7XXX X .X =>>>@@;,X",
"  =>>>>>-o   XX  o            .XX8@  6; X X .X +>>>>@&:X",
"  +>>>>>@65 X7X .XXXo .XX%XX-XX6 o3@;X5 X X .X;@>>>>>;,X",
"  >>>>>@;,o X X 68 67 *7@XXXX%X8 9X%XX5 X7X o7X;>>>>@;:X",
"  %>>>>>@;,8X XX7o o77X; >7XX 6@ %: .74 oo4  47;@>>;@&OX",
"  =>>>>>@5.5...o.5555...5..44...55.5.5.;5.55.55@>>>@@;:X",
"  +>>>>>>O66666666066666666666q6666666606666667>>>>>>;,X",
"  =>>@;>@-&@&@@&@@&-w@&@;@;;;@w@;e@&@&@&@@&@;;;&>>>@;&:X",
"  +>>>@>>@;@@@e@@@@;@@@@@@@@@@@;@@@@@@;@@@@@@@@@>>>>@;,X",
" o>>>>>>>@@@@@@@@@@@@@@>@>@@@>>@@@>>@@@@@@@@@>>>>>>>@;:X",
"  =>>>>>>>>>>>>>>>>@@>>>>>>>>>>>>>;@>>>>>>>>>>>>>>&>>;OX",
"  =>>>@;>>>>>>>>>>>>>>&>>>>>>>>>>>@>>>>>>>>>>>>>>>>@&;:X",
"  +>>>>@>>>;@>>>;>>>>>>@>>>>>&@>>>>>>>>>>&@>>>>>>>>;@;,X",
"  >>>>>>>>>@>>>@>>>>>>>>>;>>>>@>>>>>@&>>@>>>>>>>>>>@@;:X",
"  =>>>>>>>>>>>>>>>>;@>>>>>>>@>>>>>>>>>@>>>>>>>;>>>>>@;,X",
"  @;;;;;;;;;;;;;;&;&;;;;&;&;;;;;&;;&;;;;;;;&;;&;&;;;&;:X",
"  :<<3<<<3<<<3<<3r3<<<3<<3r<<<<<3r<<<<<<<<<<<3r3<<3<<<:X",
"o6XXXXXXXXXXXXXXXXXXXXXXXXXXXXXXXXXXXXXXXXXXXXXXXXXXXXXX"};
