/* XPM */
static char * image_name[] = {
"56 46 10 1",
" 	c #FFFFFFFFFFFF",
".	c #BEFBBAEABEFB",
"X	c #000000001040",
"o	c #BEFBC30BBEFB",
"O	c #AEBAAAAAAEBA",
"+	c #BEFBC71BD34C",
"@	c #B2CAAEBAB6DA",
"#	c #000000000000",
"$	c #9E799A699E79",
"%	c #A6999E79A699",
"                                                       .",
" ......................................................X",
" ......................................................X",
" .o..o..o..o..o..o..o..o..o..o..o..o..o..o..o..o..o..o.X",
" O...O...O...O...O...O...O...O...O...O...O...O...O...O.X",
" .....o......o.+..o......o.+..o....o..o...+......+..o..X",
" O.@.O.@.OoO.O.O.@.@.OoO.O.O.@.@.O.@.@.@oO.Oo@oO.O.@.@.X",
" o..o.O.o.....Oo.o..o.O..o...oO.......O....o..O..o.o..OX",
" O.O.O.@.O.@o##############################O.O.O.O.O.O.X",
" ...@...O.o.O#..O..###..O...##.#O#..O...###.Oo..Oo..Oo.X",
" O.O.O.OoO.O.#.OoO.#.OoO.OoO.O.O.#.O.O.#.O#O.O.@.O.O.OoX",
" .@...@.O.O..#O.OoO####o################O##...O.O.O.o.OX",
" O.O.O.O.@.Oo#.O#O.O#O.O#O.OoO.O.OoO.@.#.O#O.@.O.O.O.O.X",
" oO.OoOoO.O.O#Oo#.O.#oO.#.####@.@.O#O.O#Oo#oOoO.Oo@.O.OX",
" O.O.O.O.OoOo#.O##oO#O.O#O.####O.@#OoO.#.##O.O.O.O.O.@.X",
" O@oO@O.@OO.O##.OOO.#OOo#OO.###oO#OoOOO##O#oOOO.O@O.OOOX",
" O.O.OoO.O.@.###oO.O#O.O#O.O.####O.O.@.#.O#Oo@.O.O.@oOoX",
" OOOOOOOOOOOO#OOO@O###@O#O@OO####OO@OOO#O##OOOOO@OOOOOOX",
" Oo@.O.@oO.Oo#.OoO.Oo#.O#O.@.O####.O.Oo##O#OoO.O.O.O.O.X",
" OOOOOOOOO@OO#@OOOOOO#OO#O@OO#O####@OOO#O##OOOO@O@O@O@OX",
" O@OoO@OoOOOoOOO.@OO.#OO#OO@#OOO###O.@O#.O#O.@OOoOOOoOOX",
" OOOOOOOOOOOO#OO#OOOOO@O#@O#OO@OO###@OO#OO#OOOOOOO@OOOOX",
" OO@OO@OO@OO@#OO#O@O#OO@#O#OO@OOO####O@#O##O@O@OO@OOO@OX",
" O@OOOOOOO@OO##O#@OO#@#O##OO@OO@OO####O##O#@OOOO@OO@OOOX",
" $O@O%O@O%OO@#O##$O@#$OO#$@OO$@OO$OOO$O#O%#OO%O@O$@OO%OX",
" O@OOO@OOO@OO##@OO@OOO@O################OO#O@OOOOOOO@OOX",
" OO%O$O$@OO$@#O$O@O$@$O$@OO$#$O$O@O$O$O$@O#$O%O%O@O$O%OX",
" O@OOO@OOO@OO#O@OO#######O@O###O##OO@O@O###@OOOOOO@O@OOX",
" $O$@$O%O$O$@#O$O%O#O#O$#$O$O#O$@#O$O$@$#$O$@$O$@$O$O$@X",
" O@OO@OOO@O@O#O@OO@OO@O@#O@O@O@OO#@O@#O@OO@OO@O@OOOO@OOX",
" $O$@$O$@$O$O####$O$@$O##$#####$O$O###O$O$#$@$O$O$@$O$@X",
" O%OO@$OOO$@O##O#@$O##$O#O#OOO$###$#O#$@O@#OOO$@O@$O@O$X",
" $O$@$O$@$@$O#O$##O$#$#$##O$##O%O$@####$O##$@$@$O$@$O%OX",
" O%O$@$@$@$O$#OO#OOO##OO#@$@$#$O$#$O$O$O$O#@$O$O%O$@$O$X",
" $O$@$O$O$@$O#O$O$O$#$O$#$O$OOO$@#O$@$@$@$#$O%O$O$@$O%OX",
" $%O$$$@$%$O$#$@$$$O#$$O##$@$$$O$#OO$$$O$$#@$$$O%$$@$$$X",
" $O$@$O$O$@$O#O$O$@$#$@$O$O$#$O$@$O$OOO$@$#$O%@$O$@$O%OX",
" $$$$%$%$%$$$##############################$$$$$%$$%$$$X",
" $@$O$O$@$O%O$O$O$O$O$O$O$O$O$O$O$O$O$O$O$O$@$@$O$@$O%OX",
" $$$$$%$$$$$$O$$$$$$$$$$$$$O$$$$$$$$$$$$$$O$$$$$%$$$$$$X",
" $$OO$$$@$$$O$$$@$%$@$$%@$$$O$O$@$$%@$$$@$$$@$$%O$%$@$$X",
" $$$$$$$$$O$$$$%$$$$$$$$$$$$$$$$$$$$$$%$$$$$$$$$$$$$$$$X",
" $@$$%$$$$O$$$$$$%O$O$$$$%@$$$$$%$@$$$$$%$@$%$$O$$@$O$$X",
" $$$$$$$%$$$$%$%$$$$$$$%$$$$%$%$$$$$%$%$$$$$$$$$$$$$$$$X",
" $$%$$O$$$%$$$$$$%$$$%$$$$$$$$$$%$$$$$$$%$%$$%$$$$$$$$%X",
"oXXXXXXXXXXXXXXXXXXXXXXXXXXXXXXXXXXXXXXXXXXXXXXXXXXXXXXX"};
