/* XPM */
static char *noname[] = {
/* width height ncolors chars_per_pixel */
"48 48 17 1",
/* colors */
"` c #000000",
"a c #FFE779",
"b c #878787",
"c c #FFAE00",
"d c #3012AA",
"e c #FF0000",
"f c #FF6F6C",
"g c None",
"h c #4ABD40",
"i c #B72828",
"j c #5C5C5C",
"k c #5278BF",
"l c #FFFFFF",
"m c #FFFF00",
"n c #D3D3D3",
"o c #C1C1C1",
"p c #0000FF",
/* pixels */
"ggggbccccccccccccccccccccccccccccccccccccccccccc",
"ggocmcccccccccccccccccccccccccccccccccccccccccci",
"occmccmcmcmcacmcmcmcacmcmcmcacmcmcmcacmcmcmcmchc",
"laanllnnnlnnnnnnlnlnnnanlnlnnnnnlnnnannnlnlgamci",
"cmcmcmcmcmcmmcmmcmcmmcmcmcmcmmcmcmmcmmcmcmcmnchc",
"cmccmcmcmcmccmccmcccaaoamccmccmcmcccmcmccmcclcci",
"ccmccccmcccmccmaaanbj``aacmccmccmcmcccmcmcmclcch",
"mcmcmcmcmcmcaaabjj`````jacmcmcmccmcmcmcmccmclchc",
"cmcmcmcccmcmaaij````````aacccmcmccmcmcaccmcmnmci",
"caccmccammcccacj````````jamcmaccmaccmcmaamcclcci",
"cmcmcmccccmcmnc``````````ocmccmccmaanobjbacmlchc",
"mccaccmmcmcmcacij````````jacmaanaojj````jamcncci",
"cmcmcmccmcaccaah``````````aoajj``````````acmlmch",
"ccmcccmccmccmahi````````````````jbono````baclcci",
"mccmcmcmccmmaaf````````````````bllobj````jmclchc",
"ccmcmccaaaabjj````````j``````jlnb````````jamncci",
"mcaaaanbj``````````blllllnnnllj`````jjiccaoclmch",
"caabj````````````jnlo`j`jjbbj````jjihcanaamclcci",
"bog`````olllnobbolo````````````jiccaaacmcccmnmch",
"ggg```blobjjbonnbj````````````jaaaamccmccmmclcci",
"ggg``jlb``````````````````````amcmccmcmcmccmnmhc",
"ggg```````````````````````````ocmcmcmccmccmclcci",
"ggg`````````d`d```````````````jacccmcmccmccmlcc`",
"ggg`j``d`d`dd`d````````````````omcmccamcmcmcncj`",
"ggg``d`ddjddkdd````````````````jacmcmccccmcml```",
"ggbdddkdddkkkdkd````````````````nmcmccmcmaaaj```",
"godddjpkkkppkkdd````````````````baccmaaanbj`````",
"oddkkpkpkpdkpkdd`````````````````aaaabj`````````",
"kpkddkdddkdkdkpjd````````````````bjj````````````",
"pdkpkpdkdpkdpkkddj``````````````````````````````",
"dkdddkddkddkddkdd```````````````````````````````",
"dpkdkpdkpkddkpkdkd``````````````````````````````",
"dkdddkddddkpdkpkdd``````````````````````````i`i`",
"ddkpkdkpkpdkddkpkdd````````````````````i`i`i`i`i",
"dkdddddkdkddkpdkddj```````````````i`i`i`i`eiiie`",
"dpkdkpkdddkpddkpkp`d````````````i`i`iiieieiieeii",
"dkddkddkpkdkdkdkkpk```````````iiiiieeieeeeeeifii",
"dpkpdkpdkddpdpkdpkdd`````````ieieeeieieififeefe`",
"dkddkddkddkdkddkdkpj````````jeeieifefeeeeeeeefii",
"ddkdpkddkpdkdkdkpkddd````````eefieeeeeieieeeeiii",
"dkddkddkddkdpdddkpkkd````````eeeeeeeeeeeeeeeefi`",
"dpkpdkdpkdpkdkpkpkkp`d```````iieieieieieefeieiii",
"dkddkddkddddkdddddkdd`j``````jeeeeeieieieeeeefe`",
"dpkddkpdkpkdpkdkdkpkkd````````eeeieieeieeeieefii",
"dkddkpdkddkdddkpkdpkpd````````ieieieieeiieeiefi`",
"ddkpdkdpkddkpkdddpkkdkggggggggbeeieeieieefeeefeb",
"dkddkddkddpkddpkdkdpkgggggggggbeieieeieeeeeeefio",
"dpdkdpkddkddkdkdkpdkkgggggggggooeeeieieieieieebg"
};
