/* XPM */
static char * ds_kill_is_xpm[] = {
"14 14 38 1",
" 	g None",
".	g #575757",
"+	g #585858",
"@	g #626262",
"#	g #5A5A5A",
"$	g #5B5B5B",
"%	g #5D5D5D",
"&	g #616161",
"*	g #7D7D7D",
"=	g #696969",
"-	g #595959",
";	g #5F5F5F",
">	g #717171",
",	g #636363",
"'	g #545454",
")	g #686868",
"!	g #6D6D6D",
"~	g #5C5C5C",
"{	g #5E5E5E",
"]	g #666666",
"^	g #454545",
"/	g #515151",
"(	g #646464",
"_	g #676767",
":	g #6E6E6E",
"<	g #474747",
"[	g #4F4F4F",
"}	g #565656",
"|	g #494949",
"1	g #6F6F6F",
"2	g #505050",
"3	g #737373",
"4	g #4A4A4A",
"5	g #606060",
"6	g #444444",
"7	g #4C4C4C",
"8	g #656565",
"9	g #535353",
"..............",
"..............",
"..+@#....$%...",
"..&*=-..;>,'..",
"..-)!;~{>]^/..",
"...~,(_:@<[}..",
"....~@)&|/}...",
"....{1@{2'....",
"...;3]4}&'....",
"..53,62'-7/...",
".+8~6/}..7[}..",
"...29}...}}...",
"..............",
".............."};
