/* XPM */
static char * ds_kill_in_xpm[] = {
"14 14 40 1",
" 	g None",
".	g #2F2F2F",
"+	g #575757",
"@	g #7F7F7F",
"#	g #585858",
"$	g #626262",
"%	g #5A5A5A",
"&	g #5B5B5B",
"*	g #5D5D5D",
"=	g #616161",
"-	g #7D7D7D",
";	g #696969",
">	g #595959",
",	g #5F5F5F",
"'	g #717171",
")	g #636363",
"!	g #545454",
"~	g #686868",
"{	g #6D6D6D",
"]	g #5C5C5C",
"^	g #5E5E5E",
"/	g #666666",
"(	g #454545",
"_	g #515151",
":	g #646464",
"<	g #676767",
"[	g #6E6E6E",
"}	g #474747",
"|	g #4F4F4F",
"1	g #565656",
"2	g #494949",
"3	g #6F6F6F",
"4	g #505050",
"5	g #737373",
"6	g #4A4A4A",
"7	g #606060",
"8	g #444444",
"9	g #4C4C4C",
"0	g #656565",
"a	g #535353",
"..............",
".++++++++++++@",
".+#$%++++&*++@",
".+=-;>++,')!+@",
".+>~{,]^'/(_+@",
".++]):<[$}|1+@",
".+++]$~=2_1++@",
".+++^3$^4!+++@",
".++,5/61=!+++@",
".+75)84!>9_++@",
".#0]8_1++9|1+@",
".++4a1+++11++@",
".++++++++++++@",
"@@@@@@@@@@@@@@"};
