/* XPM */
static char * ds_maximize_is_xpm[] = {
"14 14 16 1",
" 	g None",
".	g #575757",
"+	g #737373",
"@	g #7F7F7F",
"#	g #707070",
"$	g #535353",
"%	g #5E5E5E",
"&	g #5B5B5B",
"*	g #565656",
"=	g #545454",
"-	g #555555",
";	g #7C7C7C",
">	g #5C5C5C",
",	g #3B3B3B",
"'	g #323232",
")	g #272727",
"..............",
"..............",
"..............",
"..............",
".......+......",
"......@#$.....",
".....@+%&*=-..",
"....;+%%%>,...",
"....$''''')...",
"..............",
"..............",
"..............",
"..............",
".............."};
