/* XPM */
static char * ds_menu_in_xpm[] = {
"14 14 8 1",
" 	g None",
".	g #2F2F2F",
"+	g #575757",
"@	g #7F7F7F",
"#	g #737373",
"$	g #535353",
"%	g #323232",
"&	g #272727",
"..............",
".++++++++++++@",
".++++++++++++@",
".++++++++++++@",
".++++++++++++@",
".++++++++++++@",
".+++@####$+++@",
".+++$%%%%&+++@",
".++++++++++++@",
".++++++++++++@",
".++++++++++++@",
".++++++++++++@",
".++++++++++++@",
"@@@@@@@@@@@@@@"};
