/* XPM */
static char * ds_stick_in_xpm[] = {
"14 14 17 1",
" 	g None",
".	g #2F2F2F",
"+	g #575757",
"@	g #7F7F7F",
"#	g #6D6D6D",
"$	g #757575",
"%	g #5C5C5C",
"&	g #797979",
"*	g #686868",
"=	g #5F5F5F",
"-	g #585858",
";	g #4C4C4C",
">	g #5E5E5E",
",	g #363636",
"'	g #525252",
")	g #373737",
"!	g #3B3B3B",
"..............",
".++++++++++++@",
".++++++++++++@",
".++++++++++++@",
".++++#$#%++++@",
".+++#&*=-;+++@",
".+++$*>>%,+++@",
".+++#=>>'.+++@",
".+++%-%')!+++@",
".++++;,.!++++@",
".++++++++++++@",
".++++++++++++@",
".++++++++++++@",
"@@@@@@@@@@@@@@"};
