/* XPM */
static char *anchor[] = {
/* width height num_colors chars_per_pixel */
"    32    32        3            1",
/* colors */
". c None",
"% c #FFFFFF",
"# c #000000",
/* pixels */
"................................",
"................................",
"................................",
"................................",
"................................",
"................................",
"................................",
"................#...............",
"..............##%##.............",
".............#%%%%%#............",
"..............##%##.............",
"...............#%#..............",
"...............#%#..............",
"...............#%#..............",
"...............#%#..............",
"...............#%#..............",
"...............#%#..............",
".......###.....#%#.....###......",
".......#%#.....#%#.....#%#......",
"........#%#....#%#....#%#.......",
"........#%%###.#%#.###%%#.......",
".........##%%%##%##%%%##........",
"...........###%%%%%###..........",
"..............#####.............",
"................................",
"................................",
"................................",
"................................",
"................................",
"................................",
"................................",
"................................"
};
