/* XPM */
static char *anchor[] = {
/* width height num_colors chars_per_pixel */
"    32    32        2            1",
/* colors */
". c #ff0000",
"# c #ffffff",
/* pixels */
"################################",
"################################",
"################################",
"################################",
"################################",
"################################",
"################################",
"################################",
"################.###############",
"##############.....#############",
"################.###############",
"################.###############",
"################.###############",
"################.###############",
"################.###############",
"################.###############",
"################.###############",
"################.###############",
"########.#######.#######.#######",
"#########.######.######.########",
"#########..#####.#####..########",
"###########...##.##...##########",
"##############.....#############",
"################################",
"################################",
"################################",
"################################",
"################################",
"################################",
"################################",
"################################",
"################################"
};
