/* XPM */
static char * cn_keep_top_bottom_even_xpm[] = {
"32 32 5 1",
" 	c white",
".	c steelblue1",
"X	c black",
"o	c gray85",
"O	c red",
"                                ",
"                                ",
"                                ",
"                                ",
"                                ",
"                                ",
"                  ............  ",
"                  .X.X......X.  ",
"                  ............  ",
"                  .oooooooooo.  ",
"                  .oooooooooo.  ",
"                  .oooooooooo.  ",
"                  .oooooooooo.  ",
"                  .oooooooooo.  ",
"                  .oooooooooo.  ",
"      OOO         .ooooOOOooo.  ",
"     O   O        ....O...O...  ",
"     O  OOOOOOOOOOOOOOOO  O     ",
"  ...O...O....        O   O     ",
"  .X.XOOO...X.         OOO      ",
"  ............                  ",
"  .oooooooooo.                  ",
"  .oooooooooo.                  ",
"  .oooooooooo.                  ",
"  .oooooooooo.                  ",
"  .oooooooooo.                  ",
"  .oooooooooo.                  ",
"  .oooooooooo.                  ",
"  ............                  ",
"                                ",
"                                ",
"                                "};
