/* XPM */
static char * keep_bottoms_even_xpm[] = {
"32 32 7 1",
" 	c white",
".	c #6363B8B8FFFF",
"X	c #000000000000",
"o	c #999999999999",
"O	c #737373737373",
"+	c #D9D9D9D9D9D9",
"@	c #FFFF00000000",
"                                ",
"                                ",
"                                ",
"                                ",
"                                ",
"                                ",
"                                ",
"                                ",
"                                ",
"  ............   ............   ",
"  .X.X.X..X.X.   .X.X.X..X.X.   ",
"  ............   ............   ",
"  .          .   .          .   ",
"  . oOo oo   .   . oOo oo   .   ",
"  .   Oo  OOo.   .   Oo  OOo.   ",
"  . OOo      .   . OOo      .   ",
"  .   o o++  .   .   o o++  .   ",
"  . oOO@@@oo .   . oOO@@@oo .   ",
"  .   @   @  .   .   @   @  .   ",
"  ....@..@@@@@@@@@@@@@@..@...   ",
"      @   @          @   @      ",
"       @@@            @@@       ",
"                                ",
"                                ",
"                                ",
"                                ",
"                                ",
"                                ",
"                                ",
"                                ",
"                                ",
"                                "};
