/* XPM */
static char * cn_keep_left_xpm[] = {
"32 32 7 1",
" 	c white",
".	c steelblue1",
"X	c black",
"o	c gray60",
"O	c gray45",
"+	c red",
"@	c gray85",
"                                ",
"                                ",
"                                ",
"                                ",
"                                ",
"                                ",
"                                ",
"                                ",
"                                ",
"                                ",
" ............                   ",
" .X.X.X..X.X.                   ",
" ............                   ",
" .          .                   ",
" . oOo oo ++++                  ",
" .   Oo  O++.     ............  ",
" . OOo    ++++    .X.X.X..X.X.  ",
" .   o o@@+ +++   ............  ",
" . oOO@@ooo . +++ .+         .  ",
" .          .  +++++oOo oo   .  ",
" ............    +++  Oo  OOo.  ",
"                ++++OOo      .  ",
"                  .   o o@@  .  ",
"                  . oOO@@ooo .  ",
"                  .          .  ",
"                  ............  ",
"                                ",
"                                ",
"                                ",
"                                ",
"                                ",
"                                "};
