/* XPM */
static char * keep_rights_even_xpm[] = {
"32 32 7 1",
" 	c None",
".	c steelblue1",
"X	c black",
"o	c red",
"O	c gray60",
"+	c gray45",
"@	c gray85",
"                                ",
"                                ",
"                                ",
"         ............           ",
"         .X.X.X..X.X.           ",
"         ............           ",
"         .         ooo          ",
"         . O+O OO o . o         ",
"         .   +O  +oO. o         ",
"         . ++O    o . o         ",
"         .   O O@@ ooo          ",
"         . O++@@OOO o           ",
"         .          o           ",
"         ...........o           ",
"                    o           ",
"                    o           ",
"                    o           ",
"                    o           ",
"         ...........o           ",
"         .X.X.X..X.Xo           ",
"         ...........o           ",
"         .          o           ",
"         . O+O OO  ooo          ",
"         .   +O  +oO. o         ",
"         . ++O    o . o         ",
"         .   O O@@o . o         ",
"         . O++@@OOOooo          ",
"         .          .           ",
"         ............           ",
"                                ",
"                                ",
"                                "};
