/* XPM */
static char * cn_keep_above_xpm[] = {
"32 32 7 1",
" 	c white",
".	c steelblue1",
"X	c black",
"o	c gray60",
"O	c gray45",
"+	c gray85",
"@	c red",
"                                ",
"                                ",
"                                ",
"      ............              ",
"      .X.X.X..X.X.              ",
"      ............              ",
"      .          .              ",
"      . oOo oo   .              ",
"      .   Oo  OOo.              ",
"      . OOo      .              ",
"      .   o o++  .              ",
"      . oOO++ooo .              ",
"      .   @@@@@  .              ",
"      ....@@@@....              ",
"          @@@@                  ",
"          @@ @@@                ",
"          @    @@  @            ",
"                @@@@            ",
"                 @@@@           ",
"             ...@@@@@....       ",
"             .X.X.@@@X.X.       ",
"             ............       ",
"             .          .       ",
"             . oOo oo   .       ",
"             .   Oo  OOo.       ",
"             . OOo      .       ",
"             .   o o++  .       ",
"             . oOO++ooo .       ",
"             .          .       ",
"             ............       ",
"                                ",
"                                "};
