/* XPM */
static char * keep_lefts_even_xpm[] = {
"32 32 7 1",
" 	c white",
".	c steelblue1",
"X	c black",
"o	c red",
"O	c gray45",
"+	c gray60",
"@	c gray85",
"                                ",
"                                ",
"                                ",
"      ............              ",
"      .X.X.X..X.X.              ",
"      ............              ",
"     ooo         .              ",
"    o . oO+ ++   .              ",
"    o o o O+  OO+.              ",
"    o o oO+      .              ",
"     ooo  + +@@  .              ",
"      o +OO@@+++ .              ",
"      o          .              ",
"      o...........              ",
"      o                         ",
"      o                         ",
"      o                         ",
"      o                         ",
"      o...........              ",
"      oX.X.X..X.X.              ",
"      o...........              ",
"      o          .              ",
"     ooo+O+ ++   .              ",
"    o o o O+  OO+.              ",
"    o o oO+      .              ",
"    o . o + +@@  .              ",
"     ooo+OO@@+++ .              ",
"      .          .              ",
"      ............              ",
"                                ",
"                                ",
"                                "};
