/* XPM */
static char * cn_keep_above_xpm[] = {
"32 32 5 1",
" 	c white",
".	c steelblue1",
"X	c black",
"o	c gray85",
"O	c red",
"                                ",
"                                ",
"                                ",
"      ............              ",
"      .X.X......X.              ",
"      ............              ",
"      .oooooooooo.              ",
"      .oooooooooo.              ",
"      .oooooooooo.              ",
"      .oooooooooo.              ",
"      .oooooooooo.              ",
"      .oooooooooo.              ",
"      .oooooooooo.              ",
"      ............              ",
"                                ",
"                                ",
"   OO OO OO OO OO OO OO OO OO   ",
"                                ",
"                                ",
"             ............       ",
"             .X.X......X.       ",
"             ............       ",
"             .oooooooooo.       ",
"             .oooooooooo.       ",
"             .oooooooooo.       ",
"             .oooooooooo.       ",
"             .oooooooooo.       ",
"             .oooooooooo.       ",
"             .oooooooooo.       ",
"             ............       ",
"                                ",
"                                "};
