/* XPM */
static char * cn_keep_to_left_of_xpm[] = {
"32 32 5 1",
" 	c white",
".	c red",
"X	c steelblue1",
"o	c black",
"O	s gray85	c gray85",
"                                ",
"                                ",
"                                ",
"               .                ",
"               .                ",
"                                ",
"               .                ",
"               .                ",
"                                ",
"               .                ",
" XXXXXXXXXXXX  .                ",
" XoXoXXXXXXoX                   ",
" XXXXXXXXXXXX  .                ",
" XOOOOOOOOOOX  .                ",
" XOOOOOOOOOOX                   ",
" XOOOOOOOOOOX  .  XXXXXXXXXXXX  ",
" XOOOOOOOOOOX  .  XoXoXXXXXXoX  ",
" XOOOOOOOOOOX     XXXXXXXXXXXX  ",
" XOOOOOOOOOOX  .  XOOOOOOOOOOX  ",
" XOOOOOOOOOOX  .  XOOOOOOOOOOX  ",
" XXXXXXXXXXXX     XOOOOOOOOOOX  ",
"               .  XOOOOOOOOOOX  ",
"               .  XOOOOOOOOOOX  ",
"                  XOOOOOOOOOOX  ",
"               .  XOOOOOOOOOOX  ",
"               .  XXXXXXXXXXXX  ",
"                                ",
"               .                ",
"               .                ",
"                                ",
"                                ",
"                                "};
