/* XPM */
static char * keep_tops_even_xpm[] = {
"32 32 7 1",
" 	c #FFFFFFFFFFFF",
".	c #FFFF00000000",
"X	c #6363B8B8FFFF",
"o	c #000000000000",
"O	c #999999999999",
"+	c #737373737373",
"@	c #D9D9D9D9D9D9",
"                                ",
"                                ",
"                                ",
"                                ",
"      ...             ...       ",
"     .   .           .   .      ",
"     .  ...............  .      ",
"  XXX.XXX.XXXX    XXX.XXX.XXXX  ",
"  XoXo...XoXoX    XoXo...XoXoX  ",
"  XXXXXXXXXXXX    XXXXXXXXXXXX  ",
"  X          X    X          X  ",
"  X O+O OO   X    X O+O OO   X  ",
"  X   +O  ++OX    X   +O  ++OX  ",
"  X ++O      X    X ++O      X  ",
"  X   O O@@  X    X   O O@@  X  ",
"  X O++@@OOO X    X O++@@OOO X  ",
"  X          X    X          X  ",
"  XXXXXXXXXXXX    XXXXXXXXXXXX  ",
"                                ",
"                                ",
"                                ",
"                                ",
"                                ",
"                                ",
"                                ",
"                                ",
"                                ",
"                                ",
"                                ",
"                                ",
"                                ",
"                                "};
