/* XPM */
static char * cn_keep_rights_even_xpm[] = {
"32 32 5 1",
" 	c white",
".	c steelblue1",
"X	c black",
"o	c gray85",
"O	c red",
"                                ",
"                                ",
"                                ",
"         ............           ",
"         .X.X......X.           ",
"         ............           ",
"         .oooooooooOOO          ",
"         .ooooooooOo. O         ",
"         .ooooooooOo. O         ",
"         .ooooooooOo. O         ",
"         .oooooooooOOO          ",
"         .ooooooooooO           ",
"         .ooooooooooO           ",
"         ...........O           ",
"                    O           ",
"                    O           ",
"                    O           ",
"                    O           ",
"         ...........O           ",
"         .X.X......XO           ",
"         ...........O           ",
"         .ooooooooooO           ",
"         .oooooooooOOO          ",
"         .ooooooooOo. O         ",
"         .ooooooooOo. O         ",
"         .ooooooooOo. O         ",
"         .oooooooooOOO          ",
"         .oooooooooo.           ",
"         ............           ",
"                                ",
"                                ",
"                                "};
