/* XPM */
static char * cn_max_vsize_xpm[] = {
"32 32 5 1",
" 	c white",
".	c red",
"X	c #6185BAEAFFFF",
"o	c black",
"O	c #DF7DDB6CDF7D",
"                                ",
"                                ",
"                  .......       ",
"      XXXXXXXXXXXX  ...         ",
"      XoXoXoXXoXoX .....        ",
"      XXXXXXXXXXXX.. . ..       ",
"      XOOOOOOOOOOX   .          ",
"      XOOOOOOOOOOX   .          ",
"      XOOOOOOOOOOX   .          ",
"      XOOOOOOOOOOX   .          ",
"      XOOOOOOOOOOX   .          ",
"      XOOOOOOOOOOX   .          ",
"      XOOOOOOOOOOX   .          ",
"      XOOOOOOOOOOX   .          ",
"      XOOOOOOOOOOX   .          ",
"      XOOOOOOOOOOX   .          ",
"      XOOOOOOOOOOX   .          ",
"      XOOOOOOOOOOX.. . ..       ",
"      XOOOOOOOOOOX .....        ",
"      XXXXXXXXXXXX  ...         ",
"                  .......       ",
"                                ",
"                                ",
"                                ",
"                                ",
"                                ",
"                                ",
"                                ",
"                                ",
"                                ",
"                                ",
"                                "};
