/* XPM */
static char * cn_min_vert_xpm[] = {
"32 32 7 1",
" 	c #FFFFFFFFFFFF",
".	c #FFFF00000000",
"X	c #6185BAEAFFFF",
"o	c #000000000000",
"O	c #9E799A699E79",
"+	c #71C671C671C6",
"@	c #DF7DDB6CDF7D",
"                                ",
"                                ",
"                                ",
"                    ...         ",
"                   .....        ",
"                  .. . ..       ",
"                     .          ",
"                     .          ",
"     XXXXXXXXXXXX    .          ",
"     XoXoXoXXoXoX    .          ",
"     XXXXXXXXXXXX    .          ",
"     X          X  .....        ",
"     X O+O OO   X               ",
"     X   +O  ++OX               ",
"     X ++O      X               ",
"     X   O O@@  X               ",
"     X O++@@OOO X               ",
"     X          X               ",
"     XXXXXXXXXXXX  .....        ",
"                     .          ",
"                     .          ",
"                     .          ",
"                     .          ",
"                  .. . ..       ",
"                   .....        ",
"                    ...         ",
"                                ",
"                                ",
"                                ",
"                                ",
"                                ",
"                                "};
