/* XPM */
static char * cn_min_hsize_xpm[] = {
"32 32 5 1",
" 	c white",
".	c #6185BAEAFFFF",
"X	c black",
"o	c #DF7DDB6CDF7D",
"O	c red",
"                                ",
"                                ",
"                                ",
"          ............          ",
"          .X.X......X.          ",
"          ............          ",
"          .oooooooooo.          ",
"          .oooooooooo.          ",
"          .oooooooooo.          ",
"          .oooooooooo.          ",
"          .oooooooooo.          ",
"          .oooooooooo.          ",
"          .oooooooooo.          ",
"          ............          ",
"                                ",
"    O                     O     ",
"   OO    O            O   OO    ",
"  OO     O            O    OO   ",
"  OOOOOOOO            OOOOOOOO  ",
"  OO     O            O    OO   ",
"   OO    O            O   OO    ",
"    O                     O     ",
"                                ",
"                                ",
"                                ",
"                                ",
"                                ",
"                                ",
"                                ",
"                                ",
"                                ",
"                                "};
