/* XPM */
static char * cn_relative_hsize_xpm[] = {
"32 32 5 1",
" 	c white",
".	c #6185BAEAFFFF",
"X	c red",
"o	c black",
"O	c #DF7DDB6CDF7D",
"                                ",
"                                ",
"                                ",
"      ............XXXXXX        ",
"      .o.o......o.     X        ",
"      ............  X  X        ",
"      .OOOOOOOOOO.   X X        ",
"      .OOOOOOOOOO.    XX        ",
"      .OOOOOOOOOO.XXXXXX        ",
"      .OOOOOOOOOO.    XX        ",
"      .OOOOOOOOOO.   X X        ",
"      .OOOOOOOOOO.  X  X        ",
"      .OOOOOOOOOO.     X        ",
"      ............XXXXXX        ",
"                                ",
"                                ",
"                                ",
"                                ",
"                                ",
"          ...............XXXXXX ",
"          .o.o.........o.     X ",
"          ...............  X  X ",
"          .OOOOOOOOOOOOO.   X X ",
"          .OOOOOOOOOOOOO.    XX ",
"          .OOOOOOOOOOOOO.XXXXXX ",
"          .OOOOOOOOOOOOO.    XX ",
"          .OOOOOOOOOOOOO.   X X ",
"          .OOOOOOOOOOOOO.  X  X ",
"          .OOOOOOOOOOOOO.     X ",
"          ...............XXXXXX ",
"                                ",
"                                "};
