/* XPM */
static char * cn_strict_relative_pos_xpm[] = {
"32 32 5 1",
" 	c white",
".	c red",
"X	c #6185BAEAFFFF",
"o	c black",
"O	c #DF7DDB6CDF7D",
"                                ",
"     ...                        ",
"    .   .                       ",
"    . .X.XXXXXXXXX              ",
"    . .o.oXXXXXXoX              ",
"     ...XXXXXXXXXX              ",
"      X.OOOOOOOOOX              ",
"      X.OOOOOOOOOX              ",
"      X.OOOOOOOOOX              ",
"      XO.OOOOOOOOX              ",
"      XO.OOOOOOOOX              ",
"      XO.OOOOOOOOX              ",
"      XO.OOOOOOOOX              ",
"      XXX.XXXXXXXX              ",
"         .                      ",
"         .                      ",
"         .                      ",
"         ...                    ",
"        . . .                   ",
"        . .X.XXXXXXXXXXXX       ",
"        . Xo.oXXXXXXXXXoX       ",
"         ...XXXXXXXXXXXXX       ",
"          XOOOOOOOOOOOOOX       ",
"          XOOOOOOOOOOOOOX       ",
"          XOOOOOOOOOOOOOX       ",
"          XOOOOOOOOOOOOOX       ",
"          XOOOOOOOOOOOOOX       ",
"          XOOOOOOOOOOOOOX       ",
"          XOOOOOOOOOOOOOX       ",
"          XXXXXXXXXXXXXXX       ",
"                                ",
"                                "};
