/* XPM */
static char * cn_strict_relative_pos_xpm[] = {
"32 32 7 1",
" 	c white",
".	c #FFFF00000000",
"X	c #6185BAEAFFFF",
"o	c #000000000000",
"O	c #71C671C671C6",
"+	c #9E799A699E79",
"@	c #DF7DDB6CDF7D",
"                                ",
"                                ",
"                                ",
"      .XXXXXXXXXX.              ",
"      .oXoXoXXoXo.              ",
"      X.XXXXXXXXXX.             ",
"      X.         X.             ",
"      X .O+ ++   X .            ",
"      X . O+  OO+X .            ",
"      X O.+      X .            ",
"      X  .+ +@@  X  .           ",
"      X +O.@@+++ X  .           ",
"      X   .      X   .          ",
"      .XXX.XXXXXX.   .          ",
"      .    .     .    .         ",
"       .   .      .   .         ",
"       .    .     .   .         ",
"        .   .      .   .        ",
"        .    .     .   .        ",
"         .   .XXXXXX.XXX.       ",
"         .   XoXoXoX.oXo.       ",
"          .  XXXXXXXX.XXX       ",
"          .  X       .  X       ",
"          .  X +O+ ++.  X       ",
"           . X   O+  O.+X       ",
"           . X OO+    . X       ",
"            .X   + +@@ .X       ",
"            .X +OO@@+++.X       ",
"             .          .       ",
"             .XXXXXXXXXX.       ",
"                                ",
"                                "};
