/* XPM */
static char * window_height_sum_xpm[] = {
"32 32 7 1",
" 	c #FFFFFFFFFFFF",
".	c #6185BAEAFFFF",
"X	c #FFFF00000000",
"o	c #000000000000",
"O	c #71C671C671C6",
"+	c #9E799A699E79",
"@	c #DF7DDB6CDF7D",
"                                ",
"                                ",
"                                ",
"............   X ............   ",
".o.o.o..o.o.  XXX.o.o.o..o.o.   ",
"............ XXXXX...........   ",
".          . X X X OO+      .   ",
". +O+ ++   .   X .   + +@@  .   ",
".   O+  OO+.   X . +OO@@+++ .   ",
". OO+      .   X .          .   ",
".   + +@@  .   X ............   ",
". +OO@@+++ .   X                ",
".          .   X   ............ ",
"............   X   .o.o.o..o.o. ",
"               X   ............ ",
"  ............ X   .          . ",
"  .o.o.o..o.o. X   . +O+ ++   . ",
"  ............ X   .   O+  OO+. ",
"  . OO+      . X   . OO+      . ",
"  .   + +@@  X X X .   + +@@  . ",
"  . +OO@@+++ XXXXX . +OO@@+++ . ",
"  .          .XXX  .          . ",
"  ............ X   ............ ",
"                                ",
"                                ",
"                                ",
"                                ",
"                                ",
"                                ",
"                                ",
"                                ",
"                                "};
