/* XPM */
static char * cn_window_width_sum_xpm[] = {
"32 32 5 1",
" 	c white",
".	c #6185BAEAFFFF",
"X	c black",
"o	c #DF7DDB6CDF7D",
"O	c red",
"                                ",
"                  ........      ",
"                  .X.X..X.      ",
"     ............ ........      ",
"     .X.X......X. .oooooo.      ",
"     ............ .oooooo.      ",
"     .oooooooooo. .oooooo.      ",
"     .oooooooooo. .oooooo.      ",
"     .oooooooooo. .oooooo.      ",
"     .oooooooooo. .oooooo.      ",
"     .oooooooooo. .oooooo.      ",
"     .oooooooooo. ........      ",
"     .oooooooooo.               ",
"     ............               ",
"    O  OO             OO  O     ",
"    O OO               OO O     ",
"    OOOOOOOOOOOOOOOOOOOOOOO     ",
"    O OO               OO O     ",
"    O  OO             OO  O     ",
"              ............      ",
"              .X.X......X.      ",
"     ........ ............      ",
"     .X.X..X. .oooooooooo.      ",
"     .oooooo. .oooooooooo.      ",
"     .oooooo. .oooooooooo.      ",
"     .oooooo. .oooooooooo.      ",
"     .oooooo. .oooooooooo.      ",
"     .oooooo. .oooooooooo.      ",
"     .oooooo. ............      ",
"     .oooooo.                   ",
"     ........                   ",
"                                "};
