/* XPM */
static char*composition[]={
"32 32 4 1",
"b c #c3c3c3",
"# c #000000",
"a c #dcdcdc",
". c #ffffff",
"................................",
"................................",
"................................",
"................................",
"................................",
"................................",
"..############################..",
"..############################..",
"..############################..",
"..############################..",
"..############################..",
"..############################..",
"..############################..",
"..############################..",
"..########aa########aa########..",
"..#######aaaa######aaaa#######..",
"..########aa########aa########..",
"..############################..",
"..############################..",
"..############################..",
"..############################..",
"..############################..",
"..############################..",
"..#####bbbbbbbbbbbbbbbbbb#####..",
"..####bb################bb####..",
"..###bb##################bb###..",
"..############################..",
"................................",
"................................",
"................................",
"................................",
"................................"};
