/* XPM */
static char *noname[] = {
/* width height ncolors chars_per_pixel */
"16 16 3 1",
/* colors */
"  c #000000",
". c #FFFFFF",
"X c None",
/* pixels */
"XX XXXXXXXXXX XX",
"X . XXXXXXXX . X",
"  .. XXXXXX ..  ",
"X  .. XXXX ..  X",
"XX  .. XX ..  XX",
"XXX  ..  ..  XXX",
"XXXX  ....  XXXX",
"XXXXX  ..  XXXXX",
"XXXXX .... XXXXX",
"XXXX ..  .. XXXX",
"XXX ..    .. XXX",
"XX ..  XX  .. XX",
"X ..  XXXX  .. X",
" ..  XXXXXX  .  ",
"X   XXXXXXXX   X",
"XX XXXXXXXXXX XX"
};
