/* XPM */
static char *lizard2[] = {
/* width height num_colors chars_per_pixel */
"    32    32      118            2",
/* colors */
".. c #9fa92c",
".# c #6d7128",
".a c #976b27",
".b c #8c6b27",
".c c #865022",
".d c #9b862b",
".e c #585422",
".f c #725022",
".g c #1b4819",
".h c #a64122",
".i c #8c8c2b",
".j c #9d9d25",
".k c #716520",
".l c #3b5222",
".m c #8f4a22",
".n c #844119",
".o c #875422",
".p c #907b25",
".q c #8c952b",
".r c #785022",
".s c #5a4518",
".t c #6e4119",
".u c #a63c19",
".v c #806b27",
".w c #084a0f",
".x c #989228",
".y c #9b5a20",
".z c #847625",
".A c #394119",
".B c #8f3c19",
".C c #4f5f22",
".D c #9fa32c",
".E c #854522",
".F c #928c2a",
".G c #959927",
".H c #754119",
".I c #8c7b25",
".J c #464119",
".K c #8a5f20",
".L c #6e4518",
".M c #1b4119",
".N c #755a20",
".O c #593c19",
".P c #983c19",
".Q c #95a42e",
".R c #4f6522",
".S c #7f5022",
".T c #954122",
".U c #2b5419",
".V c #7e4119",
".W c #7a5a20",
".X c #926f27",
".Y c #684119",
".Z c #9c3c19",
".0 c #797826",
".1 c #4f5a22",
".2 c #5f6520",
".3 c #846528",
".4 c #92812c",
".5 c #604a18",
".6 c #6c5022",
".7 c #0e4519",
".8 c #84882d",
".9 c #9b9827",
"#. c #815a20",
"## c #848b2d",
"#a c #764518",
"#b c #4d4119",
"#c c #7e5f20",
"#d c #084c0e",
"#e c #8d5422",
"#f c #7f7625",
"#g c #2b4619",
"#h c #959627",
"#i c #6e5a20",
"#j c #883c19",
"#k c #9fa72c",
"#l c #5f6a20",
"#m c #854a22",
"#n c #968c2a",
"#o c #704a18",
"#p c #1b4819",
"#q c #6f5f20",
"#r c #3b5018",
"#s c #843c19",
"#t c #8f7625",
"#u c #695f20",
"#v c #764a18",
"#w c #5f4119",
"#x c #6c3c19",
"#y c #a63823",
"#z c #7e6528",
"#A c #939228",
"#B c #935422",
"#C c #3b5a22",
"#D c #959d2e",
"#E c #7c4518",
"#F c #90862b",
"#G c #763c19",
"#H c #8b7625",
"#I c #644518",
"#J c #0e4319",
"#K c #523c19",
"#L c #95a12e",
"#M c #804a22",
"#N c #2b5019",
"#O c #7b3c19",
"#P c #8d6f27",
"#Q c #663c19",
"#R c #9f3823",
"#S c #8a4122",
"#T c #916528",
"#U c #504a18",
"#V c #848625",
"#W c #8a4522",
"#X c #7f5422",
"#Y c #2b4119",
"#Z c #6a5422",
/* pixels */
"#y#y#y#y.u#j#j#j.P.Z.Z.u#y#y#y#y#y.u.P#s#O#O#s.B.Z.Z.u.u#y#y#y#y",
"#y.u.u#y.Z#G#K.O#x#O.B.P#y.u.u#y#y#y#y.B#G.O.O#x#O#s#j.P.Z.u#y#y",
".u#R.Z#R.P#x.A.M.M.J.O#O#j.B#R.u.u#y#y.Z#s#w.A.J.J.O.O#x#s.P.u#y",
".Z#O#j#j#j.Y#Y#J#J#J.M.A#Z#c#m.B.P.u.u.u#j#x.J#Y#Y#Y#Y.J#Q.B#y.u",
".B.O#x#G#G#K#Y.w.7#J#J.U###D#f.L#s.B.B.P#j#O.O.J#Y.M.M.M.O#j#y#y",
"#j.J#w.O.Y#b#Y#J.w.w#J#p#C.#.1.A#K#x#s#s#j#O#x#Q.J#Y.M.M#b#s.u#y",
".P#x#Q.Y#w.s.A#J.7#J#J#J.M#g#p#p.A.J#K#Q#G#O.V#c#Z.J#Y.M.J#x.Z.u",
"#y.P#s#s#M.z.5.A#Y#Y#Y#Y#Y.M.M.M.M#Y#Y.J#b#Q#c.G.F.6.J#Y#Y#K#O.P",
"#y#y.Z#R#B.j#X#x#Q.O#w#b#b.J.A.A.A#Y.A#Y.A#K.6.I#H.L.O.A.A.A.O#O",
"#y.u.Z.P.T#B.B#j#s#s#O#O#G#x#x.L.f#w.O#b#K#b#w#o.L#G#x.O.J.J#b#Q",
".u#R.P.B.B#j#j#j#s#j#s#s#j#s.n.3#n.S#O#O#G#G#G#O#O#s#s#s#G#G#G#x",
".u#R.B#s#O#O.n.K.o#m#s#s#s#s.n#e.K#W#j.n.E.o#e#S#j.B.P.P.B.B.P.B",
".u.P#s#x#Q.Y.z...D.F.r#G#x#G#s.n.E#j#j#W.4.9.9.X#T.m.Z#y.Z#R.Z.Z",
".P#G#Q.J#Y.l.q...Q...k.J.J#b.Y#G#O#s#s.K#k.j.......d.h#y#y.u#y.u",
"#j#K.A.M#J.7#l#L#L.q#r.M#J.M#Y.J.O#G#O.o.D#k...Q..#k.a.h#y#y#y#y",
"#j.A#Y.M.M.M.7#C#C.U.7#J#J#J#J.M#Y.J.Y.H#c.F.........D.y.u#y#y#y",
".B.O.J.A#Y#Y#Y#Y.M#Y.M.M#J#J.M.M.M#Y.A#b.Y.W.G.........a.u.u#y#y",
".Z#G#Q.O.A.A.J#K.J#b.J.J.A.A#Y#Y#Y.M#Y#Y.J#b#q.i.Q....#t.P#y.u#y",
".u.B#O#x#b.J.J.O#Q#x#Q#Q#Q.O#b.O#b.J.J#Y#Y#Y.A#u#L.Q..#z#j.P.u#y",
"#y#R#j#s#x.O.J#b#w#x#x#G#G#G.t.W.v#o#Q#K.J.A#Y#g.2##.0#U#x#j.P.u",
"#y.u.P.B#O#x.O.J.J.J.Y#Q.H#G#X#h...I#o#x.O#b.A#Y.M#N#p.M.J#Q#j#R",
"#y.u#R.B#s#O#G.O.J#Y.A#b#Q#x#a.I#L.j.v.L#x.O.O.J#Y.M.7#J#J.A#x.B",
".u#R.P.P#j#s#O.H.6.k#g.M#Y.J.Y#o#F..#F#v#x.Y#Q#b.J#Y#J#J.w#Y.O#j",
"#y#j#j#j#s#s#E.K#A..#V.2#p.M#Y#b#o#H#c.H#G#x.Y.O#K.J#Y#J#J.J#G#R",
".P#x#x#O#s#O.b..#k.......C#J#J.M.A.s.t.H#x#G#x.Y.O.J.A.A.A#x#j#y",
".B#K.J#Q#G.V.p.Q...Q..#L.e.M.w.w#J#Y.J.Y#x.H#x.t#I#i#i#i.t#j.Z#y",
".P.O#Y.A.J.Y.S#t.I.j...Q.N.A.M.w.w.w#J.A#b#Q#G#a#H.G#L#h.o.u#y#y",
".Z#O.J#N#g.A#w#a.V#..x.I#E.Y.A#p.w#d.w#J#Y#w#O#E#A.....j.o.Z#y#y",
".u.B.r#V.R.g#Y.O#x.V#E#E.n#s#G#b.M.w#d.w#Y.O#s.n.c#t#P.o.n.B.Z#y",
"#y#y#T#D.8#g.M.A.Y#G#s#j#j.B.B#s#w#Y.w.w#Y#G.Z.B.B.B.B.P.B.P.u#y",
"#y#y.h.a#v#b#Y.J#G#s.B.P#R.P.Z.P#j#x.A.M#Y#G.u#y.u#y#y#y#y#y#y#y",
"#y#y#y.u.Z#s#Q#x.P.Z#y#y.u#y.Z#R.P.B#G#b.J#G.Z#y#y#y#y.u#y#y#y#y"
};
SIMPLE  =                    T                                                  BITPIX  =                    8                                                  NAXIS   =                    2                                                  NAXIS1  =                   32                                                  NAXIS2  =                   32                                                  HISTORY Written by XV 3.10a                                                     END                                                                                                                                                                                                                                                                                                                                                                                                                                                                                                                                                                                                                                                                                                                                                                                                                                                                                                                                                                                                                                                                                                                                                                                                                                                                                                                                                                                                                                                                                                                                                                                                                                                                                                                                                                                                                                                                                                                                                                                                                                                                                                                                                                                                                                                                                                                                                                                                                                                                                             ZZZZWODGVWZZZZWXVSJ><JWZZZZZZZZZZZ^oQ>3<JOSVXVWVPG8-3JZZZZZZZZZZZZjàx5-8HJOPPSSOE3**3JWSSSSVSVZZZSVvR13@GOPPQOJ>-***3@OQ[qn]QSWZWL<:58ENO^ÉsPH81****3ELPÅííä]WZZV@38<HXqsäíåZ8-****8>DJNpÖäÑ]ZZZS><DJOtåíåíäM-***3<HGLGJHWWWJPWZVGGLOLkíëíííO**-8EJLGJGH@<888GPZZPPPOOPcÅívX1-3>Op_LJGH@><3**<JXZXVVPOLLR^5-3<HO{í{QGHD><3***3@PZZXSOLJ@<38>DGNsäägLG@@<3-+**8GSZZVSLG@<<<HDLJZÑísOG@>83-:1-<DPXZXPOG@<>EGGJJJJ[gOD><835XykDGPVZZSLG><<@DGDDD@>@><<3338XäåídPVZZWJD@88<><><<88333-33<>Z|åííqVZZZS@<83333-3--**---38>H[ÖííííoZZZZP83---+FF<+****-3<HL_~ííííègZZZZP>8-*+ZääÅ@-*-3<@JL]èëíåíëo^ZZZZVJD<3BÅíåí^<<>HJLOOcëäííí^ZZZZZZVOGDHníè~VJGJOQUPPWyááoj[WZWXWWZXSOLLQc]XOOOOQ_cWPQU]_UPSVVSSVSZXVSSPPPOPOOPOQfÄXLLJJJLLOOOJJJGZZWVYaSPOOLLJGGLTE@>>>EOLJG@<<>DZZWXaäZGD@E>><8883838>RspL@888@LZVOOVnI833333----33<>D_Ö~R<33>LVVGDHEE8*+***-5118<>DJLO_S<3-<GWZP<E@H>3****1FdM8>GOOPLGD<3-->OZZS@GJJ>3*+**<yàlLOSSVPL@<3---@PZZWLPPPH3***-8S_XSVZZZPG<3333<DSZZZXWXVG8--<@LPSXZZZZWOE8<<@@GOVZZZZZZWJ>@GLSVZZZZZZZSJ@@GLOPVWZZZZZZZZPPPVWWZZZZZZZVOLLOSWWZZZZZZ                                                                                                                                                                                                                                                                                                                                                                                                                                                                                                                                                                                                                                                                                                                                                                                                                                                                                                                                                                                                                                                                                                                                                                                                                                                                                                                                                                                                                                                                                                                                                                                                                                                                                                                                                                                                                                                                                                                                