/* XPM */
static char * nonant_keys_xpm[] = {
"74 64 3 1",
" 	c #00000000FFFF",
".	c #000000000000",
"X	c #FFFFFFFF0000",
"                                                                          ",
"                                                                          ",
"                                                                          ",
"                                                                          ",
"                                                                          ",
"                                                                          ",
"      .................................................                   ",
"      .XXXXXXXXXXXXXX.XXXXXXXXXXXXXX.XXXXXXXXXXXXXXXXX.                   ",
"      .XXXXXXXXXXXXXX.XXXXXXXXXXXXXX.XXXXXXXXXXXXXXXXX.                   ",
"      .XXX..XXX..XXXX.XXXX......XXXX.XXXXXXX...XXXXXXX.                   ",
"      .XXX..XXX..XXXX.XXXXXX..XXXXXX.XXXXXX..X..XXXXXX.                   ",
"      .XXX..XXX..XXXX.XXXXXX..XXXXXX.XXXXX..XXX..XXXXX.                   ",
"      .XXX..XXX..XXXX.XXXXXX..XXXXXX.XXXXX..XXX..XXXXX.                   ",
"      .XXX..XXX..XXXX.XXXXXX..XXXXXX.XXXXX..XXX..XXXXX.                   ",
"      .XXX..XXX..XXXX.XXXXXX..XXXXXX.XXXXX..XXX..XXXXX.                   ",
"      .XXX..XXX..XXXX.XXXXXX..XXXXXX.XXXXX..XXX..XXXXX.                   ",
"      .XXX..XXX..XXXX.XXXXXX..XXXXXX.XXXXXX..X..XXXXXX.                   ",
"      .XXXX.....XXXXX.XXXX......XXXX.XXXXXXX...XXXXXXX.                   ",
"      .XXXXXXXXXXXXXX.XXXXXXXXXXXXXX.XXXXXXXXXXXXXXXXX.                   ",
"      .XXXXXXXXXXXXXX.XXXXXXXXXXXXXX.XXXXXXXXXXXXXXXXX.                   ",
"      .XXXXXXXXXXXXXX.XXXXXXXXXXXXXX.XXXXXXXXXXXXXXXXX.                   ",
"      .......................................................             ",
"               .XXXXXXXXXXXXX.XXXXXXXXXXXXXXX.XXXXXXXXXXXXXX.             ",
"               .XXXXXXXXXXXXX.XXXXXXXXXXXXXXX.XXXXXXXXXXXXXX.             ",
"               .XXXXXXXXXXXXX.XXXXXXXXXXXXXXX.XXXXXXXXXXXXXX.             ",
"               .XXXXXXXXXXXXX.XXXXXXXXXXXXXXX.XXXXXXXXXXXXXX.             ",
"               .XXXXXXXXXXXXX.XXXXXXXXXXXXXXX.XXXXXXXXXXXXXX.             ",
"               .XXXX....XXXXX.XXXX..XXX..XXXX.XXXX..XXXXXXXX.             ",
"               .XXXXXX..XXXXX.XXXX..XX..XXXXX.XXXX..XXXXXXXX.             ",
"               .XXXXXX..XXXXX.XXXX..X..XXXXXX.XXXX..XXXXXXXX.             ",
"               .XXXXXX..XXXXX.XXXX....XXXXXXX.XXXX..XXXXXXXX.             ",
"               .XXXXXX..XXXXX.XXXX...XXXXXXXX.XXXX..XXXXXXXX.             ",
"               .XXXXXX..XXXXX.XXXX....XXXXXXX.XXXX..XXXXXXXX.             ",
"               .XX..XX..XXXXX.XXXX..X..XXXXXX.XXXX..XXXXXXXX.             ",
"               .XX..XX..XXXXX.XXXX..XX..XXXXX.XXXX..XXXXXXXX.             ",
"               .XXX....XXXXXX.XXXX..XXX..XXXX.XXXX......XXXX.             ",
"               .XXXXXXXXXXXXX.XXXXXXXXXXXXXXX.XXXXXXXXXXXXXX.             ",
"               .XXXXXXXXXXXXX.XXXXXXXXXXXXXXX.XXXXXXXXXXXXXX.             ",
"               .XXXXXXXXXXXXX.XXXXXXXXXXXXXXX.XXXXXXXXXXXXXX.             ",
"               .XXXXXXXXXXXXX.XXXXXXXXXXXXXXX.XXXXXXXXXXXXXX.             ",
"               .....................................................      ",
"                      .XXXXXXXXXXXXXXX.XXXXXXXXXXXXX.XXXXXXXXXXXXXX.      ",
"                      .XXXXXXXXXXXXXXX.XXXXXXXXXXXXX.XXXXXXXXXXXXXX.      ",
"                      .XXXXXXXXXXXXXXX.XXXXXXXXXXXXX.XXXXXXXXXXXXXX.      ",
"                      .XXXXXXXXXXXXXXX.XXXXXXXXXXXXX.XXXXXXXXXXXXXX.      ",
"                      .XXX..XXX..XXXXX.XXXXXXXXXXXXX.XXXXXXXXXXXXXX.      ",
"                      .XXX..XXX..XXXXX.XXXXXXXXXXXXX.XXXXXXXXXXXXXX.      ",
"                      .XXX...X...XXXXX.XXXXXXXXXXXXX.XXXXXXXXXXXXXX.      ",
"                      .XXX...X...XXXXX.XXXXXXXXXXXXX.XXXXXXXXXXXXXX.      ",
"                      .XXX..X.X..XXXXX.XXXXXXXXXXXXX.XXXXXXXXXXXXXX.      ",
"                      .XXX..X.X..XXXXX.XXXXXXXXXXXXX.XXXXXXXXXXXXXX.      ",
"                      .XXX..XXX..XXXXX.XXXXXXXXXXXXX.XXXXXXXXXXXXXX.      ",
"                      .XXX..XXX..XXXXX.XXXXX..XXXXXX.XXXXXXX..XXXXX.      ",
"                      .XXX..XXX..XXXXX.XXXXX..XXXXXX.XXXXXXX..XXXXX.      ",
"                      .XXXXXXXXXXXXXXX.XXXXX.XXXXXXX.XXXXXXXXXXXXXX.      ",
"                      .XXXXXXXXXXXXXXX.XXXX.XXXXXXXX.XXXXXXXXXXXXXX.      ",
"                      .XXXXXXXXXXXXXXX.XXXXXXXXXXXXX.XXXXXXXXXXXXXX.      ",
"                      .XXXXXXXXXXXXXXX.XXXXXXXXXXXXX.XXXXXXXXXXXXXX.      ",
"                      .XXXXXXXXXXXXXXX.XXXXXXXXXXXXX.XXXXXXXXXXXXXX.      ",
"                      ..............................................      ",
"                                                                          ",
"                                                                          ",
"                                                                          ",
"                                                                          "};
