/* XPM */
static char *noname[] = {
/* width height ncolors chars_per_pixel */
"16 16 3 1",
/* colors */
"  c #000000",
". c #FFFFFF",
"X c None",
/* pixels */
"         XXXXXXX",
" ...... XXXXXXXX",
"  .... XXXXXXXXX",
" . .. XXXXXXXXXX",
"  . .. XXXXXXXXX",
" .   .. XXXXXXXX",
"   X  .. XXXXXXX",
"  XXX  .. XXXXX ",
" XXXXX  .. XXX  ",
"XXXXXXX  .. X . ",
"XXXXXXXX  .. .. ",
"XXXXXXXXX  .... ",
"XXXXXXXXXX  ... ",
"XXXXXXXXX  . .. ",
"XXXXXXXX  . . . ",
"XXXXXXX         "
};
