/* XPM */
static char *scwm-gnu-linux[] = {
/* width height num_colors chars_per_pixel */
"    20   140        2            1",
/* colors */
". c None s None",
"# c #eeeeee",
/* pixels */
"....................",
"................#...",
"......#........##...",
"......##......###...",
"......###...#####...",
"........#########...",
".........########...",
".........#####......",
"......########......",
"......#########.....",
"......####...####...",
"......###.....###...",
"......##.......##...",
"......#.........#...",
"....................",
"................#...",
"......###########...",
"......###########...",
"......###########...",
"......###########...",
"......##......###...",
"...............#....",
"...............##...",
"..............###...",
"......###########...",
"......###########...",
"......###########...",
"......#########.....",
".......#............",
"....................",
"....................",
".........########...",
"......###########...",
"......###########...",
".....############...",
"......###########...",
"......##............",
"......##............",
"......##........#...",
"......###########...",
"......###########...",
"......###########...",
"......###########...",
"......##.......##...",
"....................",
"....................",
"................#...",
".##...###########...",
"####.############...",
"####..###########...",
"####..###########...",
"......###########...",
"....................",
"....................",
".............###....",
"............#####...",
".............####...",
"...............##...",
"...............##...",
"...............##...",
"..#............##...",
"..###############...",
"..###############...",
"..###############...",
"..###############...",
"..###############...",
"..#.............#...",
"....................",
"....................",
"..##................",
"..####..............",
"....####............",
"......####..........",
"........###.........",
".........####.......",
"...........####.....",
".............####...",
"...............####.",
"................###.",
"..................#.",
"..#.................",
"..##########........",
"..#############.....",
"..##############....",
"..#...........###...",
"...............##...",
"...............##...",
"...............##...",
"...............##...",
"..#...........###...",
"..###############...",
"..###############...",
"..##############....",
"..#############.....",
"..##########........",
"..#.................",
"....................",
"....................",
"..#.................",
"..###############...",
"..###############...",
"..##.......######...",
"..#.......#######...",
".........#######....",
".......########.....",
"......#######.......",
"....########........",
"...#######..........",
"..#######...........",
"..#####.........#...",
"..###############...",
"..###############...",
"..###############...",
"..#.............#...",
"....................",
"....................",
".........##.........",
"...###...#######....",
"..####...########...",
"..###....########...",
"..#......########...",
".##......##....##...",
".##.......#....##...",
".###...........##...",
"..##...........##...",
"..###.........###...",
"..#####.....#####...",
"...#############....",
"...#############....",
"....###########.....",
".....########.......",
"........##..........",
"....................",
"....................",
"....................",
"....................",
"....................",
"....................",
"....................",
"...................."
};
