/* XPM */
static char*stop[]={
"32 32 2 1",
". c #ffffff",
"# c #ff0000",
"................................",
"................................",
"................................",
"................................",
"................................",
"................................",
"................................",
"................................",
"................................",
"................................",
"..........############..........",
"..........############..........",
"..........############..........",
"..........############..........",
"..........############..........",
"..........############..........",
"..........############..........",
"..........############..........",
"..........############..........",
"..........############..........",
"..........############..........",
"..........############..........",
"................................",
"................................",
"................................",
"................................",
"................................",
"................................",
"................................",
"................................",
"................................",
"................................"};
