/* XPM */
static char *twm-boxes[] = {
"20 20 2 1",
" 	s None c None",
".	c light gray",
"                    ",
"                    ",
"                    ",
"   ..............   ",
"   .    .   .   .   ",
"   .    .   .   .   ",
"   .    .   .   .   ",
"   .    .   .   .   ",
"   ......   .   .   ",
"   .        .   .   ",
"   .        .   .   ",
"   .        .   .   ",
"   ..........   .   ",
"   .            .   ",
"   .            .   ",
"   .            .   ",
"   ..............   ",
"                    ",
"                    ",
"                    "};
