/* XPM */
static char*win[]={
"16 16 3 1",
"a c #ffff00",
"# c #303030",
". c #0000ff",
"................",
".##############.",
".##############.",
".##############.",
".##############.",
".####aaaaaa####.",
".####aaaaaa####.",
".####aaaaaa####.",
".####aaaaaa####.",
".####aaaaaa####.",
".####aaaaaa####.",
".##############.",
".##############.",
".##############.",
".##############.",
"................"};
