/* XPM */
static char *twm-dot[] = {
"20 20 2 1",
" 	s None  c None",
".	c light gray",
"                    ",
"                    ",
"                    ",
"   ..............   ",
"   .            .   ",
"   .            .   ",
"   .    ....    .   ",
"   .   ......   .   ",
"   .  ........  .   ",
"   .  ........  .   ",
"   .  ........  .   ",
"   .  ........  .   ",
"   .   ......   .   ",
"   .    ....    .   ",
"   .            .   ",
"   .            .   ",
"   ..............   ",
"                    ",
"                    ",
"                    "};
