/* XPM */
static char * twm_x_xpm[] = {
"20 20 2 1",
" 	s None	c None",
".	c light gray",
"                    ",
"                    ",
"                    ",
"   ..............   ",
"   .            .   ",
"   .            .   ",
"   . ...      . .   ",
"   .  ...    .  .   ",
"   .   ...  .   .   ",
"   .    .. .    .   ",
"   .    . ..    .   ",
"   .   .  ...   .   ",
"   .  .    ...  .   ",
"   . .      ... .   ",
"   .            .   ",
"   .            .   ",
"   ..............   ",
"                    ",
"                    ",
"                    "};
